<svg width="162" height="42" viewBox="0 0 162 42" fill="none" xmlns="http://www.w3.org/2000/svg">
<path d="M11.7464 38.4151L11.7461 38.4148C10.2332 36.8073 7.34072 33.5365 4.82748 29.4548C2.31213 25.3697 0.189673 20.4932 0.189673 15.6702C0.189673 8.79495 5.79496 3.18967 12.6702 3.18967C19.7663 3.18967 25.4877 9.35531 25.1888 16.4206C24.9823 21.1336 22.8395 25.8517 20.3621 29.7899C17.8866 33.7253 15.0887 36.8635 13.5957 38.4132L13.594 38.4151C13.0999 38.9421 12.2405 38.9421 11.7464 38.4151ZM3.45206 15.7081C3.45206 20.8202 7.59598 24.9642 12.7081 24.9642C17.8208 24.9642 21.9642 20.8197 21.9642 15.6702C21.9642 10.5581 17.8202 6.41412 12.7081 6.41412C7.59547 6.41412 3.45206 10.5586 3.45206 15.7081Z" fill="#FB3333" stroke="#FB3333" stroke-width="0.379347"/>
<mask id="path-2-inside-1_2075_27149" fill="white">
<path d="M12.6702 3C5.6902 3 0 8.6902 0 15.6702C0 25.4194 8.57324 35.3203 11.608 38.5448C12.177 39.1517 13.1633 39.1517 13.7324 38.5448C16.7292 35.4341 24.961 25.9505 25.3783 16.4289C25.6818 9.25922 19.8778 3 12.6702 3ZM12.7081 24.7745C7.70074 24.7745 3.64173 20.7155 3.64173 15.7081C3.64173 10.6628 7.70074 6.60379 12.7081 6.60379C17.7155 6.60379 21.7745 10.6628 21.7745 15.6702C21.7745 20.7155 17.7155 24.7745 12.7081 24.7745Z"/>
</mask>
<path d="M12.6702 3C5.6902 3 0 8.6902 0 15.6702C0 25.4194 8.57324 35.3203 11.608 38.5448C12.177 39.1517 13.1633 39.1517 13.7324 38.5448C16.7292 35.4341 24.961 25.9505 25.3783 16.4289C25.6818 9.25922 19.8778 3 12.6702 3ZM12.7081 24.7745C7.70074 24.7745 3.64173 20.7155 3.64173 15.7081C3.64173 10.6628 7.70074 6.60379 12.7081 6.60379C17.7155 6.60379 21.7745 10.6628 21.7745 15.6702C21.7745 20.7155 17.7155 24.7745 12.7081 24.7745Z" fill="#FB3333"/>
<path d="M11.608 38.5448L11.8848 38.2853L11.8842 38.2848L11.608 38.5448ZM13.7324 38.5448L13.4591 38.2816L13.4556 38.2853L13.7324 38.5448ZM25.3783 16.4289L25.7573 16.4455L25.7573 16.4449L25.3783 16.4289ZM12.6702 2.62065C5.48069 2.62065 -0.379347 8.48069 -0.379347 15.6702H0.379347C0.379347 8.89971 5.89971 3.37935 12.6702 3.37935V2.62065ZM-0.379347 15.6702C-0.379347 20.6479 1.80567 25.6325 4.34294 29.7532C6.88443 33.8807 9.80548 37.1831 11.3318 38.8048L11.8842 38.2848C10.3758 36.682 7.49281 33.4217 4.98899 29.3554C2.48095 25.2822 0.379347 20.4417 0.379347 15.6702H-0.379347ZM11.3313 38.8042C12.0502 39.5711 13.2902 39.5711 14.0091 38.8042L13.4556 38.2853C13.0365 38.7324 12.3039 38.7324 11.8848 38.2853L11.3313 38.8042ZM14.0055 38.808C15.5148 37.2414 18.3406 34.0721 20.8438 30.0929C23.3432 26.1196 25.5444 21.3019 25.7573 16.4455L24.9993 16.4123C24.7949 21.0775 22.6716 25.7624 20.2016 29.689C17.7352 33.6096 14.9467 36.7376 13.4592 38.2816L14.0055 38.808ZM25.7573 16.4449C26.0696 9.06671 20.1006 2.62065 12.6702 2.62065V3.37935C19.655 3.37935 25.2939 9.45173 24.9993 16.4128L25.7573 16.4449ZM12.7081 24.3952C7.91025 24.3952 4.02108 20.506 4.02108 15.7081H3.26238C3.26238 20.925 7.49123 25.1538 12.7081 25.1538V24.3952ZM4.02108 15.7081C4.02108 10.8713 7.91128 6.98314 12.7081 6.98314V6.22445C7.4902 6.22445 3.26238 10.4543 3.26238 15.7081H4.02108ZM12.7081 6.98314C17.506 6.98314 21.3952 10.8723 21.3952 15.6702H22.1538C22.1538 10.4533 17.925 6.22445 12.7081 6.22445V6.98314ZM21.3952 15.6702C21.3952 20.507 17.505 24.3952 12.7081 24.3952V25.1538C17.926 25.1538 22.1538 20.924 22.1538 15.6702H21.3952Z" fill="#FB3333" mask="url(#path-2-inside-1_2075_27149)"/>
<rect x="3.41406" y="6.03479" width="18.9673" height="19.726" rx="6.82824" fill="#FB3333"/>
<path d="M9.85792 13.5799C7.82816 15.5933 7.82816 18.858 9.85792 20.8714C11.5474 22.5474 14.1104 22.828 16.0925 21.7139C16.7469 21.3461 17.5888 21.3313 18.1088 21.8471L18.3058 22.0425C18.8359 22.5684 18.8339 23.4273 18.2338 23.8476C15.0475 26.0789 10.6112 25.78 7.7597 22.9515C4.57176 19.7891 4.57176 14.6622 7.7597 11.4998C10.6112 8.67128 15.0475 8.37246 18.2338 10.6037C18.8339 11.024 18.8359 11.8829 18.3058 12.4088L18.1088 12.6042C17.5888 13.12 16.7469 13.1052 16.0925 12.7374C14.1104 11.6233 11.5474 11.904 9.85792 13.5799Z" fill="white" stroke="white" stroke-width="0.11639"/>
<mask id="mask0_2075_27149" style="mask-type:alpha" maskUnits="userSpaceOnUse" x="0" y="3" width="26" height="36">
<path d="M11.7464 38.4151L11.7461 38.4148C10.2332 36.8073 7.34072 33.5365 4.82748 29.4548C2.31213 25.3697 0.189673 20.4932 0.189673 15.6702C0.189673 8.79495 5.79496 3.18967 12.6702 3.18967C19.7663 3.18967 25.4877 9.35531 25.1888 16.4206C24.9823 21.1336 22.8395 25.8517 20.3621 29.7899C17.8866 33.7253 15.0887 36.8635 13.5957 38.4132L13.594 38.4151C13.0999 38.9421 12.2405 38.9421 11.7464 38.4151ZM5.9055 18.6335C4.6746 17.5016 3.85141 16.3192 3.84872 15.1449C3.85789 14.9961 3.87068 14.8484 3.88698 14.7018C4.06191 13.6977 4.82328 12.7364 5.89868 11.8386C7.12168 10.8175 8.70692 9.91478 10.1491 9.16182C10.6381 8.90652 11.108 8.66979 11.5412 8.45151C11.7468 8.34791 11.9442 8.24846 12.1315 8.15315C12.7088 7.85933 13.1942 7.60282 13.5119 7.3911C13.6679 7.28712 13.801 7.18274 13.8819 7.07914C13.9226 7.02706 13.9626 6.9596 13.9734 6.87964C13.9855 6.78957 13.9575 6.70497 13.8984 6.63884C13.8457 6.57983 13.7752 6.54275 13.7074 6.51743C13.6374 6.49129 13.5544 6.47192 13.4611 6.45727C13.2747 6.42795 13.0248 6.41412 12.7081 6.41412C7.95215 6.41412 4.0349 10.0005 3.51148 14.6461C3.48413 14.8064 3.46971 14.9688 3.46937 15.1332C3.45788 15.3233 3.45206 15.515 3.45206 15.7081C3.45206 20.8202 7.59598 24.9642 12.7081 24.9642C13.0261 24.9642 13.2791 24.9461 13.4693 24.9076C13.6476 24.8715 13.8196 24.8085 13.9123 24.6763C14.0241 24.5167 13.9713 24.3429 13.8936 24.2177C13.8159 24.0924 13.6853 23.9631 13.5278 23.8325C13.2094 23.5683 12.7233 23.2518 12.1451 22.8947C11.8649 22.7217 11.5512 22.532 11.2203 22.3319C10.8794 22.1257 10.5202 21.9085 10.1608 21.6873C8.71759 20.7987 7.13059 19.76 5.9055 18.6335Z" fill="#FB3333" stroke="#FB3333" stroke-width="0.379347"/>
</mask>
<g mask="url(#mask0_2075_27149)">
<path d="M28.7528 26.0611C28.8491 25.9892 28.9247 25.9021 28.983 25.8079C29.0389 25.7122 29.0804 25.6046 29.0988 25.4859C29.1273 25.3045 29.1061 25.1138 29.0265 24.9485C28.9035 24.6934 28.6571 24.5203 28.4059 24.3903C26.7 23.5076 26.1609 23.2284 24.491 22.276C23.6147 21.776 22.7134 21.3335 21.8385 20.8311C21.0322 20.3683 20.2002 19.8917 19.4789 19.3005C19.0163 18.9211 18.5647 18.4883 18.3776 17.9046C18.3268 17.7469 18.2947 17.5826 18.2299 17.4306C17.8979 16.6505 16.7929 16.3013 16.0829 15.9565C15.3434 15.5967 14.048 14.9031 13.2268 14.4941C13.1227 14.4423 12.9963 14.4799 12.9369 14.5805C12.9359 14.5821 12.9349 14.5837 12.934 14.5852C12.8717 14.6906 12.9056 14.8267 13.0111 14.8897L16.2643 16.8457C16.366 16.9069 16.3988 17.0386 16.3377 17.1403C16.2765 17.242 16.1448 17.2747 16.0431 17.2136L12.7944 15.2597C12.6887 15.1961 12.5507 15.2305 12.4881 15.3373L12.4696 15.3689C12.4073 15.4742 12.4419 15.6102 12.5466 15.6727L15.7953 17.6266C15.897 17.6877 15.9298 17.8194 15.8686 17.9211C15.8074 18.0228 15.6758 18.0556 15.5741 17.9944L12.3253 16.0405C12.2205 15.9774 12.0842 16.0107 12.0209 16.1149L12.0017 16.1461C11.9373 16.2512 11.9711 16.3895 12.0767 16.453L15.3261 18.4067C15.4278 18.4679 15.4606 18.5996 15.3994 18.7013C15.3382 18.803 15.2066 18.8358 15.1049 18.7746L11.8513 16.8172C11.7464 16.7542 11.6101 16.7874 11.5463 16.8918C11.5453 16.8934 11.5444 16.895 11.5434 16.8966C11.483 16.996 11.5083 17.1249 11.603 17.1932C12.3493 17.7269 13.569 18.5454 14.2336 19.0306C14.8716 19.4961 15.698 20.3085 16.542 20.2362C16.7067 20.2222 16.8671 20.1742 17.0299 20.1445C17.6332 20.0362 18.2272 20.2323 18.7792 20.4631C19.6402 20.823 20.4506 21.3347 21.2372 21.83C22.0911 22.3673 22.9044 22.956 23.7569 23.4958C25.3801 24.524 25.8803 24.8697 27.4595 25.9629C27.6921 26.1239 27.9605 26.2605 28.2436 26.2495C28.4275 26.2422 28.6058 26.1715 28.7527 26.0613L28.7528 26.0611Z" fill="white"/>
</g>
<path d="M45.9209 13.4531H46.8818C46.8037 14.2188 46.5928 14.8802 46.249 15.4375C45.9053 15.9896 45.4365 16.4141 44.8428 16.7109C44.249 17.0078 43.5329 17.1562 42.6943 17.1562C42.0485 17.1562 41.4626 17.0339 40.9365 16.7891C40.4157 16.5443 39.9678 16.1979 39.5928 15.75C39.2178 15.2969 38.9287 14.7552 38.7256 14.125C38.5225 13.4948 38.4209 12.7943 38.4209 12.0234V10.6016C38.4209 9.83073 38.5225 9.13281 38.7256 8.50781C38.9287 7.8776 39.2204 7.33594 39.6006 6.88281C39.9808 6.42969 40.4365 6.08073 40.9678 5.83594C41.499 5.59115 42.098 5.46875 42.7646 5.46875C43.5719 5.46875 44.2699 5.61719 44.8584 5.91406C45.4469 6.20573 45.9105 6.6276 46.249 7.17969C46.5928 7.73177 46.8037 8.39844 46.8818 9.17969H45.9209C45.848 8.5651 45.6865 8.04427 45.4365 7.61719C45.1865 7.1901 44.8402 6.86458 44.3975 6.64062C43.96 6.41146 43.4157 6.29688 42.7646 6.29688C42.2334 6.29688 41.7594 6.39844 41.3428 6.60156C40.9261 6.80469 40.5719 7.09635 40.2803 7.47656C39.9886 7.85156 39.7646 8.30208 39.6084 8.82812C39.4574 9.35417 39.3818 9.9401 39.3818 10.5859V12.0234C39.3818 12.6484 39.4548 13.224 39.6006 13.75C39.7464 14.276 39.96 14.7318 40.2412 15.1172C40.5277 15.5026 40.8766 15.8021 41.2881 16.0156C41.6995 16.2292 42.1683 16.3359 42.6943 16.3359C43.3662 16.3359 43.9261 16.2292 44.374 16.0156C44.8271 15.7969 45.1787 15.474 45.4287 15.0469C45.6787 14.6198 45.8428 14.0885 45.9209 13.4531ZM54.1475 15.4844V11.125C54.1475 10.724 54.0641 10.3776 53.8975 10.0859C53.7308 9.79427 53.486 9.57031 53.1631 9.41406C52.8402 9.25781 52.4417 9.17969 51.9678 9.17969C51.5303 9.17969 51.1396 9.25781 50.7959 9.41406C50.4574 9.5651 50.1891 9.77083 49.9912 10.0312C49.7985 10.2865 49.7021 10.5703 49.7021 10.8828L48.7646 10.875C48.7646 10.5573 48.8428 10.25 48.999 9.95312C49.1553 9.65625 49.3766 9.39062 49.6631 9.15625C49.9495 8.92188 50.2907 8.73698 50.6865 8.60156C51.0876 8.46094 51.5277 8.39062 52.0068 8.39062C52.611 8.39062 53.1423 8.49219 53.6006 8.69531C54.0641 8.89844 54.4261 9.20312 54.6865 9.60938C54.9469 10.0156 55.0771 10.526 55.0771 11.1406V15.2266C55.0771 15.5182 55.098 15.8203 55.1396 16.1328C55.1865 16.4453 55.2516 16.7031 55.335 16.9062V17H54.3428C54.2803 16.8125 54.2308 16.5781 54.1943 16.2969C54.1631 16.0104 54.1475 15.7396 54.1475 15.4844ZM54.3662 12.0781L54.3818 12.7969H52.5459C52.0667 12.7969 51.637 12.8411 51.2568 12.9297C50.8818 13.013 50.5641 13.138 50.3037 13.3047C50.0433 13.4661 49.8428 13.6615 49.7021 13.8906C49.5667 14.1198 49.499 14.3802 49.499 14.6719C49.499 14.974 49.5745 15.25 49.7256 15.5C49.8818 15.75 50.1006 15.9505 50.3818 16.1016C50.6683 16.2474 51.0068 16.3203 51.3975 16.3203C51.9183 16.3203 52.3766 16.224 52.7725 16.0312C53.1735 15.8385 53.5042 15.5859 53.7646 15.2734C54.0251 14.9609 54.1995 14.6198 54.2881 14.25L54.6943 14.7891C54.6266 15.0495 54.5016 15.3177 54.3193 15.5938C54.1423 15.8646 53.9105 16.1198 53.624 16.3594C53.3376 16.5938 52.999 16.7865 52.6084 16.9375C52.223 17.0833 51.7855 17.1562 51.2959 17.1562C50.7438 17.1562 50.262 17.0521 49.8506 16.8438C49.4443 16.6354 49.1266 16.3516 48.8975 15.9922C48.6735 15.6276 48.5615 15.2161 48.5615 14.7578C48.5615 14.3411 48.6501 13.9688 48.8271 13.6406C49.0042 13.3073 49.2594 13.026 49.5928 12.7969C49.9313 12.5625 50.3376 12.3854 50.8115 12.2656C51.2907 12.1406 51.8271 12.0781 52.4209 12.0781H54.3662ZM58.4678 10.2969V17H57.5303V8.54688H58.4287L58.4678 10.2969ZM58.2959 12.25L57.8428 12.0156C57.874 11.5156 57.9678 11.0469 58.124 10.6094C58.2855 10.1719 58.5094 9.78646 58.7959 9.45312C59.0824 9.11979 59.4261 8.85938 59.8271 8.67188C60.2282 8.48438 60.6839 8.39062 61.1943 8.39062C61.6058 8.39062 61.9782 8.44792 62.3115 8.5625C62.6501 8.67188 62.9365 8.84635 63.1709 9.08594C63.4105 9.32031 63.5954 9.6276 63.7256 10.0078C63.8558 10.388 63.9209 10.8438 63.9209 11.375V17H62.9912V11.4062C62.9912 10.8438 62.9027 10.4036 62.7256 10.0859C62.5537 9.76823 62.3115 9.54167 61.999 9.40625C61.6917 9.27083 61.335 9.20312 60.9287 9.20312C60.4495 9.20312 60.0433 9.30208 59.71 9.5C59.3818 9.69271 59.1136 9.94531 58.9053 10.2578C58.7021 10.5651 58.5511 10.8958 58.4521 11.25C58.3532 11.599 58.3011 11.9323 58.2959 12.25ZM63.9131 11.5156L63.2881 11.5312C63.3141 11.1198 63.4079 10.7266 63.5693 10.3516C63.736 9.97656 63.9626 9.64323 64.249 9.35156C64.5355 9.05469 64.8766 8.82031 65.2725 8.64844C65.6735 8.47656 66.124 8.39062 66.624 8.39062C67.0615 8.39062 67.4521 8.45052 67.7959 8.57031C68.1396 8.6849 68.4287 8.86979 68.6631 9.125C68.9027 9.375 69.085 9.69531 69.21 10.0859C69.335 10.4766 69.3975 10.9453 69.3975 11.4922V17H68.46V11.4844C68.46 10.8854 68.3714 10.4219 68.1943 10.0938C68.0225 9.76042 67.7829 9.52865 67.4756 9.39844C67.1683 9.26823 66.8089 9.20312 66.3975 9.20312C65.9912 9.20833 65.6344 9.28385 65.3271 9.42969C65.0199 9.57031 64.762 9.75781 64.5537 9.99219C64.3506 10.2214 64.1943 10.4688 64.085 10.7344C63.9808 11 63.9235 11.2604 63.9131 11.5156ZM72.6943 10.1719V20.25H71.7568V8.54688H72.6318L72.6943 10.1719ZM78.5693 12.6953V12.8594C78.5693 13.4896 78.4964 14.0677 78.3506 14.5938C78.2048 15.1198 77.9938 15.5755 77.7178 15.9609C77.4469 16.3411 77.111 16.6354 76.71 16.8438C76.3089 17.0521 75.8532 17.1562 75.3428 17.1562C74.8376 17.1562 74.387 17.0781 73.9912 16.9219C73.5954 16.7656 73.2542 16.5443 72.9678 16.2578C72.6865 15.9661 72.46 15.6276 72.2881 15.2422C72.1214 14.8516 72.0042 14.4245 71.9365 13.9609V11.7969C72.0146 11.2865 72.1423 10.8229 72.3193 10.4062C72.4964 9.98958 72.723 9.63021 72.999 9.32812C73.2803 9.02604 73.6136 8.79427 73.999 8.63281C74.3844 8.47135 74.8245 8.39062 75.3193 8.39062C75.835 8.39062 76.2933 8.49219 76.6943 8.69531C77.1006 8.89323 77.4417 9.18229 77.7178 9.5625C77.999 9.9375 78.21 10.3906 78.3506 10.9219C78.4964 11.4479 78.5693 12.0391 78.5693 12.6953ZM77.6318 12.8594V12.6953C77.6318 12.2005 77.5798 11.7422 77.4756 11.3203C77.3766 10.8984 77.223 10.5312 77.0146 10.2188C76.8115 9.90104 76.5511 9.65365 76.2334 9.47656C75.9209 9.29948 75.5485 9.21094 75.1162 9.21094C74.6683 9.21094 74.2855 9.28646 73.9678 9.4375C73.6553 9.58333 73.3949 9.77865 73.1865 10.0234C72.9782 10.263 72.8141 10.526 72.6943 10.8125C72.5745 11.099 72.486 11.3802 72.4287 11.6562V14.1484C72.5277 14.5443 72.6865 14.9115 72.9053 15.25C73.124 15.5833 73.4157 15.8516 73.7803 16.0547C74.1501 16.2526 74.6006 16.3516 75.1318 16.3516C75.5589 16.3516 75.9287 16.263 76.2412 16.0859C76.5537 15.9089 76.8115 15.6615 77.0146 15.3438C77.223 15.026 77.3766 14.6562 77.4756 14.2344C77.5798 13.8125 77.6318 13.3542 77.6318 12.8594ZM86.0615 15.0469V8.54688H86.999V17H86.1006L86.0615 15.0469ZM86.2334 13.4844L86.7178 13.4688C86.7178 14 86.6553 14.4896 86.5303 14.9375C86.4053 15.3854 86.21 15.776 85.9443 16.1094C85.6787 16.4427 85.335 16.7005 84.9131 16.8828C84.4912 17.0651 83.9834 17.1562 83.3896 17.1562C82.9782 17.1562 82.6006 17.099 82.2568 16.9844C81.9183 16.8646 81.6266 16.6771 81.3818 16.4219C81.137 16.1667 80.9469 15.8359 80.8115 15.4297C80.6813 15.0234 80.6162 14.5312 80.6162 13.9531V8.54688H81.5459V13.9688C81.5459 14.4219 81.5954 14.7995 81.6943 15.1016C81.7985 15.4036 81.9391 15.6458 82.1162 15.8281C82.2985 16.0104 82.5068 16.1406 82.7412 16.2188C82.9756 16.2969 83.2282 16.3359 83.499 16.3359C84.1865 16.3359 84.7282 16.2031 85.124 15.9375C85.5251 15.6719 85.8089 15.3229 85.9756 14.8906C86.1475 14.4531 86.2334 13.9844 86.2334 13.4844ZM94.5068 14.8438C94.5068 14.6146 94.4495 14.388 94.335 14.1641C94.2204 13.9401 93.999 13.7344 93.6709 13.5469C93.348 13.3594 92.8714 13.2005 92.2412 13.0703C91.7725 12.9661 91.3532 12.849 90.9834 12.7188C90.6188 12.5885 90.3115 12.4323 90.0615 12.25C89.8115 12.0677 89.6214 11.849 89.4912 11.5938C89.361 11.3385 89.2959 11.0365 89.2959 10.6875C89.2959 10.375 89.3636 10.0807 89.499 9.80469C89.6396 9.52344 89.8376 9.27865 90.0928 9.07031C90.3532 8.85677 90.6657 8.6901 91.0303 8.57031C91.4001 8.45052 91.8141 8.39062 92.2725 8.39062C92.9235 8.39062 93.4808 8.5026 93.9443 8.72656C94.4131 8.94531 94.7699 9.24479 95.0146 9.625C95.2646 10.0052 95.3896 10.4349 95.3896 10.9141H94.46C94.46 10.6224 94.374 10.3464 94.2021 10.0859C94.0355 9.82552 93.7881 9.61198 93.46 9.44531C93.137 9.27865 92.7412 9.19531 92.2725 9.19531C91.7881 9.19531 91.3949 9.26823 91.0928 9.41406C90.7907 9.5599 90.5693 9.74479 90.4287 9.96875C90.2933 10.1927 90.2256 10.4245 90.2256 10.6641C90.2256 10.8516 90.2542 11.0234 90.3115 11.1797C90.374 11.3307 90.4834 11.4714 90.6396 11.6016C90.8011 11.7318 91.0303 11.8542 91.3271 11.9688C91.624 12.0833 92.0094 12.1953 92.4834 12.3047C93.1657 12.4557 93.723 12.6406 94.1553 12.8594C94.5928 13.0729 94.9157 13.3385 95.124 13.6562C95.3324 13.9688 95.4365 14.349 95.4365 14.7969C95.4365 15.1458 95.3636 15.4661 95.2178 15.7578C95.0719 16.0443 94.861 16.2917 94.585 16.5C94.3141 16.7083 93.986 16.8698 93.6006 16.9844C93.2204 17.099 92.7933 17.1562 92.3193 17.1562C91.6058 17.1562 91.0016 17.0391 90.5068 16.8047C90.0173 16.5651 89.6449 16.2526 89.3896 15.8672C89.1396 15.4766 89.0146 15.0625 89.0146 14.625H89.9443C89.9756 15.0625 90.1136 15.4089 90.3584 15.6641C90.6032 15.9141 90.9027 16.0911 91.2568 16.1953C91.6162 16.2995 91.9704 16.3516 92.3193 16.3516C92.7985 16.3516 93.1995 16.2812 93.5225 16.1406C93.8454 16 94.0902 15.8151 94.2568 15.5859C94.4235 15.3568 94.5068 15.1094 94.5068 14.8438ZM108.765 13.4531H109.726C109.647 14.2188 109.437 14.8802 109.093 15.4375C108.749 15.9896 108.28 16.4141 107.687 16.7109C107.093 17.0078 106.377 17.1562 105.538 17.1562C104.892 17.1562 104.306 17.0339 103.78 16.7891C103.259 16.5443 102.812 16.1979 102.437 15.75C102.062 15.2969 101.772 14.7552 101.569 14.125C101.366 13.4948 101.265 12.7943 101.265 12.0234V10.6016C101.265 9.83073 101.366 9.13281 101.569 8.50781C101.772 7.8776 102.064 7.33594 102.444 6.88281C102.825 6.42969 103.28 6.08073 103.812 5.83594C104.343 5.59115 104.942 5.46875 105.608 5.46875C106.416 5.46875 107.114 5.61719 107.702 5.91406C108.291 6.20573 108.754 6.6276 109.093 7.17969C109.437 7.73177 109.647 8.39844 109.726 9.17969H108.765C108.692 8.5651 108.53 8.04427 108.28 7.61719C108.03 7.1901 107.684 6.86458 107.241 6.64062C106.804 6.41146 106.259 6.29688 105.608 6.29688C105.077 6.29688 104.603 6.39844 104.187 6.60156C103.77 6.80469 103.416 7.09635 103.124 7.47656C102.832 7.85156 102.608 8.30208 102.452 8.82812C102.301 9.35417 102.226 9.9401 102.226 10.5859V12.0234C102.226 12.6484 102.299 13.224 102.444 13.75C102.59 14.276 102.804 14.7318 103.085 15.1172C103.371 15.5026 103.72 15.8021 104.132 16.0156C104.543 16.2292 105.012 16.3359 105.538 16.3359C106.21 16.3359 106.77 16.2292 107.218 16.0156C107.671 15.7969 108.022 15.474 108.272 15.0469C108.522 14.6198 108.687 14.0885 108.765 13.4531ZM112.78 9.94531V17H111.851V8.54688H112.757L112.78 9.94531ZM115.772 8.48438L115.749 9.34375C115.645 9.32812 115.543 9.3151 115.444 9.30469C115.345 9.29427 115.239 9.28906 115.124 9.28906C114.718 9.28906 114.361 9.36458 114.054 9.51562C113.752 9.66146 113.496 9.86719 113.288 10.1328C113.08 10.3932 112.921 10.7005 112.812 11.0547C112.702 11.4036 112.64 11.7786 112.624 12.1797L112.28 12.3125C112.28 11.7604 112.338 11.2474 112.452 10.7734C112.567 10.2995 112.741 9.88542 112.976 9.53125C113.215 9.17188 113.515 8.89323 113.874 8.69531C114.239 8.49219 114.666 8.39062 115.155 8.39062C115.275 8.39062 115.392 8.40104 115.507 8.42188C115.627 8.4375 115.715 8.45833 115.772 8.48438ZM122.069 15.4844V11.125C122.069 10.724 121.986 10.3776 121.819 10.0859C121.653 9.79427 121.408 9.57031 121.085 9.41406C120.762 9.25781 120.364 9.17969 119.89 9.17969C119.452 9.17969 119.062 9.25781 118.718 9.41406C118.379 9.5651 118.111 9.77083 117.913 10.0312C117.72 10.2865 117.624 10.5703 117.624 10.8828L116.687 10.875C116.687 10.5573 116.765 10.25 116.921 9.95312C117.077 9.65625 117.299 9.39062 117.585 9.15625C117.871 8.92188 118.213 8.73698 118.608 8.60156C119.009 8.46094 119.45 8.39062 119.929 8.39062C120.533 8.39062 121.064 8.49219 121.522 8.69531C121.986 8.89844 122.348 9.20312 122.608 9.60938C122.869 10.0156 122.999 10.526 122.999 11.1406V15.2266C122.999 15.5182 123.02 15.8203 123.062 16.1328C123.108 16.4453 123.174 16.7031 123.257 16.9062V17H122.265C122.202 16.8125 122.153 16.5781 122.116 16.2969C122.085 16.0104 122.069 15.7396 122.069 15.4844ZM122.288 12.0781L122.304 12.7969H120.468C119.989 12.7969 119.559 12.8411 119.179 12.9297C118.804 13.013 118.486 13.138 118.226 13.3047C117.965 13.4661 117.765 13.6615 117.624 13.8906C117.489 14.1198 117.421 14.3802 117.421 14.6719C117.421 14.974 117.496 15.25 117.647 15.5C117.804 15.75 118.022 15.9505 118.304 16.1016C118.59 16.2474 118.929 16.3203 119.319 16.3203C119.84 16.3203 120.299 16.224 120.694 16.0312C121.095 15.8385 121.426 15.5859 121.687 15.2734C121.947 14.9609 122.121 14.6198 122.21 14.25L122.616 14.7891C122.549 15.0495 122.424 15.3177 122.241 15.5938C122.064 15.8646 121.832 16.1198 121.546 16.3594C121.259 16.5938 120.921 16.7865 120.53 16.9375C120.145 17.0833 119.707 17.1562 119.218 17.1562C118.666 17.1562 118.184 17.0521 117.772 16.8438C117.366 16.6354 117.049 16.3516 116.819 15.9922C116.595 15.6276 116.483 15.2161 116.483 14.7578C116.483 14.3411 116.572 13.9688 116.749 13.6406C116.926 13.3073 117.181 13.026 117.515 12.7969C117.853 12.5625 118.259 12.3854 118.733 12.2656C119.213 12.1406 119.749 12.0781 120.343 12.0781H122.288ZM127.874 16.1016L130.585 8.54688H131.546L128.382 17H127.702L127.874 16.1016ZM125.421 8.54688L128.163 16.125L128.312 17H127.624L124.452 8.54688H125.421ZM134.124 8.54688V17H133.194V8.54688H134.124ZM133.03 6.10156C133.03 5.92448 133.085 5.77604 133.194 5.65625C133.309 5.53125 133.465 5.46875 133.663 5.46875C133.861 5.46875 134.017 5.53125 134.132 5.65625C134.252 5.77604 134.312 5.92448 134.312 6.10156C134.312 6.27344 134.252 6.42188 134.132 6.54688C134.017 6.66667 133.861 6.72656 133.663 6.72656C133.465 6.72656 133.309 6.66667 133.194 6.54688C133.085 6.42188 133.03 6.27344 133.03 6.10156ZM137.608 10.3516V17H136.679V8.54688H137.569L137.608 10.3516ZM137.397 12.25L136.983 12.0156C137.015 11.5156 137.116 11.0469 137.288 10.6094C137.46 10.1719 137.692 9.78646 137.983 9.45312C138.28 9.11979 138.627 8.85938 139.022 8.67188C139.424 8.48438 139.866 8.39062 140.351 8.39062C140.772 8.39062 141.15 8.44792 141.483 8.5625C141.817 8.67708 142.101 8.85938 142.335 9.10938C142.569 9.35938 142.746 9.67969 142.866 10.0703C142.991 10.4609 143.054 10.9375 143.054 11.5V17H142.116V11.4922C142.116 10.9089 142.035 10.4531 141.874 10.125C141.713 9.79167 141.483 9.55469 141.187 9.41406C140.89 9.27344 140.538 9.20312 140.132 9.20312C139.684 9.20312 139.291 9.30208 138.952 9.5C138.619 9.69271 138.338 9.94531 138.108 10.2578C137.884 10.5651 137.713 10.8958 137.593 11.25C137.473 11.599 137.408 11.9323 137.397 12.25ZM151.038 8.54688H151.905V16.8516C151.905 17.5859 151.765 18.2161 151.483 18.7422C151.207 19.2682 150.814 19.6719 150.304 19.9531C149.799 20.2344 149.202 20.375 148.515 20.375C148.166 20.375 147.806 20.3203 147.437 20.2109C147.072 20.1068 146.726 19.9453 146.397 19.7266C146.075 19.513 145.799 19.2474 145.569 18.9297L146.093 18.3594C146.437 18.776 146.804 19.0807 147.194 19.2734C147.585 19.4714 148.007 19.5703 148.46 19.5703C148.996 19.5703 149.45 19.4635 149.819 19.25C150.194 19.0365 150.478 18.7292 150.671 18.3281C150.869 17.9271 150.968 17.4453 150.968 16.8828V10.4062L151.038 8.54688ZM145.101 12.8594V12.6953C145.101 12.0391 145.174 11.4479 145.319 10.9219C145.47 10.3906 145.687 9.9375 145.968 9.5625C146.249 9.18229 146.59 8.89323 146.991 8.69531C147.397 8.49219 147.856 8.39062 148.366 8.39062C148.856 8.39062 149.291 8.47135 149.671 8.63281C150.051 8.79427 150.379 9.02604 150.655 9.32812C150.931 9.63021 151.153 9.98958 151.319 10.4062C151.491 10.8229 151.616 11.2865 151.694 11.7969V13.8828C151.632 14.362 151.517 14.8021 151.351 15.2031C151.184 15.599 150.963 15.9453 150.687 16.2422C150.41 16.5339 150.077 16.7604 149.687 16.9219C149.301 17.0781 148.856 17.1562 148.351 17.1562C147.845 17.1562 147.392 17.0521 146.991 16.8438C146.59 16.6354 146.249 16.3411 145.968 15.9609C145.687 15.5755 145.47 15.1198 145.319 14.5938C145.174 14.0677 145.101 13.4896 145.101 12.8594ZM146.038 12.6953V12.8594C146.038 13.3542 146.088 13.8125 146.187 14.2344C146.285 14.6562 146.437 15.0234 146.64 15.3359C146.843 15.6484 147.101 15.8932 147.413 16.0703C147.726 16.2474 148.093 16.3359 148.515 16.3359C149.051 16.3359 149.502 16.2344 149.866 16.0312C150.231 15.8229 150.52 15.5495 150.733 15.2109C150.947 14.8672 151.103 14.4922 151.202 14.0859V11.6562C151.145 11.3802 151.056 11.099 150.937 10.8125C150.822 10.526 150.66 10.263 150.452 10.0234C150.249 9.77865 149.989 9.58333 149.671 9.4375C149.358 9.28646 148.978 9.21094 148.53 9.21094C148.103 9.21094 147.731 9.29948 147.413 9.47656C147.101 9.65365 146.843 9.90104 146.64 10.2188C146.437 10.5312 146.285 10.8984 146.187 11.3203C146.088 11.7422 146.038 12.2005 146.038 12.6953ZM159.413 14.8438C159.413 14.6146 159.356 14.388 159.241 14.1641C159.127 13.9401 158.905 13.7344 158.577 13.5469C158.254 13.3594 157.778 13.2005 157.147 13.0703C156.679 12.9661 156.259 12.849 155.89 12.7188C155.525 12.5885 155.218 12.4323 154.968 12.25C154.718 12.0677 154.528 11.849 154.397 11.5938C154.267 11.3385 154.202 11.0365 154.202 10.6875C154.202 10.375 154.27 10.0807 154.405 9.80469C154.546 9.52344 154.744 9.27865 154.999 9.07031C155.259 8.85677 155.572 8.6901 155.937 8.57031C156.306 8.45052 156.72 8.39062 157.179 8.39062C157.83 8.39062 158.387 8.5026 158.851 8.72656C159.319 8.94531 159.676 9.24479 159.921 9.625C160.171 10.0052 160.296 10.4349 160.296 10.9141H159.366C159.366 10.6224 159.28 10.3464 159.108 10.0859C158.942 9.82552 158.694 9.61198 158.366 9.44531C158.043 9.27865 157.647 9.19531 157.179 9.19531C156.694 9.19531 156.301 9.26823 155.999 9.41406C155.697 9.5599 155.476 9.74479 155.335 9.96875C155.2 10.1927 155.132 10.4245 155.132 10.6641C155.132 10.8516 155.16 11.0234 155.218 11.1797C155.28 11.3307 155.39 11.4714 155.546 11.6016C155.707 11.7318 155.937 11.8542 156.233 11.9688C156.53 12.0833 156.916 12.1953 157.39 12.3047C158.072 12.4557 158.629 12.6406 159.062 12.8594C159.499 13.0729 159.822 13.3385 160.03 13.6562C160.239 13.9688 160.343 14.349 160.343 14.7969C160.343 15.1458 160.27 15.4661 160.124 15.7578C159.978 16.0443 159.767 16.2917 159.491 16.5C159.22 16.7083 158.892 16.8698 158.507 16.9844C158.127 17.099 157.7 17.1562 157.226 17.1562C156.512 17.1562 155.908 17.0391 155.413 16.8047C154.924 16.5651 154.551 16.2526 154.296 15.8672C154.046 15.4766 153.921 15.0625 153.921 14.625H154.851C154.882 15.0625 155.02 15.4089 155.265 15.6641C155.509 15.9141 155.809 16.0911 156.163 16.1953C156.522 16.2995 156.877 16.3516 157.226 16.3516C157.705 16.3516 158.106 16.2812 158.429 16.1406C158.752 16 158.996 15.8151 159.163 15.5859C159.33 15.3568 159.413 15.1094 159.413 14.8438ZM43.6123 26.3369L39.376 38H37.6445L42.5225 25.2031H43.6387L43.6123 26.3369ZM47.1631 38L42.918 26.3369L42.8916 25.2031H44.0078L48.9033 38H47.1631ZM46.9434 33.2627V34.6514H39.7539V33.2627H46.9434ZM56.3652 36.1543V24.5H58V38H56.5059L56.3652 36.1543ZM49.9668 33.3506V33.166C49.9668 32.4395 50.0547 31.7803 50.2305 31.1885C50.4121 30.5908 50.667 30.0781 50.9951 29.6504C51.3291 29.2227 51.7246 28.8945 52.1816 28.666C52.6445 28.4316 53.1602 28.3145 53.7285 28.3145C54.3262 28.3145 54.8477 28.4199 55.293 28.6309C55.7441 28.8359 56.125 29.1377 56.4355 29.5361C56.752 29.9287 57.001 30.4033 57.1826 30.96C57.3643 31.5166 57.4902 32.1465 57.5605 32.8496V33.6582C57.4961 34.3555 57.3701 34.9824 57.1826 35.5391C57.001 36.0957 56.752 36.5703 56.4355 36.9629C56.125 37.3555 55.7441 37.6572 55.293 37.8682C54.8418 38.0732 54.3145 38.1758 53.7109 38.1758C53.1543 38.1758 52.6445 38.0557 52.1816 37.8154C51.7246 37.5752 51.3291 37.2383 50.9951 36.8047C50.667 36.3711 50.4121 35.8613 50.2305 35.2754C50.0547 34.6836 49.9668 34.042 49.9668 33.3506ZM51.6016 33.166V33.3506C51.6016 33.8252 51.6484 34.2705 51.7422 34.6865C51.8418 35.1025 51.9941 35.4688 52.1992 35.7852C52.4043 36.1016 52.665 36.3506 52.9814 36.5322C53.2979 36.708 53.6758 36.7959 54.1152 36.7959C54.6543 36.7959 55.0967 36.6816 55.4424 36.4531C55.7939 36.2246 56.0752 35.9229 56.2861 35.5479C56.4971 35.1729 56.6611 34.7656 56.7783 34.3262V32.208C56.708 31.8857 56.6055 31.5752 56.4707 31.2764C56.3418 30.9717 56.1719 30.7021 55.9609 30.4678C55.7559 30.2275 55.501 30.0371 55.1963 29.8965C54.8975 29.7559 54.543 29.6855 54.1328 29.6855C53.6875 29.6855 53.3037 29.7793 52.9814 29.9668C52.665 30.1484 52.4043 30.4004 52.1992 30.7227C51.9941 31.0391 51.8418 31.4082 51.7422 31.8301C51.6484 32.2461 51.6016 32.6914 51.6016 33.166ZM62.1484 30.3799V38H60.5137V28.4902H62.0605L62.1484 30.3799ZM61.8145 32.8848L61.0586 32.8584C61.0645 32.208 61.1494 31.6074 61.3135 31.0566C61.4775 30.5 61.7207 30.0166 62.043 29.6064C62.3652 29.1963 62.7666 28.8799 63.2471 28.6572C63.7275 28.4287 64.2842 28.3145 64.917 28.3145C65.3623 28.3145 65.7725 28.3789 66.1475 28.5078C66.5225 28.6309 66.8477 28.8271 67.123 29.0967C67.3984 29.3662 67.6123 29.7119 67.7646 30.1338C67.917 30.5557 67.9932 31.0654 67.9932 31.6631V38H66.3672V31.7422C66.3672 31.2441 66.2822 30.8457 66.1123 30.5469C65.9482 30.248 65.7139 30.0312 65.4092 29.8965C65.1045 29.7559 64.7471 29.6855 64.3369 29.6855C63.8564 29.6855 63.4551 29.7705 63.1328 29.9404C62.8105 30.1104 62.5527 30.3447 62.3594 30.6436C62.166 30.9424 62.0254 31.2852 61.9375 31.6719C61.8555 32.0527 61.8145 32.457 61.8145 32.8848ZM67.9756 31.9883L66.8857 32.3223C66.8916 31.8008 66.9766 31.2998 67.1406 30.8193C67.3105 30.3389 67.5537 29.9111 67.8701 29.5361C68.1924 29.1611 68.5879 28.8652 69.0566 28.6484C69.5254 28.4258 70.0615 28.3145 70.665 28.3145C71.1748 28.3145 71.626 28.3818 72.0186 28.5166C72.417 28.6514 72.751 28.8594 73.0205 29.1406C73.2959 29.416 73.5039 29.7705 73.6445 30.2041C73.7852 30.6377 73.8555 31.1533 73.8555 31.751V38H72.2207V31.7334C72.2207 31.2002 72.1357 30.7871 71.9658 30.4941C71.8018 30.1953 71.5674 29.9873 71.2627 29.8701C70.9639 29.7471 70.6064 29.6855 70.1904 29.6855C69.833 29.6855 69.5166 29.7471 69.2412 29.8701C68.9658 29.9932 68.7344 30.1631 68.5469 30.3799C68.3594 30.5908 68.2158 30.834 68.1162 31.1094C68.0225 31.3848 67.9756 31.6777 67.9756 31.9883ZM78.083 28.4902V38H76.4482V28.4902H78.083ZM76.3252 25.9678C76.3252 25.7041 76.4043 25.4814 76.5625 25.2998C76.7266 25.1182 76.9668 25.0273 77.2832 25.0273C77.5938 25.0273 77.8311 25.1182 77.9951 25.2998C78.165 25.4814 78.25 25.7041 78.25 25.9678C78.25 26.2197 78.165 26.4365 77.9951 26.6182C77.8311 26.7939 77.5938 26.8818 77.2832 26.8818C76.9668 26.8818 76.7266 26.7939 76.5625 26.6182C76.4043 26.4365 76.3252 26.2197 76.3252 25.9678ZM82.3193 30.5205V38H80.6934V28.4902H82.2314L82.3193 30.5205ZM81.9326 32.8848L81.2559 32.8584C81.2617 32.208 81.3584 31.6074 81.5459 31.0566C81.7334 30.5 81.9971 30.0166 82.3369 29.6064C82.6768 29.1963 83.0811 28.8799 83.5498 28.6572C84.0244 28.4287 84.5488 28.3145 85.123 28.3145C85.5918 28.3145 86.0137 28.3789 86.3887 28.5078C86.7637 28.6309 87.083 28.8301 87.3467 29.1055C87.6162 29.3809 87.8213 29.7383 87.9619 30.1777C88.1025 30.6113 88.1729 31.1416 88.1729 31.7686V38H86.5381V31.751C86.5381 31.2529 86.4648 30.8545 86.3184 30.5557C86.1719 30.251 85.958 30.0312 85.6768 29.8965C85.3955 29.7559 85.0498 29.6855 84.6396 29.6855C84.2354 29.6855 83.8662 29.7705 83.5322 29.9404C83.2041 30.1104 82.9199 30.3447 82.6797 30.6436C82.4453 30.9424 82.2607 31.2852 82.126 31.6719C81.9971 32.0527 81.9326 32.457 81.9326 32.8848Z" fill="black"/>
</svg>
