<svg width="659" height="476" viewBox="0 0 659 476" fill="none" xmlns="http://www.w3.org/2000/svg">
<path d="M549.294 448.862C503.693 439.567 423.678 438.329 372.822 451.157C365.023 453.114 355.914 455.403 345.752 457.766C301.3 468.094 236.824 479.983 174.906 474.029C158.799 472.558 142.856 469.657 127.264 465.359C39.3041 440.619 -17.418 326.225 4.85203 240.609C43.7072 91.2253 171.706 68.6176 270.963 70.4033C370.219 72.1891 543.467 103.481 622.533 217.404C709.705 343.006 622.533 463.838 549.294 448.862Z" fill="#F4EAC8"/>
<path d="M525.919 138.97H362.514C360.957 138.97 359.464 139.588 358.363 140.689C357.262 141.79 356.643 143.284 356.643 144.841C356.643 146.398 357.262 147.891 358.363 148.992C359.464 150.093 360.957 150.712 362.514 150.712H525.919C527.476 150.712 528.969 150.093 530.07 148.992C531.171 147.891 531.79 146.398 531.79 144.841C531.79 143.284 531.171 141.79 530.07 140.689C528.969 139.588 527.476 138.97 525.919 138.97Z" fill="url(#paint0_linear_543_2006)"/>
<path d="M599.984 385.859C598.927 384.42 596.114 383.075 592.401 381.284C592.401 381.284 590.962 382.405 590.864 382.493C590.864 382.493 590.864 382.586 590.952 382.723L590.4 383.114L589.803 382.493L588.291 383.77C588.291 383.77 588.839 391.417 592.381 391.676C593.643 391.769 594.24 390.986 594.509 390.086C596.094 391.235 597.401 391.309 597.655 390.507C597.774 389.968 597.698 389.404 597.44 388.917C600.082 389.464 600.957 387.175 599.984 385.859Z" fill="url(#paint1_linear_543_2006)"/>
<path d="M389.51 396.823C406.016 397.713 425.855 395.741 425.855 395.741L430.488 404.264L407.592 405.878L389.51 396.823Z" fill="#D39E5F"/>
<path d="M413.179 245.967C405.742 245.967 399.695 238.628 399.695 229.631C399.695 223.393 402.694 217.611 407.337 214.91C408.399 214.321 409.285 213.461 409.904 212.418C410.524 211.374 410.856 210.184 410.865 208.971V172.973C410.865 172.778 410.942 172.591 411.08 172.454C411.217 172.316 411.404 172.239 411.598 172.239H414.774C414.968 172.239 415.155 172.316 415.293 172.454C415.43 172.591 415.507 172.778 415.507 172.973V208.971C415.516 210.184 415.848 211.374 416.468 212.418C417.087 213.461 417.973 214.321 419.035 214.91C423.678 217.611 426.677 223.393 426.677 229.631C426.662 238.638 420.615 245.967 413.179 245.967Z" fill="url(#paint2_linear_543_2006)"/>
<path d="M460.063 245.967C450.048 245.967 441.903 238.628 441.903 229.631V172.973C441.903 172.778 441.98 172.591 442.118 172.454C442.255 172.316 442.442 172.239 442.636 172.239H445.812C446.006 172.239 446.193 172.316 446.331 172.454C446.468 172.591 446.545 172.778 446.545 172.973V223.853C446.545 224.891 446.958 225.887 447.692 226.621C448.426 227.355 449.421 227.767 450.459 227.767H477.436C477.621 227.767 477.799 227.836 477.935 227.961C478.071 228.086 478.155 228.258 478.17 228.442C478.199 228.824 478.214 229.21 478.214 229.597C478.224 238.638 470.073 245.967 460.063 245.967Z" fill="url(#paint3_linear_543_2006)"/>
<path d="M516.158 216.935L511.359 212.2C510.496 211.344 509.81 210.326 509.34 209.204C508.871 208.082 508.628 206.879 508.624 205.663V172.973C508.624 172.778 508.547 172.591 508.409 172.454C508.272 172.316 508.085 172.239 507.89 172.239H504.715C504.521 172.239 504.334 172.316 504.196 172.454C504.059 172.591 503.981 172.778 503.981 172.973V205.663C503.978 206.879 503.734 208.082 503.265 209.204C502.796 210.326 502.11 211.344 501.246 212.2L496.447 216.935C495.529 217.846 494.8 218.929 494.301 220.122C493.803 221.315 493.544 222.595 493.541 223.887V240.61C493.541 240.804 493.618 240.991 493.756 241.129C493.894 241.266 494.08 241.343 494.275 241.343H518.321C518.515 241.343 518.702 241.266 518.84 241.129C518.977 240.991 519.055 240.804 519.055 240.61V223.887C519.053 222.595 518.796 221.316 518.299 220.123C517.802 218.93 517.075 217.847 516.158 216.935Z" fill="url(#paint4_linear_543_2006)"/>
<path d="M413.179 140.232C411.653 140.233 410.191 140.84 409.112 141.919C408.033 142.997 407.427 144.46 407.426 145.986V174.303C407.426 174.497 407.503 174.684 407.64 174.822C407.778 174.959 407.965 175.036 408.159 175.036H418.199C418.393 175.036 418.58 174.959 418.717 174.822C418.855 174.684 418.932 174.497 418.932 174.303V145.986C418.931 144.46 418.325 142.997 417.246 141.919C416.167 140.84 414.704 140.233 413.179 140.232Z" fill="url(#paint5_linear_543_2006)"/>
<path d="M506.305 140.232C504.779 140.233 503.317 140.84 502.238 141.919C501.159 142.997 500.553 144.46 500.552 145.986V174.303C500.552 174.497 500.629 174.684 500.766 174.822C500.904 174.959 501.091 175.036 501.285 175.036H511.325C511.519 175.036 511.706 174.959 511.843 174.822C511.981 174.684 512.058 174.497 512.058 174.303V145.986C512.057 144.46 511.45 142.997 510.372 141.919C509.293 140.84 507.83 140.233 506.305 140.232Z" fill="url(#paint6_linear_543_2006)"/>
<path d="M444.221 140.232C442.696 140.233 441.233 140.84 440.155 141.919C439.076 142.997 438.469 144.46 438.468 145.986V174.303C438.468 174.497 438.545 174.684 438.683 174.822C438.821 174.959 439.007 175.036 439.202 175.036H449.241C449.436 175.036 449.622 174.959 449.76 174.822C449.898 174.684 449.975 174.497 449.975 174.303V145.986C449.974 144.46 449.367 142.997 448.288 141.919C447.21 140.84 445.747 140.233 444.221 140.232Z" fill="url(#paint7_linear_543_2006)"/>
<path d="M319.021 86.3626C319.021 86.3626 315.987 111.245 314.016 120.805C308.453 147.767 302.103 158.51 294.975 164.807C287.847 171.103 278.585 170.648 278.585 170.648C278.585 170.648 276.345 174.239 273.39 178.99C267.69 188.148 259.314 201.607 259.163 201.906C258.938 202.361 215.621 168.525 215.621 168.525C223.135 147.282 226.022 126.113 226.022 126.113C215.082 120.418 216.496 108.75 225.215 106.91C224.838 98.6286 225.232 90.3296 226.394 82.1208L240.528 82.7666L319.021 86.3626Z" fill="#F2BA70"/>
<path d="M244.236 120.203C242.978 116 234.157 105.604 225.209 106.906C224.832 98.6237 225.227 90.3247 226.388 82.116L240.527 82.7666C249.539 87.7617 258.844 92.9036 258.844 92.9036C259.358 111.7 244.236 120.203 244.236 120.203Z" fill="url(#paint8_linear_543_2006)"/>
<path d="M333.404 24.3659L322.959 73.1918L317.338 99.5274C317.338 99.5274 310.356 103.573 285.884 102.326C261.413 101.078 235.826 92.1741 226.403 82.1203C226.752 79.4295 227.101 76.786 227.45 74.1898C227.704 72.2785 227.962 70.3933 228.223 68.5342C228.458 66.835 228.693 65.1618 228.928 63.5147C228.996 63.0254 229.06 62.59 229.128 62.135C229.516 59.4246 229.903 56.7844 230.288 54.2143C231.207 48.0548 232.108 42.3258 232.959 37.091C233.086 36.3082 233.213 35.5401 233.336 34.7818C233.458 34.0235 233.585 33.275 233.707 32.5411C233.83 31.8072 233.952 31.0734 234.069 30.3738L234.598 27.2475C234.74 26.4256 234.877 25.6233 235.014 24.8405C235.092 24.3855 235.17 23.9305 235.248 23.4853C235.248 23.4315 235.248 23.3826 235.248 23.3337C235.317 22.9374 235.385 22.5509 235.454 22.1644C235.682 20.8597 235.902 19.6155 236.114 18.4315L236.261 17.6145C236.335 17.2084 236.403 16.8072 236.476 16.4158C236.868 14.2485 237.225 12.3112 237.538 10.6184C237.587 10.3689 237.631 10.1292 237.68 9.88454C237.729 9.63992 237.788 9.29746 237.841 9.0137C238.236 6.93504 239.274 5.03328 240.81 3.57818C242.346 2.12309 244.301 1.18852 246.398 0.907045C269.177 -2.20939 309.02 2.93737 328.355 13.3924C330.27 14.4299 331.797 16.0601 332.707 18.0384C333.617 20.0168 333.862 22.2369 333.404 24.3659Z" fill="url(#paint9_linear_543_2006)"/>
<path d="M278.585 170.648C278.585 170.648 276.344 174.239 273.389 178.989C253.331 176.837 248.541 159.909 247.323 155.095C245.914 149.547 246.677 136.617 246.677 136.617C252.411 162.933 266.305 170.271 278.585 170.648Z" fill="#D39E5F"/>
<path d="M387.578 388.94C375.572 410.697 356.369 418.784 350.215 418.652C344.06 418.519 342.876 413.402 342.876 413.402C343.649 424.586 344.833 442.756 345.767 457.761C301.315 468.089 236.839 479.977 174.921 474.023C175.958 463.314 177.817 454.679 178.272 447.159C178.556 442.512 178.497 433.852 178.316 424.884C178.013 410.114 177.372 394.493 177.372 394.493L165.885 392.15L165.577 392.086L156.981 390.335C143.899 405.119 124.28 417.805 111.134 405.569C98.4143 393.73 80.3125 373.201 76.3008 362.125C72.289 351.049 74.3438 330.76 77.9886 323.407C81.6334 316.054 113.253 252.433 126.81 226.538C138.551 204.102 150.293 195.589 156.868 192.223C157.876 191.704 158.757 191.308 159.5 191.005C165.083 188.7 202.035 180.11 202.475 179.84C204.892 167.409 205.489 163.891 206.726 159.728C207.812 156.083 213.512 154.141 220.322 153.294C220.127 154.028 219.921 154.762 219.711 155.516C219.016 158.006 218.243 160.56 217.431 163.148C222.812 164.747 247.054 171.333 250.699 175.462C254.006 179.19 253.948 185.555 253.948 185.555H265.552C265.014 168.554 278.59 170.618 278.59 170.618L279.398 181.548C279.398 181.548 304.305 184.102 313.61 189.65C322.915 195.198 334.916 210.961 341.819 239.767C348.722 268.573 355.772 312.991 363.126 331.298C370.479 349.606 383.233 353.505 387.587 362.957C391.942 372.409 387.578 388.94 387.578 388.94Z" fill="url(#paint10_linear_543_2006)"/>
<path d="M165.562 392.087L156.966 390.335C143.884 405.12 124.265 417.806 111.12 405.57C98.3994 393.73 80.2976 373.202 76.2859 362.126C72.2741 351.049 74.3289 330.761 77.9737 323.408C81.6186 316.054 113.238 252.434 126.795 226.539C138.536 204.102 150.278 195.59 156.853 192.224C171.002 201.407 185.073 216.979 186.697 242.879C188.908 278.163 175.234 348.114 165.562 392.087Z" fill="url(#paint11_linear_543_2006)"/>
<path d="M214.657 185.79H214.515C214.148 185.722 205.532 184.034 201.936 180.409C201.807 180.269 201.738 180.084 201.742 179.894C201.746 179.704 201.824 179.523 201.959 179.389C202.094 179.255 202.276 179.179 202.466 179.177C202.656 179.174 202.84 179.246 202.979 179.376C206.256 182.688 214.72 184.342 214.789 184.357C214.885 184.366 214.979 184.394 215.064 184.439C215.15 184.484 215.226 184.546 215.288 184.62C215.349 184.695 215.396 184.78 215.424 184.873C215.453 184.965 215.463 185.063 215.454 185.159C215.445 185.255 215.417 185.349 215.372 185.435C215.327 185.52 215.265 185.596 215.191 185.658C215.116 185.72 215.03 185.766 214.938 185.795C214.845 185.823 214.748 185.833 214.652 185.824L214.657 185.79Z" fill="#C5E0E2"/>
<path d="M387.577 388.946C375.571 410.702 356.369 418.789 350.214 418.657C344.451 418.515 343.032 414.024 342.875 413.466V413.407C343.648 424.591 344.832 442.762 345.767 457.767C322.993 463.055 294.96 468.76 264.71 472.258C264.011 393.603 243.477 330.178 241.452 321.005C229.818 268.398 226.104 223.921 224.03 209.337C221.956 194.753 221.858 185.585 221.858 185.585H265.547C265.009 168.584 278.585 170.648 278.585 170.648L279.392 181.578C279.392 181.578 295.385 183.217 306.53 186.724C308.99 187.438 311.362 188.423 313.604 189.66C322.9 195.213 334.911 210.971 341.814 239.777C348.717 268.584 355.767 313.001 363.12 331.309C370.473 349.616 383.228 353.515 387.582 362.967C391.936 372.419 387.577 388.946 387.577 388.946Z" fill="url(#paint12_linear_543_2006)"/>
<path d="M264.695 472.992C264.502 472.992 264.316 472.915 264.178 472.779C264.041 472.642 263.963 472.457 263.962 472.263C263.962 471.803 263.962 471.345 263.962 470.888C263.159 403.373 247.558 346.338 242.435 327.6C241.608 324.577 241.012 322.395 240.738 321.162C231.501 279.425 227.181 242.17 224.872 222.155C224.245 216.734 223.746 212.454 223.321 209.435C221.266 194.954 221.144 185.678 221.144 185.585C221.142 185.488 221.16 185.391 221.197 185.301C221.233 185.211 221.287 185.129 221.355 185.059C221.423 184.99 221.505 184.935 221.594 184.898C221.684 184.86 221.78 184.841 221.877 184.841H273.022C273.217 184.841 273.404 184.918 273.541 185.056C273.679 185.194 273.756 185.38 273.756 185.575C273.756 185.77 273.679 185.956 273.541 186.094C273.404 186.231 273.217 186.309 273.022 186.309H222.631C222.933 193.986 223.644 201.642 224.759 209.244C225.19 212.282 225.689 216.583 226.315 221.999C228.634 241.984 232.949 279.19 242.151 320.854C242.416 322.048 243.008 324.22 243.83 327.214C248.967 345.996 264.607 403.148 265.415 470.868C265.415 471.328 265.415 471.788 265.415 472.248C265.415 472.344 265.397 472.44 265.361 472.529C265.324 472.619 265.271 472.7 265.203 472.768C265.135 472.837 265.055 472.892 264.966 472.929C264.877 472.967 264.782 472.986 264.686 472.987L264.695 472.992Z" fill="#C5E0E2"/>
<path d="M236.384 203.006C238.397 203.006 240.028 201.374 240.028 199.361C240.028 197.348 238.397 195.716 236.384 195.716C234.371 195.716 232.739 197.348 232.739 199.361C232.739 201.374 234.371 203.006 236.384 203.006Z" fill="#308B85"/>
<path d="M282.142 201.255C284.155 201.255 285.787 199.623 285.787 197.61C285.787 195.597 284.155 193.965 282.142 193.965C280.129 193.965 278.497 195.597 278.497 197.61C278.497 199.623 280.129 201.255 282.142 201.255Z" fill="#308B85"/>
<path d="M245.664 250.193C247.677 250.193 249.309 248.561 249.309 246.548C249.309 244.535 247.677 242.904 245.664 242.904C243.651 242.904 242.02 244.535 242.02 246.548C242.02 248.561 243.651 250.193 245.664 250.193Z" fill="#308B85"/>
<path d="M290.444 248.447C292.457 248.447 294.089 246.815 294.089 244.802C294.089 242.789 292.457 241.157 290.444 241.157C288.431 241.157 286.799 242.789 286.799 244.802C286.799 246.815 288.431 248.447 290.444 248.447Z" fill="#308B85"/>
<path d="M257.861 307.243C259.874 307.243 261.506 305.611 261.506 303.598C261.506 301.585 259.874 299.954 257.861 299.954C255.848 299.954 254.217 301.585 254.217 303.598C254.217 305.611 255.848 307.243 257.861 307.243Z" fill="#308B85"/>
<path d="M300.273 302.541C302.286 302.541 303.918 300.91 303.918 298.897C303.918 296.884 302.286 295.252 300.273 295.252C298.26 295.252 296.628 296.884 296.628 298.897C296.628 300.91 298.26 302.541 300.273 302.541Z" fill="#308B85"/>
<path d="M273.639 362.361C275.652 362.361 277.284 360.729 277.284 358.716C277.284 356.703 275.652 355.071 273.639 355.071C271.626 355.071 269.994 356.703 269.994 358.716C269.994 360.729 271.626 362.361 273.639 362.361Z" fill="#308B85"/>
<path d="M312.137 357.664C314.15 357.664 315.782 356.032 315.782 354.019C315.782 352.006 314.15 350.374 312.137 350.374C310.124 350.374 308.492 352.006 308.492 354.019C308.492 356.032 310.124 357.664 312.137 357.664Z" fill="#308B85"/>
<path d="M283.194 425.858C285.207 425.858 286.838 424.227 286.838 422.214C286.838 420.201 285.207 418.569 283.194 418.569C281.181 418.569 279.549 420.201 279.549 422.214C279.549 424.227 281.181 425.858 283.194 425.858Z" fill="#308B85"/>
<path d="M324.608 421.157C326.621 421.157 328.253 419.525 328.253 417.512C328.253 415.499 326.621 413.867 324.608 413.867C322.595 413.867 320.963 415.499 320.963 417.512C320.963 419.525 322.595 421.157 324.608 421.157Z" fill="#308B85"/>
<path d="M387.577 388.946C375.572 410.702 356.369 418.789 350.214 418.657C344.451 418.515 343.032 414.024 342.876 413.466V413.407C338.874 374.415 333.121 353.07 327.954 327.414C322.788 301.759 317.788 273.921 314.349 256.871C310.909 239.821 309.339 235.893 309.97 225.12C310.948 208.368 309.593 194.503 306.545 186.724C309.005 187.438 311.377 188.423 313.62 189.66C322.915 195.213 334.926 210.971 341.829 239.777C348.732 268.583 355.782 313.001 363.135 331.309C370.488 349.616 383.243 353.515 387.597 362.967C391.951 372.419 387.577 388.946 387.577 388.946Z" fill="url(#paint13_linear_543_2006)"/>
<path d="M394.064 385.858C393.37 391.92 379.661 397.184 379.661 397.184C378.575 398.417 377.46 399.63 376.33 400.77C363.742 413.642 349.177 421.152 345.997 413.393C344.094 408.769 346.369 401.602 350.126 394.586C350.982 392.977 351.926 391.372 352.905 389.811C355.312 385.991 358.016 382.366 360.992 378.97C369.715 369.151 380.072 363.314 385.136 364.997C385.547 365.146 385.932 365.359 386.276 365.629C390.336 368.735 394.7 380.35 394.064 385.858Z" fill="url(#paint14_linear_543_2006)"/>
<path d="M439.774 409.234C439.328 412.316 433.335 415.413 429.749 407.062C427.518 401.871 426.129 397.541 426.129 397.541C426.129 397.541 409.984 399.469 395.733 398.388C378.609 399.17 380.796 403.084 377.67 401.45C377.391 401.303 376.936 401.078 376.329 400.785C373.546 399.434 367.67 396.685 362.049 394.072L352.895 389.826C355.302 386.005 358.006 382.38 360.982 378.984C369.705 369.165 380.062 363.329 385.126 365.012L386.266 365.643C391.119 368.339 397.597 372.003 401.921 374.483L406.608 377.16C406.951 377.38 408.296 377.673 410.145 377.991C414.808 378.794 422.66 379.777 425.556 380.286C429.602 380.995 433.507 381.988 435.282 389.092C437.058 396.196 440.366 405.115 439.774 409.234Z" fill="#F2BA70"/>
<path d="M489.887 432.826L460.014 427.253C439.994 423.535 416.428 419.166 411.501 418.329C402.617 416.823 374.838 413.559 370.689 409.117C366.037 404.137 375.523 395.751 385.914 396.519C390.004 396.823 408.419 399.861 428.189 403.251C428.644 404.425 429.168 405.697 429.75 407.072C433.336 415.423 439.329 412.327 439.774 409.244C439.899 407.897 439.823 406.538 439.549 405.213C450.102 407.043 460.356 408.843 468.375 410.257C477.866 411.935 484.217 413.07 484.217 413.07L489.887 432.826Z" fill="url(#paint15_linear_543_2006)"/>
<path d="M342.861 414.136C342.679 414.136 342.504 414.068 342.369 413.946C342.234 413.824 342.15 413.657 342.132 413.476C338.991 382.913 334.734 363.001 330.615 343.745C329.495 338.5 328.335 333.084 327.225 327.561C324.411 313.578 321.618 298.804 319.152 285.765C317.112 274.968 315.18 264.767 313.619 257.013C313.232 255.105 312.88 253.363 312.552 251.759C309.959 239.038 309.084 234.772 309.226 225.105C309.228 224.912 309.307 224.728 309.444 224.592C309.581 224.457 309.766 224.381 309.959 224.381C310.056 224.382 310.151 224.402 310.239 224.44C310.328 224.479 310.408 224.534 310.475 224.603C310.543 224.672 310.596 224.753 310.631 224.843C310.667 224.932 310.685 225.028 310.683 225.125C310.546 234.63 311.412 238.872 313.981 251.465C314.309 253.075 314.666 254.816 315.047 256.724C316.613 264.488 318.545 274.689 320.586 285.491C323.032 298.525 325.845 313.295 328.658 327.272C329.769 332.786 330.928 338.202 332.048 343.417C336.178 362.713 340.444 382.664 343.59 413.305C343.6 413.401 343.591 413.498 343.563 413.59C343.536 413.683 343.49 413.769 343.429 413.844C343.368 413.919 343.293 413.982 343.208 414.027C343.123 414.073 343.03 414.102 342.934 414.112L342.861 414.136Z" fill="#C5E0E2"/>
<path d="M338.957 256.137C338.957 256.137 314.94 283.848 311.247 294.655C306.379 308.892 313.458 315.173 313.321 318.329C313.204 321.103 291.149 344.048 270.963 364.958C260.268 376.034 250.102 386.533 243.996 393.167L257.205 404.846C257.205 404.846 268.047 390.805 280.723 374.449C298.159 351.944 319.074 325.085 320.009 324.381C321.628 323.168 332.881 330.79 345.449 321.401C359.275 311.059 371.638 291.499 376.491 284.356L338.957 256.137ZM327.005 293.241C326.51 293.242 326.03 293.068 325.65 292.752C325.211 292.391 324.933 291.872 324.877 291.307C324.821 290.742 324.992 290.177 325.351 289.738L335.997 276.759C336.357 276.32 336.877 276.042 337.441 275.987C338.006 275.931 338.57 276.103 339.008 276.463C339.447 276.823 339.724 277.342 339.78 277.907C339.835 278.472 339.664 279.035 339.304 279.474L328.659 292.443C328.46 292.692 328.209 292.892 327.922 293.03C327.636 293.168 327.323 293.24 327.005 293.241ZM332.455 303.857C332.049 303.859 331.651 303.746 331.308 303.529C330.965 303.313 330.69 303.004 330.517 302.637C330.343 302.27 330.278 301.862 330.328 301.459C330.378 301.057 330.543 300.677 330.801 300.364L347.475 280.051C347.652 279.834 347.872 279.654 348.119 279.521C348.367 279.389 348.638 279.306 348.917 279.279C349.197 279.251 349.479 279.279 349.747 279.36C350.016 279.441 350.266 279.575 350.483 279.753C350.701 279.931 350.88 280.15 351.013 280.397C351.146 280.645 351.228 280.916 351.256 281.195C351.283 281.475 351.256 281.757 351.174 282.026C351.093 282.294 350.96 282.544 350.782 282.761L334.109 303.079C333.908 303.324 333.655 303.52 333.369 303.654C333.083 303.789 332.771 303.858 332.455 303.857ZM345.586 306.352C345.226 306.791 344.706 307.069 344.142 307.124C343.577 307.18 343.013 307.009 342.575 306.648C342.136 306.288 341.859 305.769 341.803 305.204C341.748 304.639 341.919 304.076 342.279 303.637L352.925 290.668C353.285 290.229 353.804 289.951 354.369 289.896C354.934 289.84 355.497 290.011 355.936 290.372C356.374 290.732 356.652 291.251 356.708 291.816C356.763 292.381 356.592 292.944 356.232 293.383L345.586 306.352Z" fill="url(#paint16_linear_543_2006)"/>
<path d="M333.404 24.3664L322.959 73.1922L322.289 73.2852L321.863 73.339L321.237 73.4173L320.747 73.476L320.16 73.5396L318.614 73.6912C316.716 73.8625 314.617 73.9848 312.323 74.0435H311.501C303.409 74.1903 292.944 73.4906 280.033 70.9515L278.38 70.6237L275.806 70.1002L274.118 69.748L272.758 69.4593L271.78 69.2441C270.475 68.9603 269.188 68.6733 267.92 68.383L266.153 67.9721L265.141 67.7274L264.236 67.5073L262.597 67.1012C260.195 66.4897 257.905 65.8683 255.713 65.2274L254.294 64.8067L254.04 64.7284L252.719 64.3175L252.562 64.2685L251.036 63.7793C250.155 63.4907 249.294 63.1922 248.448 62.8938L247.381 62.5073C246.628 62.2382 245.914 61.9545 245.16 61.6756L243.879 61.1864L242.685 60.6971C241.269 60.1002 239.898 59.4822 238.57 58.8429C238.287 58.7108 238.003 58.5689 237.724 58.4319L237.098 58.1139C236.305 57.7128 235.526 57.3018 234.759 56.8811L233.952 56.431C232.709 55.7265 231.506 54.9975 230.312 54.2343C231.232 48.0748 232.132 42.3459 232.983 37.111C233.11 36.3282 233.238 35.5601 233.36 34.8018C233.482 34.0435 233.609 33.295 233.732 32.5611C233.854 31.8273 233.976 31.0934 234.094 30.3938L234.622 27.2676C234.764 26.4506 234.901 25.6482 235.038 24.8605C235.116 24.4055 235.195 23.9506 235.273 23.5053C235.273 23.4515 235.273 23.4026 235.273 23.3537C235.346 22.9574 235.41 22.566 235.478 22.1844C235.707 20.8798 235.927 19.6355 236.139 18.4515L236.286 17.6345C236.359 17.2284 236.427 16.8273 236.501 16.4359C236.892 14.2686 237.249 12.3312 237.563 10.6384C237.611 10.3889 237.655 10.1492 237.704 9.90456C237.753 9.65994 237.812 9.31748 237.866 9.03372C238.181 7.36043 238.916 5.79441 240.001 4.48197C241.085 3.16953 242.485 2.1535 244.069 1.52883C244.817 1.23589 245.597 1.03227 246.393 0.922181C269.172 -2.19426 309.016 2.95251 328.35 13.4075C330.266 14.4445 331.795 16.0737 332.709 18.0516C333.622 20.0295 333.871 22.25 333.419 24.3811L333.404 24.3664Z" fill="url(#paint17_linear_543_2006)"/>
<path d="M247.147 63.1776H247.093C246.899 63.1638 246.718 63.0736 246.591 62.9268C246.463 62.7801 246.399 62.5887 246.413 62.3948C247.738 43.1971 252.435 19.2245 252.484 18.9848C252.499 18.8866 252.533 18.7924 252.585 18.7079C252.637 18.6233 252.706 18.5502 252.787 18.493C252.868 18.4358 252.96 18.3956 253.057 18.375C253.154 18.3543 253.255 18.3535 253.352 18.3728C253.449 18.392 253.542 18.4308 253.624 18.4868C253.706 18.5428 253.776 18.6148 253.829 18.6986C253.882 18.7823 253.918 18.876 253.934 18.974C253.95 19.0719 253.946 19.1722 253.922 19.2686C253.873 19.5083 249.196 43.3879 247.875 62.4926C247.863 62.6778 247.781 62.8514 247.646 62.9785C247.51 63.1056 247.332 63.1767 247.147 63.1776Z" fill="#C5E0E2"/>
<path d="M266.779 68.8769H266.706C266.513 68.8571 266.335 68.7616 266.212 68.6112C266.09 68.4608 266.031 68.2678 266.05 68.0745C266.775 60.8289 269.206 36.1078 270.194 22.2673C270.208 22.0727 270.298 21.8914 270.446 21.7634C270.593 21.6354 270.785 21.5712 270.98 21.5848C271.174 21.5984 271.355 21.6888 271.483 21.8361C271.611 21.9833 271.676 22.1754 271.662 22.37C270.684 36.2301 268.237 60.9659 267.518 68.2164C267.5 68.3989 267.414 68.5679 267.277 68.6902C267.14 68.8124 266.963 68.879 266.779 68.8769Z" fill="#C5E0E2"/>
<path d="M284.246 72.483H284.128C283.936 72.4518 283.765 72.3456 283.651 72.1878C283.537 72.03 283.491 71.8335 283.522 71.6415C284.5 65.3988 286.946 48.1581 287.856 23.0211C287.86 22.9248 287.882 22.8301 287.922 22.7424C287.963 22.6547 288.02 22.5758 288.09 22.5101C288.161 22.4445 288.244 22.3934 288.334 22.3598C288.425 22.3262 288.521 22.3107 288.617 22.3142C288.713 22.3177 288.808 22.3402 288.896 22.3804C288.984 22.4205 289.062 22.4775 289.128 22.5482C289.194 22.6188 289.245 22.7017 289.278 22.7921C289.312 22.8825 289.327 22.9786 289.324 23.075C288.409 48.2951 285.973 65.6043 284.97 71.8714C284.941 72.0425 284.852 72.1978 284.72 72.3098C284.587 72.4217 284.419 72.4831 284.246 72.483Z" fill="#C5E0E2"/>
<path d="M299.838 74.4395C299.786 74.445 299.733 74.445 299.681 74.4395C299.587 74.4186 299.498 74.3794 299.419 74.3241C299.34 74.2688 299.273 74.1985 299.221 74.1172C299.169 74.0358 299.134 73.9451 299.117 73.8502C299.1 73.7552 299.103 73.6579 299.123 73.5637C300.782 66.0099 303.908 49.9385 306.247 27.2037C306.257 27.1073 306.286 27.0138 306.332 26.9286C306.378 26.8434 306.44 26.7681 306.515 26.707C306.59 26.6459 306.677 26.6002 306.77 26.5725C306.863 26.5448 306.96 26.5357 307.056 26.5457C307.153 26.5556 307.246 26.5845 307.331 26.6305C307.417 26.6766 307.492 26.739 307.553 26.8142C307.614 26.8894 307.66 26.9759 307.688 27.0687C307.715 27.1616 307.724 27.259 307.714 27.3553C305.371 50.1636 302.225 66.2937 300.562 73.8818C300.522 74.0429 300.429 74.1858 300.297 74.2871C300.166 74.3884 300.004 74.4421 299.838 74.4395Z" fill="#C5E0E2"/>
<path d="M316.017 74.6207C315.908 74.6207 315.8 74.5966 315.702 74.5499C315.604 74.5033 315.517 74.4353 315.448 74.351C315.379 74.2667 315.33 74.1682 315.304 74.0625C315.278 73.9569 315.276 73.8467 315.297 73.7401C317.103 64.9338 319.7 50.3399 321.687 30.8536C321.707 30.659 321.803 30.4803 321.955 30.3569C322.107 30.2335 322.302 30.1754 322.496 30.1956C322.691 30.2157 322.87 30.3123 322.993 30.4641C323.117 30.616 323.175 30.8106 323.154 31.0052C321.144 50.5747 318.556 65.1931 316.745 74.0581C316.706 74.221 316.613 74.3656 316.48 74.4679C316.348 74.5703 316.184 74.6242 316.017 74.6207Z" fill="#C5E0E2"/>
<path d="M288.187 121.353C288.724 119.304 288.044 117.35 286.666 116.988C285.289 116.627 283.737 117.995 283.199 120.044C282.662 122.093 283.342 124.047 284.72 124.409C286.097 124.77 287.649 123.402 288.187 121.353Z" fill="#654B1E"/>
<path d="M311.712 119.686C312.2 117.825 311.583 116.051 310.334 115.723C309.085 115.395 307.676 116.638 307.188 118.499C306.7 120.36 307.317 122.134 308.566 122.462C309.815 122.789 311.224 121.547 311.712 119.686Z" fill="#654B1E"/>
<path d="M269.446 114.132C269.242 114.132 269.043 114.069 268.877 113.95C268.71 113.832 268.585 113.664 268.519 113.471C268.453 113.278 268.448 113.069 268.507 112.874C268.565 112.678 268.683 112.505 268.844 112.38C278.526 104.802 291.77 106.079 295.263 109.645C295.445 109.831 295.545 110.081 295.543 110.341C295.54 110.6 295.434 110.848 295.248 111.03C295.063 111.212 294.813 111.312 294.553 111.309C294.294 111.307 294.046 111.201 293.864 111.015C291.349 108.447 279.128 106.818 270.053 113.921C269.88 114.058 269.666 114.132 269.446 114.132Z" fill="#654B1E"/>
<path d="M305.914 110.301C305.709 110.302 305.508 110.238 305.34 110.118C305.173 109.998 305.047 109.829 304.982 109.634C304.916 109.439 304.914 109.228 304.975 109.032C305.036 108.835 305.158 108.663 305.322 108.539C309.202 105.604 312.954 104.714 314.398 104.626C314.657 104.614 314.911 104.706 315.102 104.881C315.294 105.056 315.408 105.3 315.42 105.56C315.432 105.819 315.34 106.073 315.165 106.265C314.989 106.456 314.745 106.571 314.486 106.582C313.052 106.646 309.745 107.634 306.501 110.081C306.335 110.216 306.129 110.294 305.914 110.301Z" fill="#654B1E"/>
<path d="M301.765 140.443C299.644 140.385 297.615 139.563 296.051 138.129C295.979 138.064 295.92 137.987 295.878 137.899C295.836 137.812 295.811 137.718 295.805 137.621C295.8 137.525 295.813 137.428 295.845 137.337C295.876 137.245 295.926 137.161 295.99 137.089C296.054 137.017 296.132 136.958 296.219 136.916C296.306 136.873 296.401 136.849 296.497 136.843C296.594 136.837 296.69 136.851 296.782 136.882C296.873 136.914 296.957 136.964 297.03 137.028C299.084 138.843 301.8 139.474 303.781 138.559C305.488 137.786 306.433 136.03 306.428 133.603C306.428 130.179 305.17 127.732 304.065 125.55C303.311 124.083 302.661 122.796 302.533 121.465C302.524 121.369 302.535 121.272 302.563 121.179C302.592 121.087 302.638 121.001 302.7 120.926C302.825 120.776 303.004 120.681 303.199 120.663C303.393 120.645 303.587 120.705 303.738 120.829C303.888 120.954 303.983 121.134 304.001 121.328C304.099 122.38 304.696 123.54 305.381 124.885C306.506 127.087 307.905 129.831 307.905 133.608C307.905 136.597 306.624 138.892 304.393 139.9C303.566 140.267 302.67 140.452 301.765 140.443Z" fill="#BB8A52"/>
<path d="M291.854 150.961C289.016 150.961 283.62 150.286 280.254 145.609C280.179 145.505 280.125 145.386 280.095 145.261C280.066 145.136 280.061 145.006 280.082 144.879C280.102 144.752 280.148 144.63 280.216 144.521C280.283 144.412 280.372 144.317 280.476 144.242C280.581 144.166 280.699 144.112 280.824 144.083C280.949 144.053 281.079 144.049 281.206 144.07C281.333 144.09 281.455 144.136 281.564 144.203C281.674 144.271 281.769 144.36 281.844 144.464C285.469 149.503 292.01 149.068 293.282 148.931C293.542 148.903 293.802 148.979 294.005 149.143C294.208 149.307 294.338 149.545 294.366 149.804C294.394 150.064 294.317 150.324 294.154 150.527C293.99 150.73 293.752 150.86 293.492 150.888C292.948 150.941 292.401 150.966 291.854 150.961Z" fill="#BB8A52"/>
<path d="M240.111 123.5C239.983 123.5 239.856 123.466 239.744 123.402C239.633 123.337 239.54 123.245 239.475 123.133C234.471 114.454 227.245 113.138 224.51 113.838C224.417 113.862 224.319 113.868 224.224 113.856C224.128 113.843 224.036 113.811 223.953 113.763C223.87 113.715 223.797 113.65 223.738 113.574C223.68 113.497 223.637 113.41 223.612 113.317C223.587 113.223 223.581 113.126 223.594 113.031C223.607 112.935 223.638 112.843 223.687 112.76C223.735 112.676 223.799 112.603 223.876 112.545C223.952 112.486 224.04 112.444 224.133 112.419C227.778 111.44 235.513 113.295 240.767 122.375C240.831 122.486 240.865 122.613 240.865 122.742C240.865 122.871 240.831 122.997 240.767 123.109C240.702 123.22 240.61 123.313 240.498 123.377C240.387 123.442 240.26 123.476 240.131 123.476L240.111 123.5Z" fill="#BB8A52"/>
<path d="M232.298 123.838C231.494 123.877 230.692 123.713 229.967 123.362C229.243 123.01 228.617 122.483 228.149 121.827C227.582 120.974 227.289 119.967 227.309 118.943C227.329 117.918 227.662 116.924 228.262 116.093C229.465 114.498 231.471 114.019 233.761 114.787C233.945 114.852 234.096 114.987 234.18 115.164C234.265 115.34 234.276 115.542 234.211 115.726C234.146 115.911 234.011 116.062 233.835 116.146C233.658 116.23 233.456 116.241 233.272 116.177C231.598 115.614 230.224 115.898 229.412 116.974C228.997 117.56 228.769 118.256 228.756 118.973C228.743 119.691 228.946 120.395 229.338 120.996C230.253 122.331 232 122.708 234.26 122.062C234.442 122.022 234.633 122.053 234.794 122.149C234.954 122.245 235.072 122.398 235.123 122.578C235.175 122.758 235.155 122.95 235.069 123.116C234.983 123.282 234.837 123.409 234.661 123.471C233.894 123.702 233.099 123.825 232.298 123.838Z" fill="#BB8A52"/>
<path d="M219.696 155.545C219.001 158.036 218.228 160.589 217.416 163.178C206.917 161.495 208.634 156.162 219.696 155.545Z" fill="url(#paint18_linear_543_2006)"/>
<path d="M156.575 386.259C141.291 401.69 124.393 413.3 116.164 405.071C107.935 396.842 116.751 374.801 129.828 359.664C142.905 344.528 157.602 341.294 162.891 344.821L156.575 386.259Z" fill="url(#paint19_linear_543_2006)"/>
<path d="M178.536 356.118C175.111 353.672 171.921 351.348 169.309 349.464C172.107 345.575 169.098 339.552 163.927 332.287C177.009 298.53 185.483 280.531 186.995 264.044C187.583 257.872 187.583 251.658 186.995 245.487C188.462 247.116 191.236 252.693 191.76 264.567C192.23 275.066 180.097 327.028 178.536 356.118Z" fill="url(#paint20_linear_543_2006)"/>
<path d="M270.224 415.809C268.419 419.17 265.258 419.625 256.075 414.513C259.656 420.78 253.331 427.629 247.435 423.715C248.903 427.693 244.231 433.886 236.374 429.253C236.374 429.253 235.356 432.424 227.797 430.413C220.239 428.402 196.731 414.351 192.538 411.455C188.345 408.559 166.349 396.807 160.987 393.559C159.813 392.844 157.073 391.303 153.463 389.327C147.103 385.814 138.076 380.931 130.64 376.895C126.912 374.87 123.575 373.055 121.168 371.734C123.696 367.464 126.595 363.425 129.833 359.664C141.628 346.015 154.735 342.052 161.075 344.009C161.72 344.197 162.333 344.479 162.895 344.845C162.895 344.845 203.013 373.95 204.73 374.645C206.447 375.339 230.787 373.338 234.324 373.03C237.861 372.722 241.085 375.105 246.065 378.642C251.046 382.179 261.114 385.09 261.114 385.09L250.801 393.172C250.801 393.172 262.093 402.908 266.628 406.827C271.163 410.745 271.726 413.02 270.224 415.809Z" fill="#F2BA70"/>
<path d="M280.742 374.455C271.985 385.756 264.108 395.952 260.067 401.177L250.772 393.173C250.772 393.173 249.436 392.194 246.902 390.037C248.986 387.811 251.373 385.301 253.971 382.591C259.035 377.292 264.911 371.221 270.953 364.978C269.333 368.691 277.283 376.265 280.742 374.455Z" fill="url(#paint21_linear_543_2006)"/>
<path d="M250.801 393.906C250.642 393.907 250.488 393.855 250.361 393.76C250.332 393.76 247.333 391.47 241.922 386.67C241.776 386.541 241.688 386.359 241.677 386.164C241.666 385.97 241.733 385.779 241.863 385.633C241.993 385.488 242.175 385.4 242.369 385.389C242.564 385.378 242.755 385.445 242.9 385.575C248.282 390.33 251.217 392.566 251.246 392.585C251.37 392.678 251.461 392.807 251.507 392.954C251.553 393.101 251.551 393.258 251.502 393.404C251.454 393.551 251.36 393.678 251.235 393.768C251.11 393.858 250.96 393.906 250.806 393.906H250.801Z" fill="#BB8A52"/>
<path d="M256.075 415.247C255.923 415.247 255.774 415.199 255.65 415.11C248.541 410.071 239.29 403.006 239.197 402.938C239.115 402.881 239.045 402.809 238.992 402.725C238.939 402.641 238.903 402.547 238.888 402.448C238.872 402.35 238.876 402.25 238.901 402.153C238.925 402.057 238.969 401.966 239.029 401.887C239.09 401.808 239.166 401.742 239.252 401.693C239.339 401.645 239.435 401.614 239.534 401.603C239.633 401.593 239.733 401.602 239.828 401.632C239.923 401.661 240.011 401.709 240.087 401.773C240.18 401.842 249.407 408.892 256.496 413.916C256.622 414.007 256.717 414.135 256.766 414.282C256.815 414.43 256.815 414.589 256.768 414.737C256.721 414.885 256.628 415.014 256.502 415.105C256.377 415.197 256.226 415.247 256.07 415.247H256.075Z" fill="#BB8A52"/>
<path d="M247.435 424.449C247.301 424.449 247.169 424.412 247.054 424.342C246.976 424.298 239.378 419.665 233.845 415.628C233.763 415.573 233.694 415.502 233.64 415.419C233.587 415.336 233.551 415.244 233.534 415.146C233.517 415.049 233.52 414.95 233.543 414.854C233.565 414.758 233.607 414.668 233.665 414.588C233.723 414.509 233.796 414.442 233.881 414.391C233.966 414.341 234.059 414.308 234.157 414.294C234.255 414.281 234.354 414.287 234.449 414.313C234.544 414.339 234.633 414.384 234.71 414.444C240.175 418.442 247.724 423.04 247.798 423.089C247.934 423.173 248.039 423.298 248.098 423.447C248.156 423.596 248.165 423.76 248.121 423.914C248.078 424.068 247.986 424.203 247.859 424.3C247.731 424.397 247.576 424.449 247.416 424.449H247.435Z" fill="#BB8A52"/>
<path d="M236.374 429.983C236.25 429.982 236.129 429.95 236.021 429.89C232.846 428.143 228.742 425.208 228.565 425.086C228.407 424.972 228.3 424.8 228.269 424.608C228.237 424.416 228.283 424.219 228.397 424.061C228.51 423.902 228.682 423.796 228.874 423.764C229.066 423.733 229.263 423.778 229.422 423.892C229.466 423.921 233.634 426.901 236.731 428.603C236.872 428.682 236.984 428.806 237.048 428.955C237.112 429.104 237.125 429.269 237.084 429.426C237.044 429.583 236.953 429.723 236.825 429.822C236.698 429.922 236.541 429.977 236.379 429.978L236.374 429.983Z" fill="#BB8A52"/>
<path d="M161.075 343.985C147.401 347.683 135.239 364.107 130.64 376.896C126.912 374.87 123.575 373.055 121.168 371.734C123.696 367.464 126.595 363.425 129.833 359.665C141.628 346.015 154.735 342.042 161.075 343.985Z" fill="#D39E5F"/>
<path d="M429.706 421.734C427.617 424.993 423.649 430.232 419.657 430.394C418.05 430.509 416.444 430.173 415.019 429.422C413.594 428.672 412.407 427.537 411.594 426.147C405.464 430.687 402.049 424.215 402.049 424.215C396.853 426.553 394.539 421.969 394.539 421.969C391.736 422.86 388.6 422.003 387.528 419.611C385.987 416.186 385.312 410.227 386.579 406.504C388.375 401.216 394.128 401.269 394.539 407.409C396.354 403.285 401.638 403.432 402.367 408.877C406.252 402.943 412.71 404.787 412.641 410.482C417.592 403.862 423.218 409.18 420.395 414.2C420.2 414.552 420.053 414.929 419.96 415.32C419.82 415.541 419.719 415.785 419.662 416.039C419.46 417.276 419.46 418.536 419.662 419.772C419.662 419.772 425.151 420.878 429.706 421.734Z" fill="#F2BA70"/>
<path d="M407.387 428.495C406.959 428.496 406.532 428.448 406.115 428.353C403.849 427.835 402.387 426.059 401.756 425.129C397.489 426.719 395.048 424.019 394.212 422.825C391.066 423.588 387.974 422.394 386.873 419.889C385.337 416.465 384.525 410.271 385.894 406.245C385.959 406.06 386.095 405.909 386.271 405.825C386.447 405.741 386.65 405.73 386.834 405.794C387.018 405.859 387.169 405.995 387.253 406.171C387.338 406.347 387.349 406.55 387.284 406.734C386.071 410.31 386.795 416.122 388.209 419.307C389.065 421.22 391.751 422.081 394.329 421.264C394.495 421.212 394.674 421.22 394.834 421.287C394.994 421.354 395.126 421.476 395.205 421.631C395.288 421.788 397.284 425.545 401.756 423.534C401.926 423.458 402.119 423.45 402.295 423.51C402.471 423.571 402.618 423.697 402.705 423.862C402.705 423.862 404.07 426.377 406.457 426.915C407.925 427.243 409.495 426.783 411.168 425.545C411.325 425.429 411.521 425.38 411.714 425.408C411.906 425.436 412.08 425.54 412.196 425.697C412.312 425.853 412.361 426.049 412.333 426.242C412.304 426.434 412.201 426.608 412.044 426.724C410.449 427.908 408.894 428.495 407.387 428.495Z" fill="#BB8A52"/>
<path d="M412.631 411.225C412.535 411.224 412.44 411.204 412.351 411.166C412.262 411.128 412.182 411.072 412.115 411.003C412.048 410.934 411.995 410.853 411.959 410.763C411.923 410.674 411.906 410.578 411.907 410.482C411.932 408.319 410.885 406.651 409.172 406.127C407.083 405.491 404.657 406.729 402.983 409.288C402.901 409.413 402.783 409.51 402.645 409.566C402.506 409.621 402.354 409.634 402.208 409.601C402.062 409.568 401.93 409.491 401.829 409.381C401.728 409.271 401.663 409.133 401.643 408.984C401.364 406.881 400.312 405.501 398.825 405.291C397.338 405.08 395.943 406.059 395.219 407.703C395.141 407.881 394.995 408.021 394.813 408.092C394.631 408.162 394.429 408.158 394.25 408.079C394.072 408.001 393.932 407.855 393.862 407.673C393.791 407.491 393.795 407.289 393.874 407.111C394.852 404.855 396.936 403.534 399.025 403.833C400.405 404.029 401.961 405.027 402.724 407.204C404.681 404.978 407.274 404.014 409.573 404.723C411.873 405.433 413.385 407.659 413.345 410.496C413.344 410.687 413.269 410.869 413.136 411.005C413.002 411.141 412.822 411.22 412.631 411.225Z" fill="#BB8A52"/>
<path d="M394.539 422.703C394.413 422.704 394.288 422.672 394.177 422.61C394.067 422.548 393.974 422.459 393.908 422.351C391.736 418.75 391.721 411.328 393.884 407.077C393.925 406.986 393.983 406.905 394.056 406.837C394.13 406.77 394.216 406.718 394.309 406.685C394.403 406.652 394.503 406.639 394.602 406.645C394.701 406.652 394.798 406.678 394.886 406.724C394.975 406.769 395.053 406.831 395.117 406.908C395.181 406.984 395.228 407.072 395.256 407.168C395.285 407.263 395.294 407.363 395.282 407.462C395.271 407.56 395.239 407.656 395.19 407.742C393.292 411.48 393.277 418.466 395.166 421.592C395.233 421.704 395.27 421.831 395.272 421.961C395.275 422.091 395.242 422.22 395.179 422.333C395.115 422.447 395.022 422.541 394.91 422.607C394.797 422.673 394.67 422.708 394.539 422.708V422.703Z" fill="#BB8A52"/>
<path d="M402.049 424.944C401.94 424.944 401.833 424.92 401.735 424.873C401.637 424.827 401.55 424.759 401.481 424.675C399.035 421.656 399.167 412.444 401.746 408.486C401.855 408.33 402.021 408.223 402.208 408.187C402.394 408.151 402.588 408.189 402.747 408.294C402.907 408.398 403.019 408.56 403.062 408.745C403.104 408.931 403.072 409.126 402.974 409.288C400.581 412.938 400.694 421.397 402.616 423.745C402.704 423.853 402.76 423.983 402.777 424.121C402.794 424.259 402.771 424.399 402.712 424.524C402.652 424.65 402.558 424.756 402.441 424.83C402.324 424.904 402.188 424.944 402.049 424.944Z" fill="#BB8A52"/>
<path d="M411.594 426.881C411.473 426.881 411.353 426.85 411.246 426.792C411.14 426.734 411.049 426.65 410.983 426.548C408.947 423.447 409.148 414.234 412.03 410.076C412.085 409.996 412.155 409.929 412.236 409.876C412.317 409.824 412.407 409.788 412.502 409.771C412.597 409.754 412.695 409.755 412.789 409.776C412.883 409.796 412.973 409.835 413.052 409.89C413.131 409.945 413.199 410.015 413.251 410.096C413.304 410.177 413.34 410.268 413.357 410.363C413.374 410.458 413.373 410.555 413.352 410.649C413.332 410.744 413.293 410.833 413.238 410.912C410.733 414.533 410.479 423.099 412.211 425.746C412.283 425.857 412.324 425.985 412.329 426.116C412.335 426.248 412.305 426.379 412.242 426.495C412.18 426.612 412.087 426.709 411.974 426.777C411.86 426.844 411.731 426.881 411.599 426.881H411.594Z" fill="#BB8A52"/>
<path d="M385.126 365.012C372.406 368.965 366.29 381.832 362.049 394.073L352.895 389.826C355.302 386.006 358.006 382.381 360.982 378.985C369.686 369.166 380.077 363.319 385.126 365.012Z" fill="#D39E5F"/>
<path d="M410.17 378.006C402.489 379.601 395.39 381.798 395.605 378.985C395.737 377.219 398.492 375.619 401.965 374.523L406.652 377.199C406.975 377.395 408.335 377.688 410.17 378.006Z" fill="#D39E5F"/>
<path d="M382.137 146.901C383.272 146.901 384.192 145.981 384.192 144.846C384.192 143.711 383.272 142.791 382.137 142.791C381.002 142.791 380.082 143.711 380.082 144.846C380.082 145.981 381.002 146.901 382.137 146.901Z" fill="url(#paint22_linear_543_2006)"/>
<path d="M413.179 146.901C414.314 146.901 415.234 145.981 415.234 144.846C415.234 143.711 414.314 142.791 413.179 142.791C412.045 142.791 411.125 143.711 411.125 144.846C411.125 145.981 412.045 146.901 413.179 146.901Z" fill="url(#paint23_linear_543_2006)"/>
<path d="M444.221 146.901C445.356 146.901 446.276 145.981 446.276 144.846C446.276 143.711 445.356 142.791 444.221 142.791C443.086 142.791 442.167 143.711 442.167 144.846C442.167 145.981 443.086 146.901 444.221 146.901Z" fill="url(#paint24_linear_543_2006)"/>
<path d="M475.264 146.901C476.398 146.901 477.318 145.981 477.318 144.846C477.318 143.711 476.398 142.791 475.264 142.791C474.129 142.791 473.209 143.711 473.209 144.846C473.209 145.981 474.129 146.901 475.264 146.901Z" fill="url(#paint25_linear_543_2006)"/>
<path d="M506.305 146.901C507.44 146.901 508.36 145.981 508.36 144.846C508.36 143.711 507.44 142.791 506.305 142.791C505.17 142.791 504.25 143.711 504.25 144.846C504.25 145.981 505.17 146.901 506.305 146.901Z" fill="url(#paint26_linear_543_2006)"/>
<path d="M596.153 249.303C590.395 250.184 587.67 243.54 588.556 242.909C589.441 242.278 591.98 243.354 591.276 241.896C590.571 240.438 588.556 234.998 590.39 234.557C592.225 234.117 593.11 238.99 593.746 238.29C594.382 237.591 596.848 236.392 597.171 239.367C597.494 242.341 598.815 241.647 599.617 241.011C600.42 240.375 601.535 248.481 596.153 249.303Z" fill="url(#paint27_linear_543_2006)"/>
<path d="M621.193 337.032C624.324 340.814 630.61 338.892 630.322 337.321C630.033 335.751 630.811 336.044 632.455 335.804C634.099 335.565 636.188 334.337 635.39 333.334C634.593 332.331 632.479 333.432 633.013 332.703C633.546 331.974 637.298 330.746 636.926 329.405C636.589 328.143 631.447 330.423 631.398 329.694C631.349 328.965 631.76 326.533 630.527 326.269C628.497 325.78 626.359 330.873 625.923 330.486C625.488 330.1 625.635 328.123 624.828 328.04C622.729 327.766 619.48 334.978 621.193 337.032Z" fill="url(#paint28_linear_543_2006)"/>
<path d="M532.005 379.244C527.152 370.095 524.319 360.164 524.05 350.159C523.781 340.154 521.78 339.528 516.853 339.479C514.51 339.479 515.919 318.867 507.303 320.829C501.433 322.169 497.866 337.292 504.94 352.492C504.94 352.492 501.164 350.658 500.865 353.789C500.567 356.92 503.311 363.539 517.157 375.139C526.873 383.285 537.558 383.848 537.558 383.848L532.005 379.244Z" fill="url(#paint29_linear_543_2006)"/>
<path d="M610.88 311.494C611.829 312.302 610.058 319.073 613.076 318.031C616.095 316.988 622.372 312.757 620.713 311.494C619.055 310.232 616.261 309.244 616.701 308.691C617.142 308.138 620.654 306.108 618.512 303.911C616.369 301.715 611.481 302.042 608.35 304.4C605.219 306.759 604.035 310.907 605.219 312.806C607.416 316.304 610.2 310.898 610.88 311.494Z" fill="url(#paint30_linear_543_2006)"/>
<path d="M609.676 278.588C610.053 277.165 610.166 276.02 609.676 275.722C608.209 274.777 606.912 276.367 605.655 285.555L606.834 286.044L607.049 285.555L607.822 286.221C607.822 286.221 613.874 281.749 613.928 278.789C613.982 275.829 611.227 275.653 609.676 278.588Z" fill="url(#paint31_linear_543_2006)"/>
<path d="M607.362 283.256C609.745 284.679 608.228 288.358 605.664 291.573C603.101 294.787 592.577 305.095 581.428 299.107C570.278 293.119 571.105 282.385 574.407 274.537C577.709 266.69 582.401 265.555 585.39 267.316C590.043 270.051 586.711 283.383 591.437 285.217C602.421 289.479 605.009 281.847 607.362 283.256Z" fill="url(#paint32_linear_543_2006)"/>
<path d="M603.252 294.861C603.124 294.861 602.997 294.827 602.885 294.763C598.482 292.224 599.025 286.999 599.568 285.893C599.608 285.802 599.665 285.72 599.737 285.651C599.81 285.583 599.895 285.53 599.988 285.495C600.081 285.461 600.181 285.446 600.28 285.451C600.379 285.456 600.476 285.481 600.565 285.525C600.655 285.569 600.734 285.63 600.799 285.706C600.864 285.781 600.912 285.869 600.942 285.964C600.972 286.058 600.982 286.158 600.972 286.257C600.962 286.356 600.932 286.452 600.884 286.539C600.674 286.969 599.867 291.338 603.614 293.491C603.755 293.572 603.864 293.696 603.926 293.846C603.988 293.995 603.999 294.161 603.957 294.317C603.915 294.473 603.823 294.611 603.695 294.709C603.566 294.808 603.409 294.861 603.247 294.861H603.252Z" fill="#ECB88B"/>
<path d="M595.63 300.051C595.493 300.051 595.359 300.012 595.244 299.939C594.072 299.209 593.12 298.175 592.488 296.948C591.857 295.72 591.57 294.345 591.658 292.967C591.72 291.473 592.181 290.022 592.992 288.765C593.803 287.509 594.935 286.492 596.271 285.819C596.446 285.733 596.647 285.719 596.832 285.782C597.016 285.844 597.168 285.977 597.254 286.152C597.341 286.326 597.354 286.528 597.292 286.712C597.229 286.897 597.096 287.049 596.922 287.135C595.821 287.692 594.889 288.532 594.221 289.569C593.554 290.606 593.175 291.803 593.125 293.035C593.044 294.153 593.27 295.272 593.781 296.269C594.292 297.266 595.067 298.104 596.022 298.691C596.156 298.776 596.259 298.901 596.316 299.05C596.373 299.198 596.38 299.361 596.337 299.514C596.293 299.666 596.201 299.801 596.075 299.897C595.948 299.993 595.794 300.045 595.635 300.046L595.63 300.051Z" fill="#ECB88B"/>
<path d="M586.838 301.558C586.659 301.56 586.484 301.496 586.349 301.377C584.329 299.611 583.492 296.299 584.221 292.943C584.603 291.018 585.5 289.233 586.818 287.778C588.135 286.324 589.823 285.254 591.701 284.685C591.884 284.64 592.077 284.667 592.24 284.761C592.404 284.854 592.525 285.007 592.579 285.187C592.633 285.367 592.616 285.561 592.531 285.729C592.446 285.897 592.299 286.026 592.122 286.089C590.497 286.585 589.036 287.513 587.897 288.775C586.758 290.036 585.983 291.583 585.654 293.251C585.038 296.094 585.689 298.848 587.313 300.267C587.426 300.365 587.506 300.496 587.542 300.642C587.579 300.787 587.57 300.94 587.516 301.08C587.463 301.221 587.368 301.341 587.244 301.426C587.12 301.51 586.974 301.555 586.824 301.553L586.838 301.558Z" fill="#ECB88B"/>
<path d="M574.187 293.026C574.129 293.033 574.069 293.033 574.011 293.026C573.822 292.98 573.66 292.861 573.559 292.695C573.458 292.529 573.427 292.329 573.473 292.141C575.508 283.784 581.11 279.91 589.241 281.182C589.436 281.212 589.61 281.319 589.726 281.478C589.842 281.637 589.89 281.836 589.86 282.03C589.829 282.225 589.723 282.4 589.564 282.516C589.404 282.632 589.206 282.68 589.011 282.649C581.638 281.48 576.756 284.885 574.896 292.507C574.85 292.659 574.756 292.791 574.628 292.885C574.5 292.978 574.345 293.028 574.187 293.026Z" fill="#ECB88B"/>
<path d="M573.341 278.226C573.208 278.227 573.078 278.191 572.964 278.122C572.85 278.054 572.756 277.956 572.694 277.84C572.631 277.723 572.601 277.591 572.607 277.458C572.613 277.326 572.656 277.197 572.729 277.087C575.024 273.662 577.778 271.705 580.699 271.382C583.424 271.093 586.232 272.272 588.82 274.807C588.893 274.873 588.951 274.953 588.993 275.043C589.034 275.132 589.056 275.229 589.059 275.327C589.062 275.425 589.045 275.523 589.01 275.615C588.974 275.707 588.921 275.79 588.852 275.861C588.783 275.931 588.701 275.987 588.611 276.025C588.52 276.064 588.423 276.083 588.324 276.083C588.226 276.083 588.129 276.063 588.038 276.024C587.948 275.986 587.866 275.929 587.797 275.859C585.532 273.657 583.14 272.625 580.85 272.86C578.38 273.119 575.992 274.87 573.947 277.918C573.879 278.015 573.787 278.093 573.682 278.147C573.576 278.201 573.459 278.228 573.341 278.226Z" fill="#ECB88B"/>
<path d="M586.863 385.13C589.206 386.915 594.627 383.085 593.399 381.656C592.171 380.228 589.744 375.257 593.58 371.035C597.416 366.813 606.476 367.424 606.951 370.081C607.425 372.737 606.271 373.427 603.526 376.759C600.782 380.091 603.458 384.831 606.046 386.103C608.634 387.375 614.216 389.283 619.392 379.68C624.568 370.076 623.888 354.958 612.856 349.988C601.824 345.017 587.753 355.502 584.27 364.768C580.786 374.034 583.727 382.747 586.863 385.13Z" fill="url(#paint33_linear_543_2006)"/>
<path d="M618.889 381.348C618.745 381.348 618.604 381.305 618.484 381.226C618.364 381.147 618.27 381.035 618.213 380.902C617.766 379.855 617.106 378.911 616.277 378.13C615.448 377.349 614.467 376.747 613.394 376.362C610.46 375.314 607.231 375.46 604.402 376.768C604.228 376.841 604.032 376.844 603.856 376.777C603.679 376.709 603.536 376.576 603.455 376.405C603.374 376.234 603.362 376.039 603.422 375.859C603.482 375.68 603.609 375.531 603.776 375.442C606.967 373.969 610.609 373.807 613.918 374.992C615.176 375.445 616.327 376.152 617.299 377.07C618.271 377.987 619.044 379.095 619.569 380.325C619.616 380.437 619.636 380.558 619.625 380.679C619.614 380.8 619.573 380.917 619.506 381.018C619.439 381.119 619.348 381.203 619.241 381.26C619.134 381.318 619.015 381.348 618.893 381.348H618.889Z" fill="#ECB88B"/>
<path d="M606.217 369.777C606.084 369.777 605.954 369.741 605.84 369.673C605.726 369.605 605.633 369.507 605.57 369.39C605.507 369.273 605.477 369.142 605.484 369.009C605.49 368.876 605.532 368.748 605.605 368.637C608.874 363.686 614.74 362.023 622.577 363.833C622.675 363.85 622.769 363.887 622.852 363.942C622.936 363.996 623.007 364.067 623.062 364.15C623.117 364.233 623.155 364.326 623.173 364.424C623.191 364.522 623.188 364.623 623.166 364.72C623.144 364.817 623.102 364.909 623.043 364.989C622.984 365.07 622.91 365.137 622.824 365.188C622.738 365.239 622.643 365.271 622.544 365.284C622.445 365.297 622.345 365.289 622.249 365.262C617.24 364.107 610.508 363.892 606.833 369.445C606.767 369.547 606.675 369.631 606.568 369.689C606.46 369.747 606.339 369.778 606.217 369.777Z" fill="#ECB88B"/>
<path d="M601.809 368.711C601.627 368.711 601.451 368.642 601.316 368.519C601.181 368.396 601.097 368.227 601.08 368.046C600.337 360.193 607.152 351.196 614.583 350.218C614.778 350.193 614.974 350.246 615.13 350.365C615.285 350.485 615.387 350.662 615.412 350.856C615.438 351.051 615.385 351.248 615.265 351.403C615.145 351.559 614.969 351.66 614.774 351.686C608.164 352.552 601.878 360.898 602.543 367.918C602.561 368.112 602.501 368.304 602.377 368.454C602.254 368.603 602.076 368.697 601.882 368.716L601.809 368.711Z" fill="#ECB88B"/>
<path d="M596.609 369.713C596.499 369.713 596.39 369.689 596.291 369.642C596.192 369.594 596.105 369.525 596.036 369.439C591.888 364.268 592.059 354.381 596.359 350.883C596.51 350.76 596.704 350.703 596.898 350.723C597.091 350.743 597.269 350.839 597.392 350.99C597.514 351.141 597.572 351.335 597.551 351.529C597.531 351.722 597.435 351.9 597.284 352.023C593.59 355.031 593.531 363.97 597.181 368.52C597.268 368.628 597.322 368.758 597.338 368.895C597.354 369.033 597.331 369.172 597.271 369.297C597.211 369.422 597.117 369.527 597 369.601C596.883 369.674 596.747 369.714 596.609 369.713Z" fill="#ECB88B"/>
<path d="M593.052 371.421C589.984 371.421 585.498 369.308 583.619 365.061C583.578 364.973 583.554 364.877 583.55 364.78C583.546 364.682 583.561 364.585 583.595 364.493C583.629 364.401 583.681 364.318 583.748 364.246C583.815 364.175 583.895 364.118 583.985 364.078C584.074 364.039 584.17 364.017 584.268 364.015C584.365 364.013 584.463 364.03 584.553 364.066C584.644 364.102 584.727 364.156 584.797 364.224C584.866 364.293 584.922 364.374 584.96 364.464C586.76 368.525 591.432 370.379 593.864 369.875C593.958 369.856 594.056 369.855 594.15 369.873C594.245 369.891 594.335 369.928 594.416 369.981C594.497 370.033 594.566 370.102 594.62 370.182C594.675 370.261 594.713 370.351 594.732 370.445C594.752 370.54 594.753 370.637 594.735 370.732C594.717 370.827 594.68 370.917 594.627 370.998C594.574 371.078 594.506 371.148 594.426 371.202C594.346 371.256 594.257 371.294 594.162 371.314C593.797 371.387 593.425 371.423 593.052 371.421Z" fill="#ECB88B"/>
<path d="M588.243 378.804C587.783 378.804 587.325 378.751 586.878 378.647C584.955 378.202 583.306 376.871 582.098 374.802C582.045 374.718 582.01 374.625 581.994 374.528C581.978 374.431 581.982 374.331 582.005 374.235C582.029 374.14 582.071 374.049 582.13 373.97C582.189 373.891 582.263 373.825 582.349 373.775C582.434 373.726 582.528 373.694 582.626 373.681C582.724 373.669 582.823 373.676 582.918 373.703C583.013 373.73 583.101 373.776 583.178 373.838C583.255 373.899 583.319 373.976 583.365 374.063C584.344 375.775 585.689 376.866 587.206 377.219C587.878 377.364 588.573 377.368 589.247 377.23C589.921 377.092 590.559 376.814 591.12 376.416C591.2 376.363 591.29 376.326 591.384 376.307C591.479 376.289 591.576 376.289 591.671 376.308C591.765 376.327 591.855 376.365 591.935 376.419C592.015 376.472 592.084 376.541 592.137 376.622C592.19 376.702 592.227 376.792 592.246 376.887C592.265 376.981 592.264 377.079 592.245 377.173C592.226 377.268 592.189 377.357 592.135 377.437C592.081 377.517 592.012 377.586 591.932 377.639C590.844 378.382 589.56 378.787 588.243 378.804Z" fill="#ECB88B"/>
<path d="M420.449 422.914C420.311 422.913 420.176 422.874 420.059 422.801C419.942 422.727 419.848 422.622 419.789 422.498C418.566 419.964 418.365 416.465 419.348 414.856C419.396 414.77 419.461 414.694 419.54 414.634C419.618 414.573 419.707 414.529 419.802 414.504C419.898 414.479 419.997 414.473 420.095 414.488C420.193 414.502 420.286 414.536 420.371 414.587C420.455 414.639 420.528 414.706 420.586 414.787C420.643 414.867 420.684 414.958 420.705 415.054C420.727 415.151 420.728 415.25 420.711 415.347C420.693 415.444 420.655 415.537 420.601 415.619C420.033 416.554 419.945 419.45 421.09 421.862C421.144 421.974 421.168 422.097 421.161 422.221C421.154 422.345 421.116 422.465 421.05 422.57C420.984 422.675 420.893 422.762 420.784 422.822C420.676 422.882 420.554 422.913 420.429 422.914H420.449Z" fill="#BB8A52"/>
<path d="M489.886 432.825L460.013 427.253C454.382 422.116 454.451 414.503 468.374 410.257C477.866 411.935 484.216 413.07 484.216 413.07L489.886 432.825Z" fill="url(#paint34_linear_543_2006)"/>
<path d="M481.559 405.878C481.476 418.569 482.538 431.925 494.602 443.769C506.667 455.614 526.197 463.397 550.238 468.51C574.279 473.622 608.316 468.627 617.371 463.75C626.427 458.872 635.586 440.555 635.962 432.815L481.559 405.878Z" fill="url(#paint35_linear_543_2006)"/>
<path d="M635.948 432.825C635.64 435.839 630.454 439.621 621.697 442.669C606.873 447.83 581.804 450.903 552.773 444.626C524.813 438.559 504.05 428.804 492.352 420.14C484.735 414.489 480.963 409.308 481.56 405.908C485.038 386.133 544.706 392.062 578.067 401.382C611.428 410.702 636.785 424.704 635.948 432.825Z" fill="url(#paint36_linear_543_2006)"/>
<path d="M621.696 442.659C606.872 447.82 581.804 450.893 552.773 444.616C524.813 438.549 504.049 428.794 492.352 420.129C499.959 412.116 527.484 409.557 559.172 414.591C593.12 419.963 619.818 432.16 621.696 442.659Z" fill="url(#paint37_linear_543_2006)"/>
<path d="M550.42 429.929C565.097 427.346 574.784 420.932 582.284 417.38C589.784 413.828 597.303 412.742 595.615 419.058C598.756 415.144 610.84 413.5 611.007 417.928C611.325 426.338 598.83 429.332 598.835 429.347C598.84 429.361 605.987 429.112 605.195 431.886C603.771 436.778 571.613 440.384 545.136 428.916L550.42 429.929Z" fill="url(#paint38_linear_543_2006)"/>
<path d="M169.099 350.457C168.96 350.457 168.823 350.417 168.706 350.342C168.588 350.267 168.494 350.161 168.435 350.034C168.376 349.908 168.355 349.768 168.372 349.629C168.39 349.491 168.447 349.361 168.536 349.254C168.595 349.185 168.649 349.107 168.703 349.034C170.904 345.976 169.29 341.093 163.321 332.713L163.287 332.659C161.609 330.311 159.696 327.83 157.881 325.497C157.761 325.343 157.708 325.148 157.732 324.955C157.757 324.762 157.857 324.586 158.01 324.467C158.164 324.347 158.359 324.294 158.552 324.318C158.745 324.343 158.921 324.443 159.04 324.596C160.88 326.959 162.817 329.489 164.52 331.857L164.554 331.91C169.295 338.549 173.209 345.316 169.936 349.895C169.862 349.998 169.789 350.095 169.711 350.193C169.637 350.282 169.543 350.353 169.436 350.399C169.33 350.445 169.215 350.465 169.099 350.457Z" fill="#C5E0E2"/>
<path d="M163.908 333.021C163.714 333.021 163.528 332.944 163.391 332.808C163.254 332.671 163.176 332.486 163.174 332.292C163.174 332.2 163.191 332.109 163.223 332.023C165.929 325.042 168.478 318.628 170.728 312.972C179.373 291.275 185.053 276.945 186.222 263.97C186.814 257.847 186.823 251.681 186.247 245.555C185.513 238.217 184.128 234.508 183.859 233.838C183.786 233.658 183.787 233.456 183.863 233.276C183.939 233.097 184.082 232.955 184.263 232.882C184.443 232.808 184.645 232.81 184.825 232.885C185.004 232.961 185.146 233.105 185.219 233.285C186.041 235.306 187.122 239.552 187.705 245.409C188.298 251.627 188.298 257.888 187.705 264.107C186.496 277.292 180.767 291.7 172.093 313.52C169.847 319.171 167.299 325.57 164.598 332.542C164.546 332.683 164.452 332.804 164.328 332.89C164.205 332.976 164.058 333.021 163.908 333.021Z" fill="#C5E0E2"/>
<path d="M435.732 413.173C434.128 413.173 431.236 412.38 429.074 407.351C428.526 406.074 427.998 404.782 427.504 403.505C426.579 401.142 425.923 399.239 425.62 398.339C424.641 398.447 422.425 398.672 419.514 398.892C419.418 398.899 419.321 398.887 419.229 398.856C419.138 398.826 419.053 398.778 418.98 398.715C418.906 398.652 418.846 398.575 418.803 398.488C418.76 398.402 418.734 398.308 418.727 398.212C418.72 398.115 418.732 398.019 418.762 397.927C418.792 397.835 418.84 397.75 418.903 397.677C418.967 397.604 419.044 397.544 419.13 397.501C419.216 397.457 419.31 397.431 419.407 397.424C423.394 397.126 426.016 396.813 426.046 396.813C426.213 396.792 426.382 396.829 426.526 396.918C426.669 397.007 426.778 397.143 426.833 397.302C426.833 397.302 427.601 399.689 428.878 402.957C429.367 404.22 429.891 405.496 430.429 406.754C431.897 410.178 433.976 411.949 436.153 411.646C437.748 411.436 438.898 410.178 439.054 409.097C439.168 407.826 439.094 406.545 438.834 405.296C438.175 402.02 437.349 398.781 436.359 395.589C435.742 393.466 435.111 391.269 434.602 389.229C432.988 382.781 429.656 381.71 425.463 380.971L424.323 380.785C424.227 380.77 424.135 380.737 424.051 380.686C423.968 380.636 423.895 380.569 423.837 380.491C423.78 380.412 423.738 380.323 423.715 380.228C423.692 380.133 423.687 380.035 423.702 379.939C423.717 379.842 423.751 379.75 423.801 379.666C423.852 379.583 423.918 379.511 423.997 379.453C424.075 379.395 424.164 379.353 424.259 379.33C424.354 379.307 424.452 379.303 424.549 379.317L425.718 379.513C430.277 380.311 434.201 381.568 436.026 388.858C436.515 390.854 437.156 393.036 437.768 395.149C438.775 398.393 439.614 401.687 440.282 405.017C440.574 406.416 440.651 407.851 440.512 409.273C440.238 411.162 438.453 412.791 436.354 413.07C436.149 413.118 435.942 413.152 435.732 413.173Z" fill="#BB8A52"/>
<path d="M232.166 431.803C230.625 431.772 229.094 431.541 227.612 431.118C227.423 431.068 227.263 430.945 227.165 430.777C227.067 430.609 227.041 430.408 227.09 430.22C227.14 430.032 227.263 429.871 227.431 429.774C227.6 429.676 227.8 429.649 227.988 429.699C234.578 431.451 235.669 429.048 235.679 429.024C235.713 428.919 235.77 428.824 235.846 428.744C235.922 428.664 236.014 428.603 236.117 428.564C236.22 428.525 236.33 428.509 236.44 428.519C236.55 428.528 236.656 428.562 236.751 428.618C240.043 430.575 243.111 430.678 245.195 428.946C246.702 427.683 247.357 425.594 246.75 423.97C246.696 423.825 246.69 423.666 246.732 423.516C246.773 423.367 246.861 423.235 246.983 423.138C247.105 423.042 247.254 422.987 247.409 422.981C247.564 422.975 247.717 423.018 247.846 423.104C250.532 424.885 253.047 424.083 254.5 422.708C256.256 421.064 257.23 418.006 255.444 414.88C255.396 414.796 255.365 414.704 255.353 414.608C255.341 414.512 255.348 414.415 255.374 414.322C255.399 414.229 255.442 414.142 255.502 414.065C255.561 413.989 255.634 413.925 255.718 413.877C255.802 413.829 255.895 413.798 255.99 413.786C256.086 413.774 256.183 413.781 256.276 413.807C256.37 413.832 256.457 413.875 256.533 413.935C256.609 413.994 256.673 414.067 256.721 414.151C258.908 417.977 257.7 421.744 255.508 423.784C254.586 424.665 253.426 425.257 252.171 425.487C250.917 425.716 249.622 425.573 248.448 425.076C248.463 426.029 248.264 426.973 247.865 427.838C247.466 428.704 246.878 429.468 246.144 430.076C244.97 431.054 241.741 432.967 236.628 430.232C236.036 430.912 234.774 431.803 232.166 431.803Z" fill="#BB8A52"/>
<path d="M266.609 407.561C266.429 407.563 266.254 407.499 266.119 407.38C261.584 403.466 250.292 393.726 250.292 393.726L251.271 392.615C251.271 392.615 262.563 402.351 267.098 406.27C267.211 406.368 267.291 406.499 267.327 406.645C267.363 406.79 267.354 406.943 267.301 407.083C267.248 407.224 267.153 407.344 267.029 407.429C266.905 407.513 266.758 407.558 266.609 407.556V407.561Z" fill="#BB8A52"/>
<path d="M331.154 15.6529C326.262 21.465 307.519 23.4807 285.919 20.1001C263.82 16.6314 246.291 8.67638 244.055 1.50907C244.803 1.21613 245.583 1.01249 246.379 0.902404C269.158 -2.21403 309.001 2.93275 328.336 13.3877C329.405 13.9662 330.359 14.7337 331.154 15.6529Z" fill="url(#paint39_linear_543_2006)"/>
<path d="M561.408 390.183C557.245 389.234 557.665 387.287 560.919 386.44C564.172 385.594 570.454 386.074 573.512 390.844C576.569 395.614 571.247 398.221 569.877 397.483C568.507 396.744 566.085 393.427 565.611 394.058C565.136 394.689 564.451 402.013 562.186 401.274C559.921 400.535 554.48 398.75 554.652 397.429C555.033 394.606 561.956 390.31 561.408 390.183Z" fill="url(#paint40_linear_543_2006)"/>
<path d="M558.893 229.753C563.785 230.785 567.029 224.816 564.96 220.35C562.89 215.883 557.225 216.881 555.175 220.751C553.125 224.621 555.106 228.955 558.893 229.753Z" fill="url(#paint41_linear_543_2006)"/>
<path d="M579.681 318.525C578.248 310.888 566.036 305.061 552.098 313.393C541.114 319.958 538.967 330.11 545.293 337.585C551.618 345.061 564.515 341.093 572.039 336.436C579.564 331.778 581.11 326.172 579.681 318.525ZM570.077 334.489C563.888 338.319 553.272 341.592 548.062 335.433C542.851 329.273 544.637 320.927 553.663 315.521C565.136 308.672 575.19 313.456 576.364 319.748C577.538 326.039 576.271 330.677 570.077 334.489Z" fill="url(#paint42_linear_543_2006)"/>
<path d="M528.008 395.472C535.435 395.565 536.056 403.236 532.714 405.961C531.91 406.61 530.97 407.071 529.965 407.31C528.959 407.549 527.913 407.561 526.903 407.344C525.892 407.126 524.943 406.686 524.124 406.055C523.306 405.424 522.638 404.618 522.171 403.696C520.073 399.67 523.36 395.418 528.008 395.472Z" fill="url(#paint43_linear_543_2006)"/>
<path d="M599.138 255.609C598.99 255.61 598.844 255.566 598.722 255.482C595.679 253.393 594.016 248.662 594.162 242.517C594.167 242.326 594.247 242.144 594.384 242.011C594.521 241.877 594.705 241.803 594.896 241.803C595.09 241.808 595.274 241.889 595.408 242.03C595.541 242.17 595.614 242.357 595.61 242.551C595.478 248.114 596.946 252.493 599.524 254.293C599.654 254.381 599.752 254.509 599.804 254.658C599.856 254.806 599.859 254.967 599.812 255.117C599.766 255.267 599.672 255.398 599.546 255.491C599.419 255.584 599.266 255.634 599.108 255.633L599.138 255.609Z" fill="#51823B"/>
<path d="M618.433 338.065C616.675 338.054 614.93 337.758 613.267 337.189C613.175 337.159 613.091 337.111 613.018 337.047C612.945 336.984 612.885 336.907 612.842 336.821C612.799 336.735 612.773 336.641 612.766 336.544C612.759 336.448 612.772 336.351 612.802 336.26C612.833 336.168 612.881 336.084 612.944 336.011C613.007 335.938 613.084 335.878 613.171 335.835C613.257 335.792 613.351 335.766 613.447 335.759C613.543 335.752 613.64 335.765 613.732 335.795C622.293 338.647 627.381 333.05 628.311 331.881C628.434 331.73 628.611 331.634 628.805 331.614C628.998 331.593 629.192 331.651 629.343 331.774C629.494 331.896 629.591 332.074 629.611 332.267C629.631 332.461 629.573 332.655 629.451 332.806C628.122 334.447 626.443 335.771 624.537 336.681C622.631 337.591 620.545 338.064 618.433 338.065Z" fill="#51823B"/>
<path d="M543.458 388.192C543.342 388.193 543.228 388.166 543.125 388.114C525.41 379.126 511.589 356.48 508.737 331.759C508.726 331.662 508.734 331.565 508.761 331.471C508.788 331.378 508.833 331.291 508.893 331.215C508.953 331.139 509.028 331.076 509.113 331.029C509.198 330.982 509.291 330.952 509.388 330.941C509.484 330.931 509.582 330.939 509.675 330.965C509.768 330.992 509.855 331.037 509.931 331.098C510.007 331.158 510.07 331.233 510.117 331.318C510.164 331.403 510.194 331.496 510.205 331.592C513.003 355.844 526.501 378.035 543.796 386.807C543.943 386.882 544.062 387.004 544.131 387.154C544.201 387.304 544.218 387.473 544.179 387.634C544.141 387.795 544.049 387.938 543.919 388.04C543.789 388.142 543.628 388.198 543.463 388.197L543.458 388.192Z" fill="#51823B"/>
<path d="M564.558 431.813C554.277 431.811 544.073 430.031 534.397 426.553C534.3 426.527 534.209 426.48 534.13 426.417C534.052 426.353 533.987 426.275 533.941 426.185C533.894 426.096 533.866 425.998 533.859 425.897C533.852 425.796 533.866 425.695 533.9 425.6C533.933 425.505 533.986 425.418 534.055 425.344C534.124 425.271 534.207 425.212 534.3 425.172C534.392 425.132 534.492 425.111 534.593 425.112C534.694 425.112 534.794 425.133 534.886 425.174C545.94 429.124 557.671 430.829 569.392 430.188C580.713 429.503 589.749 426.416 594.177 421.71C594.243 421.64 594.322 421.583 594.41 421.543C594.498 421.504 594.593 421.482 594.69 421.479C594.787 421.476 594.883 421.492 594.973 421.526C595.063 421.56 595.146 421.612 595.216 421.678C595.287 421.744 595.343 421.824 595.383 421.912C595.423 422 595.445 422.095 595.448 422.191C595.451 422.288 595.435 422.384 595.4 422.474C595.366 422.565 595.314 422.647 595.248 422.718C589.651 428.681 577.866 431.813 564.558 431.813Z" fill="#51823B"/>
<defs>
<linearGradient id="paint0_linear_543_2006" x1="444.407" y1="149.723" x2="444.04" y2="140.183" gradientUnits="userSpaceOnUse">
<stop stop-color="#C98348"/>
<stop offset="1" stop-color="#DD9127"/>
</linearGradient>
<linearGradient id="paint1_linear_543_2006" x1="591.745" y1="383.613" x2="597.626" y2="391.412" gradientUnits="userSpaceOnUse">
<stop stop-color="#F7B381"/>
<stop offset="1" stop-color="#FCD7BA"/>
</linearGradient>
<linearGradient id="paint2_linear_543_2006" x1="397.675" y1="204.416" x2="431.3" y2="214.568" gradientUnits="userSpaceOnUse">
<stop stop-color="#E8E8EB"/>
<stop offset="1" stop-color="#D3D3D3"/>
</linearGradient>
<linearGradient id="paint3_linear_543_2006" x1="412.348" y1="196.216" x2="477.695" y2="217.787" gradientUnits="userSpaceOnUse">
<stop stop-color="#E8E8EB"/>
<stop offset="1" stop-color="#D3D3D3"/>
</linearGradient>
<linearGradient id="paint4_linear_543_2006" x1="482.23" y1="203.041" x2="521.98" y2="210.947" gradientUnits="userSpaceOnUse">
<stop stop-color="#E8E8EB"/>
<stop offset="1" stop-color="#D3D3D3"/>
</linearGradient>
<linearGradient id="paint5_linear_543_2006" x1="408.184" y1="155.633" x2="426.232" y2="166.896" gradientUnits="userSpaceOnUse">
<stop offset="0.04" stop-color="#654B1E"/>
<stop offset="1" stop-color="#2E1D12"/>
</linearGradient>
<linearGradient id="paint6_linear_543_2006" x1="502.029" y1="155.893" x2="514.549" y2="164.459" gradientUnits="userSpaceOnUse">
<stop offset="0.04" stop-color="#654B1E"/>
<stop offset="1" stop-color="#2E1D12"/>
</linearGradient>
<linearGradient id="paint7_linear_543_2006" x1="436.433" y1="155.359" x2="458.062" y2="163.897" gradientUnits="userSpaceOnUse">
<stop offset="0.04" stop-color="#654B1E"/>
<stop offset="1" stop-color="#2E1D12"/>
</linearGradient>
<linearGradient id="paint8_linear_543_2006" x1="242.45" y1="89.7676" x2="240.077" y2="114.821" gradientUnits="userSpaceOnUse">
<stop offset="0.04" stop-color="#654B1E"/>
<stop offset="1" stop-color="#2E1D12"/>
</linearGradient>
<linearGradient id="paint9_linear_543_2006" x1="283.747" y1="59.6546" x2="300.669" y2="98.2407" gradientUnits="userSpaceOnUse">
<stop stop-color="white"/>
<stop offset="1" stop-color="#DDF1F3"/>
</linearGradient>
<linearGradient id="paint10_linear_543_2006" x1="258.13" y1="316.083" x2="129.339" y2="375.741" gradientUnits="userSpaceOnUse">
<stop stop-color="white"/>
<stop offset="1" stop-color="#DDF1F3"/>
</linearGradient>
<linearGradient id="paint11_linear_543_2006" x1="151.863" y1="309.714" x2="80.689" y2="267.781" gradientUnits="userSpaceOnUse">
<stop stop-color="white"/>
<stop offset="1" stop-color="#DDF1F3"/>
</linearGradient>
<linearGradient id="paint12_linear_543_2006" x1="269.436" y1="327.757" x2="216.305" y2="350.257" gradientUnits="userSpaceOnUse">
<stop stop-color="white"/>
<stop offset="1" stop-color="#DDF1F3"/>
</linearGradient>
<linearGradient id="paint13_linear_543_2006" x1="348.443" y1="297.478" x2="318.032" y2="305.731" gradientUnits="userSpaceOnUse">
<stop stop-color="white"/>
<stop offset="1" stop-color="#DDF1F3"/>
</linearGradient>
<linearGradient id="paint14_linear_543_2006" x1="375.958" y1="417.331" x2="368.233" y2="391.587" gradientUnits="userSpaceOnUse">
<stop stop-color="#45A5A5"/>
<stop offset="1" stop-color="#308B85"/>
</linearGradient>
<linearGradient id="paint15_linear_543_2006" x1="431.413" y1="409.044" x2="428.918" y2="423.809" gradientUnits="userSpaceOnUse">
<stop offset="0.04" stop-color="#654B1E"/>
<stop offset="1" stop-color="#2E1D12"/>
</linearGradient>
<linearGradient id="paint16_linear_543_2006" x1="300.659" y1="329.797" x2="314.49" y2="342.732" gradientUnits="userSpaceOnUse">
<stop stop-color="#E8E8EB"/>
<stop offset="1" stop-color="#D3D3D3"/>
</linearGradient>
<linearGradient id="paint17_linear_543_2006" x1="287.073" y1="6.83705" x2="276.589" y2="71.1913" gradientUnits="userSpaceOnUse">
<stop stop-color="white"/>
<stop offset="1" stop-color="#DDF1F3"/>
</linearGradient>
<linearGradient id="paint18_linear_543_2006" x1="215.16" y1="158.921" x2="215.601" y2="164.313" gradientUnits="userSpaceOnUse">
<stop stop-color="#45A5A5"/>
<stop offset="1" stop-color="#308B85"/>
</linearGradient>
<linearGradient id="paint19_linear_543_2006" x1="146.809" y1="392.233" x2="138.561" y2="373.544" gradientUnits="userSpaceOnUse">
<stop stop-color="#45A5A5"/>
<stop offset="1" stop-color="#308B85"/>
</linearGradient>
<linearGradient id="paint20_linear_543_2006" x1="276.755" y1="265.751" x2="245.958" y2="277.238" gradientUnits="userSpaceOnUse">
<stop stop-color="white"/>
<stop offset="1" stop-color="#DDF1F3"/>
</linearGradient>
<linearGradient id="paint21_linear_543_2006" x1="262.171" y1="380.585" x2="270.39" y2="388.804" gradientUnits="userSpaceOnUse">
<stop offset="0.04" stop-color="#654B1E"/>
<stop offset="1" stop-color="#2E1D12"/>
</linearGradient>
<linearGradient id="paint22_linear_543_2006" x1="382.137" y1="135.091" x2="382.137" y2="147.757" gradientUnits="userSpaceOnUse">
<stop stop-color="#E8E8EB"/>
<stop offset="1" stop-color="#D3D3D3"/>
</linearGradient>
<linearGradient id="paint23_linear_543_2006" x1="413.179" y1="135.091" x2="413.179" y2="147.757" gradientUnits="userSpaceOnUse">
<stop stop-color="#E8E8EB"/>
<stop offset="1" stop-color="#D3D3D3"/>
</linearGradient>
<linearGradient id="paint24_linear_543_2006" x1="444.221" y1="135.091" x2="444.221" y2="147.757" gradientUnits="userSpaceOnUse">
<stop stop-color="#E8E8EB"/>
<stop offset="1" stop-color="#D3D3D3"/>
</linearGradient>
<linearGradient id="paint25_linear_543_2006" x1="475.264" y1="135.091" x2="475.264" y2="147.757" gradientUnits="userSpaceOnUse">
<stop stop-color="#E8E8EB"/>
<stop offset="1" stop-color="#D3D3D3"/>
</linearGradient>
<linearGradient id="paint26_linear_543_2006" x1="506.305" y1="135.091" x2="506.305" y2="147.757" gradientUnits="userSpaceOnUse">
<stop stop-color="#E8E8EB"/>
<stop offset="1" stop-color="#D3D3D3"/>
</linearGradient>
<linearGradient id="paint27_linear_543_2006" x1="595.038" y1="240.399" x2="590.674" y2="247.141" gradientUnits="userSpaceOnUse">
<stop stop-color="#AAC76F"/>
<stop offset="1" stop-color="#609640"/>
</linearGradient>
<linearGradient id="paint28_linear_543_2006" x1="628.345" y1="330.741" x2="630.053" y2="337.331" gradientUnits="userSpaceOnUse">
<stop stop-color="#AAC76F"/>
<stop offset="1" stop-color="#609640"/>
</linearGradient>
<linearGradient id="paint29_linear_543_2006" x1="518.952" y1="354.058" x2="500.542" y2="363.5" gradientUnits="userSpaceOnUse">
<stop stop-color="#AAC76F"/>
<stop offset="1" stop-color="#609640"/>
</linearGradient>
<linearGradient id="paint30_linear_543_2006" x1="615.547" y1="313.138" x2="609.167" y2="304.826" gradientUnits="userSpaceOnUse">
<stop stop-color="#C98348"/>
<stop offset="1" stop-color="#DD9127"/>
</linearGradient>
<linearGradient id="paint31_linear_543_2006" x1="609.72" y1="283.119" x2="610.567" y2="273.833" gradientUnits="userSpaceOnUse">
<stop stop-color="#F7B381"/>
<stop offset="1" stop-color="#FCD7BA"/>
</linearGradient>
<linearGradient id="paint32_linear_543_2006" x1="571.017" y1="291.949" x2="587.934" y2="283.275" gradientUnits="userSpaceOnUse">
<stop stop-color="#F7B381"/>
<stop offset="1" stop-color="#FCD7BA"/>
</linearGradient>
<linearGradient id="paint33_linear_543_2006" x1="629.079" y1="346.387" x2="601.594" y2="371.754" gradientUnits="userSpaceOnUse">
<stop stop-color="#F7B381"/>
<stop offset="1" stop-color="#FCD7BA"/>
</linearGradient>
<linearGradient id="paint34_linear_543_2006" x1="467.797" y1="412.62" x2="475.322" y2="427.326" gradientUnits="userSpaceOnUse">
<stop stop-color="#E8E8EB"/>
<stop offset="1" stop-color="#D3D3D3"/>
</linearGradient>
<linearGradient id="paint35_linear_543_2006" x1="539.319" y1="406.397" x2="578.321" y2="454.694" gradientUnits="userSpaceOnUse">
<stop stop-color="#E8E8EB"/>
<stop offset="1" stop-color="#D3D3D3"/>
</linearGradient>
<linearGradient id="paint36_linear_543_2006" x1="597.778" y1="425.365" x2="520.185" y2="416.94" gradientUnits="userSpaceOnUse">
<stop stop-color="#E8E8EB"/>
<stop offset="1" stop-color="#D3D3D3"/>
</linearGradient>
<linearGradient id="paint37_linear_543_2006" x1="555.111" y1="437.253" x2="563.448" y2="411.651" gradientUnits="userSpaceOnUse">
<stop stop-color="#E8E8EB"/>
<stop offset="1" stop-color="#D3D3D3"/>
</linearGradient>
<linearGradient id="paint38_linear_543_2006" x1="577.646" y1="421.465" x2="580.694" y2="435.061" gradientUnits="userSpaceOnUse">
<stop stop-color="#AAC76F"/>
<stop offset="1" stop-color="#609640"/>
</linearGradient>
<linearGradient id="paint39_linear_543_2006" x1="278.404" y1="38.3828" x2="290.538" y2="-0.91266" gradientUnits="userSpaceOnUse">
<stop stop-color="white"/>
<stop offset="1" stop-color="#DDF1F3"/>
</linearGradient>
<linearGradient id="paint40_linear_543_2006" x1="566.203" y1="402.272" x2="562.807" y2="388.05" gradientUnits="userSpaceOnUse">
<stop stop-color="#C98348"/>
<stop offset="1" stop-color="#DD9127"/>
</linearGradient>
<linearGradient id="paint41_linear_543_2006" x1="557.406" y1="218.583" x2="564.226" y2="231.754" gradientUnits="userSpaceOnUse">
<stop stop-color="#E94E4E"/>
<stop offset="1" stop-color="#D33332"/>
</linearGradient>
<linearGradient id="paint42_linear_543_2006" x1="566.809" y1="350.071" x2="559.109" y2="317.37" gradientUnits="userSpaceOnUse">
<stop stop-color="#51823B"/>
<stop offset="1" stop-color="#AAC76F"/>
</linearGradient>
<linearGradient id="paint43_linear_543_2006" x1="527.665" y1="399.337" x2="529.03" y2="405.575" gradientUnits="userSpaceOnUse">
<stop stop-color="#E94E4E"/>
<stop offset="1" stop-color="#D33332"/>
</linearGradient>
</defs>
</svg>
