<svg width="602" height="388" viewBox="0 0 602 388" fill="none" xmlns="http://www.w3.org/2000/svg">
<path d="M554.926 293.059C526.66 320.331 490.499 341.683 451.89 357.163C400.847 377.629 345.537 387.82 298.554 387.824C251.399 387.824 206.743 381.394 167.033 368.887C66.891 337.352 -1.81947 267.217 0.036708 164.333C2.96268 1.86722 221.277 -38.5176 309.048 36.0129C403.306 116.048 442.062 38.372 536.4 80.7567C609.07 113.405 629.025 221.563 554.926 293.059Z" fill="#F4EAC8"/>
<path d="M443.807 176.427C443.807 176.427 435.959 169.981 434.422 168.819C432.885 167.657 432.826 166.053 433.624 165.554C433.624 165.554 428.602 161.51 427.872 156.061C427.073 150.225 430.426 150.808 432.283 152.768C434.139 154.728 435.7 158.991 437.412 158.357C439.125 157.722 438.378 155.259 437.041 154.736C435.704 154.213 436.745 151.986 438.155 152.341C439.564 152.696 439.939 155.758 439.939 157.395C439.939 159.031 441.136 162.672 446.406 161.558C451.675 160.444 468.995 150.042 468.995 150.261C468.995 150.481 473.825 152.553 475.981 151.666C478.136 150.78 482.731 141.567 482.731 141.567L495.76 145.878L481.334 176.419C481.334 176.419 453.243 182.742 443.807 176.427Z" fill="url(#paint0_linear_543_2118)"/>
<path d="M458.892 133.38L476.376 141.02C476.376 141.02 469.705 158.983 469.015 169.649L454.764 162.133C454.764 162.133 454.764 143.128 458.892 133.38Z" fill="url(#paint1_linear_543_2118)"/>
<path d="M443.476 174.839C444.649 171.314 447.739 167.518 456.201 166.101C465.351 164.568 476.492 169.015 471.737 174.484L457.367 178.164L443.476 174.839Z" fill="url(#paint2_linear_543_2118)"/>
<path d="M470.257 176.033H470.229C470.176 176.029 470.125 176.015 470.078 175.992C470.031 175.968 469.989 175.936 469.954 175.896C469.92 175.856 469.893 175.81 469.877 175.76C469.86 175.711 469.854 175.658 469.857 175.605C469.937 174.432 469.291 172.508 467.666 170.867C466.357 169.546 464.005 168.017 460.277 168.233C453.659 168.632 449.012 169.905 444.865 175.298C444.834 175.343 444.795 175.382 444.749 175.411C444.703 175.44 444.651 175.46 444.598 175.468C444.544 175.477 444.489 175.474 444.436 175.461C444.383 175.447 444.334 175.423 444.29 175.39C444.247 175.357 444.211 175.315 444.185 175.267C444.159 175.22 444.142 175.167 444.137 175.113C444.132 175.058 444.138 175.004 444.154 174.952C444.171 174.9 444.198 174.852 444.234 174.811C448.569 169.175 453.383 167.837 460.233 167.434C464.265 167.195 466.808 168.863 468.217 170.304C470.021 172.125 470.732 174.296 470.64 175.661C470.633 175.76 470.59 175.852 470.519 175.92C470.449 175.989 470.355 176.029 470.257 176.033Z" fill="#D33332"/>
<path d="M445.774 176.384C448.265 171.853 452.181 169.322 458.712 169.322C465.242 169.322 466.532 175.058 466.532 175.058L462.899 176.388C462.899 176.388 463.187 171.53 458.656 171.246C454.125 170.963 449.02 172.947 447.479 176.863L445.774 176.384Z" fill="url(#paint3_linear_543_2118)"/>
<path d="M422.367 135.995L440.01 128.929C440.01 128.929 452.273 134.334 454.78 148.832C454.78 148.832 449.467 166.548 449.128 166.204C448.788 165.861 439.483 161.897 439.483 161.897C439.483 161.897 439.619 155.371 438.114 153.299C438.098 153.299 435.021 147.571 422.367 135.995Z" fill="url(#paint4_linear_543_2118)"/>
<path d="M549.717 157.523C546.834 155.256 544.886 160.8 543.33 159.335C541.773 157.87 544.771 152.948 543.33 149.839C541.889 146.729 539.486 150.869 537.829 148.725C536.268 146.729 540.08 142.654 539.027 133.113C538.32 126.674 531.869 114.484 529.099 116.787C526.329 119.09 529.825 128.407 528.436 133.552C527.45 137.209 524.081 134.291 523.443 132.606C522.389 129.812 519.79 125.704 518.153 129.153C516.517 132.602 519.878 138.901 520.149 138.734C520.421 138.566 528.931 143.384 529.398 150.964C529.865 158.545 526.185 159.168 517.479 159.77L510.509 180.735L525.411 186.855L533.103 179.669C545.924 177.713 553.341 160.369 549.717 157.523ZM531.127 139.676C530.803 136.85 531.374 130.894 532.791 130.55C535.154 130.016 536.46 141.153 534.596 142.438C532.731 143.723 531.446 142.502 531.127 139.676ZM538.583 173.151C535.669 175.179 533.682 174.652 533.306 172.7C534.903 169.319 540.017 163.946 542.34 166.021C544.236 167.71 541.501 171.123 538.583 173.151Z" fill="url(#paint5_linear_543_2118)"/>
<path d="M488.323 172.081C488.574 172.081 516.05 169.902 516.301 169.73C516.553 169.558 529.813 159.751 520.496 141.592C511.18 123.433 509.292 118.316 507.491 97.5746C507.308 95.4709 505.942 95.1556 505.208 95.6825C505.208 95.6825 506.453 88.621 505.507 87.9384C504.561 87.2558 504.102 87.1161 502.897 90.0062C501.691 92.8962 498.063 101.942 500.27 115.657C502.478 129.373 506.21 133.221 506.21 133.221L505.012 133.129C505.012 133.129 501.18 126.176 497.029 120.272C492.877 114.368 491.875 114.236 491.217 114.284C490.558 114.332 490.243 115.801 490.993 116.811C491.744 117.821 499.627 127.361 502.797 135.201C504.354 139.053 506.054 145.42 504.865 151.875C503.739 158.07 496.426 164.772 488.323 172.081Z" fill="url(#paint6_linear_543_2118)"/>
<g opacity="0.5">
<path d="M515.483 137.652C515.424 137.652 515.365 137.639 515.311 137.613C515.257 137.588 515.21 137.551 515.172 137.504C507.807 128.323 505.117 118.344 504.155 111.59C503.025 103.678 503.883 97.4188 504.853 95.5027C504.901 95.408 504.984 95.336 505.085 95.3027C505.186 95.2694 505.295 95.2774 505.39 95.3251C505.485 95.3727 505.557 95.4561 505.59 95.5568C505.624 95.6574 505.616 95.7672 505.568 95.862C503.52 99.9097 502.71 120.651 515.799 137.001C515.846 137.06 515.876 137.131 515.885 137.206C515.894 137.281 515.881 137.357 515.849 137.425C515.816 137.493 515.765 137.551 515.701 137.591C515.637 137.631 515.563 137.652 515.487 137.652H515.483Z" fill="#DD9127"/>
<path d="M511.372 136.394C511.304 136.395 511.237 136.377 511.178 136.345C511.118 136.312 511.068 136.264 511.032 136.207C495.836 111.781 503.081 94.4688 505.464 88.7805C505.51 88.6906 505.587 88.6213 505.682 88.5865C505.777 88.5517 505.881 88.554 505.974 88.593C506.067 88.6319 506.142 88.7045 506.183 88.7963C506.225 88.8881 506.23 88.9923 506.198 89.0879C503.855 94.6764 496.73 111.705 511.707 135.792C511.745 135.852 511.766 135.922 511.768 135.993C511.769 136.064 511.752 136.135 511.717 136.197C511.683 136.259 511.632 136.311 511.571 136.347C511.509 136.384 511.439 136.403 511.368 136.402L511.372 136.394Z" fill="#DD9127"/>
<path d="M517.248 137.652C517.184 137.652 517.12 137.636 517.063 137.606C517.006 137.576 516.957 137.533 516.921 137.48C516.817 137.333 514.326 133.724 509.38 121.585C505.364 111.733 506.071 104.393 506.538 99.5345C506.658 98.3011 506.757 97.2353 506.769 96.3171C506.769 96.2113 506.811 96.1097 506.886 96.0349C506.961 95.96 507.063 95.918 507.169 95.918C507.275 95.918 507.376 95.96 507.451 96.0349C507.526 96.1097 507.568 96.2113 507.568 96.3171C507.568 97.2672 507.456 98.349 507.336 99.6024C506.877 104.393 506.183 111.606 510.131 121.274C515.032 133.297 517.563 136.973 517.587 137.009C517.629 137.069 517.653 137.139 517.658 137.212C517.662 137.285 517.647 137.357 517.613 137.422C517.579 137.486 517.529 137.54 517.466 137.578C517.404 137.616 517.333 137.636 517.26 137.636L517.248 137.652Z" fill="#DD9127"/>
<path d="M493.373 172.089C493.291 172.089 493.212 172.064 493.145 172.017C493.078 171.971 493.027 171.905 492.998 171.828C492.97 171.752 492.966 171.668 492.987 171.589C493.007 171.51 493.051 171.439 493.113 171.386C509.268 157.483 508.13 150.629 506.414 140.251C506.334 139.772 506.254 139.286 506.174 138.794C506.158 138.688 506.183 138.579 506.246 138.493C506.309 138.406 506.404 138.347 506.51 138.331C506.616 138.314 506.724 138.339 506.811 138.402C506.898 138.465 506.956 138.56 506.973 138.666C507.053 139.158 507.133 139.644 507.212 140.123C508.909 150.382 510.138 157.798 493.64 171.993C493.566 172.057 493.471 172.091 493.373 172.089Z" fill="#DD9127"/>
<path d="M497.345 173.55C497.269 173.55 497.194 173.528 497.13 173.487C497.065 173.445 497.014 173.387 496.982 173.317C496.95 173.248 496.939 173.171 496.95 173.096C496.96 173.02 496.992 172.949 497.042 172.891C497.904 171.873 498.738 170.895 499.544 169.969C507.688 160.52 512.602 154.8 508.75 140.15C508.73 140.051 508.748 139.947 508.802 139.861C508.856 139.775 508.941 139.712 509.039 139.686C509.137 139.66 509.242 139.673 509.331 139.721C509.42 139.77 509.488 139.85 509.52 139.947C513.48 155.02 508.462 160.844 500.147 170.488C499.349 171.418 498.511 172.388 497.648 173.406C497.611 173.451 497.565 173.486 497.513 173.511C497.46 173.536 497.403 173.549 497.345 173.55Z" fill="#DD9127"/>
<path d="M502.754 172.48C502.674 172.48 502.596 172.456 502.53 172.41C502.464 172.365 502.413 172.301 502.384 172.227C502.354 172.153 502.348 172.071 502.366 171.993C502.383 171.915 502.424 171.844 502.482 171.79C516.318 158.968 513.887 149.436 511.743 141.021L511.524 140.151C511.511 140.1 511.508 140.047 511.516 139.995C511.523 139.943 511.541 139.893 511.568 139.848C511.595 139.803 511.63 139.764 511.672 139.733C511.714 139.701 511.762 139.679 511.813 139.666C511.864 139.653 511.917 139.65 511.969 139.658C512.021 139.665 512.071 139.683 512.116 139.71C512.161 139.737 512.2 139.772 512.231 139.814C512.263 139.856 512.285 139.904 512.298 139.955L512.518 140.821C514.605 149.024 517.208 159.231 503.025 172.356C502.954 172.431 502.857 172.476 502.754 172.48Z" fill="#DD9127"/>
<path d="M506.701 172.48C506.616 172.48 506.532 172.453 506.463 172.402C506.395 172.351 506.344 172.28 506.319 172.198C506.294 172.116 506.296 172.028 506.324 171.947C506.353 171.867 506.407 171.797 506.478 171.75C519.367 163.143 518.006 152.789 515.096 141.121C515.075 141.02 515.094 140.914 515.149 140.827C515.204 140.74 515.291 140.677 515.391 140.652C515.491 140.628 515.597 140.643 515.686 140.694C515.776 140.746 515.842 140.83 515.87 140.929C518.852 152.904 520.241 163.522 506.921 172.416C506.856 172.458 506.779 172.481 506.701 172.48Z" fill="#DD9127"/>
<path d="M511.372 173.099C511.289 173.099 511.209 173.074 511.142 173.026C511.075 172.979 511.023 172.913 510.995 172.835C510.968 172.758 510.964 172.674 510.986 172.595C511.007 172.515 511.053 172.445 511.116 172.392C522.66 162.7 520.696 152.972 518.96 144.39L518.721 143.192C518.7 143.086 518.722 142.977 518.782 142.887C518.843 142.798 518.936 142.736 519.042 142.715C519.148 142.695 519.257 142.717 519.347 142.777C519.436 142.837 519.498 142.931 519.519 143.037L519.754 144.234C521.531 153.016 523.547 162.996 511.639 173.007C511.564 173.069 511.469 173.102 511.372 173.099Z" fill="#DD9127"/>
</g>
<path d="M451.675 180.184C463.798 170.372 480.815 169.546 495.76 169.805C510.705 170.065 528.588 168.073 529.095 153.311C529.095 153.311 535.65 170.137 515.583 176.979C495.517 183.82 492.906 188.403 492.906 188.403L451.675 180.184Z" fill="url(#paint7_linear_543_2118)"/>
<g opacity="0.5">
<path d="M460.257 181.13C460.174 181.13 460.093 181.104 460.025 181.055C459.958 181.007 459.907 180.938 459.88 180.86C459.853 180.781 459.852 180.696 459.876 180.616C459.9 180.537 459.948 180.467 460.013 180.416C466.001 175.817 473.003 171.274 486.854 170.652C500.586 170.033 514.581 171.785 514.721 171.805C514.773 171.812 514.824 171.829 514.87 171.855C514.916 171.881 514.956 171.916 514.988 171.958C515.021 171.999 515.045 172.047 515.059 172.098C515.073 172.149 515.076 172.202 515.07 172.254C515.063 172.307 515.047 172.357 515.02 172.403C514.994 172.449 514.959 172.49 514.918 172.522C514.876 172.555 514.828 172.578 514.777 172.592C514.726 172.606 514.673 172.61 514.621 172.604C514.481 172.604 500.554 170.839 486.894 171.458C473.234 172.077 466.392 176.536 460.504 181.038C460.435 181.096 460.347 181.129 460.257 181.13Z" fill="#DD9127"/>
<path d="M464.648 182.06C464.57 182.06 464.494 182.038 464.428 181.996C464.363 181.954 464.311 181.893 464.28 181.822C464.249 181.75 464.239 181.671 464.252 181.595C464.265 181.518 464.3 181.446 464.353 181.389C472.448 172.544 493.361 172.236 508.813 174.663C508.919 174.68 509.014 174.737 509.077 174.824C509.14 174.91 509.167 175.018 509.15 175.124C509.134 175.23 509.076 175.325 508.99 175.388C508.903 175.452 508.795 175.478 508.689 175.462C493.437 173.066 472.827 173.326 464.943 181.94C464.905 181.979 464.859 182.01 464.808 182.031C464.757 182.051 464.703 182.061 464.648 182.06Z" fill="#DD9127"/>
<path d="M469.885 185.665C469.809 185.665 469.734 185.643 469.67 185.603C469.606 185.562 469.555 185.504 469.523 185.435C469.49 185.367 469.478 185.29 469.488 185.215C469.498 185.139 469.529 185.068 469.577 185.01C475.88 177.382 487.939 174.851 503.587 177.889C503.693 177.909 503.787 177.97 503.847 178.059C503.908 178.148 503.931 178.258 503.911 178.364C503.891 178.47 503.829 178.563 503.74 178.624C503.651 178.685 503.541 178.707 503.436 178.687C488.107 175.709 476.292 178.14 470.192 185.533C470.153 185.576 470.106 185.61 470.053 185.633C470 185.655 469.942 185.666 469.885 185.665Z" fill="#DD9127"/>
</g>
<path d="M524.413 139.248C512.102 132.802 494.279 129.96 481.282 125.676C473.55 123.134 470.759 119.266 468.508 116.388C467.753 115.422 466.149 116.595 466.348 118.551C465.401 117.582 464.508 116.561 463.674 115.493C462.077 113.458 460.592 117.002 463.203 119.884C483.234 142.007 506.937 139.692 516.741 144.398C526.544 149.104 528.213 154.693 528.716 158.321C529.219 161.95 522.728 168.911 516.066 170.971C509.404 173.031 493.908 177.051 489.002 186.232C489.002 186.232 513.699 184.579 514.118 184.543C514.465 184.511 530.388 180.1 535.482 170.708C542.851 162.077 536.328 145.496 524.413 139.248Z" fill="url(#paint8_linear_543_2118)"/>
<g opacity="0.5">
<path d="M504.362 186.667C504.256 186.681 504.149 186.652 504.064 186.588C503.979 186.523 503.923 186.427 503.909 186.321C503.894 186.215 503.923 186.108 503.988 186.023C504.052 185.938 504.148 185.882 504.254 185.868C504.45 185.812 523.934 180.32 530.348 168.975C531.38 167.205 532.039 165.243 532.284 163.209C532.53 161.175 532.358 159.112 531.777 157.147C528.293 144.665 516.505 142.05 504.027 139.284C498.813 138.126 493.42 136.933 488.431 134.981C474.272 129.448 468.112 122.854 463.618 118.04C462.919 117.293 462.26 116.583 461.622 115.924C461.548 115.849 461.507 115.746 461.508 115.641C461.509 115.535 461.552 115.433 461.628 115.359C461.703 115.285 461.806 115.244 461.911 115.245C462.017 115.247 462.119 115.29 462.193 115.365C462.847 116.032 463.51 116.743 464.212 117.497C468.655 122.255 474.743 128.774 488.734 134.242C493.668 136.17 499.029 137.36 504.214 138.51C516.932 141.328 528.963 143.994 532.556 156.94C533.165 159.006 533.346 161.174 533.087 163.312C532.829 165.451 532.136 167.513 531.051 169.374C524.472 181.006 505.288 186.419 504.474 186.643C504.438 186.656 504.4 186.664 504.362 186.667Z" fill="#DD9127"/>
<path d="M495.759 188.363C495.685 188.364 495.613 188.343 495.55 188.305C495.487 188.266 495.436 188.211 495.402 188.145C495.369 188.08 495.354 188.006 495.36 187.932C495.366 187.859 495.392 187.788 495.436 187.729C500.302 181.007 509.539 176.883 515.654 174.157C517.498 173.334 519.091 172.624 520.253 171.989C525.382 169.195 530.088 163.766 528.296 158.461C528.262 158.36 528.27 158.251 528.317 158.155C528.364 158.06 528.447 157.988 528.548 157.954C528.648 157.92 528.758 157.928 528.853 157.975C528.948 158.022 529.021 158.105 529.055 158.206C531.003 163.978 526.228 169.642 520.636 172.692C519.438 173.342 517.842 174.057 515.977 174.887C509.942 177.582 500.809 181.649 496.082 188.2C496.045 188.251 495.997 188.292 495.94 188.32C495.884 188.349 495.822 188.364 495.759 188.363Z" fill="#DD9127"/>
<path d="M535.446 171.115H535.37C535.267 171.094 535.175 171.034 535.116 170.946C535.057 170.859 535.035 170.751 535.055 170.648C536.695 162.109 535.598 154.984 531.794 149.491C524.608 139.073 509.388 136.414 500.298 134.821C499.033 134.602 497.836 134.39 496.83 134.191C487.789 132.444 479.121 129.137 471.214 124.419C471.127 124.364 471.065 124.277 471.041 124.177C471.016 124.077 471.031 123.971 471.083 123.882C471.134 123.793 471.218 123.727 471.317 123.699C471.416 123.67 471.522 123.681 471.613 123.728C479.446 128.401 488.031 131.675 496.985 133.404C497.983 133.604 499.117 133.804 500.434 134.035C509.647 135.632 525.071 138.342 532.448 149.036C536.376 154.728 537.518 162.057 535.833 170.815C535.811 170.901 535.761 170.977 535.691 171.031C535.621 171.086 535.535 171.115 535.446 171.115Z" fill="#DD9127"/>
</g>
<path d="M483.724 156.6C490.694 160.991 500.135 156.764 502.442 147.567C504.749 138.37 503.999 127.428 490.894 133.727C476.799 140.505 478.507 153.299 483.724 156.6Z" fill="url(#paint9_linear_543_2118)"/>
<path d="M490.894 152.772C493.812 152.772 496.179 150.406 496.179 147.487C496.179 144.568 493.812 142.202 490.894 142.202C487.975 142.202 485.608 144.568 485.608 147.487C485.608 150.406 487.975 152.772 490.894 152.772Z" fill="url(#paint10_linear_543_2118)"/>
<path d="M494.327 168.129C493.987 168.564 493.604 169.143 493.157 169.761C489.249 169.734 485.229 169.809 481.218 170.125C479.066 170.292 476.922 170.524 474.795 170.851C470.076 167.61 471.306 164.381 473.05 163.391C474.942 162.317 473.681 159.479 474.12 157.646C474.559 155.814 476.831 154.341 479.309 154.74C482.176 155.207 482.591 152.258 485.624 151.902C487.924 151.635 491.7 152.768 492.363 156.225C493.041 159.754 495.68 158.301 496.334 160.7C496.989 163.099 495.652 166.42 494.327 168.129Z" fill="url(#paint11_linear_543_2118)"/>
<path d="M481.218 170.724C481.072 170.726 480.929 170.675 480.819 170.58C477.713 167.901 476.655 164.808 477.921 162.097C479.186 159.387 482.475 157.906 485.936 158.465C486.727 158.608 487.471 158.947 488.098 159.45C488.725 159.953 489.217 160.605 489.529 161.347C489.915 162.165 490.097 163.065 490.058 163.969C490.02 164.873 489.763 165.754 489.309 166.536C488.84 167.267 488.168 167.844 487.375 168.199C486.582 168.553 485.704 168.669 484.846 168.532C484.133 168.46 483.457 168.178 482.903 167.723C482.349 167.268 481.942 166.659 481.733 165.973C481.526 165.325 481.511 164.63 481.687 163.973C481.864 163.315 482.226 162.723 482.731 162.265C483.565 161.515 484.695 161.231 485.525 161.563C485.933 161.716 486.275 162.007 486.489 162.387C486.704 162.767 486.778 163.21 486.698 163.638C486.559 164.437 485.848 165.339 484.303 165.367C484.146 165.366 483.994 165.304 483.881 165.194C483.768 165.083 483.702 164.934 483.697 164.776C483.696 164.697 483.71 164.619 483.739 164.546C483.768 164.473 483.812 164.406 483.866 164.35C483.921 164.294 483.987 164.249 484.059 164.218C484.131 164.187 484.209 164.17 484.287 164.169C485.086 164.169 485.465 163.77 485.525 163.427C485.553 163.271 485.525 163.111 485.446 162.974C485.367 162.838 485.242 162.733 485.094 162.68C484.813 162.619 484.522 162.631 484.247 162.715C483.972 162.799 483.724 162.952 483.525 163.159C483.189 163.471 482.95 163.872 482.835 164.316C482.72 164.76 482.735 165.227 482.878 165.662C483.024 166.124 483.304 166.532 483.683 166.834C484.063 167.135 484.523 167.317 485.006 167.355C485.633 167.455 486.276 167.372 486.857 167.115C487.438 166.858 487.932 166.438 488.279 165.906C488.627 165.287 488.823 164.595 488.848 163.886C488.874 163.177 488.73 162.472 488.427 161.83C488.195 161.266 487.825 160.77 487.351 160.385C486.878 160.001 486.316 159.742 485.717 159.63C482.783 159.155 480.012 160.373 478.978 162.588C477.945 164.804 478.903 167.355 481.573 169.658C481.667 169.738 481.733 169.845 481.764 169.964C481.795 170.084 481.788 170.21 481.744 170.325C481.7 170.44 481.622 170.539 481.52 170.609C481.418 170.678 481.297 170.714 481.174 170.712L481.218 170.724Z" fill="#ECB88B"/>
<path d="M448.66 245.078L439.172 270.873C439.172 270.873 467.581 278.242 466.811 264.61C465.981 249.869 448.66 245.078 448.66 245.078Z" fill="url(#paint12_linear_543_2118)"/>
<path d="M429.656 216.318C430.298 210.661 437.699 199.911 452.341 197.425L497.448 213.2C497.448 213.2 477.026 229.786 457.47 224.816C437.915 219.846 429.656 216.318 429.656 216.318Z" fill="#F9CBA2"/>
<path d="M439.216 214.745C439.216 214.745 444.565 210.937 451.048 210.881C457.531 210.825 461.311 208.086 461.311 208.086L493.381 212.338C493.381 212.338 486.974 224.964 471.027 225.762C455.08 226.56 439.216 214.745 439.216 214.745Z" fill="#E5AD83"/>
<path d="M533.087 179.669C532.366 182.186 531.509 184.662 530.521 187.086C529.675 189.166 528.72 191.199 527.658 193.177C518.912 209.452 503.309 220.513 479.402 218.098C455.611 215.703 441.328 198.782 436.359 182.915C435.751 180.994 435.275 179.035 434.933 177.051C434.447 174.336 434.276 171.574 434.423 168.82C453.523 180.687 516.829 186.902 533.087 179.669Z" fill="url(#paint13_linear_543_2118)"/>
<path d="M512.154 216.641C506.458 221.255 493.624 224.325 493.624 224.325C480.2 233.274 458.8 231.266 455.487 231.51C455.243 231.51 455.087 231.554 455.059 231.602C454.904 231.797 453.586 235.566 451.79 240.843C450.07 245.88 447.91 252.295 445.906 258.291C443.475 265.552 441.26 272.198 440.318 275.056L439.831 276.521C435.726 273.924 431.97 270.814 428.654 267.264C421.84 259.991 415.17 248.818 419.289 235.166L419.449 234.903C420.646 232.907 428.275 220.082 429.668 216.333C431.177 212.266 450.181 209.459 464.065 219.822C464.863 220.405 469.358 218.293 472.416 215.164C475.473 212.034 478.108 206.118 482.239 205.699C487.03 205.22 486.754 211.595 478.527 220.549C478.527 220.549 486.263 219.267 492.275 213.363C499.795 205.987 505.148 208.861 502.003 214.752C512.533 207.152 518.664 211.359 512.154 216.641Z" fill="#F9CBA2"/>
<path d="M478.507 221.132C478.391 221.132 478.277 221.098 478.179 221.034C478.082 220.97 478.005 220.879 477.958 220.772C477.912 220.666 477.897 220.548 477.917 220.433C477.936 220.318 477.989 220.211 478.068 220.126C483.844 213.839 485.465 209.092 484.507 207.18C484.152 206.47 483.401 206.166 482.279 206.278C479.689 206.542 477.633 209.344 475.645 212.05C474.786 213.284 473.843 214.458 472.823 215.563C470.029 218.417 465.007 221.271 463.686 220.281C454.84 213.679 444.837 213.168 440.933 213.252C440.854 213.255 440.775 213.242 440.701 213.214C440.627 213.186 440.559 213.144 440.502 213.089C440.445 213.034 440.4 212.968 440.369 212.895C440.338 212.823 440.322 212.744 440.322 212.665C440.32 212.586 440.334 212.508 440.363 212.435C440.392 212.362 440.434 212.295 440.489 212.238C440.543 212.181 440.608 212.136 440.68 212.104C440.752 212.073 440.83 212.056 440.909 212.054C444.901 211.963 455.223 212.497 464.36 219.299C465.127 219.467 469.063 217.703 471.945 214.725C472.923 213.659 473.829 212.528 474.655 211.34C476.799 208.418 479.014 205.4 482.136 205.085C483.756 204.921 484.97 205.484 485.553 206.642C486.854 209.24 484.81 214.082 480.192 219.503C482.794 218.761 487.736 216.92 491.812 212.925C496.834 207.999 500.594 207.735 502.282 208.993C503.791 210.122 503.879 212.434 502.486 215.024C502.411 215.165 502.284 215.269 502.132 215.316C501.98 215.362 501.816 215.346 501.676 215.272C501.535 215.197 501.43 215.07 501.384 214.918C501.338 214.766 501.353 214.602 501.428 214.461C502.514 212.43 502.562 210.705 501.564 209.955C500.195 208.929 496.822 209.691 492.65 213.783C486.575 219.743 478.906 221.068 478.579 221.124L478.507 221.132Z" fill="#C98348"/>
<path d="M455.487 231.506C455.243 231.506 455.087 231.55 455.059 231.598C454.904 231.794 453.586 235.562 451.79 240.839C440.765 236.871 440.945 226.768 440.945 226.768C445.048 230.165 455.063 231.45 455.487 231.506Z" fill="#E5AD83"/>
<path d="M445.906 258.287C443.475 265.548 441.26 272.194 440.318 275.052L428.65 267.261C421.836 259.988 415.166 248.815 419.285 235.163L419.445 234.899C421.872 241.494 429.536 257.892 445.906 258.287Z" fill="#E5AD83"/>
<path d="M29.4719 147.759C29.7017 148.031 29.984 148.254 30.302 148.415C30.62 148.575 30.9671 148.67 31.3226 148.694C31.678 148.717 32.0346 148.669 32.3709 148.551C32.7072 148.434 33.0165 148.25 33.2801 148.01L117.694 71.1165C117.876 70.9513 117.986 70.7223 118.002 70.4775C118.019 70.2328 117.94 69.9911 117.782 69.8032C117.701 69.7071 117.602 69.6278 117.491 69.5701C117.38 69.5124 117.258 69.4773 117.133 69.4669C117.008 69.4565 116.882 69.471 116.762 69.5095C116.643 69.5481 116.532 69.6099 116.437 69.6915L29.7753 144.038C29.2443 144.493 28.9145 145.139 28.8577 145.836C28.8008 146.533 29.0216 147.224 29.4719 147.759Z" fill="url(#paint14_linear_543_2118)"/>
<path d="M36.8169 154.178C37.0395 154.457 37.3161 154.688 37.6301 154.857C37.9441 155.026 38.289 155.13 38.6442 155.163C38.9994 155.196 39.3576 155.157 39.6973 155.048C40.0369 154.939 40.3511 154.762 40.621 154.529L127.015 79.8829C127.201 79.7228 127.317 79.4972 127.34 79.2532C127.363 79.0092 127.291 78.7657 127.139 78.5736C127.061 78.4748 126.964 78.3925 126.854 78.3315C126.744 78.2705 126.622 78.2321 126.497 78.2183C126.372 78.2046 126.245 78.2158 126.125 78.2515C126.004 78.2871 125.891 78.3464 125.794 78.426L37.216 150.478C36.6767 150.918 36.3324 151.553 36.2577 152.246C36.183 152.938 36.3839 153.632 36.8169 154.178Z" fill="url(#paint15_linear_543_2118)"/>
<path d="M60.3042 211.563C65.4496 204.869 79.1295 195.84 95.36 188.012L109.838 187.984C109.838 187.984 115.882 199.867 96.9128 213.092C77.9439 226.317 50.5883 222.728 60.3042 211.563Z" fill="url(#paint16_linear_543_2118)"/>
<path d="M104.737 206.206C97.2924 213.715 86.0116 218.677 86.0116 218.677L85.6124 217.116C84.8979 214.322 83.2972 208.098 81.4969 201.205C78.2635 188.83 74.3755 174.328 73.7409 173.578C63.1586 161.075 49.3671 155.215 47.5428 152.269C46.8043 151.072 45.4312 128.251 45.5469 127.197C45.7864 124.554 52.0296 114.707 54.4326 111.394C56.8357 108.08 61.4422 111.346 60.7237 113.681C60.0051 116.016 57.163 123.01 57.0752 123.229C61.8893 118.838 69.1104 113.904 71.6891 113.689C74.5751 113.449 75.126 118.16 72.9345 120.307C71.1542 122.056 63.7774 129.089 63.6496 129.939C63.5219 130.79 62.3323 143.859 62.3323 143.859C64.907 136.582 70.6792 128.091 72.3557 126.131C73.681 124.582 79.1777 120.906 83.0696 119.669C87.4047 118.291 89.1371 122.032 87.5404 123.592C87.5404 123.592 90.4065 123.908 90.2548 126.455C90.1032 129.001 86.4187 133.069 85.7202 134.266C85.0216 135.464 82.6625 144.889 82.6625 144.889C97.6516 154.241 99.1845 157.219 100.989 161.255C102.793 165.291 102.226 174.328 102.226 174.328C102.226 174.328 107.867 184.032 109.435 187.102C109.603 187.381 109.737 187.68 109.835 187.992C113.112 194.75 109.815 201.077 104.737 206.206Z" fill="#F9CBA2"/>
<path d="M62.3321 144.438C62.2897 144.442 62.2469 144.442 62.2044 144.438C62.0622 144.406 61.9363 144.324 61.8504 144.207C61.7644 144.089 61.7242 143.944 61.7374 143.799C61.7853 143.264 62.907 130.73 63.0387 129.864C63.1305 129.245 64.4438 127.704 71.3735 120.986L72.4952 119.896C73.048 119.293 73.4213 118.547 73.573 117.743C73.7246 116.939 73.6486 116.109 73.3534 115.346C73.2338 115.016 73.0091 114.736 72.714 114.547C72.419 114.358 72.07 114.271 71.7208 114.3C69.4814 114.487 62.5397 119.05 57.4622 123.685C57.3426 123.774 57.1937 123.816 57.0448 123.802C56.896 123.787 56.7579 123.718 56.6578 123.606C56.5577 123.495 56.5028 123.351 56.5039 123.201C56.505 123.052 56.5621 122.908 56.6638 122.798C61.4899 118.407 68.8228 113.338 71.633 113.102C72.2285 113.047 72.8257 113.187 73.3348 113.501C73.8438 113.815 74.237 114.286 74.4552 114.843C74.8554 115.828 74.9632 116.908 74.7657 117.953C74.5682 118.998 74.0737 119.963 73.3415 120.735L72.2158 121.832C70.144 123.828 64.6713 129.145 64.2322 130.071C64.1404 130.766 63.6893 135.66 63.3021 139.935C66.1563 133.712 70.3836 127.517 71.9164 125.724C73.3455 124.056 78.9539 120.335 82.9018 119.078C85.696 118.192 87.5123 119.242 88.2787 120.519C88.5262 120.913 88.6775 121.36 88.7205 121.823C88.7635 122.286 88.6969 122.753 88.5262 123.186C89.6718 123.585 90.9811 124.551 90.8654 126.467C90.7416 128.546 88.622 131.349 87.2169 133.205C86.7818 133.78 86.4185 134.275 86.2509 134.546C86.2129 134.617 86.161 134.68 86.0983 134.73C86.0356 134.78 85.9634 134.818 85.886 134.84C85.8086 134.862 85.7275 134.868 85.6477 134.857C85.5679 134.847 85.4909 134.821 85.4214 134.781C85.3519 134.74 85.2913 134.686 85.2432 134.622C85.1951 134.557 85.1604 134.484 85.1413 134.405C85.1222 134.327 85.1191 134.246 85.1321 134.167C85.1451 134.087 85.174 134.011 85.217 133.943C85.4126 133.608 85.7878 133.109 86.2628 132.482C87.5003 130.85 89.5681 128.115 89.6678 126.399C89.7836 124.443 87.5801 124.179 87.4843 124.167C87.372 124.155 87.2657 124.11 87.1776 124.039C87.0895 123.968 87.0232 123.874 86.9865 123.767C86.9498 123.66 86.944 123.545 86.97 123.435C86.9959 123.325 87.0524 123.225 87.1331 123.146C87.3714 122.873 87.5123 122.529 87.5332 122.168C87.5542 121.806 87.4541 121.448 87.2488 121.15C86.7179 120.264 85.3887 119.553 83.257 120.236C79.5487 121.433 74.1278 124.986 72.8185 126.519C71.0781 128.554 65.3898 137.029 62.903 144.059C62.858 144.173 62.7792 144.27 62.6772 144.338C62.5751 144.406 62.4546 144.441 62.3321 144.438Z" fill="#C98348"/>
<path d="M47.5548 152.876C47.4501 152.876 47.3472 152.849 47.2558 152.798C47.1643 152.747 47.0873 152.673 47.0319 152.585C46.8762 152.337 46.4691 151.679 45.6228 139.723C45.2236 133.987 44.8724 127.748 44.9282 127.141C44.9425 126.982 45.0193 126.836 45.1417 126.733C45.2641 126.631 45.4221 126.582 45.5809 126.596C45.7397 126.61 45.8863 126.687 45.9885 126.81C46.0907 126.932 46.1401 127.09 46.1258 127.249C46.03 128.446 47.4071 150.525 48.0658 151.974C48.1439 152.107 48.1667 152.265 48.1294 152.414C48.092 152.563 47.9975 152.692 47.8662 152.772C47.7746 152.836 47.6664 152.872 47.5548 152.876Z" fill="#C98348"/>
<path d="M104.737 206.207L85.6126 217.116C84.8981 214.322 83.2974 208.099 81.4971 201.205C90.1433 200.211 101.959 196.415 109.44 187.082C109.608 187.362 109.742 187.661 109.839 187.972C113.112 194.75 109.815 201.077 104.737 206.207Z" fill="#E5AD83"/>
<path d="M255.187 189.062L322.093 189.956C322.093 189.956 347.177 246.507 347.409 286.868C347.64 327.229 346.263 368.277 346.263 368.277L277.469 369.873C277.469 369.873 264.096 242.38 255.187 189.062Z" fill="url(#paint17_linear_543_2118)"/>
<path d="M321.937 130.239L321.307 129.041C321.207 128.854 321.036 128.715 320.834 128.653C320.631 128.592 320.412 128.614 320.225 128.714C320.038 128.814 319.899 128.984 319.837 129.187C319.776 129.39 319.798 129.609 319.898 129.796L320.528 130.993C330.536 149.695 338.439 164.468 333.985 175.11C331.354 181.405 324.316 186.163 312.481 189.66C312.38 189.69 312.286 189.739 312.205 189.805C312.123 189.871 312.055 189.952 312.005 190.044C311.955 190.136 311.923 190.237 311.912 190.342C311.901 190.446 311.91 190.552 311.94 190.652C311.97 190.753 312.019 190.847 312.085 190.928C312.151 191.01 312.232 191.078 312.324 191.128C312.416 191.178 312.517 191.21 312.621 191.221C312.726 191.232 312.831 191.223 312.932 191.193C325.259 187.553 332.627 182.495 335.454 175.729C340.204 164.384 332.14 149.315 321.937 130.239Z" fill="url(#paint18_linear_543_2118)"/>
<path d="M315.288 76.3778C315.288 76.3778 319.219 81.3316 321.116 90.0696L325.047 89.5586C325.047 89.5586 323.08 73.1006 305.021 60.0634C286.962 47.0263 252.405 55.2174 242.681 80.2379C238.37 91.335 238.15 102.4 236.294 112.663C227.848 132.382 209.126 139.572 192.704 143.567C190.6 144.078 188.557 144.557 186.581 145.02C169.145 149.108 156.53 152.058 145.825 167.011C145.761 167.096 145.714 167.193 145.688 167.296C145.662 167.399 145.657 167.507 145.673 167.612C145.689 167.717 145.726 167.818 145.782 167.909C145.838 167.999 145.911 168.078 145.997 168.14C146.084 168.202 146.182 168.246 146.285 168.27C146.389 168.293 146.497 168.296 146.601 168.277C146.706 168.259 146.806 168.22 146.896 168.162C146.985 168.104 147.062 168.029 147.122 167.941C157.481 153.463 169.839 150.565 186.944 146.561C188.94 146.098 190.972 145.619 193.083 145.104C208.216 141.42 225.253 135.085 234.837 119.078C231.46 130.965 223.948 141.452 202.332 149.188C184.633 155.519 156.97 160.365 150.838 180.024L154.89 181.705C154.89 181.705 161.412 168.764 187.295 165.207C187.295 165.207 166.745 171.035 161.408 184.767C161.408 184.767 169.312 190.004 172.374 197.313C172.374 197.313 187.686 190.1 192.033 183.381C192.033 183.381 188.277 193.461 175.236 201.065L187.994 214.513L269.027 195.544C269.027 195.544 291.892 174.284 265.191 121.8C265.191 121.8 287.106 99.8455 273.573 74.1663C273.573 74.1663 283.88 89.7343 296.011 90.7003L287.744 73.6275C287.744 73.6275 295.796 82.0102 300.199 91.0196C300.199 91.0196 312.386 91.8819 318.649 90.0616C318.637 90.0696 317.615 81.5472 315.288 76.3778Z" fill="url(#paint19_linear_543_2118)"/>
<path d="M317.08 119.453C329.183 148.354 346.124 181.964 300.43 190.427L294.087 157.746L317.08 119.453Z" fill="url(#paint20_linear_543_2118)"/>
<path d="M322.093 189.956L321.526 203.337C321.526 203.337 315.483 205.496 301.647 215.767C283.724 215.152 280.97 208.849 254.429 205.46L254.732 198.902L255.187 189.074C268.991 183.928 272.004 168.943 263.039 136.993C263.039 136.993 249.83 137.975 248.9 127.497C247.73 114.324 257.151 115.05 265.174 121.816C265.174 121.816 287.081 99.8616 273.557 74.1945C273.873 74.6655 284.044 89.7624 295.987 90.7165L287.724 73.6516C287.972 73.9071 295.843 82.1581 300.174 91.0398C300.174 91.0398 310.154 91.7463 316.684 90.5328C321.726 117.461 330.612 157.994 302.202 163.307C302.202 163.307 302.478 169.031 303.029 175.282C303.428 179.761 303.959 184.503 304.625 187.573L322.093 189.956Z" fill="#F9CBA2"/>
<path d="M290.179 366.732H214.06C222.147 337.959 216.455 314.719 212.104 292.086C207.753 269.452 205.114 262.946 205.114 262.946C198.572 269.332 181.231 286.098 166.087 299.838C165.54 300.333 164.989 300.816 164.442 301.279C143.13 319.365 121.391 313.813 106.876 299.682C100.338 293.295 91.3085 280.901 81.6524 265.025C80.5081 263.144 79.3571 261.216 78.1995 259.241C76.8876 256.995 75.569 254.693 74.2437 252.335C70.9704 246.515 67.6852 240.36 64.4638 234.029C62.4387 230.037 60.4428 225.978 58.4762 221.85C55.3546 215.26 60.3044 211.551 60.3044 211.551C56.6519 218.202 64.4718 223.283 88.8496 210.378C112.573 197.82 109.834 187.96 109.834 187.96L116.221 201.317L124.887 219.407L127.917 225.69L130.711 231.498L137.821 246.332C157.069 228.884 159.564 222.92 179.523 203.975C200.384 184.184 211.509 184.076 224.881 185.896C238.254 187.717 243.391 189.748 255.175 189.062C255.175 189.062 276.874 260.004 286.211 303.51C292.143 331.073 290.179 366.732 290.179 366.732Z" fill="url(#paint21_linear_543_2118)"/>
<path d="M252.061 366.732H214.06C222.147 337.959 216.455 314.719 212.104 292.085C207.753 269.452 205.114 262.945 205.114 262.945C205.114 262.945 219.928 240.06 235.36 270.398C246.888 293.071 253.155 339.675 252.061 366.732Z" fill="url(#paint22_linear_543_2118)"/>
<path d="M164.438 301.29C143.126 319.377 121.387 313.824 106.873 299.694C100.334 293.307 91.3046 280.912 81.6485 265.037C80.5042 263.155 79.3532 261.227 78.1956 259.253C76.8837 257.007 75.5651 254.705 74.2398 252.347C70.9665 246.527 67.6813 240.372 64.4599 234.041C62.4348 230.049 60.4389 225.989 58.4723 221.862C55.3507 215.271 60.3005 211.563 60.3005 211.563C56.648 218.213 64.4679 223.295 88.8457 210.389C112.569 197.831 109.83 187.972 109.83 187.972L116.217 201.328L124.883 219.419L127.917 225.69L130.711 231.498L137.821 246.331C137.821 246.331 157.273 280.569 164.438 301.29Z" fill="url(#paint23_linear_543_2118)"/>
<path d="M458.029 286.286L457.295 287.535C454.449 292.417 451.1 298.464 447.076 305.414C446.169 306.979 445.229 308.589 444.258 310.244C442.927 312.488 441.531 314.811 440.07 317.214C434.015 327.129 426.75 338.27 417.928 350.098C409.346 361.606 381.008 364.784 365.053 345.12C363.839 343.603 362.734 342.002 361.744 340.33C355.584 330.075 352.403 316.815 352.403 316.815C352.403 316.815 351.365 352.789 354.247 367.885L340.675 366.101C340.675 366.101 340.128 340.302 339.993 323.832C339.857 307.362 341.913 291.032 334.64 269.213C327.367 247.394 310.805 188.383 310.805 188.383C324.157 188.315 348.12 189.182 361.712 203.085C373.583 215.232 390.249 268.794 394.277 282.154C394.676 283.483 394.951 284.413 395.075 284.864L395.167 285.18C395.987 283.655 396.8 282.121 397.606 280.577C398.694 278.504 399.775 276.415 400.847 274.31C403.841 268.456 406.779 262.476 409.661 256.371C412.934 249.452 416.141 242.379 419.281 235.151C419.217 235.55 417.812 244.891 424.774 254.004C428.586 258.99 435.3 264.614 442.681 267.931C449.092 270.813 456.006 271.951 461.949 269.416C468.592 266.586 465.73 252.288 449.902 246.4C450.082 245.865 450.261 245.334 450.433 244.803C457.299 246.994 467.598 254.06 468.596 262.622C469.326 268.985 464.117 275.987 458.029 286.286Z" fill="url(#paint24_linear_543_2118)"/>
<path d="M458.029 286.285L457.294 287.535C454.448 292.417 451.099 298.464 447.075 305.414C446.168 306.979 445.229 308.589 444.257 310.244C442.927 312.487 441.531 314.811 440.07 317.214C434.014 327.129 426.749 338.27 417.927 350.098C409.345 361.606 381.008 364.784 365.052 345.12C363.839 343.603 362.733 342.002 361.743 340.33C369.539 329.089 385.231 305.725 393.454 288.377C394.002 287.222 394.541 286.053 395.071 284.868L395.162 285.184C395.982 283.659 396.795 282.125 397.601 280.581C398.69 278.508 399.77 276.419 400.843 274.314C403.836 268.46 406.774 262.48 409.656 256.375C412.93 249.456 416.136 242.383 419.277 235.155C419.213 235.554 417.808 244.895 424.769 254.008C428.582 258.994 435.296 264.618 442.676 267.935C449.087 270.817 456.001 271.955 461.945 269.42C468.587 266.59 465.725 252.291 449.898 246.404C450.077 245.869 450.257 245.338 450.429 244.807C457.294 246.998 467.593 254.064 468.591 262.626C469.326 268.985 464.116 275.987 458.029 286.285Z" fill="url(#paint25_linear_543_2118)"/>
<path d="M451.89 357.164C400.847 377.629 345.537 387.82 298.554 387.824C251.399 387.824 206.743 381.394 167.032 368.887L192.448 357.164H382.237C391.115 360.217 400.468 359.826 407.697 357.164H451.89Z" fill="url(#paint26_linear_543_2118)"/>
<path opacity="0.1" d="M451.89 357.164C400.847 377.629 345.537 387.82 298.554 387.824C251.399 387.824 206.743 381.394 167.032 368.887L192.448 357.164H382.237C391.115 360.217 400.468 359.826 407.697 357.164H451.89Z" fill="#52BEB8"/>
<path d="M266.38 128.563C266.264 128.563 266.15 128.529 266.052 128.465C265.955 128.401 265.878 128.31 265.831 128.203C265.785 128.097 265.77 127.978 265.79 127.864C265.809 127.749 265.862 127.642 265.941 127.557C279.473 112.955 280.711 99.3307 279.345 90.469C277.872 80.8528 273.134 74.5977 273.086 74.5338C272.989 74.4078 272.947 74.2485 272.967 74.0909C272.988 73.9333 273.07 73.7904 273.196 73.6935C273.322 73.5967 273.481 73.5538 273.639 73.5744C273.796 73.595 273.939 73.6773 274.036 73.8033C274.24 74.0668 278.99 80.3259 280.523 90.2295C281.932 99.3627 280.703 113.382 266.823 128.367C266.767 128.429 266.699 128.478 266.622 128.512C266.546 128.545 266.463 128.563 266.38 128.563Z" fill="#654B1E"/>
<path d="M277.441 98.4725C277.263 98.4724 277.09 98.4126 276.949 98.3026C276.809 98.1925 276.71 98.0386 276.667 97.8654C276.624 97.6922 276.641 97.5097 276.714 97.347C276.787 97.1842 276.912 97.0507 277.07 96.9677C282.419 94.1455 287.776 93.6066 292.562 95.4069C292.664 95.4408 292.758 95.495 292.839 95.5662C292.919 95.6374 292.985 95.7241 293.031 95.8211C293.077 95.9181 293.103 96.0235 293.108 96.1309C293.112 96.2382 293.095 96.3454 293.057 96.4459C293.019 96.5465 292.961 96.6384 292.887 96.716C292.813 96.7937 292.724 96.8556 292.625 96.898C292.526 96.9403 292.42 96.9624 292.312 96.9627C292.205 96.963 292.098 96.9416 291.999 96.8998C286.511 94.836 281.254 96.5645 277.813 98.3807C277.698 98.441 277.571 98.4725 277.441 98.4725Z" fill="#654B1E"/>
<path d="M303.911 96.6521C303.752 96.6522 303.596 96.6048 303.464 96.5158C303.332 96.4269 303.229 96.3004 303.17 96.1528C303.11 96.0052 303.096 95.8431 303.129 95.6874C303.162 95.5317 303.241 95.3894 303.356 95.2789C307.124 91.6384 313.539 91.7182 315.858 93.5465C316.024 93.6778 316.132 93.8697 316.156 94.08C316.181 94.2904 316.121 94.502 315.99 94.6682C315.859 94.8344 315.667 94.9416 315.456 94.9663C315.246 94.991 315.034 94.9312 314.868 94.7999C313.224 93.5065 307.683 93.299 304.462 96.4245C304.314 96.5686 304.117 96.6502 303.911 96.6521Z" fill="#654B1E"/>
<path d="M264.867 128.562C264.738 128.562 264.611 128.52 264.508 128.442C264.436 128.386 257.323 123.069 252.229 124.171C252.077 124.197 251.921 124.163 251.794 124.076C251.666 123.989 251.577 123.857 251.544 123.706C251.512 123.556 251.539 123.398 251.62 123.267C251.7 123.136 251.829 123.04 251.978 123.001C257.606 121.804 264.923 127.253 265.23 127.488C265.331 127.564 265.406 127.669 265.443 127.79C265.48 127.91 265.479 128.039 265.439 128.158C265.398 128.278 265.321 128.381 265.219 128.455C265.116 128.528 264.993 128.567 264.867 128.566V128.562Z" fill="#C98348"/>
<path d="M259.87 132.51C257.075 132.51 255.479 130.913 254.928 129.257C254.229 127.209 254.956 124.519 257.375 123.565C257.521 123.511 257.683 123.517 257.826 123.581C257.968 123.645 258.08 123.762 258.137 123.907C258.194 124.053 258.193 124.215 258.132 124.359C258.072 124.503 257.958 124.617 257.814 124.678C256.057 125.369 255.547 127.353 256.061 128.87C256.636 130.562 258.528 131.999 262.109 130.961C262.186 130.936 262.267 130.926 262.347 130.932C262.428 130.939 262.506 130.961 262.578 130.999C262.649 131.036 262.712 131.088 262.764 131.151C262.815 131.213 262.852 131.286 262.875 131.363C262.897 131.441 262.904 131.522 262.894 131.602C262.884 131.683 262.858 131.76 262.817 131.83C262.777 131.9 262.722 131.961 262.658 132.009C262.593 132.057 262.519 132.092 262.44 132.111C261.606 132.364 260.741 132.499 259.87 132.51Z" fill="#C98348"/>
<path d="M285.727 116.53C286.875 116.442 287.7 114.985 287.569 113.275C287.439 111.565 286.404 110.249 285.256 110.336C284.109 110.424 283.284 111.881 283.414 113.591C283.544 115.301 284.58 116.617 285.727 116.53Z" fill="#654B1E"/>
<path d="M284.906 112.012C284.827 112.018 284.748 112.007 284.674 111.982C284.599 111.957 284.53 111.918 284.47 111.866C284.35 111.762 284.276 111.614 284.265 111.455C284.254 111.296 284.307 111.14 284.411 111.02C284.516 110.899 284.663 110.826 284.822 110.814C286.02 110.651 287.249 109.497 287.098 108.256C287.078 108.097 287.122 107.937 287.221 107.811C287.319 107.685 287.464 107.603 287.622 107.583C287.781 107.564 287.941 107.608 288.067 107.706C288.194 107.805 288.275 107.949 288.295 108.108C288.543 110.104 286.758 111.757 284.998 112.004L284.906 112.012Z" fill="#654B1E"/>
<path d="M312.425 114.558C313.573 114.471 314.398 113.014 314.267 111.304C314.137 109.593 313.102 108.278 311.954 108.365C310.807 108.452 309.982 109.909 310.112 111.62C310.242 113.33 311.278 114.646 312.425 114.558Z" fill="#654B1E"/>
<path d="M311.587 110.04C311.428 110.051 311.272 109.999 311.152 109.895C311.031 109.79 310.958 109.642 310.947 109.483C310.935 109.325 310.988 109.168 311.092 109.048C311.197 108.928 311.345 108.854 311.503 108.843C312.701 108.679 313.93 107.526 313.779 106.284C313.769 106.205 313.775 106.126 313.796 106.049C313.817 105.973 313.853 105.902 313.902 105.839C313.951 105.777 314.011 105.724 314.08 105.685C314.149 105.646 314.225 105.621 314.304 105.611C314.382 105.602 314.462 105.608 314.538 105.629C314.615 105.65 314.686 105.686 314.749 105.735C314.811 105.783 314.863 105.844 314.902 105.913C314.941 105.982 314.967 106.058 314.976 106.136C315.224 108.132 313.439 109.785 311.679 110.032L311.587 110.04Z" fill="#654B1E"/>
<path d="M303.667 131.36C302.867 131.357 302.068 131.313 301.272 131.229C301.114 131.213 300.968 131.134 300.866 131.011C300.765 130.887 300.718 130.729 300.733 130.57C300.749 130.411 300.828 130.265 300.951 130.164C301.075 130.063 301.233 130.015 301.392 130.031C305.296 130.43 307.679 129.907 308.286 128.53C309.084 126.702 306.853 123.389 304.234 121.062C300.961 118.152 300.346 111.821 302.917 107.514C302.957 107.446 303.011 107.387 303.074 107.34C303.137 107.293 303.209 107.259 303.285 107.239C303.361 107.22 303.441 107.216 303.519 107.228C303.597 107.239 303.672 107.266 303.739 107.306C303.807 107.346 303.866 107.4 303.913 107.463C303.96 107.526 303.994 107.598 304.013 107.674C304.033 107.75 304.037 107.83 304.025 107.908C304.014 107.986 303.987 108.061 303.947 108.128C301.644 111.984 302.151 117.609 305.029 120.167C307.228 122.123 310.617 126.187 309.384 129.013C308.701 130.578 306.781 131.36 303.667 131.36Z" fill="#C98348"/>
<path d="M307.368 137.871C307.368 137.871 307.2 147.527 301.336 148.086C296.71 148.529 291.548 143.922 287.764 138.346C286.762 136.87 285.858 135.33 285.058 133.735C292.067 136.677 299.711 138.525 305.627 138.07C306.226 138.046 306.809 137.979 307.368 137.871Z" fill="url(#paint27_linear_543_2118)"/>
<path d="M305.627 138.087C304.829 139.528 303.34 141.783 302.506 141.967C301.496 142.182 294.075 141.32 287.764 138.374C286.762 136.898 285.858 135.358 285.058 133.764C292.067 136.694 299.711 138.522 305.627 138.087Z" fill="url(#paint28_linear_543_2118)"/>
<path d="M303.041 175.254C278.467 180.284 269.43 141.627 269.43 141.627C283.126 160.716 292.762 164.261 302.214 163.295C302.214 163.295 302.47 169.007 303.041 175.254Z" fill="#E5AD83"/>
<path d="M73.0266 142.717C72.9287 142.717 72.8323 142.693 72.7459 142.647C72.6595 142.601 72.5856 142.535 72.5309 142.453C72.4761 142.372 72.4421 142.279 72.4318 142.182C72.4215 142.084 72.4352 141.986 72.4718 141.895C76.5593 131.636 77.9125 129.149 78.687 128.57C84.6746 124.084 87.2134 123.058 87.3172 123.014C87.3903 122.985 87.4685 122.97 87.5471 122.971C87.6258 122.973 87.7035 122.989 87.7758 123.02C87.8481 123.051 87.9135 123.097 87.9684 123.153C88.0233 123.209 88.0665 123.276 88.0956 123.349C88.1247 123.422 88.1391 123.5 88.138 123.579C88.1369 123.658 88.1203 123.736 88.0891 123.808C88.058 123.88 88.0129 123.946 87.9565 124C87.9001 124.055 87.8334 124.098 87.7603 124.128C87.7363 124.128 85.2415 125.165 79.4055 129.528C78.3836 130.291 74.771 139.36 73.5855 142.338C73.5413 142.45 73.4643 142.546 73.3646 142.614C73.2649 142.682 73.1471 142.718 73.0266 142.717Z" fill="#C98348"/>
<path d="M51.6624 145.24H51.6026C51.5241 145.233 51.448 145.21 51.3784 145.173C51.3089 145.136 51.2473 145.086 51.1973 145.025C51.1472 144.964 51.1096 144.894 51.0867 144.818C51.0638 144.743 51.056 144.664 51.0637 144.586C51.7982 137.117 53.5984 127.022 54.1493 125.824C54.6603 124.726 56.4326 122.99 56.6322 122.794C56.6879 122.737 56.7547 122.691 56.8285 122.659C56.9023 122.628 56.9817 122.611 57.062 122.611C57.1423 122.611 57.2217 122.627 57.2957 122.658C57.3697 122.689 57.4366 122.735 57.4926 122.793C57.5485 122.85 57.5923 122.918 57.6214 122.993C57.6504 123.068 57.6641 123.148 57.6617 123.228C57.6593 123.308 57.6407 123.387 57.6072 123.46C57.5737 123.533 57.5258 123.599 57.4665 123.653C56.9675 124.14 55.5903 125.569 55.2351 126.331C54.8359 127.201 53.0196 136.901 52.2532 144.693C52.2403 144.842 52.1727 144.98 52.0635 145.081C51.9542 145.182 51.8113 145.239 51.6624 145.24Z" fill="#C98348"/>
<path d="M205.11 263.552C204.992 263.552 204.877 263.517 204.779 263.452C204.681 263.387 204.604 263.294 204.558 263.185C204.513 263.077 204.5 262.957 204.522 262.841C204.545 262.725 204.6 262.619 204.683 262.534L212.97 254.084C213.024 254.025 213.09 253.977 213.163 253.944C213.236 253.91 213.315 253.892 213.395 253.89C213.476 253.888 213.556 253.902 213.63 253.931C213.705 253.961 213.773 254.005 213.831 254.061C213.888 254.117 213.933 254.185 213.964 254.259C213.995 254.333 214.011 254.413 214.01 254.493C214.009 254.573 213.993 254.653 213.961 254.726C213.929 254.8 213.882 254.867 213.824 254.922L205.537 263.373C205.481 263.43 205.415 263.475 205.342 263.505C205.268 263.536 205.19 263.552 205.11 263.552Z" fill="#52BEB8"/>
<path d="M147.03 264.506C146.921 264.506 146.814 264.477 146.72 264.421C146.626 264.364 146.55 264.283 146.499 264.187L137.278 246.623C137.204 246.482 137.19 246.318 137.237 246.166C137.285 246.015 137.391 245.888 137.532 245.815C137.672 245.741 137.837 245.726 137.988 245.774C138.14 245.822 138.266 245.927 138.34 246.068L147.561 263.632C147.609 263.723 147.633 263.826 147.63 263.929C147.627 264.032 147.597 264.133 147.544 264.221C147.49 264.31 147.415 264.383 147.325 264.433C147.235 264.484 147.133 264.51 147.03 264.51V264.506Z" fill="#52BEB8"/>
<path d="M352.403 317.425C352.244 317.425 352.092 317.362 351.98 317.25C351.867 317.138 351.804 316.985 351.804 316.827C351.804 288.086 344.647 266.399 337.721 245.442C336.968 243.164 336.224 240.902 335.49 238.656C335.447 238.507 335.464 238.347 335.537 238.21C335.61 238.073 335.733 237.97 335.88 237.922C336.027 237.874 336.187 237.885 336.327 237.953C336.466 238.02 336.574 238.139 336.627 238.284C337.359 240.536 338.103 242.798 338.859 245.07C345.813 266.119 353.006 287.882 353.002 316.831C353.001 316.989 352.937 317.14 352.825 317.251C352.713 317.363 352.561 317.425 352.403 317.425Z" fill="#52BEB8"/>
<path d="M387.148 301.534C386.989 301.534 386.836 301.471 386.724 301.359C386.612 301.246 386.549 301.094 386.549 300.935C386.549 300.225 391.431 290.956 392.936 288.126L393.223 287.591C393.706 286.684 394.185 285.786 394.648 284.928C394.724 284.788 394.852 284.684 395.004 284.639C395.157 284.594 395.321 284.611 395.46 284.687C395.6 284.762 395.704 284.89 395.749 285.043C395.795 285.195 395.778 285.359 395.702 285.499C395.239 286.357 394.764 287.251 394.281 288.153L393.998 288.688C390.533 295.235 387.946 300.404 387.754 301.023C387.733 301.167 387.659 301.299 387.548 301.393C387.436 301.487 387.294 301.537 387.148 301.534Z" fill="#52BEB8"/>
<g opacity="0.25">
<path d="M124.907 219.419C122.161 228.72 115.495 238.029 103.32 246.34C94.1748 252.587 84.4907 253.924 74.2398 252.328C70.9666 246.507 67.6813 240.372 64.46 234.021C74.8386 236.169 85.0695 234.716 97.8153 226.892C110.489 219.112 114.84 211.124 116.241 201.309L124.907 219.419Z" fill="#DDF1F3"/>
<path d="M130.7 231.506C127.389 242.375 120.342 251.722 110.805 257.896C100.825 264.367 91.3249 265.696 81.6648 265.037C80.5205 263.158 79.3695 261.23 78.2119 259.253C90.9856 260.103 99.2127 257.193 108.378 250.579C116.03 245.054 123.547 237.171 127.938 225.698L130.7 231.506Z" fill="#DDF1F3"/>
<path d="M458.029 286.286L457.295 287.535C454.448 292.417 451.099 298.465 447.076 305.414C425.217 305.474 406.108 295.203 400.843 274.326C403.837 268.472 406.775 262.492 409.657 256.387C415.469 273.113 437.108 287.667 458.029 286.286Z" fill="#DDF1F3"/>
<path d="M444.258 310.244C442.927 312.488 441.532 314.811 440.071 317.214C420.307 323.505 401.494 312.887 393.455 288.389C394.033 287.303 394.608 286.222 395.163 285.196C395.98 283.671 396.793 282.137 397.602 280.593C400.871 295.183 415.489 315.537 444.258 310.244Z" fill="#DDF1F3"/>
</g>
<path d="M493.624 224.924C493.499 224.924 493.377 224.886 493.276 224.813C493.174 224.741 493.097 224.639 493.057 224.521C493.016 224.404 493.013 224.276 493.048 224.156C493.083 224.037 493.154 223.931 493.253 223.854C496.977 220.924 500.122 216.928 501.468 214.457C501.543 214.318 501.671 214.214 501.824 214.168C501.976 214.123 502.14 214.14 502.28 214.216C502.42 214.292 502.524 214.42 502.569 214.572C502.614 214.724 502.597 214.888 502.521 215.028C501.12 217.607 497.855 221.762 493.995 224.796C493.889 224.879 493.758 224.925 493.624 224.924Z" fill="#C98348"/>
<path d="M467.003 228.82C466.861 228.821 466.723 228.771 466.614 228.679C466.506 228.588 466.433 228.46 466.41 228.32C466.386 228.18 466.413 228.036 466.486 227.914C466.559 227.792 466.673 227.7 466.807 227.654C470.659 226.309 474.879 223.495 478.088 220.122C478.142 220.063 478.207 220.015 478.279 219.981C478.352 219.947 478.43 219.928 478.51 219.925C478.59 219.922 478.67 219.935 478.744 219.964C478.819 219.992 478.887 220.035 478.945 220.09C479.003 220.146 479.049 220.212 479.081 220.285C479.113 220.358 479.13 220.437 479.131 220.517C479.132 220.597 479.116 220.677 479.086 220.751C479.056 220.825 479.011 220.892 478.954 220.948C475.621 224.453 471.226 227.383 467.202 228.788C467.138 228.81 467.071 228.821 467.003 228.82Z" fill="#C98348"/>
<path d="M530.52 187.086C529.674 189.166 528.719 191.199 527.658 193.177C503.276 197.113 462.859 194.539 436.358 182.914C435.751 180.994 435.274 179.035 434.933 177.051C463.614 186.97 486.718 194.435 530.52 187.086Z" fill="url(#paint29_linear_543_2118)"/>
<path d="M529.019 197.428C497.448 197.428 501.2 182.791 483.724 181.29C489.54 178.044 497.388 181.29 504.362 186.267C511.335 191.245 530.576 196.602 536.4 189.752C540.224 185.249 538.579 180.97 536.994 178.575C538.245 178.039 539.435 177.37 540.543 176.579C547.038 183.353 544.004 197.428 529.019 197.428Z" fill="url(#paint30_linear_543_2118)"/>
<g opacity="0.5">
<path d="M527.075 196.039C525.985 196.039 524.924 195.979 523.926 195.879C517.705 195.206 511.69 193.261 506.254 190.163C497.241 184.822 491.281 181.29 483.744 181.689C483.692 181.691 483.639 181.684 483.59 181.666C483.541 181.648 483.495 181.621 483.456 181.586C483.417 181.551 483.386 181.508 483.363 181.461C483.341 181.413 483.328 181.362 483.325 181.309C483.323 181.257 483.33 181.205 483.348 181.155C483.365 181.106 483.393 181.06 483.428 181.021C483.463 180.982 483.506 180.951 483.553 180.928C483.601 180.906 483.652 180.893 483.704 180.89C491.484 180.491 497.524 184.06 506.661 189.477C516.309 195.193 533.099 198.406 538.524 190.65C542.34 185.189 540.232 180.272 538.635 177.797C538.607 177.753 538.587 177.703 538.578 177.652C538.568 177.6 538.569 177.547 538.58 177.496C538.591 177.445 538.612 177.396 538.641 177.353C538.671 177.309 538.709 177.272 538.753 177.244C538.797 177.215 538.846 177.196 538.898 177.186C538.95 177.177 539.003 177.177 539.054 177.188C539.105 177.199 539.154 177.22 539.197 177.25C539.24 177.28 539.277 177.318 539.306 177.362C541.01 179.988 543.262 185.265 539.178 191.109C536.456 195.001 531.542 196.039 527.075 196.039Z" fill="#DD9127"/>
</g>
<path d="M551.616 137.253C552.355 139.995 564.869 131.924 562.394 128.626C559.388 124.579 550.846 134.383 551.616 137.253Z" fill="url(#paint31_linear_543_2118)"/>
<path d="M515.983 97.9093C514.122 91.1632 516.078 81.7826 521.97 82.4891C526.585 83.04 516.533 88.9318 515.983 97.9093Z" fill="url(#paint32_linear_543_2118)"/>
<g opacity="0.25">
<path d="M443.475 171.446C443.427 171.447 443.38 171.438 443.335 171.422C443.064 171.322 436.681 168.911 433.356 165.834C433.313 165.799 433.278 165.757 433.253 165.709C433.227 165.66 433.212 165.607 433.208 165.553C433.204 165.498 433.211 165.444 433.229 165.392C433.247 165.341 433.275 165.293 433.312 165.253C433.349 165.213 433.394 165.181 433.444 165.158C433.494 165.136 433.547 165.124 433.602 165.124C433.657 165.123 433.711 165.134 433.761 165.155C433.811 165.176 433.857 165.208 433.895 165.247C437.088 168.205 443.551 170.636 443.615 170.66C443.703 170.692 443.777 170.754 443.824 170.836C443.871 170.918 443.888 171.013 443.871 171.106C443.855 171.199 443.806 171.282 443.733 171.342C443.66 171.403 443.569 171.435 443.475 171.434V171.446Z" fill="#654B1E"/>
</g>
<path d="M443.978 143.312C441.735 146.773 440.921 155.319 444.206 161.762C447.491 168.205 456.624 174.651 465.243 165.997L443.978 143.312Z" fill="url(#paint33_linear_543_2118)"/>
<path d="M443.978 143.312C446.373 141 451.686 141.839 459.015 148.222C466.344 154.604 470.088 163.913 462.839 167.965C459.366 169.905 451.351 165.781 447.052 159.981C442.373 153.686 442.118 145.1 443.978 143.312Z" fill="url(#paint34_linear_543_2118)"/>
<path d="M452.161 151.515C455.111 148.262 463.422 153.016 463.789 158.345C464.077 162.476 459.123 165.275 454.505 161.283C451.626 158.792 450.501 153.355 452.161 151.515Z" fill="url(#paint35_linear_543_2118)"/>
<path d="M458.648 123.241C457.407 120.583 454.393 118.799 453.06 119.713C452.05 120.399 452.373 123.936 452.896 125.509C453.694 127.904 456.536 129.317 458.189 128.538C459.323 128 459.51 125.098 458.648 123.241ZM457.486 126.658C456.708 127.022 455.375 126.363 454.996 125.233C454.752 124.495 454.596 122.838 455.075 122.507C455.706 122.076 457.123 122.906 457.706 124.167C458.113 125.038 458.021 126.407 457.486 126.658Z" fill="url(#paint36_linear_543_2118)"/>
<path d="M437.771 110.368C435.312 108.771 431.808 108.867 431.157 110.368C430.666 111.489 432.821 114.312 434.103 115.365C436.059 116.962 439.208 116.655 440.194 115.118C440.873 114.044 439.492 111.477 437.771 110.368ZM438.606 113.876C438.142 114.603 436.662 114.755 435.743 113.996C435.141 113.497 434.127 112.172 434.358 111.645C434.662 110.947 436.31 110.903 437.468 111.645C438.274 112.176 438.925 113.382 438.59 113.876H438.606Z" fill="url(#paint37_linear_543_2118)"/>
<path d="M463.307 75.9226C462.444 74.7969 459.455 75.4476 457.694 77.3117C456.469 78.613 455.83 81.076 456.624 81.8344C457.786 82.9321 460.524 82.5529 461.85 80.7766C462.716 79.615 463.957 76.7688 463.307 75.9226ZM460.173 79.9663C459.554 80.8005 458.265 80.9802 457.718 80.4652C457.343 80.11 457.646 78.9484 458.221 78.3376C459.047 77.4634 460.456 77.1401 460.86 77.683C461.167 78.0821 460.584 79.4194 460.173 79.9663Z" fill="url(#paint38_linear_543_2118)"/>
<path d="M477.968 98.6561C477.389 96.6602 475.062 92.4449 472.831 93.1474C471.39 93.5985 470.568 97.259 471.186 100.133C471.805 103.007 473.773 104.859 475.952 105.27C478.132 105.682 478.543 100.668 477.968 98.6561ZM475.713 102.584C475.145 102.45 474.629 102.151 474.231 101.725C473.833 101.299 473.569 100.764 473.474 100.189C473.182 98.8397 473.569 97.1192 474.244 96.9077C475.294 96.5764 476.388 98.5483 476.659 99.4944C476.93 100.44 476.743 102.776 475.713 102.584Z" fill="url(#paint39_linear_543_2118)"/>
<path d="M448.03 129.001C446.409 128.49 444.717 131.536 444.298 132.993C443.879 134.45 444.178 138.098 445.759 137.783C447.34 137.468 448.773 136.142 449.224 134.051C449.675 131.959 449.072 129.329 448.03 129.001ZM447.555 134.099C447.488 134.519 447.298 134.91 447.009 135.222C446.72 135.534 446.344 135.753 445.93 135.851C445.188 135.991 445.044 134.282 445.244 133.596C445.443 132.909 446.234 131.476 446.996 131.716C447.487 131.883 447.771 133.117 447.555 134.099Z" fill="url(#paint40_linear_543_2118)"/>
<path d="M303.851 138.949C298.434 138.949 291.596 137.352 284.746 134.49C284.551 134.408 284.396 134.252 284.316 134.056C284.236 133.86 284.237 133.64 284.319 133.444C284.401 133.249 284.558 133.094 284.754 133.014C284.95 132.934 285.17 132.935 285.365 133.017C292.786 136.131 300.135 137.688 305.567 137.292C306.134 137.256 306.693 137.189 307.236 137.101C307.339 137.084 307.445 137.087 307.548 137.111C307.65 137.135 307.746 137.179 307.831 137.24C307.917 137.301 307.989 137.378 308.044 137.468C308.1 137.557 308.137 137.656 308.154 137.759C308.171 137.863 308.168 137.969 308.144 138.071C308.12 138.173 308.076 138.27 308.015 138.355C307.954 138.44 307.876 138.512 307.787 138.568C307.698 138.623 307.599 138.66 307.495 138.678C306.905 138.773 306.298 138.845 305.679 138.885C305.06 138.925 304.466 138.949 303.851 138.949Z" fill="#C98348"/>
<defs>
<linearGradient id="paint0_linear_543_2118" x1="463.367" y1="164.4" x2="461.223" y2="145.85" gradientUnits="userSpaceOnUse">
<stop stop-color="#C98348"/>
<stop offset="1" stop-color="#DD9127"/>
</linearGradient>
<linearGradient id="paint1_linear_543_2118" x1="460.912" y1="157.147" x2="477.206" y2="126.989" gradientUnits="userSpaceOnUse">
<stop stop-color="#51823B"/>
<stop offset="1" stop-color="#AAC76F"/>
</linearGradient>
<linearGradient id="paint2_linear_543_2118" x1="458.569" y1="176.751" x2="462.285" y2="209.595" gradientUnits="userSpaceOnUse">
<stop stop-color="#E94E4E"/>
<stop offset="1" stop-color="#D33332"/>
</linearGradient>
<linearGradient id="paint3_linear_543_2118" x1="455.706" y1="164.604" x2="456.101" y2="174.248" gradientUnits="userSpaceOnUse">
<stop stop-color="#E94E4E"/>
<stop offset="1" stop-color="#D33332"/>
</linearGradient>
<linearGradient id="paint4_linear_543_2118" x1="443.224" y1="147.782" x2="427.931" y2="128.913" gradientUnits="userSpaceOnUse">
<stop stop-color="#51823B"/>
<stop offset="1" stop-color="#AAC76F"/>
</linearGradient>
<linearGradient id="paint5_linear_543_2118" x1="524.62" y1="153.467" x2="537.071" y2="145.607" gradientUnits="userSpaceOnUse">
<stop stop-color="#C98348"/>
<stop offset="1" stop-color="#DD9127"/>
</linearGradient>
<linearGradient id="paint6_linear_543_2118" x1="488.259" y1="161.894" x2="507.982" y2="132.79" gradientUnits="userSpaceOnUse">
<stop stop-color="#ECDE74"/>
<stop offset="1" stop-color="#F3CE63"/>
</linearGradient>
<linearGradient id="paint7_linear_543_2118" x1="489.549" y1="133.336" x2="490.774" y2="166.376" gradientUnits="userSpaceOnUse">
<stop stop-color="#ECDE74"/>
<stop offset="1" stop-color="#F3CE63"/>
</linearGradient>
<linearGradient id="paint8_linear_543_2118" x1="455.215" y1="157.479" x2="343.13" y2="183.697" gradientUnits="userSpaceOnUse">
<stop stop-color="#ECDE74"/>
<stop offset="1" stop-color="#F3CE63"/>
</linearGradient>
<linearGradient id="paint9_linear_543_2118" x1="490.035" y1="141.432" x2="501.065" y2="159.091" gradientUnits="userSpaceOnUse">
<stop stop-color="#FFF1E0"/>
<stop offset="1" stop-color="#ECDE74"/>
</linearGradient>
<linearGradient id="paint10_linear_543_2118" x1="490.199" y1="145.412" x2="496.737" y2="164.852" gradientUnits="userSpaceOnUse">
<stop stop-color="#F3CE63"/>
<stop offset="1" stop-color="#D2A651"/>
</linearGradient>
<linearGradient id="paint11_linear_543_2118" x1="485.441" y1="167.39" x2="483.249" y2="162.169" gradientUnits="userSpaceOnUse">
<stop stop-color="#F9CBA2"/>
<stop offset="1" stop-color="#FCD7BA"/>
</linearGradient>
<linearGradient id="paint12_linear_543_2118" x1="466.488" y1="250.008" x2="450.56" y2="262.343" gradientUnits="userSpaceOnUse">
<stop stop-color="#45A5A5"/>
<stop offset="1" stop-color="#308B85"/>
</linearGradient>
<linearGradient id="paint13_linear_543_2118" x1="484.196" y1="183.042" x2="502.806" y2="207.779" gradientUnits="userSpaceOnUse">
<stop stop-color="white"/>
<stop offset="1" stop-color="#DDF1F3"/>
</linearGradient>
<linearGradient id="paint14_linear_543_2118" x1="69.2181" y1="52.7224" x2="72.7268" y2="99.027" gradientUnits="userSpaceOnUse">
<stop stop-color="#E8E8EB"/>
<stop offset="1" stop-color="#D3D3D3"/>
</linearGradient>
<linearGradient id="paint15_linear_543_2118" x1="76.9622" y1="52.1361" x2="80.467" y2="98.4407" gradientUnits="userSpaceOnUse">
<stop stop-color="#E8E8EB"/>
<stop offset="1" stop-color="#D3D3D3"/>
</linearGradient>
<linearGradient id="paint16_linear_543_2118" x1="83.1691" y1="197.78" x2="86.4304" y2="212.206" gradientUnits="userSpaceOnUse">
<stop stop-color="#45A5A5"/>
<stop offset="1" stop-color="#308B85"/>
</linearGradient>
<linearGradient id="paint17_linear_543_2118" x1="364.55" y1="206.059" x2="260.448" y2="324.491" gradientUnits="userSpaceOnUse">
<stop stop-color="#F3CE63"/>
<stop offset="1" stop-color="#D2A651"/>
</linearGradient>
<linearGradient id="paint18_linear_543_2118" x1="265.182" y1="73.5873" x2="307.631" y2="144.797" gradientUnits="userSpaceOnUse">
<stop offset="0.04" stop-color="#654B1E"/>
<stop offset="1" stop-color="#2E1D12"/>
</linearGradient>
<linearGradient id="paint19_linear_543_2118" x1="219.221" y1="100.991" x2="261.67" y2="172.196" gradientUnits="userSpaceOnUse">
<stop offset="0.04" stop-color="#654B1E"/>
<stop offset="1" stop-color="#2E1D12"/>
</linearGradient>
<linearGradient id="paint20_linear_543_2118" x1="308.557" y1="145.128" x2="318.165" y2="185.529" gradientUnits="userSpaceOnUse">
<stop offset="0.04" stop-color="#654B1E"/>
<stop offset="1" stop-color="#2E1D12"/>
</linearGradient>
<linearGradient id="paint21_linear_543_2118" x1="154.602" y1="228.932" x2="258.432" y2="292.581" gradientUnits="userSpaceOnUse">
<stop stop-color="#52BEB8"/>
<stop offset="1" stop-color="#308B85"/>
</linearGradient>
<linearGradient id="paint22_linear_543_2118" x1="94.3142" y1="353.483" x2="220.75" y2="314.834" gradientUnits="userSpaceOnUse">
<stop stop-color="#52BEB8"/>
<stop offset="1" stop-color="#308B85"/>
</linearGradient>
<linearGradient id="paint23_linear_543_2118" x1="95.7834" y1="275.763" x2="165.656" y2="193.943" gradientUnits="userSpaceOnUse">
<stop stop-color="#52BEB8"/>
<stop offset="1" stop-color="#308B85"/>
</linearGradient>
<linearGradient id="paint24_linear_543_2118" x1="401.63" y1="226.537" x2="331.674" y2="306.763" gradientUnits="userSpaceOnUse">
<stop stop-color="#52BEB8"/>
<stop offset="1" stop-color="#308B85"/>
</linearGradient>
<linearGradient id="paint25_linear_543_2118" x1="428.526" y1="308.248" x2="385.746" y2="282.98" gradientUnits="userSpaceOnUse">
<stop stop-color="#52BEB8"/>
<stop offset="1" stop-color="#308B85"/>
</linearGradient>
<linearGradient id="paint26_linear_543_2118" x1="309.459" y1="357.922" x2="309.459" y2="386.164" gradientUnits="userSpaceOnUse">
<stop stop-color="white"/>
<stop offset="1" stop-color="#DDF1F3"/>
</linearGradient>
<linearGradient id="paint27_linear_543_2118" x1="301.109" y1="153.862" x2="297.704" y2="141.32" gradientUnits="userSpaceOnUse">
<stop stop-color="#E94E4E"/>
<stop offset="1" stop-color="#D33332"/>
</linearGradient>
<linearGradient id="paint28_linear_543_2118" x1="305.743" y1="132.782" x2="273.206" y2="146.609" gradientUnits="userSpaceOnUse">
<stop stop-color="white"/>
<stop offset="1" stop-color="#DDF1F3"/>
</linearGradient>
<linearGradient id="paint29_linear_543_2118" x1="482.726" y1="171.518" x2="482.726" y2="201.001" gradientUnits="userSpaceOnUse">
<stop stop-color="#E8E8EB"/>
<stop offset="1" stop-color="#D3D3D3"/>
</linearGradient>
<linearGradient id="paint30_linear_543_2118" x1="559.648" y1="225.495" x2="599.354" y2="264.403" gradientUnits="userSpaceOnUse">
<stop stop-color="#ECDE74"/>
<stop offset="1" stop-color="#F3CE63"/>
</linearGradient>
<linearGradient id="paint31_linear_543_2118" x1="557.372" y1="140.175" x2="557.029" y2="129.481" gradientUnits="userSpaceOnUse">
<stop stop-color="#C98348"/>
<stop offset="1" stop-color="#DD9127"/>
</linearGradient>
<linearGradient id="paint32_linear_543_2118" x1="519.659" y1="96.5442" x2="519.104" y2="85.5428" gradientUnits="userSpaceOnUse">
<stop stop-color="#C98348"/>
<stop offset="1" stop-color="#DD9127"/>
</linearGradient>
<linearGradient id="paint33_linear_543_2118" x1="454.106" y1="148.018" x2="452.824" y2="176.579" gradientUnits="userSpaceOnUse">
<stop stop-color="#FFF1E0"/>
<stop offset="1" stop-color="#ECDE74"/>
</linearGradient>
<linearGradient id="paint34_linear_543_2118" x1="461.019" y1="194.933" x2="468.535" y2="243.469" gradientUnits="userSpaceOnUse">
<stop stop-color="#FFF1E0"/>
<stop offset="1" stop-color="#ECDE74"/>
</linearGradient>
<linearGradient id="paint35_linear_543_2118" x1="457.598" y1="156.573" x2="457.227" y2="174.452" gradientUnits="userSpaceOnUse">
<stop stop-color="#F3CE63"/>
<stop offset="1" stop-color="#D2A651"/>
</linearGradient>
<linearGradient id="paint36_linear_543_2118" x1="439.376" y1="76.5576" x2="446.944" y2="98.6161" gradientUnits="userSpaceOnUse">
<stop stop-color="#DBE8C4"/>
<stop offset="1" stop-color="#AAC76F"/>
</linearGradient>
<linearGradient id="paint37_linear_543_2118" x1="423.92" y1="73.9906" x2="430.039" y2="93.9535" gradientUnits="userSpaceOnUse">
<stop stop-color="#DBE8C4"/>
<stop offset="1" stop-color="#AAC76F"/>
</linearGradient>
<linearGradient id="paint38_linear_543_2118" x1="484.108" y1="52.6066" x2="469.294" y2="68.7055" gradientUnits="userSpaceOnUse">
<stop stop-color="#DBE8C4"/>
<stop offset="1" stop-color="#AAC76F"/>
</linearGradient>
<linearGradient id="paint39_linear_543_2118" x1="498.123" y1="51.2058" x2="488.091" y2="71.7355" gradientUnits="userSpaceOnUse">
<stop stop-color="#DBE8C4"/>
<stop offset="1" stop-color="#AAC76F"/>
</linearGradient>
<linearGradient id="paint40_linear_543_2118" x1="433.791" y1="94.6719" x2="440.071" y2="113.505" gradientUnits="userSpaceOnUse">
<stop stop-color="#DBE8C4"/>
<stop offset="1" stop-color="#AAC76F"/>
</linearGradient>
</defs>
</svg>
