<svg width="324" height="84" viewBox="0 0 324 84" fill="none" xmlns="http://www.w3.org/2000/svg">
<path d="M95.6098 7.79348C106.229 4.94799 119.6 16.0472 123.562 30.8364C127.525 45.6257 121.714 58.8649 115.482 60.6846C109.251 62.5042 98.2705 55.907 94.3077 41.1178C90.3449 26.3286 84.9903 10.639 95.6098 7.79348Z" fill="#FB6A6A" fill-opacity="0.21"/>
<path d="M182.921 56.4062C174.604 49.2165 173.954 34.6121 181.455 25.9347C188.956 17.2573 197.986 13.7464 206.304 20.9361C214.621 28.1258 213.503 36.1398 206.002 44.8172C198.501 53.4946 191.238 63.5959 182.921 56.4062Z" fill="#FB6A6A" fill-opacity="0.21"/>
<path d="M285.583 56.4062C277.265 49.2165 276.616 34.6121 284.117 25.9347C291.618 17.2573 300.648 13.7464 308.966 20.9361C317.283 28.1258 316.165 36.1398 308.664 44.8172C301.163 53.4946 293.9 63.5959 285.583 56.4062Z" fill="#FB6A6A" fill-opacity="0.21"/>
<path d="M100.873 -2.61628C98.4262 -0.953409 98.2006 2.76804 96.2682 5.00797C94.3357 7.2479 91.0624 7.79411 89.634 10.2824C88.2055 12.7707 89.5071 16.2632 89.6891 19.3108C89.5976 22.2649 89.0765 25.19 88.142 27.9939C87.4681 30.8299 87.2131 33.9893 88.7772 36.3129C89.732 37.5582 91.0173 38.51 92.4867 39.0598C93.9561 39.6097 95.5504 39.7356 97.088 39.423C100.213 38.7288 103.184 37.4646 105.852 35.6939C113.76 31.4001 121.303 26.4638 128.404 20.9347C130.065 19.7802 131.463 18.2857 132.504 16.5501C132.993 15.6909 133.226 14.7092 133.174 13.7217C133.122 12.7343 132.788 11.7825 132.212 10.9794C131.153 9.81719 129.439 9.52371 128.244 8.50461C126.077 6.67225 125.849 3.61247 123.139 2.10805C120.794 1.11108 118.266 0.620887 115.718 0.669561C114.133 0.599886 112.568 0.292765 111.074 -0.241544C109.605 -0.84457 108.366 -1.94075 106.818 -2.61375C105.907 -3.11225 104.885 -3.37372 103.846 -3.37417C102.807 -3.37461 101.785 -3.11401 100.873 -2.61628Z" fill="#D2923D"/>
<g style="mix-blend-mode:screen" opacity="0.32">
<path d="M99.3159 18.8271C103.734 17.1025 102.637 14.1862 104.433 10.6872C105.395 8.6479 106.922 6.92751 108.832 5.73032C110.807 4.39443 113.193 3.80506 115.563 4.06764C118.251 4.5555 120.295 6.48531 122.905 7.08277C124.218 7.35305 125.581 7.22202 126.818 6.70672C125.778 5.04433 125.108 3.15452 123.166 2.06674C120.822 1.06978 118.293 0.579582 115.746 0.628256C114.161 0.55858 112.595 0.25146 111.101 -0.28285C109.633 -0.885875 108.394 -1.98207 106.846 -2.65506C105.932 -3.14212 104.911 -3.3926 103.876 -3.38365C102.841 -3.3747 101.824 -3.10661 100.919 -2.60383C98.4721 -0.940955 98.2466 2.78049 96.3141 5.02042C94.3816 7.26035 91.1083 7.80656 89.6799 10.2948C88.2515 12.7831 89.3512 15.7492 89.6701 18.5888C92.7348 19.9061 96.1893 19.9915 99.3159 18.8271Z" fill="#A24B27"/>
</g>
<g style="mix-blend-mode:multiply" opacity="0.55">
<path d="M92.8719 23.6305C95.5874 22.8543 100.055 21.8601 100.051 18.4523C98.4216 20.1069 96.3045 21.1943 94.0113 21.5543C92.4547 21.6508 90.9178 21.1659 89.6983 20.1936C89.626 21.7803 89.3763 23.354 88.9537 24.8852C90.2151 24.5529 91.5222 23.9882 92.8719 23.6305Z" fill="#B9866E"/>
</g>
<g style="mix-blend-mode:multiply" opacity="0.55">
<path d="M103.343 7.25126C104.017 6.78797 104.721 6.37108 105.451 6.00348C107.14 5.48688 108.785 4.83475 110.369 4.05345C111.594 3.06688 112.51 1.74962 113.009 0.257928C112.335 0.14358 111.673 -0.0327392 111.032 -0.268788C110.538 -0.486035 110.061 -0.738429 109.604 -1.02402C109.207 0.220194 108.634 1.40143 107.904 2.48399C106.639 4.29854 103.856 5.20369 103.343 7.25126Z" fill="#B9866E"/>
</g>
<g style="mix-blend-mode:multiply" opacity="0.55">
<path d="M118.195 16.0807C115.752 17.0598 112.913 16.157 111.822 19.5826C111.472 21.0158 110.734 22.3251 109.69 23.3667C109.496 23.5434 109.272 23.7119 109.063 23.8844C112.223 24.2534 114.304 20.2927 116.574 18.4362C117.935 17.5593 119.138 16.4575 120.13 15.1779C119.502 15.5134 118.856 15.8147 118.195 16.0807Z" fill="#B9866E"/>
</g>
<g style="mix-blend-mode:multiply" opacity="0.55">
<path d="M114.631 8.23662C114.599 8.33648 114.572 8.4381 114.55 8.54102C115.759 8.08692 117.014 7.76527 118.292 7.58169C120.889 7.1179 123.253 5.78847 124.999 3.80977C124.492 3.09102 123.834 2.49274 123.07 2.05747C121.993 1.50398 120.828 1.13873 119.628 0.97744C119.526 2.3171 119.032 3.5972 118.207 4.6578C117.178 6.01368 115.387 6.80782 114.631 8.23662Z" fill="#B9866E"/>
</g>
<g style="mix-blend-mode:multiply" opacity="0.55">
<path d="M132.121 10.9554C131.979 13.7536 130.312 16.0969 126.312 16.9224C122.313 17.748 121.979 21.8154 118.636 23.4188C115.293 25.0222 111.955 24.0355 109.901 26.9765C109.235 27.9353 108.348 28.7201 107.316 29.2648C106.283 29.8096 105.135 30.0984 103.968 30.1069C101.642 30.1556 100.837 33.299 99.1817 34.439C98.1876 35.1272 97.1085 35.6836 95.9714 36.0941C92.1435 37.438 89.6791 35.8036 87.7113 33.1605C87.7989 34.3005 88.1591 35.4027 88.7614 36.3742C89.7248 37.6113 91.016 38.5529 92.4881 39.092C93.9602 39.6311 95.5541 39.7459 97.0884 39.4234C100.214 38.7291 103.185 37.465 105.852 35.6942C113.761 31.4004 121.303 26.4641 128.404 20.9351C130.066 19.7805 131.463 18.286 132.504 16.5505C132.994 15.6912 133.226 14.7096 133.174 13.7221C133.123 12.7346 132.789 11.7828 132.212 10.9797L132.121 10.9554Z" fill="#B9866E"/>
</g>
<path d="M128.334 18.2597C128.102 19.4366 128.007 20.4056 126.906 20.9924C125.73 21.6295 124.35 21.7774 123.066 21.404C122.888 22.9867 123.175 23.992 121.487 24.6999C120.311 25.1929 119.039 25.4113 117.766 25.3386C117.462 26.4801 117.594 27.0857 116.488 27.6878C115.109 28.4731 113.502 28.764 111.935 28.5126C110.781 31.3183 108.547 33.0379 106.146 32.2679C105.931 33.149 105.377 33.9097 104.604 34.3838C103.112 35.2163 101.384 35.5249 99.6955 35.2605C98.0075 37.7448 96.9267 38.9891 94.1542 39.0004L115.178 57.1346C123.571 55.1368 131.286 50.9487 137.536 44.9971L131.571 17.1169C130.673 17.8904 129.518 18.2983 128.334 18.2597Z" fill="#BE4C1B"/>
<path d="M99.7139 37.5146C103.787 44.553 109.352 50.6137 116.016 55.2713C116.016 55.2713 108.539 40.4683 99.7139 37.5146Z" fill="#8F3300"/>
<path d="M106.791 34.249C106.791 34.249 110.737 46.4655 120.795 53.6594C120.795 53.6594 114.666 38.0745 106.791 34.249Z" fill="#8F3300"/>
<path d="M112.985 30.5037C115.121 38.3867 119.436 45.507 125.433 51.0479C125.433 51.0479 119.719 35.0683 112.985 30.5037Z" fill="#8F3300"/>
<path d="M118.868 27.3765C118.868 27.3765 121.097 40.5372 128.958 48.5802C128.958 48.5802 124.977 33.1273 118.868 27.3765Z" fill="#8F3300"/>
<path d="M124.479 24.5352C125.091 32.3202 127.646 39.8268 131.909 46.367C131.909 46.367 130.069 32.2342 124.479 24.5352Z" fill="#8F3300"/>
<path d="M129.234 21.0583C129.423 29.0855 131.242 36.99 134.58 44.2912C134.58 44.2912 133.992 28.2099 129.234 21.0583Z" fill="#8F3300"/>
<g style="mix-blend-mode:multiply" opacity="0.5">
<path d="M123.609 41.8092C119.306 42.7348 114.821 42.2762 110.795 40.4988C108.685 39.6759 106.591 38.7921 104.54 37.8059C103.338 37.2413 102.196 36.5133 101.027 35.827C99.4525 38.1297 98.4761 39.2877 95.8558 39.3395L115.453 56.0995C123.242 54.2243 130.397 50.3209 136.191 44.7856L134.225 35.6555C131.228 38.5256 127.588 40.6357 123.609 41.8092Z" fill="#9E5838"/>
</g>
<g style="mix-blend-mode:screen" opacity="0.32">
<path d="M116.096 2.43301C115.955 2.39593 115.808 2.38891 115.664 2.41239C115.521 2.43587 115.383 2.48934 115.262 2.56932L110.119 4.99731C109.342 5.31634 108.615 5.7425 107.957 6.26337C107.286 6.80151 106.85 7.58016 106.743 8.43401C106.696 8.83277 106.779 9.23602 106.981 9.58342C107.182 9.93083 107.49 10.2037 107.859 10.3612C108.223 10.4246 108.597 10.3885 108.942 10.2565C109.287 10.1245 109.59 9.90169 109.818 9.61158C110.293 9.02859 110.68 8.37937 110.967 7.68448C111.268 6.98759 111.712 6.36177 112.271 5.84759C113.465 4.91065 115.338 5.03463 116.124 3.61393C116.484 3.30231 116.536 2.61544 116.096 2.43301Z" fill="#B27B60"/>
</g>
<g style="mix-blend-mode:screen" opacity="0.32">
<path d="M91.548 13.6774L91.1347 15.9634C90.9997 16.4524 91.0089 16.9699 91.1613 17.4537C91.4103 17.8258 91.7949 18.0857 92.233 18.1781C92.671 18.2704 93.1278 18.1877 93.5059 17.9478C94.8575 17.2158 95.4099 15.5699 96.1378 14.1827C96.9458 12.7023 98.0824 11.427 99.4603 10.4549C99.9548 10.1554 100.415 9.80241 100.832 9.40221C101.047 9.19828 101.213 8.9486 101.317 8.67172C101.422 8.39485 101.463 8.09792 101.437 7.80302C101.347 7.44782 101.144 7.13172 100.858 6.90263C100.572 6.67354 100.219 6.54395 99.8531 6.5335C99.1156 6.52346 98.386 6.68639 97.7227 7.00922C96.6077 7.42394 95.5387 7.95309 94.5326 8.5882C93.5334 9.24326 92.7281 10.1546 92.2007 11.227C91.8814 12.0133 91.6621 12.8365 91.548 13.6774Z" fill="#B27B60"/>
</g>
<g style="mix-blend-mode:screen" opacity="0.32">
<path d="M120.8 13.3354C120.202 13.6739 119.638 14.0696 119.117 14.5171C117.848 15.4399 116.318 15.9345 114.749 15.9291C116.205 14.7666 117.457 13.3707 118.456 11.7984C119.459 10.2182 120.96 9.01762 122.721 8.38665C123.185 8.25789 123.673 8.23739 124.146 8.32671C124.619 8.41603 125.066 8.61281 125.451 8.90189C125.818 9.23598 126.063 9.68264 126.148 10.1715C126.233 10.6604 126.153 11.1638 125.921 11.6024C125.644 11.9775 125.287 12.2863 124.876 12.5067C124.465 12.7271 124.011 12.8534 123.545 12.8767C122.612 12.8838 121.685 13.0386 120.8 13.3354Z" fill="#B27B60"/>
</g>
<g style="mix-blend-mode:screen" opacity="0.32">
<path d="M103.301 18.9106C103.451 19.1752 103.668 19.3953 103.931 19.5483C104.193 19.7013 104.492 19.7818 104.796 19.7814C105.413 19.7773 106.018 19.6127 106.552 19.3039C108.784 17.8927 110.648 15.9696 111.989 13.6941C112.301 13.2557 112.609 12.588 112.233 12.227C112.113 12.1242 111.971 12.0497 111.818 12.009C111.666 11.9684 111.506 11.9625 111.35 11.992C108.576 12.4829 106.049 13.902 104.186 16.0167C103.809 16.4248 103.507 16.8961 103.294 17.4091C103.195 17.6473 103.145 17.9028 103.146 18.1606C103.147 18.4184 103.2 18.6734 103.301 18.9106Z" fill="#B27B60"/>
</g>
<g style="mix-blend-mode:screen" opacity="0.32">
<path d="M95.8119 25.8644C95.1445 26.2953 94.4322 26.6521 93.6876 26.9286C92.7027 27.15 91.7528 27.5058 90.8646 27.9859C90.4427 28.2952 90.1096 28.7103 89.8991 29.1894C89.6886 29.6684 89.608 30.1945 89.6654 30.7146C89.7385 31.2212 89.9496 31.6979 90.2755 32.0923C90.6015 32.4868 91.0298 32.7838 91.5134 32.9508C92.0625 33.0918 92.636 33.1104 93.1932 33.0053C93.7504 32.9003 94.2777 32.6741 94.738 32.3428C95.6608 31.6608 96.4997 30.8721 97.2373 29.993C97.9747 29.1054 98.8738 28.3659 99.8868 27.8136C100.706 27.4288 101.659 27.2752 102.452 26.867C102.878 26.6978 103.251 26.4197 103.536 26.0606C103.82 25.7016 104.005 25.2741 104.072 24.821C104.069 24.4497 103.956 24.0877 103.748 23.7802C103.541 23.4727 103.247 23.2332 102.904 23.0917C102.202 22.8286 101.428 22.825 100.724 23.0814C100 23.3603 99.3127 23.7243 98.6754 24.1659C97.7425 24.7324 96.7752 25.306 95.8119 25.8644Z" fill="#B27B60"/>
</g>
<path d="M105.72 0.533192L105.416 0.45216C105.26 0.314601 105.075 0.215156 104.874 0.161711C104.673 0.108266 104.463 0.102287 104.26 0.144233C103.857 0.25308 103.482 0.448126 103.162 0.715889C102.571 1.15855 102.063 1.70169 101.66 2.32052C101.484 2.53547 101.367 2.79325 101.323 3.06768C101.278 3.34212 101.307 3.62343 101.407 3.88303C101.494 4.01122 101.61 4.11644 101.747 4.1897C101.883 4.26296 102.036 4.30209 102.191 4.30373C102.497 4.31365 102.802 4.25566 103.083 4.13392C103.881 3.85369 104.607 3.40177 105.211 2.81004C105.625 2.43839 105.902 1.93783 105.997 1.38934C105.99 0.865841 106.227 0.586746 105.72 0.533192Z" fill="#652700"/>
<path d="M90.3966 14.8216C90.853 14.9431 91.3488 14.7329 91.7392 14.4294C92.1734 14.1383 92.5411 13.7585 92.818 13.315C92.9651 13.0858 93.0635 12.8288 93.1071 12.56C93.1507 12.2912 93.1385 12.0163 93.0713 11.7525C93.0032 11.5033 92.8543 11.2838 92.6479 11.1285C92.4416 10.9732 92.1895 10.891 91.9313 10.8946C91.9099 10.8748 91.8848 10.8595 91.8574 10.8494C91.8299 10.8394 91.8008 10.835 91.7717 10.8363C91.7425 10.8376 91.7139 10.8447 91.6875 10.8572C91.6612 10.8697 91.6375 10.8873 91.618 10.909L91.0704 11.0076C90.5974 11.2934 90.2205 11.7141 89.9882 12.2157C89.7559 12.7173 89.6788 13.2768 89.7668 13.8225C89.7794 14.0286 89.8437 14.2282 89.9538 14.4028C90.0639 14.5774 90.2162 14.7215 90.3966 14.8216Z" fill="#B27B60"/>
<path d="M118.112 10.5821C117.652 10.3475 117.14 10.2301 116.623 10.2403C116.106 10.2504 115.6 10.3877 115.148 10.6402C114.809 10.8196 114.524 11.0871 114.323 11.4146C114.096 11.7144 113.995 12.0916 114.043 12.4648C114.119 12.7657 114.292 13.0329 114.536 13.2247C114.78 13.4164 115.08 13.5219 115.39 13.5244C116.013 13.5185 116.623 13.3429 117.154 13.0164C117.448 12.9073 117.714 12.7352 117.934 12.5121C118.154 12.2891 118.322 12.0205 118.427 11.7253C118.653 10.938 118.638 10.9339 118.112 10.5821Z" fill="#652700"/>
<path d="M107.198 7.88688C106.794 7.78611 106.369 7.81721 105.984 7.97562C105.599 8.13404 105.274 8.41147 105.058 8.76741C104.624 9.50151 104.375 10.3304 104.333 11.1823C104.273 11.4167 104.268 11.6616 104.318 11.8983C104.368 12.1349 104.472 12.3568 104.621 12.5468C105.054 12.9392 105.734 12.7127 106.288 12.404C107.19 11.8249 107.904 10.9954 108.342 10.0169C108.503 9.75408 108.591 9.45253 108.596 9.14402C108.6 8.83551 108.522 8.53144 108.369 8.2638C107.926 7.72222 107.792 8.0449 107.198 7.88688Z" fill="#652700"/>
<path d="M92.0975 29.2921C92.3852 28.6397 92.5698 27.9465 92.6447 27.2374C92.6902 27.0821 92.7024 26.919 92.6805 26.7587C92.6587 26.5984 92.6032 26.4445 92.5178 26.3071C92.4505 26.244 92.3701 26.1964 92.2823 26.1678C92.1945 26.1392 92.1015 26.1303 92.0099 26.1416C91.9182 26.153 91.8302 26.1844 91.752 26.2336C91.6739 26.2828 91.6075 26.3485 91.5575 26.4262L91.2057 26.4629L91.1296 26.4427L91.0292 26.5137C90.614 26.5676 90.2337 26.7743 89.9625 27.0935C89.6955 27.4161 89.4741 27.774 89.3045 28.157C89.133 28.4272 89.021 28.7308 88.9759 29.0476C88.9308 29.3644 88.9538 29.6872 89.0432 29.9945C89.1954 30.2889 89.4471 30.5199 89.7534 30.6462C90.0598 30.7726 90.401 30.7862 90.7165 30.6847C91.0319 30.5632 91.318 30.3763 91.556 30.1363C91.7941 29.8963 91.9786 29.6086 92.0975 29.2921Z" fill="#652700"/>
<path d="M98.9726 32.3459C99.3335 32.5002 99.728 32.5593 100.118 32.5178C100.509 32.4762 100.882 32.3353 101.202 32.1086C101.853 31.642 102.416 31.0632 102.863 30.3994C103.039 30.2079 103.176 29.9843 103.267 29.7408C103.306 29.6217 103.312 29.4942 103.284 29.3721C103.256 29.2499 103.196 29.1375 103.109 29.0469C103.022 28.9729 102.92 28.9193 102.809 28.8898C102.699 28.8604 102.583 28.8559 102.471 28.8767C102.244 28.9306 102.021 29.0342 101.799 29.0728C101.301 29.0648 100.805 28.993 100.325 28.8594C99.8975 28.8211 99.4689 28.9172 99.0987 29.1341C98.7285 29.351 98.4351 29.678 98.2593 30.0696C98.0789 30.4706 98.0519 30.9239 98.1834 31.3435C98.3149 31.7631 98.5957 32.1198 98.9726 32.3459Z" fill="#652700"/>
<path d="M108.825 21.9631C109.07 21.6181 109.273 21.2455 109.431 20.8529C109.492 20.7416 109.525 20.6171 109.528 20.49C109.53 20.363 109.502 20.2372 109.446 20.1235C109.24 19.8567 108.822 19.9574 108.504 20.0518L106.937 20.6125C106.55 20.7304 106.181 20.9009 105.841 21.1193C105.499 21.3462 105.259 21.6976 105.173 22.0986C105.137 22.3817 105.198 22.6685 105.346 22.9123C105.494 23.1561 105.72 23.3423 105.988 23.4405C106.268 23.5338 106.565 23.5626 106.857 23.5247C107.149 23.4868 107.429 23.3832 107.676 23.2216C108.14 22.8847 108.532 22.4565 108.825 21.9631Z" fill="#652700"/>
<path d="M117.455 21.7351C117.364 21.4127 117.151 21.1383 116.861 20.97C116.572 20.8016 116.228 20.7524 115.903 20.8328C115.565 20.93 115.255 21.1061 114.998 21.3466C114.742 21.5872 114.546 21.8852 114.427 22.2163C114.182 22.864 114.091 23.5598 114.162 24.2485C114.149 24.3598 114.161 24.4725 114.198 24.5783C114.235 24.6841 114.295 24.7801 114.374 24.8592C114.496 24.9255 114.632 24.9586 114.77 24.9554C114.908 24.9521 115.043 24.9125 115.161 24.8406C116.01 24.4738 116.713 23.8355 117.16 23.0258C117.409 22.6446 117.514 22.1867 117.455 21.7351Z" fill="#652700"/>
<path d="M127.532 14.5417C127.857 14.4314 128.151 14.2476 128.392 14.0047C128.641 13.7477 128.784 13.406 128.791 13.0483C128.799 12.6906 128.671 12.3433 128.433 12.076C128.227 11.8982 127.983 11.7695 127.719 11.6993C127.456 11.6292 127.18 11.6194 126.912 11.6708C126.214 11.7659 125.548 12.024 124.968 12.4244C124.532 12.7012 124.191 13.1054 123.992 13.5825C123.893 13.81 123.866 14.0624 123.915 14.3056C123.964 14.5489 124.086 14.7713 124.265 14.9428C124.468 15.067 124.696 15.1436 124.932 15.1671C125.168 15.1905 125.407 15.1601 125.63 15.0782C126.28 14.9596 126.916 14.78 127.532 14.5417Z" fill="#652700"/>
<path d="M98.7431 14.8604C98.4039 14.7566 98.0473 14.7226 97.6946 14.7604C97.1054 14.9406 96.582 15.2897 96.1891 15.7645C95.7962 16.2393 95.5512 16.8189 95.4843 17.4316C95.4407 17.6527 95.4535 17.8812 95.5216 18.0959C95.5897 18.3106 95.7109 18.5047 95.8739 18.6601C96.0106 18.76 96.1702 18.8239 96.338 18.8458C96.5059 18.8677 96.6765 18.847 96.8343 18.7855C97.1625 18.6639 97.4592 18.4699 97.7022 18.218C98.1193 17.8205 98.4808 17.3685 98.7769 16.8742C98.963 16.5817 99.0936 16.2573 99.1621 15.9174C99.1897 15.7501 99.1832 15.5789 99.1431 15.4142C99.103 15.2495 99.0301 15.0946 98.9287 14.9587C98.7046 14.6382 99.0281 14.7081 98.7431 14.8604Z" fill="#652700"/>
<path d="M91.0046 14.9834C91.732 14.7828 92.3955 14.3982 92.9312 13.8666C93.1891 13.589 93.375 13.2523 93.4725 12.8861C93.5701 12.5199 93.5763 12.1354 93.4906 11.7662C93.3857 11.451 93.1908 11.1735 92.93 10.9679C92.6692 10.7623 92.3539 10.6376 92.0231 10.6093L91.8861 10.5728C91.5379 10.685 91.2219 10.8798 90.9651 11.1407C90.7084 11.4016 90.5186 11.7207 90.4119 12.0709C90.2019 12.7745 90.1004 13.506 90.1111 14.2401C90.0875 14.3753 90.0951 14.514 90.1335 14.6457C90.1718 14.7775 90.2398 14.8986 90.3323 14.9999C90.5088 15.1936 90.7471 15.0941 91.0046 14.9834Z" fill="#652700"/>
<path d="M211.265 1.39158C209.159 0.781801 207.054 2.47069 204.874 2.44835C202.694 2.42601 200.766 0.810174 198.687 1.19429C196.607 1.57841 195.288 4.07805 193.668 5.63804C191.943 7.07501 190.01 8.24298 187.936 9.10239C185.967 10.1227 183.987 11.6243 183.358 13.7797C183.113 15.0087 183.213 16.2814 183.647 17.457C184.08 18.6326 184.83 19.6653 185.814 20.4407C187.802 21.9808 190.064 23.1294 192.48 23.8254C198.953 26.3072 205.627 28.2321 212.427 29.5791C213.9 29.921 215.432 29.9241 216.906 29.5881C217.639 29.4127 218.303 29.0222 218.812 28.4666C219.321 27.9111 219.653 27.216 219.764 26.4706C219.847 25.2112 219.129 24.0662 219.06 22.8128C218.948 20.589 220.46 18.8757 219.852 16.5635C219.21 14.6963 218.197 12.9784 216.875 11.5128C216.119 10.5568 215.501 9.4996 215.039 8.37193C214.614 7.21331 214.581 5.97718 214.222 4.80147C214.042 4.03581 213.679 3.32535 213.164 2.73131C212.649 2.13727 211.998 1.67749 211.265 1.39158Z" fill="#993A12"/>
<g style="mix-blend-mode:screen" opacity="0.32">
<path d="M198.738 11.1062C201.927 12.7804 202.988 10.7178 205.821 9.99744C207.431 9.53797 209.142 9.56908 210.734 10.0868C212.47 10.5904 213.977 11.6788 215.002 13.1676C216.041 14.9882 216.093 17.1791 217.085 18.9684C217.589 19.8656 218.343 20.5965 219.255 21.0722C219.618 19.6071 220.286 18.244 219.828 16.5477C219.186 14.6806 218.174 12.9626 216.851 11.497C216.096 10.5411 215.478 9.48382 215.015 8.35616C214.591 7.19753 214.557 5.96142 214.199 4.78571C214.017 4.02748 213.656 3.32422 213.145 2.73554C212.634 2.14686 211.989 1.6901 211.264 1.40397C209.158 0.794193 207.053 2.48309 204.872 2.46075C202.692 2.43841 200.765 0.822566 198.685 1.20668C196.606 1.5908 195.474 3.7079 194.053 5.30573C194.831 7.75962 196.503 9.83052 198.738 11.1062Z" fill="#A24B27"/>
</g>
<g style="mix-blend-mode:multiply" opacity="0.55">
<path d="M192.832 9.73548C194.646 10.9433 197.485 13.081 199.381 11.3402C197.587 11.2098 195.885 10.4945 194.536 9.30387C193.689 8.43835 193.193 7.28964 193.143 6.07937C192.192 6.85649 191.15 7.51345 190.039 8.03539C190.992 8.62609 191.93 9.13862 192.832 9.73548Z" fill="#8C3A12"/>
</g>
<g style="mix-blend-mode:multiply" opacity="0.55">
<path d="M207.185 7.64316C207.777 7.80724 208.358 8.00808 208.924 8.24453C210.032 8.96903 211.195 9.60475 212.402 10.1458C213.527 10.3536 214.688 10.2222 215.737 9.76839C215.472 9.33436 215.241 8.8805 215.046 8.41086C214.912 8.01465 214.802 7.61054 214.717 7.20083C213.85 7.57645 212.933 7.82798 211.995 7.94799C210.43 8.0798 208.545 6.92658 207.185 7.64316Z" fill="#8C3A12"/>
</g>
<g style="mix-blend-mode:multiply" opacity="0.55">
<path d="M209.864 20.8597C208.105 19.9129 207.133 17.7705 204.675 18.9322C203.699 19.4682 202.588 19.7111 201.477 19.6317L200.865 19.5541C202.264 21.6363 205.542 20.8072 207.728 21.1859C208.894 21.5564 210.117 21.7115 211.338 21.6434C210.829 21.4174 210.336 21.1555 209.864 20.8597Z" fill="#8C3A12"/>
</g>
<g style="mix-blend-mode:multiply" opacity="0.55">
<path d="M212.304 14.7305L212.079 14.8036C212.95 15.2951 213.765 15.8796 214.51 16.5468C216.029 17.8178 217.936 18.5302 219.915 18.5653C220.053 17.8952 220.036 17.2028 219.868 16.54C219.622 15.6294 219.23 14.7648 218.707 13.98C217.949 14.5991 217.014 14.961 216.038 15.0132C214.81 15.0862 213.483 14.4355 212.304 14.7305Z" fill="#8C3A12"/>
</g>
<path d="M219.764 26.4706C218.179 27.8572 216.053 28.1084 213.559 26.1541C211.065 24.1998 208.635 26.1523 206.091 24.9917C203.688 23.9251 202.331 21.3148 199.612 21.6307C198.713 21.7417 197.8 21.6278 196.956 21.2991C196.112 20.9705 195.362 20.4374 194.774 19.7475C193.571 18.3251 191.348 19.5419 189.777 19.1143C188.865 18.8748 187.989 18.516 187.171 18.0474C184.431 16.4302 184.142 14.1076 184.693 11.5614C184.065 12.2067 183.6 12.9923 183.336 13.8531C183.091 15.0821 183.191 16.3548 183.625 17.5305C184.058 18.7061 184.808 19.7387 185.792 20.5141C187.78 22.0542 190.042 23.2028 192.458 23.8988C198.932 26.3807 205.605 28.3055 212.405 29.6526C213.878 29.9945 215.41 29.9975 216.885 29.6615C217.632 29.4853 218.307 29.0855 218.822 28.5155C219.336 27.9454 219.665 27.2321 219.764 26.4706Z" fill="#792C12"/>
<path d="M213.849 28.0704C213.089 28.5582 212.461 29.0119 211.615 28.6761C210.638 28.29 209.85 27.5389 209.418 26.5817C208.462 27.3114 208.041 28.0327 206.777 27.3899C205.88 26.9479 205.093 26.31 204.475 25.5234C203.654 25.8893 203.407 26.3405 202.486 25.9952C201.316 25.5726 200.329 24.7562 199.694 23.6857C197.486 24.4853 195.356 24.063 194.577 22.199C194.27 22.3619 193.934 22.4615 193.587 22.4918C193.241 22.5221 192.893 22.4825 192.562 22.3754C191.306 21.9045 190.242 21.0279 189.54 19.8842C187.231 20.1758 185.948 20.1783 184.524 18.4993L184.617 41.4971C190.157 45.6162 196.746 48.0886 203.628 48.6306L216.211 29.4619C215.745 29.3968 215.297 29.2404 214.892 29.0016C214.486 28.7628 214.132 28.4464 213.849 28.0704Z" fill="#BE4C1B"/>
<path d="M188.274 21.0572C186.179 27.4542 185.455 34.2213 186.15 40.9166C186.15 40.9166 191.073 28.0156 188.274 21.0572Z" fill="#8F3300"/>
<path d="M193.791 23.5979C193.791 23.5979 188.653 32.6873 189.622 42.9696C189.622 42.9696 195.661 30.4767 193.791 23.5979Z" fill="#8F3300"/>
<path d="M199.115 25.352C195.605 31.0882 193.702 37.6636 193.605 44.3886C193.605 44.3886 199.983 31.926 199.115 25.352Z" fill="#8F3300"/>
<path d="M203.927 27.2447C203.927 27.2447 197.538 35.7944 196.951 45.2319C196.951 45.2319 203.821 34.089 203.927 27.2447Z" fill="#8F3300"/>
<path d="M208.4 29.1068C204.214 33.8828 201.265 39.6143 199.811 45.7974C199.811 45.7974 206.979 36.7114 208.4 29.1068Z" fill="#8F3300"/>
<path d="M212.778 30.1189C208.274 34.7636 204.753 40.2693 202.425 46.3066C202.425 46.3066 211.347 36.8969 212.778 30.1189Z" fill="#8F3300"/>
<g style="mix-blend-mode:multiply" opacity="0.5">
<path d="M198.115 38.0517C195.295 35.8611 193.232 32.8417 192.215 29.4176C191.611 27.6774 191.047 25.9169 190.563 24.1285C190.288 23.0904 190.12 22.015 189.927 20.9365C187.785 21.2111 186.592 21.2123 185.265 19.6599L185.351 41.0185C190.501 44.842 196.624 47.1364 203.017 47.6388L207.233 41.2139C203.975 40.9499 200.837 39.8618 198.115 38.0517Z" fill="#9E5838"/>
</g>
<g style="mix-blend-mode:screen" opacity="0.32">
<path d="M216.185 12.6444C216.079 12.4485 215.903 12.2994 215.692 12.2264L211.804 10.4635C211.244 10.1745 210.647 9.96618 210.029 9.84493C209.721 9.78113 209.403 9.78224 209.095 9.84818C208.787 9.91413 208.496 10.0435 208.241 10.228C207.99 10.4184 207.809 10.687 207.727 10.9915C207.645 11.2959 207.666 11.6191 207.787 11.9102C207.933 12.1466 208.137 12.341 208.381 12.4743C208.624 12.6076 208.898 12.6752 209.176 12.6704C209.733 12.6531 210.285 12.5518 210.813 12.3699C211.341 12.1893 211.905 12.1346 212.458 12.2101C213.56 12.426 214.442 13.5791 215.558 13.3903C215.926 13.2847 216.306 12.99 216.185 12.6444Z" fill="#B27B60"/>
</g>
<g style="mix-blend-mode:screen" opacity="0.32">
<path d="M197.749 3.98371L196.266 4.87511C195.917 5.03194 195.629 5.29876 195.446 5.63477C195.164 6.25937 195.7 6.93689 196.333 7.24577C197.488 7.47284 198.684 7.35973 199.776 6.92016C201.006 6.65379 202.281 6.68052 203.498 6.99817C203.898 7.13381 204.312 7.22873 204.731 7.28148C204.948 7.29976 205.166 7.26897 205.369 7.19139C205.572 7.11381 205.755 6.99144 205.905 6.83336C206.052 6.59503 206.121 6.31723 206.105 6.03784C206.088 5.75844 205.985 5.49104 205.811 5.27211C205.449 4.84764 204.998 4.50857 204.49 4.27922C203.708 3.83644 202.881 3.48034 202.022 3.21723C201.161 2.95528 200.244 2.94024 199.375 3.17381C198.8 3.37081 198.253 3.64314 197.749 3.98371Z" fill="#B27B60"/>
</g>
<g style="mix-blend-mode:screen" opacity="0.32">
<path d="M212.692 20.9771C212.206 20.8005 211.704 20.673 211.192 20.5964C210.006 20.3041 208.946 19.6351 208.172 18.6897C209.538 18.9508 210.939 18.9737 212.314 18.7575C213.696 18.5357 215.112 18.805 216.317 19.5188C216.629 19.7277 216.891 20.0038 217.083 20.3269C217.275 20.6501 217.392 21.0121 217.426 21.3865C217.446 21.7628 217.338 22.1348 217.119 22.4417C216.9 22.7485 216.584 22.9719 216.222 23.0753C215.869 23.1037 215.515 23.051 215.186 22.9213C214.857 22.7915 214.562 22.5882 214.324 22.3268C213.845 21.8034 213.296 21.3492 212.692 20.9771Z" fill="#B27B60"/>
</g>
<g style="mix-blend-mode:screen" opacity="0.32">
<path d="M200.731 13.5052C200.667 13.729 200.659 13.965 200.708 14.1925C200.756 14.4201 200.86 14.6323 201.01 14.8105C201.325 15.1693 201.728 15.4394 202.18 15.5937C204.07 16.1925 206.08 16.3075 208.027 15.9284C208.437 15.8915 208.953 15.7283 208.966 15.3236C208.953 15.2002 208.912 15.0815 208.846 14.9764C208.78 14.8712 208.691 14.7824 208.586 14.7167C206.953 13.3393 204.891 12.575 202.755 12.5553C202.361 12.53 201.966 12.5835 201.593 12.7128C201.402 12.7776 201.227 12.8815 201.078 13.018C200.93 13.1544 200.811 13.3204 200.731 13.5052Z" fill="#B27B60"/>
</g>
<g style="mix-blend-mode:screen" opacity="0.32">
<path d="M193.022 12.6424C192.424 12.4686 191.845 12.2336 191.296 11.941C190.679 11.4685 190.003 11.0796 189.284 10.7845C188.893 10.6842 188.482 10.6948 188.096 10.8151C187.71 10.9354 187.365 11.1606 187.1 11.4656C186.835 11.7706 186.66 12.1434 186.594 12.5423C186.529 12.9412 186.575 13.3504 186.729 13.7243C186.92 14.1191 187.195 14.4674 187.535 14.7451C187.875 15.0228 188.271 15.2232 188.695 15.3324C189.553 15.5489 190.434 15.6605 191.319 15.6649C192.205 15.6411 193.088 15.7961 193.914 16.1207C194.55 16.4046 195.088 16.8665 195.738 17.152C196.046 17.32 196.395 17.4004 196.746 17.3845C197.097 17.3685 197.437 17.2568 197.729 17.0615C197.939 16.8589 198.087 16.6001 198.154 16.316C198.222 16.0319 198.207 15.7344 198.11 15.4588C197.906 14.9073 197.516 14.4445 197.006 14.1506C196.499 13.8664 195.962 13.6406 195.404 13.4776L193.022 12.6424Z" fill="#B27B60"/>
</g>
<path d="M212.001 5.70097L211.931 5.45083C211.924 5.29454 211.882 5.14189 211.807 5.00466C211.732 4.86743 211.626 4.74931 211.498 4.65941C211.24 4.4833 210.949 4.36013 210.643 4.29703C210.117 4.18305 209.575 4.15734 209.041 4.22095C208.602 4.27961 208.109 4.4585 208.006 4.87712C207.985 4.9924 207.989 5.11087 208.019 5.22426C208.048 5.33766 208.102 5.44326 208.176 5.53372C208.326 5.71338 208.51 5.86181 208.717 5.97059C209.269 6.27062 209.879 6.44756 210.505 6.48921C210.895 6.55235 211.296 6.46718 211.627 6.25041C211.947 6.02435 212.214 6.0201 212.001 5.70097Z" fill="#652700"/>
<path d="M196.572 3.85966C196.662 4.02431 196.792 4.16391 196.949 4.26591C197.107 4.3679 197.288 4.4291 197.475 4.44401C197.852 4.54918 198.247 4.57327 198.634 4.51468C198.828 4.48684 199.013 4.41741 199.178 4.31114C199.342 4.20488 199.482 4.06429 199.587 3.899C199.689 3.73405 199.737 3.5411 199.722 3.34771C199.708 3.15431 199.633 2.97039 199.508 2.8222C199.508 2.77722 199.49 2.73418 199.458 2.70188C199.427 2.66959 199.385 2.65048 199.34 2.64847L199.006 2.37758C198.617 2.24455 198.196 2.23399 197.8 2.34731C197.405 2.46064 197.053 2.69242 196.793 3.0115C196.692 3.12554 196.62 3.26175 196.581 3.4091C196.543 3.55645 196.539 3.7108 196.572 3.85966Z" fill="#B27B60"/>
<path d="M212.819 17.9706C212.719 17.5828 212.527 17.2246 212.26 16.9258C211.994 16.6269 211.659 16.396 211.286 16.2523C211.031 16.1563 210.757 16.1216 210.486 16.151C210.35 16.1676 210.218 16.211 210.098 16.2786C209.979 16.3462 209.873 16.4368 209.789 16.5452C209.676 16.7449 209.625 16.974 209.644 17.2027C209.662 17.4315 209.749 17.6494 209.893 17.8283C210.205 18.1924 210.608 18.467 211.061 18.6241C211.269 18.7422 211.501 18.8103 211.74 18.8229C211.978 18.8355 212.217 18.7923 212.435 18.6966C212.867 18.4973 212.925 18.4412 212.819 17.9706Z" fill="#652700"/>
<path d="M208.791 10.196C208.654 9.91291 208.429 9.6816 208.151 9.53643C207.872 9.39127 207.553 9.34001 207.243 9.39026C206.625 9.50197 206.045 9.76936 205.558 10.1673C205.401 10.2589 205.266 10.3836 205.161 10.5326C205.057 10.6816 204.986 10.8514 204.954 11.0304C204.961 11.4758 205.418 11.775 205.845 11.9054C206.608 12.1312 207.421 12.1282 208.182 11.8967C208.618 11.7615 209.085 11.4779 209.155 11.0295C209.225 10.5811 208.962 10.6495 208.791 10.196Z" fill="#652700"/>
<path d="M189.183 12.1812C189.695 11.9946 190.177 11.7348 190.614 11.4101C190.726 11.3542 190.826 11.2751 190.906 11.178C190.986 11.081 191.045 10.968 191.079 10.8467C191.085 10.7753 191.075 10.7034 191.049 10.6365C191.023 10.5696 190.982 10.5096 190.93 10.4612C190.877 10.4127 190.813 10.3771 190.745 10.357C190.676 10.337 190.603 10.3332 190.533 10.3458L190.329 10.1548L190.343 10.0423L190.255 10.0312C190.011 9.81549 189.698 9.69465 189.372 9.69066C189.054 9.69887 188.74 9.75309 188.438 9.85164C188.192 9.88927 187.958 9.97899 187.75 10.1148C187.543 10.2505 187.367 10.4292 187.234 10.6388C187.152 10.8791 187.152 11.1398 187.234 11.3801C187.316 11.6203 187.475 11.8265 187.687 11.9662C187.908 12.1046 188.155 12.1952 188.412 12.2323C188.67 12.2693 188.933 12.2519 189.183 12.1812Z" fill="#652700"/>
<path d="M190.907 17.9112C190.998 18.2078 191.163 18.4763 191.387 18.6913C191.611 18.9063 191.886 19.0607 192.185 19.14C192.788 19.2813 193.41 19.3172 194.025 19.2461C194.218 19.2455 194.409 19.2049 194.586 19.1267C194.676 19.0907 194.754 19.0302 194.811 18.9521C194.868 18.874 194.902 18.7815 194.909 18.685C194.908 18.5936 194.887 18.5035 194.847 18.4214C194.807 18.3394 194.749 18.2675 194.677 18.2112C194.525 18.1031 194.357 18.0309 194.207 17.9103C194.057 17.7898 193.81 17.2378 193.586 16.9045C193.398 16.6318 193.127 16.4272 192.813 16.3211C192.5 16.215 192.16 16.2131 191.845 16.3157C191.523 16.4238 191.251 16.6448 191.078 16.938C190.906 17.2311 190.845 17.5767 190.907 17.9112Z" fill="#652700"/>
<path d="M201.83 18.3559C202.147 18.3263 202.459 18.2548 202.758 18.1433C202.945 18.0655 203.136 17.9627 203.174 17.7643C203.212 17.5659 202.953 17.3045 202.73 17.1619L201.614 16.5506C201.359 16.3818 201.081 16.2523 200.787 16.1664C200.638 16.1211 200.481 16.1067 200.326 16.1242C200.171 16.1417 200.021 16.1907 199.886 16.2681C199.698 16.4032 199.562 16.5991 199.501 16.8227C199.44 17.0463 199.459 17.284 199.553 17.4958C199.637 17.7019 199.767 17.8862 199.933 18.0347C200.099 18.1833 200.296 18.2924 200.51 18.3537C200.945 18.4434 201.394 18.4441 201.83 18.3559Z" fill="#652700"/>
<path d="M206.358 23.3872C206.487 23.1567 206.529 22.8873 206.475 22.6285C206.422 22.3697 206.277 22.1389 206.067 21.9787C205.848 21.8295 205.597 21.7343 205.334 21.701C205.071 21.6677 204.804 21.6972 204.555 21.7872C204.062 21.9839 203.626 22.2994 203.284 22.7055C203.213 22.7616 203.156 22.8322 203.115 22.9125C203.074 22.9927 203.051 23.0808 203.047 23.1708C203.066 23.2759 203.113 23.3738 203.184 23.4543C203.254 23.5347 203.345 23.5947 203.446 23.6277C204.078 23.9492 204.802 24.041 205.495 23.8874C205.665 23.8672 205.829 23.8124 205.978 23.7264C206.126 23.6404 206.256 23.525 206.358 23.3872Z" fill="#652700"/>
<path d="M215.467 25.6211C215.691 25.7507 215.941 25.83 216.199 25.8535C216.472 25.8624 216.738 25.7626 216.937 25.5761C217.137 25.3895 217.255 25.1315 217.265 24.8583C217.248 24.6459 217.187 24.4394 217.086 24.2517C216.986 24.064 216.847 23.8994 216.679 23.7682C216.279 23.4094 215.797 23.1524 215.277 23.0189C214.906 22.905 214.51 22.9125 214.144 23.0405C213.966 23.1071 213.812 23.2267 213.704 23.3832C213.596 23.5398 213.538 23.7258 213.538 23.9162C213.577 24.1008 213.654 24.2754 213.763 24.4291C213.872 24.5828 214.012 24.7123 214.174 24.8095C214.582 25.1153 215.014 25.3868 215.467 25.6211Z" fill="#652700"/>
<path d="M200.678 8.8123C200.574 8.5592 200.417 8.33141 200.217 8.14428C199.837 7.89961 199.393 7.77231 198.941 7.77823C198.489 7.78416 198.048 7.92305 197.674 8.1776C197.527 8.26713 197.404 8.39164 197.317 8.54008C197.23 8.68851 197.18 8.85627 197.173 9.02842C197.191 9.15894 197.239 9.28352 197.313 9.39218C197.387 9.50084 197.486 9.59057 197.601 9.65419C197.818 9.74052 198.05 9.78286 198.284 9.77877C198.709 9.82744 199.14 9.80917 199.56 9.72461C199.815 9.68757 200.06 9.59748 200.279 9.46015C200.387 9.39049 200.48 9.29971 200.552 9.19323C200.625 9.08676 200.675 8.96677 200.7 8.84045C200.802 8.63748 200.941 8.84554 200.678 8.8123Z" fill="#652700"/>
<path d="M196.741 4.32563C197.223 4.62607 197.774 4.79656 198.341 4.8205C198.625 4.83084 198.906 4.76774 199.159 4.6373C199.411 4.50686 199.625 4.3135 199.781 4.07592C199.899 3.85637 199.953 3.60811 199.938 3.35925C199.922 3.11039 199.837 2.87087 199.693 2.66781L199.601 2.59265C199.368 2.44681 199.104 2.35946 198.83 2.33806C198.557 2.31666 198.282 2.36183 198.03 2.46973C197.522 2.69281 197.054 2.99828 196.646 3.37381C196.489 3.50638 196.317 3.66236 196.33 3.86709C196.342 4.07182 196.565 4.21439 196.741 4.32563Z" fill="#652700"/>
<path d="M0 42.0575L5.42473 51.6843L28.465 41.5328L13.9546 35.1562C13.9546 35.1562 3.5572 39.5943 0 42.0575Z" fill="#EFEFEC"/>
<path d="M33.9736 31.6177L27.0876 42.043L60.6029 39.5961L55.6049 29.647L33.9736 31.6177Z" fill="#EFEFEC"/>
<path d="M43.7022 48.4149L60.6031 39.7473L26.7865 41.2876L5.50952 51.6843L43.7022 48.4149Z" fill="#E2B58B"/>
<path d="M8.72314 18.0028L27.4983 44.7976L29.3832 43.5966L11.9661 15.4143C11.9661 15.4143 8.73799 15.5859 8.72314 18.0028Z" fill="#716361"/>
<path d="M15.6099 18.5801L32.4323 46.1749L34.4335 45.1428L19.1007 16.3329C19.1007 16.3329 15.8205 16.2451 15.6099 18.5801Z" fill="#716361"/>
<path d="M18.0051 83.5127L42.2239 83.8222L53.9104 76.1817L60.6031 39.7473L26.7865 41.3093L5.50952 51.8528L18.0051 83.5127Z" fill="#EFEFEC"/>
<g style="mix-blend-mode:multiply">
<path d="M43.831 40.6655L26.9036 41.4368L5.50952 51.9487L18.0738 83.5136L42.4259 83.8222L49.5844 79.1796L43.831 40.6655Z" fill="#EAE6DC"/>
</g>
<path d="M42.2383 83.8222L53.9154 76.1817L60.6028 39.7473L43.8036 43.6523L42.2383 83.8222Z" fill="#EFEFEC"/>
<path d="M33.4168 69.1306C31.378 69.7952 29.254 70.18 27.106 70.2739C25.1109 70.4926 23.0935 70.4235 21.1191 70.0687L21.443 75.5582L34.4334 74.9939L33.477 69.3212L33.4168 69.1306ZM25.0803 74.3489L22.6403 74.4662L22.4445 71.7691C22.4445 71.2854 24.7866 71.1241 24.8318 71.6152L25.0803 74.3489ZM28.7553 74.1803L26.1948 74.2976L25.8861 71.5492C25.8334 71.0508 28.326 70.8823 28.3863 71.388L28.7553 74.1803ZM32.6185 74.0044L29.9225 74.129L29.5535 71.3293C29.4858 70.8236 32.0914 70.6477 32.1742 71.1608L32.6185 74.0044Z" fill="#716361"/>
<path d="M27.0876 71.4367L27.4068 74.1809L28.465 74.1327L28.1626 71.7184C28.129 71.4689 27.5999 71.3965 27.0876 71.4367Z" fill="#716361"/>
<path d="M27.1387 71.4424H26.9962H26.8732H26.7761H26.7113H26.6725L26.6336 71.4828C26.6267 71.5091 26.6267 71.5374 26.6336 71.5636L26.8279 73.9871L27.5466 74.1809L27.3135 71.4263L27.1387 71.4424Z" fill="#716361"/>
<path d="M30.7605 71.4343L31.1334 73.7218L32.1378 73.6825L31.7878 71.6572C31.7878 71.4671 31.2399 71.4016 30.7605 71.4343Z" fill="#716361"/>
<path d="M30.5806 71.4395H30.3788H30.2106H30.0845H30.0424H29.9499H29.8995H29.849C29.84 71.4609 29.84 71.484 29.849 71.5054L30.1854 73.4844L31.2196 73.7218L30.8076 71.4263L30.5806 71.4395Z" fill="#716361"/>
<path d="M18.245 68.812C19.6022 69.4551 21.0564 69.8393 22.5404 69.9466H22.5772C24.0454 70.083 25.522 70.083 26.9902 69.9466C28.5307 69.8237 30.0586 69.5637 31.5578 69.1695C33.2701 68.7626 34.9042 68.0504 36.3901 67.0633C37.0741 66.5582 36.5813 66.2862 36.1473 66.4028C33.5731 67.1799 32.4698 67.312 30.9988 67.1799L22.7169 67.9571C21.2916 68.3636 19.797 68.4195 18.348 68.1203C17.9582 68.1436 17.6346 68.4778 18.245 68.812Z" fill="#716361"/>
<path d="M22.4966 64.6301L22.7093 67.7531L31.2197 66.8883L30.7638 63.6211C29.4024 64.1026 27.9921 64.4143 26.5618 64.55C25.2136 64.7332 23.8504 64.76 22.4966 64.6301ZM27.1621 65.0545C27.1621 64.7342 28.7274 64.542 28.7654 64.8703L29.0237 66.6721L27.3977 66.8402L27.1621 65.0545ZM24.2822 65.3908C24.2822 65.0705 25.802 64.8863 25.802 65.2146L25.9843 66.9844L24.4646 67.1445L24.2822 65.3908Z" fill="#716361"/>
<path d="M20.4476 63.9035C21.426 64.288 22.4602 64.4969 23.506 64.5212C24.5118 64.5664 25.5195 64.5272 26.5192 64.4039C27.5633 64.279 28.5962 64.0672 29.6077 63.7706C30.7473 63.462 31.8329 62.9686 32.8242 62.3085C33.2837 61.9645 32.9673 61.7925 32.6736 61.8941C27.7696 63.5517 26.2329 61.7847 26.2329 61.7847C26.2329 61.7847 25.1482 63.8879 20.4928 63.5204C20.2367 63.4735 20.0107 63.7002 20.4476 63.9035Z" fill="#716361"/>
<path d="M25.2512 65.4684L25.3366 66.8351L25.7103 66.7839L25.6249 65.578C25.6249 65.4684 25.4327 65.4392 25.2512 65.4684Z" fill="#716361"/>
<path d="M28.0059 65.01L28.1147 66.3759L28.465 66.3184L28.3656 65.1178C28.3561 65.0028 28.1621 64.9812 28.0059 65.01Z" fill="#716361"/>
<path d="M27.7374 65.2153H27.6739H27.6201H27.5762H27.5469L27.6397 66.3759L28.006 66.3269L27.8937 64.9985H27.8253L27.7374 65.2153Z" fill="#716361"/>
<g style="mix-blend-mode:multiply" opacity="0.55">
<g style="mix-blend-mode:multiply" opacity="0.55">
<path d="M13.4091 65.5815L38.1412 64.2715C38.1412 64.2715 43.2983 50.2076 43.8656 48.4928C44.7865 45.8213 44.3886 44.0771 45.7221 41.5823L17.9695 45.6962L5.60718 51.8046L5.77663 52.2461C7.75843 54.1228 13.4091 65.5815 13.4091 65.5815Z" fill="#D6C2A6"/>
</g>
</g>
<path d="M49.0357 43.4202C49.3604 41.7193 47.9912 40.1656 47.8007 38.4353C47.733 37.7562 47.8476 37.0708 48.1318 36.4557C48.4159 35.8407 48.8584 35.3202 49.4098 34.9524C49.6419 34.7859 49.9122 34.6868 50.1931 34.6653C50.3328 34.6575 50.472 34.689 50.5961 34.7563C50.7202 34.8236 50.8247 34.9244 50.8989 35.0482C51.1459 35.5194 50.7436 36.0717 50.3766 36.4472C50.5232 36.504 50.6794 36.5282 50.8355 36.5184C50.9915 36.5085 51.1438 36.4647 51.2827 36.3899C51.4215 36.315 51.5439 36.2107 51.6419 36.0836C51.7398 35.9565 51.8113 35.8095 51.8516 35.6519C51.9135 35.3269 51.8726 34.9898 51.7352 34.6911C51.5977 34.3923 51.3712 34.1482 51.0894 33.9952C50.8041 33.8528 50.4918 33.7788 50.1755 33.7788C49.8592 33.7788 49.5469 33.8528 49.2616 33.9952C48.6838 34.2748 48.1818 34.6999 47.8007 35.2322C47.2914 35.8456 46.9042 36.5587 46.6619 37.3299C46.4196 38.1011 46.3269 38.9149 46.3892 39.7238C46.4687 40.5321 46.7568 41.3027 47.2228 41.9536C47.6889 42.6046 48.3154 43.1114 49.0357 43.4202Z" fill="#FBDF6A"/>
<path d="M21.4844 48.9295C21.7404 47.0738 21.471 45.1855 20.7051 43.467C20.3083 42.6117 19.6893 41.8709 18.9088 41.3171C18.1283 40.7633 17.2129 40.4154 16.2522 40.3075C15.8816 40.2536 15.503 40.2913 15.1514 40.4171C14.7998 40.5429 14.4867 40.7528 14.241 41.0272C14.0445 41.3519 13.9767 41.7349 14.0505 42.1045C14.1243 42.4741 14.3345 42.805 14.6418 43.0351C14.9606 43.2509 15.3401 43.3666 15.729 43.3666C16.1179 43.3666 16.4974 43.2509 16.8163 43.0351C17.1269 42.8089 17.3754 42.512 17.5398 42.1706C17.7042 41.8292 17.7794 41.4538 17.7588 41.0776C17.7026 40.3207 17.3557 39.6119 16.7866 39.0912C16.5611 38.8533 16.2851 38.6658 15.9776 38.5415C15.67 38.4172 15.3383 38.3592 15.0054 38.3715C14.6745 38.3965 14.365 38.54 14.1373 38.7742C13.9095 39.0083 13.7798 39.3163 13.7734 39.6382C14.1316 39.392 14.5617 39.2635 15.0007 39.2714C15.4397 39.2794 15.8645 39.4235 16.2129 39.6826C16.5614 39.9416 16.8151 40.302 16.937 40.711C17.059 41.1201 17.0426 41.5562 16.8905 41.9556C16.7716 42.2922 16.5284 42.5743 16.2077 42.7473C16.0448 42.8269 15.8612 42.8578 15.6801 42.836C15.4991 42.8142 15.3288 42.7407 15.1909 42.6249C15.0418 42.4638 14.9593 42.2549 14.9593 42.0384C14.9593 41.8218 15.0418 41.6129 15.1909 41.4518C15.3474 41.2961 15.5409 41.1799 15.7543 41.1134C15.9678 41.0469 16.1948 41.0321 16.4155 41.0704C16.856 41.1501 17.2706 41.3301 17.6252 41.5957C18.6792 42.3435 19.4794 43.379 19.9236 44.5699C20.3677 45.7609 20.4357 47.0532 20.1188 48.2817L21.4844 48.9295Z" fill="#FBDF6A"/>
<g style="mix-blend-mode:multiply">
<path d="M41.3202 68.168C40.5833 68.6366 39.8021 69.0687 39.0726 69.4275C34.5405 71.6242 29.6694 71.3606 25.071 69.4275C20.5115 67.4853 16.6376 64.2376 13.9435 60.0985C12.5816 57.8829 11.4742 55.5225 10.6421 53.0615L7.80493 54.4528L18.7261 81.8978L40.6422 81.9857C40.9075 80.1477 41.3202 68.168 41.3202 68.168Z" fill="#F1EAE2"/>
</g>
<path d="M58.8996 41.0851C58.1878 40.1676 57.3817 39.3227 56.4937 38.5636C55.6002 37.7963 54.4785 37.3247 53.2907 37.2169C52.3516 37.197 51.4345 37.4939 50.6956 38.0569C49.9568 38.6199 49.442 39.4141 49.239 40.3043C49.1055 39.1996 48.5401 38.1867 47.6596 37.4748C46.7791 36.759 45.8067 36.157 44.7666 35.684C43.7753 35.5497 42.7662 35.6125 41.8007 35.8687C40.8352 36.1248 39.9335 36.5689 39.1503 37.174C38.4221 37.6734 37.8992 38.4066 37.6743 39.2441C37.5743 40.2596 37.7525 41.2826 38.1909 42.2097C38.7112 43.8396 39.456 45.3937 40.405 46.83C40.8499 47.4502 41.3871 48.003 41.9991 48.4704L51.2833 47.1595C53.8147 45.6409 56.3165 44.0578 58.7594 42.4103C58.9754 42.2975 59.1409 42.1113 59.2243 41.8874C59.2316 41.739 59.2064 41.5908 59.1504 41.4525C59.0944 41.3142 59.009 41.189 58.8996 41.0851Z" fill="#FBDF6A"/>
<path d="M57.5718 41.5585L55.8778 40.2491C55.1856 39.6445 54.3889 39.1818 53.53 38.8858C53.1079 38.7388 52.653 38.7263 52.2239 38.8499C51.7949 38.9734 51.4114 39.2274 51.1228 39.579C50.8784 40.0269 50.6911 40.5059 50.5656 41.0039C50.5223 41.2991 50.3868 41.5715 50.1797 41.7791C49.9727 41.9868 49.7056 42.1182 49.4195 42.1532C49.1334 42.1882 48.8442 42.1248 48.5962 41.9728C48.3482 41.8209 48.1552 41.5887 48.0469 41.312C47.6754 40.7651 47.4748 40.1104 47.1256 39.5405C46.7404 38.9458 46.23 38.4496 45.6328 38.0894C45.0356 37.7291 44.3673 37.5142 43.6782 37.4609C42.335 37.3857 41.0055 37.7729 39.8965 38.5623C38.8122 39.3334 37.8519 40.277 37.051 41.3582C36.7835 41.6971 36.5532 42.2594 36.9172 42.5443C37.2813 42.8293 37.6156 42.5443 37.8831 42.3287C38.7003 41.6432 39.4507 40.873 40.3126 40.2414C41.173 39.5656 42.207 39.169 43.2845 39.1014C43.8351 39.0756 44.3834 39.1907 44.8809 39.4365C45.3785 39.6823 45.81 40.0513 46.1375 40.5109C46.4792 41.0424 46.6353 41.674 46.9696 42.1977C47.3545 42.7894 47.9446 43.2044 48.6171 43.3564C49.2897 43.5085 49.9929 43.3859 50.5804 43.0142C51.0648 42.5848 51.4943 42.093 51.8583 41.5508C52.0395 41.2848 52.2728 41.0616 52.5429 40.8957C52.8131 40.7298 53.114 40.6249 53.426 40.588C53.7842 40.6342 54.1291 40.7573 54.4387 40.9497C54.7483 41.142 55.0158 41.3992 55.224 41.7048C55.6321 42.3224 56.1581 42.8467 56.7694 43.2452C57.0648 43.4118 57.411 43.4532 57.7352 43.3608C57.8959 43.3098 58.0373 43.2082 58.1398 43.0702C58.2423 42.9322 58.3008 42.7646 58.3073 42.5906C58.2999 42.1284 57.921 41.8203 57.5718 41.5585Z" fill="#E5B348"/>
<path d="M30.3015 38.0035C30.3015 38.0035 33.3822 33.0583 37.8684 34.5022C42.3547 35.9461 42.2382 40.4872 42.2382 40.4872C42.2382 40.4872 39.8275 47.1007 35.4869 47.0932C31.1463 47.0857 31.008 39.7017 30.3015 38.0035Z" fill="#BE7139"/>
<g style="mix-blend-mode:multiply" opacity="0.55">
<path d="M40.607 36.1803C40.4189 36.9821 40.0057 37.708 39.4199 38.2661C38.2473 39.3544 36.5067 40.3142 34.97 39.3242C33.659 38.4626 33.1201 36.8907 31.831 36.0745C31.2532 36.6164 30.7398 37.2278 30.3015 37.8958C31.0298 39.6113 31.0298 47.0932 35.4798 47.0932C39.9297 47.0932 42.2385 40.4049 42.2385 40.4049C42.1527 38.8499 41.5798 37.3665 40.607 36.1803Z" fill="#C47F4C"/>
</g>
<path d="M33.2218 50.0861L44.5604 48.5496L46.8295 48.0647C46.059 47.9386 45.2982 47.7567 44.553 47.5202C42.8841 46.6251 42.2253 44.9841 42.9646 43.4102C43.4551 42.3585 45.1972 39.7701 43.2647 38.9347C42.9473 38.8122 42.6082 38.7588 42.2692 38.7781C41.5262 38.7956 40.7975 38.9903 40.1416 39.3465C39.4856 39.7027 38.9207 40.2105 38.4921 40.8293C37.6723 42.0302 37.1453 43.4699 35.6813 44.0293C32.9363 45.1109 33.7781 41.3813 33.1193 39.8895C32.8145 39.2956 32.3754 38.7843 31.8383 38.3976C31.0263 37.7064 30.0476 37.2493 29.0037 37.0735C27.9599 36.8977 26.8889 37.0098 25.9018 37.3981C24.7311 37.966 23.7804 38.9164 23.2008 40.0983C22.6478 41.2081 22.2393 42.3866 21.9857 43.6041C21.788 44.4918 21.5026 45.7002 20.5876 46.103C19.6726 46.5057 18.56 45.2451 17.9158 44.6111C16.6861 43.4699 14.4462 43.1193 12.9309 43.2685C10.142 43.5818 7.98265 46.4983 8.96352 49.2358C9.6255 50.8198 10.8048 52.1217 12.3014 52.9206L12.3453 52.8759C12.543 52.9654 12.4185 52.9878 12.6088 52.9505C13.3774 53.6143 14.6072 53.5472 15.5807 53.4801C17.6523 53.3458 19.6213 53.1668 21.7002 52.9728C25.0893 52.6596 28.4272 52.0852 31.7651 51.8092L33.5878 51.6749L33.2218 50.0861Z" fill="#FBDF6A"/>
<path d="M35.7183 47.1805C36.5703 46.7986 38.593 43.6859 39.5562 44.846C40.2972 45.7826 39.7341 47.7713 39.9712 48.8377L40.0156 48.9818L42.2384 48.6648C41.5769 48.2389 41.1016 47.5892 40.9047 46.8418C40.7383 46.186 40.7588 45.4985 40.964 44.8532C41.0878 44.5601 41.1465 44.245 41.1363 43.9283C41.1261 43.6117 41.0472 43.3007 40.9047 43.0158C40.5861 42.8285 40.0378 42.6267 39.7489 42.8933C39.7118 42.8933 39.1636 43.304 38.6004 43.6139C38.1386 43.9 37.7001 44.2204 37.289 44.5722C36.3744 45.3232 35.2688 45.821 34.0882 46.0132C32.7546 46.1645 32.3174 45.3647 32.0507 44.2911C31.8284 43.4265 31.784 42.0503 31.0801 41.3226C30.8636 41.1055 30.6028 40.9349 30.3144 40.822C30.0259 40.709 29.7163 40.6562 29.4056 40.6669C28.1538 40.6531 26.935 41.0575 25.9529 41.8125C24.7737 42.6931 23.8664 43.8722 23.33 45.2206C23.0559 45.9412 22.8336 46.6617 22.5372 47.3822C21.9667 48.7296 20.8998 49.3781 19.4179 48.3189C18.351 47.5479 17.6545 46.5824 16.3876 46.0348C14.8242 45.3503 13.3201 45.199 11.942 45.97C9.12651 47.5191 11.0751 50.6751 13.661 51.8351C14.0981 52.0297 14.1277 52.4187 14.4834 51.8351C14.839 51.2515 13.2979 50.4805 13.0015 50.077C11.6975 48.4846 13.8388 47.2814 15.4095 47.548C16.9803 47.8145 17.9361 49.306 19.4846 49.7312C20.1401 49.8808 20.8252 49.8539 21.4662 49.6533C22.1072 49.4528 22.6798 49.0861 23.1226 48.5927C24.2414 47.411 24.9897 45.8403 25.9084 44.5145C26.5012 43.6643 27.9904 42.3529 29.2426 43.3184C30.3391 44.1398 30.391 45.8691 31.3987 46.8418C32.6286 48.0091 34.392 47.7857 35.7183 47.1805Z" fill="#E5B348"/>
<path d="M26.6383 50.949C26.6383 50.949 26.1122 42.7683 32.719 44.0071C39.1228 45.1946 39.4836 49.6515 39.4836 49.6515C39.4836 49.6515 28.9609 53.1701 26.6383 50.949Z" fill="#BE7139"/>
<path d="M56.0119 43.6004C56.0119 43.6004 50.8504 38.2659 46.2272 43.2582C43.5212 46.1821 46.1093 49.3888 46.1093 49.3888L56.0119 43.6004Z" fill="#BE7139"/>
<g style="mix-blend-mode:multiply" opacity="0.55">
<path d="M58.9066 41.1621L58.4785 40.6294C57.2236 39.7712 56.1532 38.8094 54.389 39.5567C53.0529 40.622 52.1745 42.5604 50.6982 43.4704C49.2219 44.3804 47.1181 44.0623 45.6196 44.7356C45.1569 45.3687 44.5932 45.9211 43.9513 46.3706C43.6354 46.8456 43.2216 47.2472 42.7377 47.5484C42.2538 47.8496 41.7112 48.0434 41.1463 48.1166C40.458 48.2406 39.7507 48.2085 39.0763 48.0229C38.4019 47.8373 37.7774 47.5028 37.2488 47.0439C37.1897 47.0439 34.8645 46.3928 34.8128 46.3928C31.4099 46.7035 33.5801 48.7529 26.9292 48.3164C26.1347 48.8308 25.217 49.1221 24.2718 49.1598C22.5371 50.0402 20.1602 50.1438 18.1377 50.3583C16.8311 50.4915 14.5502 50.9058 13.1181 50.2252C12.6456 50.0058 12.1236 49.9155 11.605 49.9636C11.0865 50.0117 10.5898 50.1964 10.1655 50.4989L9.64136 50.8762C10.3212 51.6974 11.141 52.3913 12.0625 52.9256L12.1068 52.8812C12.3061 52.97 12.1807 52.9922 12.3726 52.9552C13.1477 53.6137 14.3878 53.5471 15.3695 53.4805C17.4585 53.3473 19.4442 53.1697 21.5406 52.9774C24.9583 52.6667 28.3244 52.097 31.6904 51.8232L33.5284 51.6901L33.4768 51.4681C35.4245 51.0508 37.3469 50.5222 39.2345 49.8848C39.2143 49.6842 39.1747 49.486 39.1164 49.293L44.5714 48.5531L45.3096 48.3978C45.4628 48.7618 45.6533 49.1089 45.878 49.4335L48.6682 47.8207L51.2813 47.436C53.3482 46.156 55.3855 44.8169 57.4007 43.4482C57.4936 43.4425 57.5853 43.4251 57.6739 43.3964C57.7894 43.3581 57.8952 43.2953 57.9844 43.2123C58.0735 43.1293 58.1439 43.0281 58.1906 42.9155L58.759 42.5308C58.975 42.4143 59.1406 42.222 59.224 41.9907C59.2322 41.838 59.2082 41.6853 59.1535 41.5425C59.0988 41.3997 59.0147 41.2701 58.9066 41.1621Z" fill="#C47F4C"/>
</g>
<path d="M5.50952 51.4297L13.8142 62.2439L36.4285 60.3879L44.075 48.4705L5.50952 51.4297Z" fill="#EFEFEC"/>
<g style="mix-blend-mode:multiply">
<path d="M19.5159 51.2251L6.88647 52.2144L14.5298 61.7847L33.9742 60.1579C29.1 57.2853 24.3154 54.2442 19.5159 51.2251Z" fill="#F2EBE5"/>
</g>
<g style="mix-blend-mode:multiply">
<path d="M49.9643 68.479L51.0555 48.9297L49.2613 49.1963L48.961 68.6493L42.2969 82.2154L42.2383 83.8223L43.0145 83.3113L49.4297 72.3593L53.5894 76.3284L53.875 76.1433L54.1752 74.4919L49.9643 68.479Z" fill="#EBE5DF"/>
</g>
<g style="mix-blend-mode:multiply" opacity="0.55">
<path d="M58.0373 53.9835L60.6028 39.7473L44.0747 48.5109C44.0747 48.5109 48.0989 58.5085 49.9745 60.8665C51.5555 60.0071 58.0373 53.9835 58.0373 53.9835Z" fill="#DBC9B0"/>
</g>
<path d="M50.6711 57.1936L62.8983 48.5332L61.0116 39.7473L44.0747 48.5554L50.6711 57.1936Z" fill="#EFEFEC"/>
<g style="mix-blend-mode:multiply">
<path d="M45.4521 49.3589L50.652 55.8163L61.9802 48.1668L61.6459 46.634C56.565 47.3436 50.5183 48.6422 45.4521 49.3589Z" fill="#F2EBE5"/>
</g>
<path d="M254.188 24.6985L283.018 68.2956C283.018 68.2956 299.339 67.2959 305.537 58.3318L290.34 8.63458C290.34 8.63458 265.397 22.3643 254.188 24.6985Z" fill="#BA5F49"/>
<g style="mix-blend-mode:multiply" opacity="0.75">
<path d="M292.299 14.8767L290.38 8.60351C290.38 8.60351 265.437 22.3332 254.229 24.6674L260.356 33.9357C273.481 30.6282 281.002 26.2393 292.299 14.8767Z" fill="#8F5243"/>
</g>
<path d="M294.136 35.6225C291.618 30.2997 285.1 28.1008 279.577 30.7113C274.055 33.3217 271.618 39.753 274.136 45.0759C276.653 50.3988 283.171 52.5977 288.694 49.9872C294.217 47.3767 296.653 40.9454 294.136 35.6225Z" fill="#CCB1B1"/>
<path d="M291.66 36.525C292.55 38.5274 292.61 40.8003 291.827 42.8461C291.045 44.8918 289.484 46.5439 287.486 47.4405C286.519 47.9471 285.459 48.2526 284.37 48.3385C283.282 48.4245 282.187 48.2892 281.152 47.9408C280.116 47.5923 279.162 47.038 278.347 46.3111C277.532 45.5842 276.872 44.6999 276.407 43.7113C275.942 42.7228 275.682 41.6504 275.643 40.559C275.603 39.4675 275.785 38.3794 276.177 37.3603C276.57 36.3413 277.164 35.4122 277.925 34.6292C278.686 33.8462 279.597 33.2254 280.605 32.8042C282.564 31.8375 284.827 31.6863 286.899 32.3835C288.971 33.0807 290.682 34.5697 291.66 36.525Z" fill="#F0E1DD"/>
<path d="M281.84 43.7038C281.667 43.0862 281.678 42.4316 281.872 41.8206C282.066 41.2095 282.435 40.6687 282.933 40.2647C283.525 39.6459 284.344 39.2993 284.931 38.716C285.518 38.1328 285.38 37.2319 285.268 36.4066C285.163 35.7108 285.018 35.0214 284.835 34.3418C282.946 34.4623 280.97 36.1851 280.061 38.7462C278.945 41.867 279.823 45.0428 282.031 45.828C282.314 45.9269 282.611 45.9828 282.911 45.9939C282.467 45.2744 282.107 44.5059 281.84 43.7038Z" fill="#8F4B46"/>
<path d="M286.053 34.4696C286.189 35.0155 286.306 35.5802 286.407 36.1638C286.564 36.6979 286.597 37.2607 286.504 37.8095C286.411 38.3583 286.195 38.8787 285.871 39.3312C285.003 40.2755 282.904 41.0542 282.826 42.6034C282.931 43.7743 283.395 44.8843 284.154 45.7823C285.078 45.4147 285.907 44.8436 286.58 44.1116C287.253 43.3795 287.752 42.5053 288.041 41.5536C289.129 38.4383 288.259 35.2725 286.053 34.4696Z" fill="#8F4B46"/>
<g style="mix-blend-mode:screen">
<path d="M299.409 60.7613C300.198 60.1496 301.157 59.4062 302.136 58.6474C299.178 50.4757 289.568 23.8575 286.312 14.4763C284.768 15.3375 283.175 16.1071 281.541 16.7813C284.926 25.8544 294.779 51.5482 298.9 61.0752C299.099 61.0013 299.257 60.8952 299.409 60.7613Z" fill="#8F524D"/>
</g>
<g style="mix-blend-mode:multiply" opacity="0.55">
<path d="M279.232 42.7327C274.384 38.1694 270.367 32.594 266.042 27.5292C265.031 26.4 264.102 25.2008 263.261 23.9404C261.161 24.7649 259.002 25.4275 256.801 25.9226L283.199 66.0115C283.199 66.0115 297.943 65.2259 303.539 57.0325L301.834 51.4895C293.66 52.0642 285.643 48.7565 279.232 42.7327Z" fill="#8B4B3A"/>
</g>
<g style="mix-blend-mode:multiply" opacity="0.55">
<path d="M267.54 22.5282C265.985 23.2049 262.685 24.1465 261.227 24.7003C265.741 32.4027 285.985 64.716 286.562 65.6455C288.422 65.3237 290.26 64.8829 292.064 64.3256C290.385 61.7061 268.508 24.5619 267.54 22.5282Z" fill="#A75640"/>
</g>
<g style="mix-blend-mode:screen">
<path d="M291.193 27.8947C291.352 28.4321 291.348 29.0044 291.183 29.5397C291.018 30.075 290.699 30.5496 290.265 30.9039C289.831 31.2582 289.302 31.4765 288.745 31.5314C288.187 31.5862 287.626 31.4752 287.131 31.2123C286.636 30.9494 286.23 30.5462 285.963 30.0534C285.697 29.5605 285.581 29 285.632 28.442C285.682 27.884 285.896 27.3535 286.247 26.9169C286.598 26.4803 287.07 26.1571 287.604 25.9878C287.965 25.877 288.344 25.8384 288.719 25.8743C289.095 25.9102 289.46 26.0199 289.794 26.197C290.127 26.3741 290.422 26.6153 290.662 26.9066C290.902 27.1979 291.083 27.5337 291.193 27.8947Z" fill="#B28784"/>
</g>
<g style="mix-blend-mode:screen">
<path d="M290.841 22.6945C290.918 23.01 290.902 23.3411 290.794 23.6473C290.685 23.9535 290.49 24.2215 290.232 24.4183C289.974 24.6152 289.664 24.7324 289.34 24.7556C289.016 24.7787 288.692 24.7069 288.409 24.5489C288.125 24.3908 287.893 24.1534 287.742 23.8658C287.591 23.5781 287.528 23.2527 287.559 22.9294C287.59 22.6062 287.715 22.2991 287.918 22.0458C288.121 21.7925 288.394 21.6041 288.703 21.5035C288.921 21.4398 289.15 21.4202 289.376 21.4457C289.602 21.4713 289.821 21.5415 290.02 21.6522C290.219 21.763 290.394 21.9122 290.535 22.0911C290.676 22.27 290.78 22.4751 290.841 22.6945Z" fill="#B28784"/>
</g>
<path d="M250.287 22.0578L250.418 28.933C250.418 28.933 262.36 29.2785 276.29 21.3148C290.221 13.351 295.212 8.58669 295.212 8.58669L290.147 2.60774C290.147 2.60774 276.873 0.894296 250.287 22.0578Z" fill="#F2F2F2"/>
<g style="mix-blend-mode:screen" opacity="0.9">
<path d="M255.677 25.4013C255.871 22.9722 256.198 20.5557 256.656 18.1624L256.819 17.1557C254.767 18.6344 252.575 20.2846 250.31 22.0878L250.418 28.933C252.038 28.9315 253.655 28.8117 255.257 28.5745C255.344 27.5103 255.484 26.4512 255.677 25.4013Z" fill="#F2F2F2"/>
</g>
<g style="mix-blend-mode:screen" opacity="0.9">
<path d="M279.267 19.5839C290.936 12.6848 295.192 8.60209 295.192 8.60209L290.147 2.60765C287.814 2.51067 285.482 2.80858 283.249 3.48881C282.241 8.89442 280.571 14.1889 279.267 19.5839Z" fill="#F2F2F2"/>
</g>
<path d="M250.287 22.0577L250.418 28.9328C250.418 28.9328 262.36 29.2784 276.29 21.3146C290.221 13.3509 295.212 8.58652 295.212 8.58652L290.147 2.60758C290.147 2.60758 279.102 15.9038 250.287 22.0577Z" fill="#DEDEDE"/>
<g style="mix-blend-mode:screen" opacity="0.65">
<path d="M284.047 7.94316C282.698 8.98849 281.041 10.0487 279.14 11.1861C279.858 13.2692 280.798 15.3893 281.3 16.9042C281.428 17.317 281.566 17.722 281.725 18.1748C284.43 16.5267 286.65 15.0783 288.468 13.8132C286.857 11.9635 285.38 10.0019 284.047 7.94316Z" fill="#C7CBC9"/>
</g>
<g style="mix-blend-mode:multiply" opacity="0.35">
<path d="M267.877 16.7308C263.142 18.6344 258.274 20.1877 253.311 21.3783C253.339 21.6612 253.366 21.9441 253.376 22.2247C253.477 24.4185 253.365 26.5853 253.648 28.7663C260.332 28.0467 266.839 26.1616 272.872 23.1964C270.527 21.6644 268.767 19.3864 267.877 16.7308Z" fill="#8F838D"/>
</g>
<path d="M254.69 12.6132L255.671 19.3892C261.75 18.0134 267.598 15.7663 273.034 12.7177C282.132 7.61884 284.528 4.84996 284.528 4.84996L280.804 -0.26458C280.804 -0.26458 273.81 -0.828677 263.92 5.04377C260.471 7.07483 257.357 9.62827 254.69 12.6132Z" fill="#F2F2F2"/>
<g style="mix-blend-mode:screen" opacity="0.9">
<path d="M280.617 1.86546C280.784 1.60739 280.937 1.32933 281.089 1.05127C281.189 0.842319 281.32 0.649371 281.477 0.478684L280.849 -0.331056C279.474 -0.374027 278.099 -0.258447 276.75 0.0133999C276.687 0.942639 276.604 1.88736 276.497 2.8021C276.39 3.71683 276.272 4.57609 276.126 5.5218C277.698 4.39874 279.198 3.17753 280.617 1.86546Z" fill="#F2F2F2"/>
</g>
<g style="mix-blend-mode:screen" opacity="0.9">
<path d="M269.4 9.38979C270.058 9.10387 270.703 8.78022 271.338 8.46431C270.986 7.97283 270.817 7.37464 270.858 6.77208C270.94 4.98006 271.26 3.16411 271.492 1.40011C270.7 1.67799 269.866 2.0046 269.037 2.35893C268.465 4.88194 268.094 7.45747 267.698 10.0207C268.232 9.86323 268.82 9.63151 269.4 9.38979Z" fill="#F2F2F2"/>
</g>
<g style="mix-blend-mode:screen" opacity="0.9">
<path d="M257.534 12.8575C257.642 12.4747 257.763 12.0934 257.895 11.7137C258.147 10.7183 258.409 9.71512 258.687 8.73197C257.249 9.91246 255.912 11.2107 254.69 12.6133L254.837 13.7315C255.725 13.4117 256.618 13.1196 257.534 12.8575Z" fill="#F2F2F2"/>
</g>
<path d="M270.345 6.6891C265.454 9.26553 260.251 11.2005 254.864 12.4461L254.675 12.5932L255.671 19.3891C261.75 18.0133 267.598 15.7663 273.034 12.7176C282.132 7.6188 284.528 4.84992 284.528 4.84992L280.859 -0.194641C277.577 2.42353 274.057 4.72819 270.345 6.6891Z" fill="#DEDEDE"/>
<g style="mix-blend-mode:screen" opacity="0.65">
<path d="M277.032 2.62676C275.987 3.3411 275.001 4.00898 273.966 4.63462C274.795 6.63253 275.888 8.53781 276.841 10.4073C279.117 9.01119 280.778 7.85225 281.962 6.96629C280.401 5.48815 278.697 4.07295 277.032 2.62676Z" fill="#C7CBC9"/>
</g>
<g style="mix-blend-mode:multiply" opacity="0.35">
<path d="M267.672 10.4411C267.214 9.85132 266.742 9.24152 266.319 8.593C262.656 10.2661 258.826 11.5497 254.894 12.4229L254.705 12.57L255.671 19.3891C260.914 18.2073 265.987 16.3721 270.772 13.9264C269.641 12.8556 268.603 11.6896 267.672 10.4411Z" fill="#8F838D"/>
</g>
<path d="M258.512 10.3229C261.209 8.11318 264.125 6.18552 267.215 4.57011C270.026 3.29673 272.959 2.31055 275.969 1.62655C273.325 3.5078 270.562 5.21596 267.698 6.74034C264.728 8.15751 261.657 9.35493 258.512 10.3229Z" fill="#A1A8A6"/>
<g style="mix-blend-mode:multiply">
<path d="M264.307 5.9759C263.809 6.2821 263.355 6.8102 262.849 7.1064C261.925 7.9142 261.066 8.79355 260.281 9.73631C261.544 9.30188 263.319 8.66221 265.436 7.74152C265.174 5.60833 264.601 5.86004 264.307 5.9759Z" fill="#A1A8A6"/>
</g>
<path d="M261.777 8.73692C261.472 8.79731 261.167 8.50613 261.021 8.09106C260.596 6.82037 259.975 4.67759 260.276 4.36434C260.488 3.54408 264.856 5.83855 264.834 6.01595C264.751 6.52815 264.532 7.68998 264.227 7.89453C263.453 8.28583 262.628 8.56925 261.777 8.73692Z" fill="#DEDEDE"/>
<g style="mix-blend-mode:screen" opacity="0.65">
<path d="M260.612 4.19995C261.753 4.43514 262.997 5.79175 264.207 7.91021C264.516 7.67017 264.741 6.53608 264.814 6.03162C264.856 5.83874 261.256 4.02047 260.612 4.19995Z" fill="#DEDEDE"/>
</g>
</svg>
