<svg width="277" height="95" viewBox="0 0 277 95" fill="none" xmlns="http://www.w3.org/2000/svg">
<path d="M11.4529 46.8379L38.9836 88.4709C38.9836 88.4709 54.5692 87.5162 60.4886 78.956L45.9754 31.4977C45.9754 31.4977 22.1566 44.6088 11.4529 46.8379Z" fill="#BA5F49"/>
<g style="mix-blend-mode:multiply" opacity="0.75">
<path d="M47.8461 37.4587L46.0135 31.4681C46.0135 31.4681 22.1948 44.5793 11.4911 46.8084L17.3423 55.6591C29.8761 52.5006 37.0587 48.3095 47.8461 37.4587Z" fill="#8F5243"/>
</g>
<path d="M49.6001 57.2697C47.1961 52.1866 40.9718 50.0868 35.6977 52.5797C30.4237 55.0726 28.0971 61.2141 30.5011 66.2972C32.9052 71.3803 39.1295 73.4801 44.4035 70.9872C49.6775 68.4944 52.0041 62.3528 49.6001 57.2697Z" fill="#CCB1B1"/>
<path d="M47.2363 58.1317C48.0855 60.0439 48.1429 62.2144 47.3958 64.168C46.6486 66.1216 45.1579 67.6992 43.2499 68.5555C42.3263 69.0392 41.3142 69.3309 40.2746 69.413C39.2351 69.4951 38.1896 69.3659 37.2011 69.0332C36.2126 68.7004 35.3015 68.1711 34.5228 67.4769C33.7441 66.7828 33.1139 65.9383 32.67 64.9943C32.2262 64.0503 31.978 63.0262 31.9403 61.9839C31.9027 60.9416 32.0764 59.9026 32.4509 58.9294C32.8255 57.9562 33.3931 57.0691 34.1197 56.3213C34.8463 55.5736 35.7168 54.9807 36.6788 54.5785C38.5501 53.6554 40.7111 53.511 42.6895 54.1768C44.6678 54.8426 46.3025 56.2645 47.2363 58.1317Z" fill="#F0E1DD"/>
<path d="M37.8582 64.9871C37.6929 64.3974 37.7036 63.7723 37.8891 63.1888C38.0745 62.6052 38.4265 62.0888 38.9019 61.703C39.4671 61.1121 40.2491 60.7811 40.8101 60.2241C41.3711 59.6671 41.239 58.8069 41.1321 58.0187C41.0315 57.3542 40.8936 56.6959 40.7189 56.0469C38.9143 56.1619 37.028 57.8071 36.1593 60.2529C35.0938 63.2331 35.9322 66.2658 38.0405 67.0156C38.3112 67.1101 38.5946 67.1635 38.8811 67.174C38.4568 66.487 38.1135 65.7532 37.8582 64.9871Z" fill="#8F4B46"/>
<path d="M41.8821 56.169C42.0112 56.6903 42.1237 57.2296 42.2196 57.7868C42.3695 58.2969 42.4013 58.8344 42.3126 59.3584C42.2239 59.8825 42.0171 60.3794 41.7079 60.8116C40.8795 61.7133 38.8749 62.457 38.7997 63.9363C38.9003 65.0544 39.3432 66.1145 40.068 66.972C40.9503 66.6209 41.7421 66.0756 42.3848 65.3766C43.0274 64.6775 43.5044 63.8426 43.7802 62.9338C44.8192 59.9589 43.9882 56.9357 41.8821 56.169Z" fill="#8F4B46"/>
<g style="mix-blend-mode:screen">
<path d="M54.636 81.2763C55.3897 80.6921 56.3057 79.9823 57.2407 79.2576C54.4154 71.4541 45.2383 46.035 42.1288 37.0765C40.6548 37.8989 39.1336 38.6338 37.5732 39.2777C40.806 47.942 50.2153 72.4782 54.1505 81.5761C54.3402 81.5055 54.4907 81.4042 54.636 81.2763Z" fill="#8F524D"/>
</g>
<g style="mix-blend-mode:multiply" opacity="0.55">
<path d="M35.3679 64.0597C30.7384 59.7019 26.9024 54.3777 22.7724 49.5411C21.8073 48.4628 20.9198 47.3176 20.1164 46.114C18.1114 46.9013 16.0491 47.5341 13.9474 48.0069L39.1567 86.2897C39.1567 86.2897 53.2362 85.5395 58.5805 77.7152L56.9523 72.4219C49.1462 72.9708 41.4906 69.8121 35.3679 64.0597Z" fill="#8B4B3A"/>
</g>
<g style="mix-blend-mode:multiply" opacity="0.55">
<path d="M24.2023 44.7656C22.7178 45.4118 19.5661 46.311 18.1739 46.8399C22.4845 54.1953 41.8171 85.0528 42.3675 85.9404C44.1441 85.6331 45.8991 85.2122 47.6216 84.68C46.0189 82.1785 25.127 46.7077 24.2023 44.7656Z" fill="#A75640"/>
</g>
<g style="mix-blend-mode:screen">
<path d="M46.79 49.8901C46.9417 50.4033 46.9385 50.9497 46.7809 51.4609C46.6233 51.9722 46.3182 52.4254 45.9039 52.7637C45.4897 53.1021 44.9847 53.3105 44.4523 53.3629C43.92 53.4153 43.3839 53.3093 42.9114 53.0582C42.4388 52.8071 42.0509 52.4221 41.7961 51.9515C41.5414 51.4809 41.4312 50.9456 41.4794 50.4127C41.5277 49.8799 41.7321 49.3732 42.0672 48.9563C42.4023 48.5394 42.853 48.2307 43.3629 48.0691C43.7073 47.9632 44.0693 47.9264 44.4281 47.9607C44.7869 47.995 45.1354 48.0997 45.4537 48.2689C45.7721 48.438 46.054 48.6683 46.2833 48.9465C46.5126 49.2247 46.6848 49.5453 46.79 49.8901Z" fill="#B28784"/>
</g>
<g style="mix-blend-mode:screen">
<path d="M46.4539 44.9245C46.5277 45.2258 46.512 45.542 46.4087 45.8344C46.3054 46.1268 46.1191 46.3827 45.8725 46.5707C45.626 46.7587 45.3299 46.8706 45.0206 46.8927C44.7112 46.9149 44.4021 46.8463 44.1311 46.6953C43.8601 46.5444 43.639 46.3177 43.4949 46.043C43.3507 45.7683 43.2898 45.4576 43.3196 45.1489C43.3494 44.8402 43.4686 44.5469 43.6626 44.305C43.8567 44.0632 44.117 43.8832 44.4119 43.7872C44.6205 43.7264 44.8392 43.7076 45.0553 43.732C45.2713 43.7564 45.4803 43.8234 45.6703 43.9292C45.8603 44.035 46.0273 44.1775 46.1619 44.3483C46.2964 44.5192 46.3956 44.715 46.4539 44.9245Z" fill="#B28784"/>
</g>
<path d="M7.72714 44.3162L7.85189 50.8816C7.85189 50.8816 19.256 51.2116 32.5589 43.6066C45.8618 36.0016 50.6284 31.4519 50.6284 31.4519L45.7912 25.7423C45.7912 25.7423 33.1151 24.1061 7.72714 44.3162Z" fill="#F2F2F2"/>
<g style="mix-blend-mode:screen" opacity="0.9">
<path d="M12.8741 47.5091C13.0598 45.1895 13.3718 42.8818 13.8088 40.5964L13.9648 39.635C12.0048 41.0471 9.91214 42.623 7.74938 44.345L7.85194 50.8817C9.39883 50.8803 10.9435 50.7659 12.4736 50.5394C12.556 49.5232 12.6897 48.5118 12.8741 47.5091Z" fill="#F2F2F2"/>
</g>
<g style="mix-blend-mode:screen" opacity="0.9">
<path d="M35.4013 41.9541C46.5446 35.3658 50.6092 31.467 50.6092 31.467L45.7911 25.7426C43.5637 25.65 41.3368 25.9345 39.2045 26.5841C38.2417 31.7462 36.6468 36.8021 35.4013 41.9541Z" fill="#F2F2F2"/>
</g>
<path d="M7.72714 44.3163L7.85189 50.8817C7.85189 50.8817 19.256 51.2117 32.5589 43.6067C45.8618 36.0018 50.6284 31.452 50.6284 31.452L45.7912 25.7425C45.7912 25.7425 35.2435 38.4396 7.72714 44.3163Z" fill="#DEDEDE"/>
<g style="mix-blend-mode:screen" opacity="0.65">
<path d="M39.966 30.8375C38.6779 31.8358 37.0954 32.8482 35.2799 33.9344C35.9663 35.9236 36.8634 37.9482 37.343 39.3948C37.4653 39.789 37.5971 40.1759 37.7489 40.6083C40.3319 39.0344 42.4518 37.6512 44.1881 36.4431C42.65 34.6768 41.2391 32.8035 39.966 30.8375Z" fill="#C7CBC9"/>
</g>
<g style="mix-blend-mode:multiply" opacity="0.35">
<path d="M24.5245 39.2293C20.0031 41.0472 15.3542 42.5306 10.6153 43.6675C10.6414 43.9376 10.6675 44.2078 10.6766 44.4757C10.773 46.5707 10.6662 48.6399 10.9363 50.7226C17.3198 50.0354 23.533 48.2353 29.2943 45.4037C27.0552 43.9407 25.3747 41.7653 24.5245 39.2293Z" fill="#8F838D"/>
</g>
<path d="M11.9316 35.2973L12.8687 41.768C18.6739 40.4541 24.2584 38.3083 29.4492 35.397C38.1375 30.5279 40.4255 27.8838 40.4255 27.8838L36.8695 22.9996C36.8695 22.9996 30.1906 22.461 20.7462 28.0688C17.4521 30.0084 14.4787 32.4468 11.9316 35.2973Z" fill="#F2F2F2"/>
<g style="mix-blend-mode:screen" opacity="0.9">
<path d="M36.6905 25.0338C36.8507 24.7873 36.9962 24.5218 37.1417 24.2563C37.2375 24.0567 37.3623 23.8725 37.512 23.7095L36.9128 22.9362C35.5996 22.8952 34.2862 23.0056 32.9985 23.2652C32.9379 24.1525 32.8582 25.0547 32.7563 25.9282C32.6544 26.8018 32.542 27.6223 32.4019 28.5254C33.9035 27.4529 35.3358 26.2868 36.6905 25.0338Z" fill="#F2F2F2"/>
</g>
<g style="mix-blend-mode:screen" opacity="0.9">
<path d="M25.979 32.2191C26.6073 31.946 27.223 31.637 27.8292 31.3353C27.4937 30.8659 27.3318 30.2947 27.3709 29.7193C27.4497 28.008 27.7551 26.2739 27.9768 24.5893C27.2203 24.8547 26.4236 25.1666 25.6321 25.505C25.0863 27.9143 24.7322 30.3738 24.3537 32.8216C24.8632 32.6712 25.4248 32.4499 25.979 32.2191Z" fill="#F2F2F2"/>
</g>
<g style="mix-blend-mode:screen" opacity="0.9">
<path d="M14.6476 35.5303C14.7512 35.1648 14.8661 34.8007 14.9923 34.438C15.233 33.4875 15.4833 32.5295 15.7483 31.5906C14.3754 32.718 13.0988 33.9577 11.9318 35.2971L12.0721 36.365C12.9197 36.0595 13.7725 35.7806 14.6476 35.5303Z" fill="#F2F2F2"/>
</g>
<path d="M26.8815 29.64C22.2107 32.1004 17.242 33.9481 12.0982 35.1377L11.9169 35.2782L12.8688 41.7679C18.674 40.4541 24.2585 38.3083 29.4493 35.397C38.1376 30.5278 40.4256 27.8837 40.4256 27.8837L36.9214 23.0664C33.7876 25.5666 30.4263 27.7675 26.8815 29.64Z" fill="#DEDEDE"/>
<g style="mix-blend-mode:screen" opacity="0.65">
<path d="M33.2672 25.7606C32.2687 26.4428 31.3274 27.0806 30.3396 27.678C31.131 29.586 32.1745 31.4054 33.0847 33.1907C35.2585 31.8574 36.8443 30.7507 37.9754 29.9047C36.4844 28.4931 34.8567 27.1417 33.2672 25.7606Z" fill="#C7CBC9"/>
</g>
<g style="mix-blend-mode:multiply" opacity="0.35">
<path d="M24.3284 33.223C23.8919 32.6598 23.4406 32.0775 23.037 31.4581C19.5385 33.0558 15.8817 34.2817 12.1268 35.1155L11.9455 35.256L12.8688 41.7679C17.8753 40.6393 22.7201 38.8868 27.2895 36.5512C26.209 35.5288 25.2183 34.4152 24.3284 33.223Z" fill="#8F838D"/>
</g>
<path d="M15.5813 33.1101C18.1568 30.9999 20.9417 29.1591 23.8925 27.6165C26.577 26.4004 29.3775 25.4587 32.2515 24.8055C29.7269 26.602 27.0886 28.2332 24.3532 29.6889C21.5169 31.0422 18.585 32.1857 15.5813 33.1101Z" fill="#A1A8A6"/>
<g style="mix-blend-mode:multiply">
<path d="M21.1157 28.959C20.6398 29.2514 20.206 29.7557 19.7227 30.0385C18.8406 30.8099 18.0208 31.6497 17.2707 32.55C18.4764 32.1351 20.1716 31.5242 22.1933 30.645C21.9432 28.608 21.3965 28.8483 21.1157 28.959Z" fill="#A1A8A6"/>
</g>
<path d="M18.6995 31.5955C18.4082 31.6531 18.1164 31.3751 17.9772 30.9787C17.5713 29.7653 16.9782 27.719 17.2656 27.4199C17.4679 26.6366 21.64 28.8277 21.6186 28.9971C21.5395 29.4862 21.3303 30.5957 21.0388 30.791C20.2995 31.1647 19.5124 31.4353 18.6995 31.5955Z" fill="#DEDEDE"/>
<g style="mix-blend-mode:screen" opacity="0.65">
<path d="M17.5864 27.2629C18.6768 27.4875 19.864 28.783 21.0195 30.806C21.3153 30.5768 21.5297 29.4938 21.5993 29.0121C21.6398 28.8279 18.2019 27.0915 17.5864 27.2629Z" fill="#DEDEDE"/>
</g>
<path d="M268.115 28.0081C264.706 24.2843 240.843 25.0353 229.286 33.625C225.346 36.5508 223.031 40.8534 219.904 44.0609C204.501 60.1606 209.974 71.8169 222.719 78.6855C229.912 82.5501 244.955 82.3467 257.716 75.1026C270.476 67.8585 275.198 61.5844 276.481 54.309C278.967 38.6943 268.115 28.0081 268.115 28.0081ZM259.842 55.06C257.934 54.6532 255.151 53.7301 252.289 53.1982C252.201 53.2057 252.112 53.2057 252.023 53.1982C250.179 53.2635 248.34 53.4465 246.519 53.7458C245.794 54.3105 245.037 54.8329 244.252 55.3104C242.729 55.9093 241.433 56.9709 240.545 58.3457C240.232 58.875 239.818 59.3375 239.326 59.7069C238.671 60.7331 238.091 61.805 237.59 62.9143C234.978 68.6877 232.461 60.1606 229.896 58.111C228.52 55.8267 241.499 41.6201 249.584 42.9969C250.645 43.017 251.697 43.1855 252.711 43.4976L253.04 43.6228C255.995 44.0452 258.935 44.7806 261.844 45.4064C268.052 46.7833 266.035 56.4682 259.842 55.107V55.06Z" fill="#EE9843"/>
<g style="mix-blend-mode:multiply" opacity="0.65">
<path d="M267.583 27.617C262.72 24.3626 240.374 25.3796 229.287 33.625C225.346 36.5508 223.032 40.8535 219.904 44.0609C207.863 56.5777 208.598 66.4973 215.526 73.4754L216.167 74.0387C219.295 74.555 222.766 74.0387 225.424 74.2577C230.116 74.7741 234.807 79.6713 239.498 77.2305C243.924 74.9149 247.161 74.8679 252.008 74.4142C256.371 73.9918 257.747 68.8129 262.079 67.7646C263.83 67.3578 267.458 67.4674 267.662 64.9484C267.666 63.7456 267.938 62.5588 268.459 61.4749C270.492 58.0172 275.746 58.2206 274.464 53.5268C273.369 49.5996 274.01 45.3595 276.028 43.0439C274.683 34.5794 269.21 29.4319 267.583 27.617ZM259.765 55.107C257.857 54.7002 255.073 53.7771 252.212 53.2451C252.123 53.2527 252.034 53.2527 251.946 53.2451C250.101 53.3105 248.263 53.4934 246.441 53.7927C245.716 54.3575 244.959 54.8799 244.174 55.3573C242.652 55.9563 241.355 57.0179 240.468 58.3927C240.154 58.922 239.74 59.3845 239.248 59.7539C238.593 60.78 238.013 61.8519 237.512 62.9613C236.246 65.7463 235.026 65.2143 233.791 63.681C232.102 62.6797 230.429 58.4709 228.724 57.1097C227.348 54.841 240.327 40.6188 248.412 41.9956C249.472 42.0233 250.523 42.1917 251.539 42.4963C251.658 42.5338 251.773 42.5809 251.883 42.6371C254.839 43.0439 257.779 43.7793 260.687 44.4208C261.82 44.6303 262.832 45.2621 263.518 46.1888C267.552 48.833 265.363 56.3274 259.843 55.107H259.765Z" fill="#D98B43"/>
</g>
<path d="M215.15 63.9939C215.525 64.3851 215.901 64.7762 216.292 65.1517L217.496 64.651C220.842 63.2742 223.845 61.1776 227.207 59.8008L230.334 58.5335C230.226 58.4118 230.105 58.3017 229.974 58.2049C228.598 55.9206 241.578 41.714 249.662 43.0908C250.723 43.1109 251.776 43.2794 252.79 43.5915L253.118 43.7167C254.807 43.967 256.496 44.3112 258.185 44.6711C259.592 42.8874 260.984 41.0412 262.516 39.3045C264.907 36.2902 267.566 33.499 270.46 30.9652C269.737 29.934 268.954 28.9466 268.115 28.0081C264.706 24.2843 240.843 25.0353 229.286 33.625C225.346 36.5508 223.031 40.8534 219.904 44.0609C213.367 50.8825 210.834 57.1566 211.037 62.6327C211.781 62.4506 212.562 62.4816 213.289 62.7223C214.016 62.9631 214.661 63.4037 215.15 63.9939Z" fill="#822A00"/>
<path d="M274.652 54.5124C274.401 52.7757 272.353 49.7404 272.619 48.0976C272.885 46.4547 275.011 44.9684 275.746 43.5759C277.138 41.1194 275.746 38.2406 274.886 35.7528C271.493 25.9584 263.94 19.1994 246.504 20.232C237.481 20.7483 219.92 25.2387 210.788 42.1364C205.315 52.2438 206.831 59.4722 211.757 66.4973C213.618 69.1571 219.123 73.6788 223.063 73.272C224.987 73.053 225.956 71.989 228.099 72.4271C229.712 72.7988 231.219 73.5317 232.508 74.5706C235.964 77.0896 238.372 76.5733 242.11 74.5706C244.174 73.4285 244.971 72.6775 247.333 73.1938C249.027 73.6551 250.824 73.5619 252.462 72.9278C256.152 71.3632 255.449 65.7776 260.656 66.6694C262.548 66.9667 264.393 67.4673 265.738 65.7306C267.083 63.9939 265.551 62.2572 266.458 60.5205C268.381 56.8906 275.559 60.6144 274.652 54.5124ZM228.74 46.0166C235.354 32.0291 248.099 38.397 249.303 40.9473C254.073 50.8825 222.203 59.9103 228.74 46.0166Z" fill="#A73D22"/>
<g style="mix-blend-mode:screen" opacity="0.75">
<path d="M224.94 46.6427C225.485 42.219 227.095 37.9937 229.631 34.3293C230.936 32.5061 232.695 31.0559 234.733 30.1227C236.771 29.1896 239.018 28.8059 241.25 29.0097C247.129 29.8702 251.398 35.8313 257.325 36.3633C258.54 36.5076 259.771 36.3455 260.908 35.8919C262.044 35.4382 263.049 34.7075 263.83 33.7661C264.574 32.7953 264.947 31.5914 264.884 30.3701C264.821 29.1488 264.326 27.9899 263.486 27.1009C262.694 26.4466 261.78 25.9572 260.797 25.6614C252.541 22.6558 243.494 22.6428 235.23 25.6247C226.967 28.6067 220.01 34.3945 215.573 41.9802C213.846 44.4885 213.044 47.5196 213.305 50.5542C213.806 53.527 216.667 56.2494 219.56 55.6235C220.454 55.3691 221.277 54.9121 221.966 54.2881C222.655 53.664 223.191 52.8896 223.532 52.025C224.23 50.2987 224.703 48.4898 224.94 46.6427Z" fill="#B1523A"/>
</g>
<g style="mix-blend-mode:screen" opacity="0.75">
<path d="M247.254 55.3574C241.812 57.9077 235.51 57.7356 229.521 58.2519C228.05 58.3172 226.603 58.6513 225.252 59.2376C224.58 59.539 223.996 60.0055 223.553 60.5936C223.11 61.1818 222.823 61.8725 222.719 62.6015C222.531 65.1518 225.283 66.9355 227.785 67.4518C232.82 68.4688 237.981 66.7946 242.813 65.0579C247.502 63.5851 251.969 61.4796 256.089 58.7995C260.231 56.058 263.181 51.8484 264.346 47.0181C264.687 45.6062 264.6 44.1245 264.096 42.7624C263.517 41.4324 262.141 40.0556 260.749 40.4467C255.745 41.7923 256.089 51.2269 247.254 55.3574Z" fill="#B1523A"/>
</g>
<path d="M255.682 26.4437C255.211 26.4144 254.742 26.529 254.338 26.7723L251.46 28.1335L252.289 29.6042C253.721 28.6579 255.377 28.1073 257.09 28.0083C256.777 27.3355 256.386 26.6158 255.682 26.4437Z" fill="#CC3131"/>
<path d="M271.508 39.0544C271.037 39.0097 270.565 39.1196 270.163 39.3673L267.286 40.7286L268.114 42.1993C269.537 41.2338 271.186 40.6567 272.9 40.5252C272.602 39.8993 272.211 39.1796 271.508 39.0544Z" fill="#CC3131"/>
<path d="M270.445 44.5146L267.208 43.4663C265.793 45.0824 264.284 46.6131 262.688 48.0506C264.101 48.2847 265.413 48.9326 266.457 49.9125C267.55 47.9501 268.89 46.136 270.445 44.5146Z" fill="#EAD4AF"/>
<path d="M218.637 53.6518L215.4 52.6191C213.99 54.234 212.48 55.7598 210.881 57.1878C212.296 57.4101 213.613 58.0472 214.665 59.0184C215.76 57.0703 217.094 55.2673 218.637 53.6518Z" fill="#EAD4AF"/>
<path d="M251.21 60.2546C250.759 60.0159 250.25 59.9076 249.741 59.9417H246.801C246.55 60.99 246.285 62.0226 246.019 63.0709C248.014 62.4461 250.115 62.2279 252.196 62.4294C252.201 62.0169 252.115 61.6082 251.945 61.2324C251.775 60.8566 251.524 60.5228 251.21 60.2546Z" fill="#FFCC00"/>
<path d="M258.669 41.1196C258.189 40.8675 257.646 40.7589 257.106 40.8067H254.181L253.384 43.9359C255.367 43.3308 257.452 43.1339 259.514 43.357C259.542 42.9452 259.482 42.532 259.336 42.1458C259.19 41.7596 258.963 41.4096 258.669 41.1196Z" fill="#FFCC00"/>
<path d="M219.748 45.3752C219.748 46.2513 219.888 47.1275 219.951 48.0193L225.987 46.6738C225.645 46.0148 225.514 45.2664 225.612 44.5303C223.694 45.0277 221.727 45.3111 219.748 45.3752Z" fill="#14B661"/>
<path d="M229.756 32.8115L224.908 34.8924C224.721 35.7135 224.684 36.5616 224.799 37.3958C226.554 36.3235 228.463 35.5268 230.459 35.0333C230.02 34.3741 229.776 33.6038 229.756 32.8115Z" fill="#CC3131"/>
<path d="M238.122 33.2965L240.514 32.2638C240.118 32.0398 239.774 31.7343 239.505 31.3675C239.235 31.0008 239.046 30.581 238.951 30.136C238.782 29.2546 238.364 28.4401 237.747 27.7891L235.917 28.1959C236.668 29.9013 237.371 31.591 238.122 33.2965Z" fill="#FFCC00"/>
<path d="M224.908 54.1683L227.316 53.1356C226.917 52.9165 226.569 52.6124 226.299 52.2449C226.029 51.8773 225.843 51.4551 225.753 51.0078C225.584 50.1264 225.166 49.3119 224.549 48.6609L222.719 49.0677L224.908 54.1683Z" fill="#FFCC00"/>
<path d="M249.741 33.0773L248.177 32.2637L244.69 34.9861L247.286 36.1439L249.741 33.0773Z" fill="#EAD4AF"/>
<path d="M233.915 66.7945L232.352 65.981L228.865 68.6877L231.476 69.8455L233.915 66.7945Z" fill="#EAD4AF"/>
<path d="M259.373 33.4686C259.334 33.2365 259.229 33.0203 259.071 32.8457C258.913 32.6711 258.708 32.5452 258.481 32.4829C258.253 32.421 258.011 32.4348 257.791 32.5223C257.571 32.6097 257.385 32.7661 257.262 32.968C257.191 33.1083 257.133 33.255 257.09 33.4061C256.684 34.8821 256.651 36.4361 256.996 37.9278C257.74 37.573 258.574 37.453 259.388 37.5835C259.054 36.7987 258.972 35.9294 259.154 35.0958C259.34 34.5748 259.415 34.0204 259.373 33.4686Z" fill="#14B661"/>
<path d="M248.005 64.5887C247.958 64.3574 247.848 64.1434 247.688 63.9697C247.529 63.7961 247.325 63.6693 247.098 63.603C246.87 63.5487 246.631 63.5679 246.415 63.6578C246.199 63.7477 246.016 63.9038 245.894 64.1036C245.805 64.2352 245.746 64.3848 245.722 64.5417C245.316 66.0178 245.284 67.5718 245.628 69.0634C246.367 68.6901 247.204 68.5587 248.021 68.6879C247.686 67.8976 247.605 67.0232 247.786 66.1846C247.963 65.672 248.037 65.1298 248.005 64.5887Z" fill="#14B661"/>
<path d="M229.506 62.7894L231.883 63.1492C232.133 61.5846 232.383 60.0983 232.649 58.5649L230.804 59.3003C230.382 60.4268 229.944 61.6159 229.506 62.7894Z" fill="#CC3131"/>
<path d="M216.886 60.7396C217.021 60.825 217.182 60.8583 217.34 60.8335L220.326 60.5988C220.154 58.7727 220.357 56.9306 220.921 55.1853C220.058 55.6386 219.109 55.9052 218.137 55.9676C217.73 57.3601 217.308 58.7526 216.902 60.1451C216.792 60.3485 216.745 60.5988 216.886 60.7396Z" fill="#FFCC00"/>
<path d="M264.127 56.5934C264.189 56.6382 264.261 56.6696 264.336 56.6858C264.411 56.7019 264.489 56.7024 264.565 56.6873L267.551 56.4526C267.38 54.6296 267.566 52.7908 268.099 51.0391C267.242 51.4942 266.299 51.761 265.331 51.8214C264.924 53.2139 264.502 54.622 264.08 56.0145C264.033 56.171 263.986 56.4526 264.127 56.5934Z" fill="#FFCC00"/>
<path d="M260.749 59.5505C260.737 57.9299 261.084 56.3268 261.766 54.8567H259.357L257.794 59.175L260.749 59.5505Z" fill="#14B661"/>
<path d="M237.262 70.4244L239.968 70.5496C240.156 68.8971 240.485 67.2639 240.953 65.668C240.809 65.5605 240.639 65.4923 240.461 65.4704C240.283 65.4484 240.102 65.4734 239.936 65.5428L237.262 70.4244Z" fill="#6BC3C3"/>
<path d="M212.82 46.9711L211.538 51.1955L213.93 51.3833L214.712 46.6895L212.82 46.9711Z" fill="#CC3131"/>
<path d="M219.936 38.6943C219.405 38.7644 218.903 38.9751 218.482 39.3045L216.183 40.8691L217.747 42.7936C218.816 41.4264 220.238 40.3769 221.859 39.7583C221.378 39.1707 220.689 38.79 219.936 38.6943Z" fill="#6BC3C3"/>
<path d="M226.706 58.9873C226.175 59.0574 225.673 59.2681 225.252 59.5975L222.953 61.1621L224.517 63.0866C225.614 61.6866 227.074 60.615 228.739 59.9887C228.217 59.4034 227.488 59.0442 226.706 58.9873Z" fill="#6BC3C3"/>
<path d="M267.051 36.3788C267.307 36.4764 267.576 36.5344 267.849 36.5509C268.051 36.5425 268.247 36.4807 268.417 36.3719C268.587 36.263 268.725 36.111 268.817 35.9313C268.909 35.7515 268.952 35.5505 268.942 35.3488C268.931 35.147 268.867 34.9518 268.756 34.7829C267.397 34.2789 266.096 33.6284 264.878 32.8428C264.237 33.5312 263.595 34.2196 262.97 34.9237L267.051 36.3788Z" fill="#6BC3C3"/>
<path d="M254.885 56.8751C255.137 56.9842 255.408 57.0427 255.683 57.0472C255.887 57.0439 256.086 56.9852 256.259 56.8774C256.432 56.7696 256.573 56.6168 256.666 56.4353C256.759 56.2537 256.801 56.0503 256.788 55.8467C256.774 55.6431 256.706 55.4469 256.59 55.2792C255.232 54.772 253.932 54.1217 252.711 53.3391L250.804 55.42L254.885 56.8751Z" fill="#6BC3C3"/>
<path d="M248.239 31.4971C248.492 31.6073 248.762 31.6709 249.037 31.6849C249.234 31.6837 249.427 31.6329 249.6 31.5372C249.772 31.4415 249.917 31.304 250.022 31.1373C250.125 30.9618 250.18 30.7619 250.18 30.5584C250.18 30.3548 250.125 30.1549 250.022 29.9795C248.637 29.4641 247.311 28.8033 246.066 28.0081L244.158 30.042L248.239 31.4971Z" fill="#6BC3C3"/>
<path d="M231.116 41.3697C231.367 41.4822 231.639 41.5408 231.914 41.5418C232.117 41.5374 232.316 41.4784 232.489 41.3711C232.663 41.2638 232.804 41.1121 232.899 40.9317C232.999 40.7551 233.052 40.5557 233.052 40.3528C233.052 40.1498 232.999 39.9504 232.899 39.7738C231.54 39.2699 230.239 38.6194 229.021 37.8337L227.113 39.9147L231.116 41.3697Z" fill="#6BC3C3"/>
<path d="M246.785 24.0967C245.627 24.8188 244.334 25.2979 242.985 25.5048C243.079 26.1932 243.173 26.8817 243.251 27.5701C244.773 26.7349 246.413 26.1336 248.114 25.7864C247.491 25.392 247.022 24.7956 246.785 24.0967Z" fill="#14B661"/>
<path d="M236.558 56.3899C235.818 56.3418 235.096 56.137 234.441 55.7891C233.786 55.4411 233.212 54.958 232.758 54.3716L230.959 56.2804C232.637 56.8751 234.217 57.7133 235.651 58.7681C235.979 57.9858 236.276 57.1879 236.558 56.3899Z" fill="#EAD4AF"/>
<path d="M233.165 29.3692C232.425 29.3191 231.704 29.1134 231.049 28.7656C230.395 28.4179 229.821 27.9357 229.365 27.3508L227.566 29.244C229.238 29.8573 230.817 30.6998 232.258 31.7474C232.539 30.9494 232.852 30.1671 233.165 29.3692Z" fill="#EAD4AF"/>
<path d="M259.624 63.5559C258.884 63.5039 258.164 63.2974 257.51 62.9498C256.855 62.6021 256.281 62.1211 255.824 61.5376L254.025 63.4308C255.699 64.0407 257.278 64.8834 258.717 65.9341L259.624 63.5559Z" fill="#EAD4AF"/>
<path d="M252.664 52.3533C252.786 52.5026 252.942 52.6194 253.119 52.6932C253.297 52.7669 253.49 52.7953 253.681 52.7757C253.873 52.7498 254.055 52.674 254.208 52.556C254.362 52.438 254.482 52.2818 254.557 52.103C254.463 50.7887 254.385 49.4744 254.291 48.1602C253.631 48.3442 252.996 48.6068 252.399 48.9425C252.078 49.8914 252.078 50.9194 252.399 51.8683C252.471 52.0384 252.56 52.2009 252.664 52.3533Z" fill="#CC3131"/>
<path d="M243.392 54.1995C243.251 54.0118 242.938 54.0587 242.719 54.1995L241.03 54.6063C240.671 56.0614 240.327 57.5165 239.967 58.9872H242.219C242.625 57.5791 243.016 56.1553 243.407 54.7315C243.449 54.6484 243.469 54.5563 243.466 54.4635C243.464 54.3707 243.438 54.28 243.392 54.1995Z" fill="#14B661"/>
<path d="M219.732 67.1232C221.506 67.005 223.287 67.2117 224.987 67.7334C225.159 66.7634 225.346 65.7933 225.534 64.8232C223.973 64.9631 222.403 64.9631 220.843 64.8232C220.467 65.6525 220.092 66.3878 219.732 67.1232Z" fill="#14B661"/>
<path d="M89.8006 63.5615C89.8006 63.5615 88.229 68.5317 88.9006 70.0574C89.5722 71.583 107.572 83.6661 121.575 85.4358C121.782 85.4603 121.992 85.4409 122.19 85.379C122.389 85.3172 122.573 85.2141 122.731 85.0765C123.886 84.0661 126.633 81.5302 127.016 79.8961C127.506 77.8212 116.807 80.3504 89.8006 63.5615Z" fill="#F89945"/>
<path d="M93.6713 69.6429C95.0185 71.1194 96.9451 70.3845 98.1172 71.7667C99.2893 73.1488 99.5116 73.5466 101.115 73.2567C101.411 73.2027 101.674 73.4994 101.863 73.6612C103.365 74.9152 104.2 75.6164 106.531 75.8321C107.02 75.8254 107.497 75.99 107.878 76.2973C109.047 77.1434 110.483 77.5384 111.92 77.4098C112.021 77.4051 112.123 77.4236 112.216 77.4637C113.22 77.9424 113.314 78.7312 114.237 79.4055C115.658 80.4235 116.972 81.3539 118.609 80.201C118.873 80.061 119.178 80.018 119.471 80.0797C121.168 80.3763 120.933 82.2506 123.149 81.4281C124.294 81.0168 124.644 82.0281 125.251 82.5001C126.031 81.7427 126.633 80.8216 127.016 79.8032C127.507 77.7402 116.776 80.255 89.6902 63.5615C89.2793 64.8865 88.9597 66.2381 88.7336 67.6068C89.5689 69.3732 92.5127 68.3889 93.6713 69.6429Z" fill="#D77124"/>
<path opacity="0.55" d="M111.366 80.5103C110.041 78.6464 108.313 75.9585 108.162 73.5408C102.02 70.9122 96.0717 67.8588 90.363 64.4033C90.363 64.4033 89.1131 68.4554 89.762 69.7453C90.2811 70.7718 101.373 77.9778 112.301 81.6584C111.953 81.287 111.653 80.9088 111.366 80.5103Z" fill="#CD4200"/>
<path d="M110.042 61.9251C110.042 61.9251 93.9863 56.5393 92.4958 57.8858C91.0054 59.2322 89.9011 62.6859 90.6667 64.1468C91.4322 65.6077 106.872 72.7775 109.317 74.124C118.694 79.2944 126.139 78.5807 126.559 78.7087C126.979 78.8366 131.017 75.7667 129.723 72.0437C128.517 68.5497 112.779 63.3995 110.042 61.9251Z" fill="#BE5B2A"/>
<path d="M110.753 71.0512C109.43 69.2435 108.38 67.2523 107.636 65.1412C107.269 63.7136 107.014 62.2599 106.872 60.7929C103.492 59.7361 98.2043 58.1543 95.0197 57.6697C93.4038 60.8535 93.2686 64.0104 95.2361 67.0933C100.158 69.8665 107.474 73.4542 109.252 73.9994C110.043 74.2418 111.855 74.7331 113.985 75.3457C112.807 73.9923 111.727 72.5572 110.753 71.0512Z" fill="#AE4D25"/>
<path d="M103.656 62.8199C106.172 63.9104 108.08 65.6336 110.312 67.1818C112.178 68.3911 113.948 69.7414 115.606 71.2207C116.908 72.466 119.086 76.3433 121.001 75.1047C122.438 74.1623 124.171 74.2431 125.789 74.0209C127.166 73.8081 128.569 73.8354 129.937 74.1017C130.032 73.4016 129.96 72.6889 129.728 72.0217C128.527 68.5483 112.868 63.3988 110.137 61.9246C110.137 61.9246 94.1546 56.5395 92.671 57.8857C92.2774 58.2619 91.9432 58.6954 91.6797 59.1714C95.9012 59.6561 99.7182 61.0832 103.656 62.8199Z" fill="#953E25"/>
<path d="M90.0038 63.5638C91.2014 63.5453 92.3981 63.6412 93.5771 63.8501C94.8264 64.1565 97.5668 66.7006 100.965 67.6197C104.364 68.5387 103.283 70.3635 107.266 71.3159C111.249 72.2683 111.598 74.1264 112.955 74.2862C114.312 74.4461 117.616 76.3175 118.274 76.857C118.933 77.3964 124.111 76.7571 125.401 77.7294C126.691 78.7018 128.658 78.1024 128.706 78.835C128.753 79.5675 128.706 81.2192 126.529 80.7264C124.353 80.2335 123.077 80.5199 122.378 79.7207C121.68 78.9215 115.608 79.3677 115.359 78.2955C115.111 77.2233 113.002 76.3641 111.088 75.7847C109.173 75.2053 108.757 74.3062 106.386 73.7867C104.015 73.2673 101.375 70.9496 100.22 70.9829C99.0647 71.0162 95.9212 70.0372 95.4779 69.0449C95.0346 68.0526 92.7039 66.4808 91.8845 66.5341C91.0651 66.5874 89.8896 64.0633 90.0038 63.5638Z" fill="#7BB027"/>
<path d="M92.4661 63.0001C92.4661 62.9461 92.4661 62.8853 92.5401 62.9596C92.7601 62.9078 92.9867 62.8896 93.2121 62.9056V62.8448C93.4876 62.8921 93.7968 62.8448 94.0589 62.8448C94.056 62.8292 94.056 62.8132 94.0589 62.7976C94.6175 63.0092 95.1874 63.1895 95.7659 63.3377C96.2834 63.6146 96.8143 64.364 96.1288 64.7557C95.8129 64.9312 95.4567 64.8097 95.3223 65.2418C95.2938 65.4081 95.3012 65.5786 95.3441 65.7417C95.387 65.9048 95.4644 66.0567 95.571 66.1871C96.2148 66.6965 96.9459 67.0832 97.7283 67.3282C98.3264 67.5376 99.5495 68.0034 99.946 67.2405C100.107 67.0446 99.825 66.7408 99.8922 66.4842C99.9434 66.3429 100.034 66.2193 100.153 66.1283C100.272 66.0373 100.415 65.9827 100.564 65.9711C100.896 66.104 101.244 66.1903 101.599 66.2276C102.011 66.436 102.444 66.6012 102.89 66.7205C103.256 66.9056 103.61 67.113 103.951 67.3417C104.126 67.5646 104.294 67.8414 104.482 68.017C104.67 68.1925 104.724 68.8069 104.402 69.077C104.207 69.2391 103.918 69.1311 103.73 69.1716C103.496 69.2418 103.271 69.3368 103.058 69.4552C103.029 69.5699 103.025 69.6894 103.046 69.8058C103.067 69.9222 103.112 70.0328 103.179 70.1304C103.239 70.1911 103.279 70.1979 103.326 70.3127C104.207 70.6165 104.919 71.3525 105.826 71.5618C105.876 71.6136 105.937 71.6524 106.005 71.6748C106.073 71.6972 106.146 71.7024 106.216 71.6901C106.411 71.8134 106.624 71.9046 106.848 71.9602V71.8927C106.869 71.9241 106.9 71.9478 106.935 71.9602C106.942 71.9489 106.945 71.9361 106.945 71.9231C106.945 71.91 106.942 71.8972 106.935 71.8859C107.607 71.8859 106.727 70.9811 106.646 70.7583C106.357 69.9886 107.318 70.0831 107.809 70.1911C109.046 70.522 110.746 71.2242 111.438 72.4126C111.381 72.6402 111.238 72.837 111.041 72.9626C110.843 73.0882 110.606 73.133 110.376 73.0878C110.235 73.1553 109.939 73.2093 109.758 73.3039C109.758 73.3039 109.691 73.4524 109.664 73.4929C109.726 73.5965 109.8 73.6918 109.886 73.7765C110.04 74.0669 110.558 74.1884 110.766 74.2897C110.805 74.3171 110.848 74.3376 110.894 74.3504C111.004 74.428 111.124 74.4915 111.25 74.5395V74.472C111.425 74.5598 111.787 74.607 111.922 74.3504C112.46 74.0534 112.016 72.8852 113.017 73.2971C113.589 73.5267 114.22 74.1681 114.832 73.8035C115.275 73.871 115.611 73.8508 115.934 74.1749C116.136 75.1607 115.316 75.2012 114.59 75.5253L114.516 75.5658C114.516 75.6469 114.455 75.7279 114.429 75.8089C114.402 75.8899 114.462 75.8967 114.469 75.9439C114.476 75.9266 114.476 75.9073 114.469 75.8899C114.543 76.1735 115.141 76.6327 115.369 76.5651C115.9 77.1796 116.956 76.3693 117.507 76.0857C117.869 75.8668 118.257 75.6944 118.663 75.5726C119.113 75.4713 119.375 75.7144 119.751 75.6941C120.206 76.0148 120.545 76.4742 120.719 77.004C120.847 77.4429 120.719 78.1519 121.297 78.2734C122.769 79.3133 124.536 76.923 126.048 76.8757C126.147 76.8645 126.247 76.8731 126.343 76.9011C126.439 76.929 126.528 76.9757 126.605 77.0385C126.683 77.1013 126.747 77.179 126.795 77.2669C126.842 77.3549 126.872 77.4514 126.882 77.551C126.935 77.9358 126.653 78.2667 126.7 78.6381C126.715 78.7289 126.749 78.8157 126.798 78.893C126.848 78.9704 126.913 79.0367 126.989 79.088C127.065 79.1392 127.151 79.1742 127.241 79.1909C127.331 79.2076 127.424 79.2056 127.513 79.185C127.937 79.0972 128.071 78.6583 128.414 78.476C128.609 78.3624 128.836 78.3156 129.06 78.3426C129.284 78.3697 129.494 78.4691 129.657 78.626C129.819 78.7829 129.927 78.9888 129.964 79.2126C130 79.4364 129.963 79.666 129.859 79.8669C129.593 80.2333 129.253 80.5393 128.862 80.765C128.471 80.9907 128.036 81.1311 127.587 81.1768C127.12 81.5112 126.555 81.6799 125.981 81.6563C125.831 81.6304 125.688 81.5699 125.565 81.4796C125.442 81.3892 125.341 81.2713 125.271 81.1353C125.2 80.9992 125.162 80.8486 125.16 80.6954C125.157 80.5421 125.19 80.3903 125.255 80.2518C125.43 79.7454 125.894 79.0567 125.47 78.6178C125.364 78.5424 125.245 78.4887 125.118 78.4597C124.992 78.4308 124.861 78.4272 124.733 78.4491C124.605 78.4711 124.482 78.5181 124.373 78.5876C124.263 78.6571 124.168 78.7477 124.093 78.8541C123.771 79.1835 123.493 79.5535 123.266 79.9547C123.013 80.2931 122.704 80.5854 122.352 80.819C122.251 80.819 122.245 80.819 122.204 80.8663C121.015 80.8663 120.275 79.6711 120.423 78.449C120.235 77.9561 119.993 76.8892 119.288 77.7738C119.083 78.0861 118.927 78.4275 118.824 78.7866C118.632 79.0848 118.461 79.3961 118.313 79.7184C118.004 79.9346 117.642 80.0616 117.267 80.0854C116.891 80.1092 116.516 80.029 116.183 79.8534C115.329 79.4674 114.589 78.8676 114.032 78.1114C113.562 77.5375 113.152 77.0986 113.676 76.4166C113.824 76.214 114.214 75.8764 114.207 75.5793C114.193 75.4098 114.117 75.2516 113.992 75.1364C113.867 75.0213 113.704 74.9576 113.535 74.9581C112.722 74.5598 112.426 75.6334 112.003 76.1263C111.715 76.4174 111.343 76.61 110.94 76.6767C110.537 76.7433 110.123 76.6807 109.758 76.4976C109.187 76.2883 107.446 75.5051 107.856 74.7016C108.031 74.3437 108.575 74.3234 108.79 74.0263C108.887 73.8317 108.918 73.6102 108.876 73.3964C108.835 73.1827 108.724 72.9887 108.562 72.8447C108.347 72.5949 107.372 72.0075 107.372 72.6624C107.285 72.8312 107.372 73.1216 107.325 73.3376C107.242 73.5582 107.172 73.7837 107.117 74.0128C106.828 74.1344 106.66 74.4855 106.445 74.6475C106.174 74.8551 105.85 74.9815 105.511 75.0122C105.435 75.0026 105.358 75.0026 105.282 75.0122C104.303 74.6059 103.431 73.9772 102.735 73.1756C102.489 72.9034 102.295 72.5874 102.164 72.2438C102.076 71.8049 102.439 71.4943 102.426 71.0622C102.426 70.3262 101.142 69.3269 100.88 70.3869C100.752 70.9271 101.041 71.3052 100.773 71.8522C100.598 72.1965 100.396 72.5274 99.9662 72.5274V72.5679C97.8963 72.2775 100.013 69.9818 98.817 69.1311C98.4339 68.861 97.4258 68.5369 96.989 68.7934C96.317 69.1851 97.1436 69.9953 96.317 70.3329L96.1557 70.2789C95.2753 70.0966 94.1395 69.1986 94.2874 68.152C94.3479 67.7469 94.8116 67.4768 94.8183 67.0919C94.7413 66.7228 94.5244 66.3983 94.2134 66.1871C94.1203 66.0687 93.9961 65.9787 93.8548 65.9274C93.7135 65.8761 93.5607 65.8655 93.4137 65.8968C92.9634 65.9711 92.9567 66.2276 92.9769 66.6395C93.0306 67.6186 92.9231 68.1182 92.0159 68.6179C91.6316 68.5689 91.2612 68.4419 90.9273 68.2445C90.5934 68.0472 90.303 67.7837 90.0736 67.47C89.7645 66.9299 90.0736 66.0116 90.0736 65.4444C89.9997 65.0123 89.0857 64.6746 88.7295 64.5936C87.2309 63.6956 87.8626 61.1703 89.6771 62.0683C90.3066 62.504 90.8173 63.0913 91.1624 63.7766C91.4984 64.2493 92.3384 65.127 92.8694 64.3303C93.2927 63.7091 92.4527 63.4458 92.493 62.8786C92.5333 62.8853 92.372 63.0136 92.4661 63.0001Z" fill="#9FCC29"/>
<path d="M99.0059 55.3033C99.0059 55.3033 93.1094 54.5641 90.417 56.2755L90.592 57.3609C90.592 57.3609 100.069 59.1189 106.161 63.0078C112.253 66.8967 118.56 71.811 120.249 73.6622C120.249 73.6622 127.357 70.3327 133.287 73.4025L133.765 72.397C132.719 70.8019 131.305 69.4758 129.639 68.5281C127.061 67.143 108.281 61.5761 99.0059 55.3033Z" fill="#FFCF08"/>
<path d="M122.942 71.7803C121.595 72.0037 120.492 72.2474 120.492 72.2474C114.434 67.2919 109.951 63.4467 105.071 61.1314C100.387 58.8837 95.4736 57.1584 90.417 55.9863L90.592 57.0898C90.592 57.0898 100.069 58.877 106.161 62.8306C112.253 66.7842 118.56 71.7803 120.249 73.6623C120.249 73.6623 127.357 70.2774 133.287 73.3983L133.765 72.376C128.764 70.2232 124.712 71.4757 122.942 71.7803Z" fill="#EFA708"/>
<path d="M131.188 66.0771C131.373 66.2923 131.509 66.5444 131.587 66.8162C131.664 67.0879 131.681 67.3729 131.637 67.6517C131.392 68.4156 130.481 69.7692 129.978 69.8697C128.891 70.0774 109.34 63.4101 95.5276 55.128C95.5276 55.128 95.1674 54.6656 96.2074 51.7776C96.2074 51.7776 99.715 55.3022 115.2 61.8288C127.483 66.9683 131.188 66.0771 131.188 66.0771Z" fill="#E72124"/>
<g style="mix-blend-mode:multiply" opacity="0.55">
<path d="M113.293 62.8869C116.449 64.2089 119.673 65.3674 122.95 66.3578C125.839 67.3293 128.337 68.0865 131.226 67.6376C131.258 67.3668 131.235 67.0924 131.157 66.8309C131.08 66.5694 130.95 66.3264 130.775 66.1166C130.775 66.1166 127.105 66.9809 114.956 61.8283C99.6156 55.3288 96.1407 51.7776 96.1407 51.7776C95.8502 52.5367 95.6249 53.319 95.4673 54.116C100.727 58.1564 107.34 60.1733 113.293 62.8869Z" fill="#C42124"/>
</g>
<path d="M120.007 46.5285C116.734 45.0429 113.283 43.9854 109.739 43.382C107.359 42.9078 104.918 42.8142 102.508 43.1046C100.328 43.4063 98.2976 44.3865 96.7069 45.906C96.0233 46.6739 95.5298 47.5913 95.2661 48.5844C95.0024 49.5775 94.9759 50.6186 95.1888 51.6238C95.8665 55.1492 125.896 67.9043 131.454 66.869C131.454 66.869 133.805 65.7998 134.165 62.4571C134.334 60.7046 133.487 58.6002 132.633 57.1115C131.217 54.7816 129.4 52.7199 127.265 51.0215C125.051 49.216 122.611 47.7057 120.007 46.5285Z" fill="#F89945"/>
<path d="M126.184 61.9378C121.388 61.2696 117.448 58.9239 113.093 56.9992C108.617 54.9944 103.834 53.3504 99.8328 50.4901C98.0598 49.2137 96.8574 47.964 96.5857 46.3066C95.9453 47.0612 95.4867 47.9486 95.2444 48.9022C95.002 49.8558 94.9822 50.851 95.1863 51.8133C95.8656 55.2951 125.966 67.8923 131.537 66.8698C132.282 66.4503 132.913 65.8589 133.375 65.1464C133.836 64.4339 134.115 63.6218 134.186 62.7799C131.551 63.0672 129.037 62.3589 126.184 61.9378Z" fill="#E8761F"/>
<g style="mix-blend-mode:screen" opacity="0.32">
<path d="M120.212 48.2799C119.378 47.4787 116.807 45.8837 115.847 47.2803C115.02 48.4857 117.29 49.9264 118.061 50.3527C118.936 50.8452 120.443 51.3377 120.989 50.4262C121.403 49.728 120.905 48.9341 120.212 48.2799Z" fill="#FDE5C1"/>
</g>
<g style="mix-blend-mode:screen" opacity="0.32">
<path d="M125.841 54.4031C123.808 53.1836 121.378 52.1987 119.219 52.8017C117.445 53.2842 118.312 54.651 119.286 55.5488C120.801 56.9751 122.584 58.078 124.53 58.7916C125.815 59.2271 128.139 60.0245 128.675 58.2556C128.728 57.9854 128.728 57.7071 128.675 57.4369C128.621 57.1667 128.516 56.9098 128.364 56.6811C127.666 55.7741 126.811 55.0024 125.841 54.4031Z" fill="#FDE5C1"/>
</g>
<path d="M110.618 47.3325C110.618 47.6876 110.169 47.9901 109.588 47.9901C109.007 47.9901 108.527 47.7402 108.514 47.3851C108.502 47.03 108.97 46.7275 109.551 46.7275C110.131 46.7275 110.612 46.984 110.618 47.3325Z" fill="#FBD198"/>
<path d="M116.931 55.7529C116.931 56.1062 116.384 56.4071 115.687 56.4071C114.991 56.4071 114.414 56.152 114.406 55.7987C114.399 55.4455 114.953 55.1445 115.65 55.1445C116.347 55.1445 116.916 55.3866 116.931 55.7529Z" fill="#FBD198"/>
<path d="M124.086 58.2747C124.086 58.6298 123.636 58.9322 123.049 58.9322C122.462 58.9322 121.994 58.6758 121.982 58.3273C121.969 57.9787 122.437 57.6697 123.018 57.6697C123.599 57.6697 124.079 57.9261 124.086 58.2747Z" fill="#FBD198"/>
<path d="M104.726 46.9116C104.726 47.2667 104.277 47.5692 103.696 47.5692C103.116 47.5692 102.635 47.3128 102.622 46.9642C102.61 46.6157 103.078 46.3066 103.659 46.3066C104.239 46.3066 104.72 46.5368 104.726 46.9116Z" fill="#FBD198"/>
<path d="M132.082 59.1165C132.082 59.4716 131.542 59.774 130.838 59.774C130.134 59.774 129.572 59.5176 129.557 59.1691C129.542 58.8205 130.104 58.5115 130.801 58.5115C131.497 58.5115 132.044 58.7745 132.082 59.1165Z" fill="#FBD198"/>
<path d="M119.718 55.0471C119.453 55.2959 118.923 55.0471 118.549 54.5423C118.174 54.0376 118.077 53.3865 118.348 53.1377C118.62 52.889 119.143 53.1377 119.524 53.6425C119.906 54.1473 119.99 54.8057 119.718 55.0471Z" fill="#FBD198"/>
<path d="M127.021 56.0188C126.922 56.3447 126.258 56.4923 125.594 56.357C124.931 56.2217 124.42 55.8588 124.519 55.5329C124.618 55.2069 125.282 55.0593 125.945 55.1946C126.609 55.3299 127.112 55.6989 127.021 56.0188Z" fill="#FBD198"/>
<path d="M108.369 52.1209C108.096 52.3192 107.569 52.1209 107.185 51.7184C106.802 51.316 106.717 50.791 106.99 50.5927C107.263 50.3944 107.79 50.5927 108.168 51.001C108.545 51.4093 108.616 51.9226 108.369 52.1209Z" fill="#FBD198"/>
<path d="M113.845 52.5525C113.589 52.7561 113.064 52.4798 112.677 51.9345C112.29 51.3891 112.186 50.7857 112.442 50.5821C112.698 50.3785 113.223 50.6548 113.61 51.2001C113.997 51.7454 114.101 52.3489 113.845 52.5525Z" fill="#FBD198"/>
<path d="M102.125 49.5488C101.902 49.7912 101.294 49.67 100.752 49.2727C100.211 48.8755 99.9584 48.357 100.174 48.1146C100.389 47.8723 101.004 47.9934 101.546 48.3907C102.088 48.7879 102.34 49.3064 102.125 49.5488Z" fill="#FBD198"/>
<path d="M123.919 52.1303C123.642 52.3088 123.116 52.1303 122.742 51.6781C122.368 51.226 122.292 50.7619 122.569 50.5834C122.846 50.4049 123.372 50.5834 123.746 51.0356C124.12 51.4877 124.196 51.9518 123.919 52.1303Z" fill="#FBD198"/>
<path d="M130.237 56.3217C129.959 56.5448 129.433 56.3217 129.059 55.7565C128.685 55.1913 128.602 54.6112 128.879 54.3881C129.156 54.165 129.689 54.3881 130.056 54.9533C130.423 55.5185 130.514 56.0986 130.237 56.3217Z" fill="#FBD198"/>
<path d="M113.819 47.0632C113.542 47.2855 113.015 47.0632 112.641 46.5C112.267 45.9368 112.191 45.3513 112.468 45.129C112.745 44.9067 113.272 45.129 113.646 45.6922C114.02 46.2554 114.096 46.8408 113.819 47.0632Z" fill="#FBD198"/>
<g style="mix-blend-mode:multiply" opacity="0.35">
<path d="M134.152 61.9176C129.046 62.0372 123.303 60.2756 118.82 58.6602C115.579 57.4969 112.039 56.2338 109.408 53.9603C106.777 51.6868 105.591 48.7087 107.53 45.6242C108.036 44.8447 108.736 44.2042 109.564 43.7628C107.241 43.3246 104.861 43.2439 102.512 43.5235C100.33 43.8199 98.2994 44.7829 96.7078 46.2756C96.0238 47.0301 95.53 47.9314 95.2662 48.907C95.0024 49.8826 94.9759 50.9054 95.1888 51.8929C95.8669 55.3563 125.913 67.8871 131.474 66.87C131.474 66.87 133.827 65.8197 134.186 62.5358C134.188 62.3292 134.177 62.1227 134.152 61.9176Z" fill="#D48745"/>
</g>
<g style="mix-blend-mode:multiply" opacity="0.32">
<path d="M114.594 57.7943L112.98 57.0474C108.624 55.0739 103.988 53.3607 100.049 50.6198C98.292 49.4 97.0953 48.2214 96.7602 46.7275C96.1814 47.3804 95.7783 48.1706 95.5893 49.0231C95.4002 49.8757 95.4314 50.7625 95.6798 51.5997C96.1516 53.3744 105.664 58.1712 114.827 61.8784C114.564 60.534 114.485 59.1599 114.594 57.7943Z" fill="#BA773D"/>
</g>
<path d="M184.35 22.657C184.35 22.657 167.106 8.36442 157.972 12.2685C148.838 16.1727 145.341 17.7524 143.298 22.5592C142.047 25.493 141.263 35.3473 140.6 38.5443C139.937 41.7414 137.585 48.7372 147.579 47.4885C157.572 46.2398 174.387 22.7698 184.35 22.657Z" fill="#F89945"/>
<g style="mix-blend-mode:multiply" opacity="0.35">
<path d="M166.274 12.0613H165.822H165.762C165.702 12.2233 165.588 12.3598 165.44 12.448C165.292 12.5362 165.119 12.5708 164.949 12.546C162.064 12.2506 160.128 12.9172 157.364 13.8943C156.024 14.3639 153.817 15.6515 152.341 15.2955C152.284 15.2727 152.231 15.2421 152.183 15.2046C151.851 15.2955 151.52 15.3789 151.203 15.4925C148.756 16.3181 148.191 17.5073 147.091 19.7871C146.338 21.3626 144.741 25.0892 142.851 26.1193C142.963 27.2026 143.129 28.2795 143.348 29.346C143.616 30.6669 143.667 32.023 143.499 33.3604C143.258 34.8071 142.617 36.2236 141.006 36.1705C140.938 36.6402 140.878 37.0643 140.817 37.4506C141.439 38.5458 141.831 39.7573 141.97 41.0106C142.03 42.3664 141.608 43.7146 141.744 44.9417C142.663 45.5098 142.896 46.3581 143.13 47.373C144.602 47.6837 146.118 47.7197 147.603 47.4791C157.575 46.2142 174.393 22.5897 184.35 22.4836C184.35 22.4609 174.89 14.5533 166.274 12.0613Z" fill="#E09945"/>
</g>
<path d="M149.067 20.8884C148.901 21.2125 148.803 21.5684 148.78 21.9334C148.757 22.2983 148.809 22.6641 148.933 23.0072C149.058 23.3503 149.251 23.6631 149.501 23.9254C149.751 24.1877 150.052 24.3937 150.385 24.5301C151.015 24.7197 151.682 24.7509 152.327 24.6211C155.363 24.1887 158.079 22.5651 160.803 21.1388C163.527 19.7125 166.496 18.4227 169.54 18.7262C170.373 18.8097 171.192 19.0145 172.033 19.0297C172.874 19.0991 173.709 18.8264 174.354 18.271C174.982 17.4935 175.336 16.5237 175.359 15.517C175.5 14.4624 175.59 13.2409 174.868 12.4823C174.421 12.0195 173.759 11.8298 173.298 11.3822C172.831 10.7866 172.457 10.1213 172.189 9.40961C171.767 8.67335 171.13 8.08977 170.367 7.74024C169.603 7.39072 168.752 7.29268 167.932 7.4598C167.59 7.53567 167.188 7.78603 167.262 8.13503C167.337 8.48402 167.806 8.51437 168.148 8.44609C168.49 8.37781 168.892 8.29435 169.123 8.58265C169.354 8.87095 169.123 9.34133 168.758 9.43237C168.413 9.51718 168.051 9.49874 167.716 9.37926C165.69 8.90039 163.588 8.86419 161.547 9.27305C161.197 9.31921 160.863 9.44921 160.572 9.65239C160.43 9.75945 160.324 9.90914 160.269 10.0805C160.215 10.2519 160.214 10.4364 160.267 10.6083C160.52 11.2077 161.547 11.2229 161.644 11.8677C161.655 12.0286 161.615 12.1888 161.531 12.3252C161.447 12.4617 161.322 12.5672 161.175 12.6264C160.88 12.7355 160.565 12.777 160.252 12.7478L157.484 12.6947C157.023 12.341 156.488 12.0996 155.921 11.9891C155.637 11.9414 155.345 11.9897 155.089 12.1267C154.834 12.2636 154.63 12.4817 154.507 12.7478C154.291 13.3851 154.723 14.2045 154.291 14.7128C154.088 14.8843 153.833 14.9781 153.57 14.9781C153.306 14.9781 153.051 14.8843 152.848 14.7128C152.444 14.3657 152.016 14.0488 151.568 13.7644C151.173 13.609 150.738 13.5934 150.333 13.7199C149.928 13.8465 149.577 14.108 149.335 14.4624C149.108 14.8208 148.977 15.2344 148.958 15.6609C148.938 16.0875 149.03 16.5117 149.224 16.8902C149.558 17.5882 150.198 18.2027 150.161 18.9766C150.124 19.7504 149.454 20.2208 149.067 20.8884Z" fill="#9FCC29"/>
<path d="M172.42 11.2934C171.996 10.7206 171.751 10.0348 171.372 9.43197C171.203 9.11622 170.958 8.84857 170.661 8.65366C170.363 8.45876 170.022 8.34286 169.669 8.31665C169.785 8.39807 169.884 8.50354 169.957 8.62614C170.03 8.74874 170.078 8.8857 170.095 9.02802C170.113 9.17035 170.1 9.31483 170.059 9.45198C170.017 9.58914 169.948 9.71586 169.855 9.82384C169.793 9.89437 169.723 9.95757 169.647 10.0122C169.83 10.2479 169.992 10.5001 170.13 10.7658C170.427 11.3989 170.687 12.047 170.933 12.695C171.297 13.6597 171.818 14.7599 171.386 15.7773C170.955 16.7946 169.617 16.4254 169.639 15.6039C169.612 15.5611 169.59 15.5157 169.572 15.4683C169.3 14.2312 168.841 13.0441 168.212 11.949C167.751 11.1954 167.141 10.6151 166.643 9.92935C165.515 9.61596 164.339 9.5264 163.178 9.66559C162.888 9.66559 162.531 9.80877 162.434 10.1027C162.338 10.3966 162.65 10.6528 162.932 10.7583C163.229 10.8138 163.51 10.9319 163.758 11.105C163.837 11.2097 163.893 11.3302 163.923 11.4586C163.953 11.587 163.956 11.7204 163.931 11.8499C163.907 11.9795 163.856 12.1023 163.781 12.2103C163.706 12.3183 163.609 12.409 163.498 12.4765C163.029 12.732 162.49 12.8221 161.966 12.7327C161.642 12.7064 161.316 12.7064 160.992 12.7327C160.889 12.7576 160.785 12.7752 160.68 12.7855C160.583 12.8053 160.488 12.8356 160.397 12.8759C159.954 13.1397 159.565 13.4877 159.252 13.9008C159.093 14.1065 158.89 14.273 158.658 14.3879C158.426 14.5027 158.172 14.5629 157.914 14.564C157.17 14.466 156.531 13.4863 155.81 13.8104C155.088 14.1344 155.363 15.4758 154.717 16.0712C154.515 16.2091 154.279 16.2865 154.035 16.2945C153.792 16.3025 153.551 16.2408 153.341 16.1164C152.902 15.9129 152.523 15.5813 152.07 15.3628C151.852 15.2506 151.606 15.2085 151.364 15.2422C151.122 15.2758 150.896 15.3837 150.716 15.5512C150.569 15.8015 150.502 16.0925 150.526 16.3831C150.55 16.6738 150.663 16.9495 150.85 17.1714C151.237 17.6137 151.494 18.1565 151.594 18.7389C151.594 19.8768 150.107 20.442 149.765 21.5272C149.667 21.9791 149.704 22.4503 149.871 22.8809C150.037 23.3116 150.327 23.6824 150.701 23.9463C151.111 24.2719 151.571 24.5265 152.062 24.6999L152.352 24.6622C155.386 24.2326 158.1 22.6199 160.821 21.2032C163.542 19.7864 166.509 18.5053 169.55 18.8067C170.383 18.8896 171.201 19.0931 172.041 19.1082C172.882 19.1771 173.716 18.9062 174.361 18.3546C174.988 17.5823 175.341 16.619 175.364 15.619C175.452 15.0813 175.477 14.5349 175.439 13.9912C174.598 12.9437 173.223 12.3635 172.42 11.2934Z" fill="#73A624"/>
<path d="M145.966 26.5377C145.966 26.5377 147.089 20.4766 147.224 19.5508C147.224 19.5508 151.035 22.0678 154.824 21.4964L158.605 25.648C158.605 25.648 150.638 29.1559 145.966 26.5377Z" fill="#FFCF08"/>
<g style="mix-blend-mode:multiply" opacity="0.35">
<path d="M154.63 21.8914L154.249 21.9357C153.93 22.7485 153.408 23.472 152.729 24.0414C152.051 24.6109 151.237 25.0084 150.361 25.1984C149.721 25.2941 149.066 25.2236 148.463 24.994C147.86 24.7645 147.331 24.3841 146.93 23.8919C146.671 25.3239 146.435 26.6084 146.435 26.6084C150.757 29.037 158.137 25.7816 158.137 25.7816L154.63 21.8914Z" fill="#E6B970"/>
</g>
<path d="M147.682 20.0188C147.547 21.0315 146.435 27.3042 146.435 27.3042C146.771 27.5007 146.741 27.3722 147.107 27.5083C146.987 25.566 148.361 21.3111 148.361 21.3111C152.984 22.5808 155.433 22.6186 154.746 21.7948C152.289 21.7482 149.874 21.1411 147.682 20.0188Z" fill="#EFA708"/>
<path d="M150.656 27.3543C150.663 27.4053 150.663 27.4572 150.656 27.5083C153.398 27.3425 156.088 26.6971 158.605 25.6017L156.97 24.6997C155.165 25.1544 150.42 26.0123 150.656 27.3543Z" fill="#EFA708"/>
<path d="M154.852 31.7347C154.888 30.6867 154.808 29.6379 154.614 28.6074C154.547 28.1458 154.473 27.6767 154.406 27.2076C154.339 26.7385 153.997 26.5598 153.611 26.5896C153.229 26.6689 152.851 26.7708 152.481 26.8949C151.649 27.0736 150.839 26.5896 150.074 26.2173C148.684 25.54 147.16 25.1838 145.615 25.1749C144.912 25.1312 144.211 25.2887 143.594 25.6291C143.289 25.8087 143.05 26.0811 142.911 26.4066C142.772 26.7322 142.74 27.0937 142.821 27.4384C143.163 28.5255 144.768 28.7638 145.169 29.836C145.236 30.0147 145.243 30.2604 145.072 30.3572C144.901 30.454 144.686 30.3051 144.53 30.1711C143.848 29.543 142.994 29.1333 142.078 28.9946C141.615 28.9314 141.145 28.9706 140.699 29.1096C140.254 29.2486 139.844 29.4838 139.499 29.7988C139.16 30.1235 138.923 30.5396 138.814 30.9967C138.706 31.4538 138.732 31.9325 138.89 32.3751C139.068 32.8075 139.394 33.1625 139.809 33.3766C140.224 33.5908 140.701 33.6501 141.156 33.5441C141.632 33.4101 142.167 33.075 142.568 33.3654C142.643 33.4436 142.7 33.5372 142.735 33.6397C142.77 33.7422 142.782 33.8512 142.771 33.959C142.76 34.0667 142.725 34.1707 142.669 34.2637C142.614 34.3567 142.539 34.4363 142.449 34.4972C142.257 34.6114 142.042 34.6808 141.819 34.7001C141.597 34.7195 141.373 34.6883 141.164 34.6089C140.736 34.4572 140.296 34.3426 139.848 34.2664C139.399 34.2382 138.951 34.3506 138.568 34.588C138.185 34.8253 137.884 35.1761 137.708 35.5917C137.548 36.0125 137.502 36.468 137.574 36.9125C137.645 37.357 137.833 37.7746 138.117 38.1234C138.411 38.4647 138.775 38.7385 139.184 38.9261C139.593 39.1137 140.038 39.2107 140.487 39.2105C141.362 39.1335 142.225 38.9561 143.059 38.6818C145.362 38.1531 147.844 38.585 150.096 37.8404C151.389 37.3857 152.524 36.5687 153.367 35.4863C154.21 34.404 154.726 33.1019 154.852 31.7347Z" fill="#9FCC29"/>
<path d="M143.68 33.5829C143.887 34.2218 143.326 34.8915 142.706 35.1224C142.066 35.2472 141.412 35.2758 140.764 35.2071C140.441 35.175 140.116 35.2288 139.819 35.3634C139.522 35.498 139.263 35.7091 139.066 35.9769C138.913 36.3506 138.905 36.7712 139.043 37.1511C139.18 37.5311 139.453 37.8411 139.804 38.0168C140.53 38.3314 141.341 38.3588 142.085 38.0937C143.466 37.7012 144.736 36.9083 146.146 36.6312C147.091 36.4387 148.066 36.4926 149.026 36.3695C149.998 36.3171 150.915 35.8793 151.588 35.1455C152.022 34.5308 152.312 33.8192 152.437 33.0672C152.901 31.0389 153.241 28.9821 153.456 26.909C152.223 27.5402 150.842 28.1945 149.513 27.8173C148.986 27.6417 148.488 27.382 148.036 27.0476C147.58 26.7109 147.083 26.4367 146.56 26.2316C146.295 26.1327 146.015 26.0906 145.734 26.1077C145.454 26.1249 145.179 26.2011 144.928 26.3317C144.68 26.4733 144.485 26.6974 144.374 26.9681C144.263 27.2388 144.242 27.5405 144.315 27.825C144.425 28.0596 144.585 28.2652 144.781 28.4265C144.978 28.5878 145.208 28.7006 145.452 28.7565C145.941 28.8557 146.42 28.9999 146.885 29.1875C147.111 29.2917 147.302 29.4638 147.433 29.6819C147.565 29.8999 147.631 30.154 147.623 30.4115C147.578 30.6164 147.482 30.8053 147.344 30.9593C147.207 31.1133 147.033 31.227 146.84 31.289C146.196 31.4818 145.506 31.4159 144.906 31.1043C144.293 30.8425 143.725 30.4654 143.104 30.2267C142.799 30.0877 142.47 30.0159 142.137 30.0159C141.804 30.0159 141.475 30.0877 141.17 30.2267C140.881 30.3875 140.664 30.6582 140.562 30.9823C140.46 31.3063 140.482 31.6589 140.624 31.9664C140.827 32.197 141.075 32.38 141.351 32.5034C141.627 32.6268 141.925 32.6877 142.226 32.6823C142.839 32.7746 143.496 32.9825 143.68 33.5829Z" fill="#73A624"/>
<path d="M146.435 37.4536C146.433 37.6519 146.488 37.8468 146.593 38.0181C146.697 38.1894 146.849 38.3306 147.03 38.4271C147.394 38.6239 147.804 38.7281 148.222 38.7295C149.397 38.8007 150.57 38.5769 151.626 38.0805C152.93 37.4792 153.957 36.4425 154.512 35.1672C154.782 34.5323 154.898 33.8472 154.85 33.1636C154.801 32.4801 154.591 31.8159 154.234 31.2213C153.862 30.6338 153.331 30.153 152.696 29.8297C152.061 29.5065 151.347 29.3527 150.628 29.3848C150.102 29.429 149.491 29.6872 149.452 30.1887C149.413 30.6902 149.994 31.0295 150.226 31.4942C150.3 31.6597 150.327 31.8412 150.304 32.02C150.281 32.1988 150.209 32.3686 150.094 32.512C149.975 32.6525 149.82 32.7611 149.644 32.8271C149.467 32.8931 149.276 32.9141 149.088 32.8881C148.454 32.7996 147.928 32.1506 147.301 32.2907C147.06 32.3568 146.85 32.5014 146.709 32.6995C146.567 32.8975 146.503 33.1365 146.527 33.3749C146.595 33.8403 146.744 34.2916 146.968 34.7099C147.195 35.1305 147.258 35.6137 147.146 36.0743C147.015 36.5685 146.504 36.9373 146.435 37.4536Z" fill="#9FCC29"/>
<path d="M153.77 31.1816C153.38 31.1 153.013 30.9367 152.693 30.7028C152.373 30.4663 151.987 30.3318 151.588 30.3169C151.391 30.3165 151.202 30.3901 151.058 30.5229C150.915 30.6556 150.828 30.8375 150.815 31.0315C150.815 31.3245 151.097 31.546 151.241 31.8033C151.34 31.9804 151.393 32.1796 151.393 32.3821C151.393 32.5847 151.34 32.7839 151.241 32.961C151.135 33.1343 150.987 33.2787 150.811 33.381C150.634 33.4833 150.434 33.5404 150.23 33.5469C149.937 33.5196 149.647 33.467 149.363 33.3897C149.204 33.3328 149.031 33.3278 148.869 33.3757C148.707 33.4235 148.565 33.5215 148.464 33.6553C148.363 33.789 148.308 33.9514 148.307 34.1185C148.306 34.2856 148.36 34.4485 148.46 34.5831C148.749 35.2177 149.263 35.7259 149.905 36.0124C150.541 36.3121 151.246 36.4426 151.949 36.3911C152.806 36.3788 153.636 36.0959 154.319 35.5836C154.657 35.3079 154.924 34.957 155.099 34.5595C155.273 34.1621 155.35 33.7294 155.323 33.2968C155.285 32.8663 155.113 32.458 154.831 32.1279C154.549 31.7978 154.171 31.5621 153.748 31.4531L153.77 31.1816Z" fill="#73A624"/>
<path d="M168.499 15.8348L169.643 18.1466L179.669 17.6611L179.452 15.7654C179.452 15.7654 176.364 11.3652 173.008 11.1417C169.651 10.9182 168.088 12.9989 168.499 15.8348Z" fill="#D12424"/>
<path d="M152.69 15.8936L151.115 17.3867L159.101 30.3167L160.897 30.0256C161.544 28.7355 161.882 27.3097 161.882 25.8636C161.882 24.4176 161.544 22.9918 160.897 21.7017C158.65 17.3494 155.308 15.3487 152.69 15.8936Z" fill="#D12424"/>
<path d="M152.52 15.8927L160.879 29.8487C161.538 28.5733 161.882 27.1638 161.882 25.7342C161.882 24.3046 161.538 22.8951 160.879 21.6197C158.59 17.3318 155.186 15.3539 152.52 15.8927Z" fill="#EA3333"/>
<path d="M155.829 19.2138C155.934 19.6566 155.829 21.1548 155.904 21.2876C155.979 21.4204 156.74 20.0034 156.74 20.0034C156.74 20.0034 158.112 20.8891 158.738 23.4795C158.738 23.4795 157.592 23.0072 157.562 23.7526C157.532 24.498 159.009 24.4906 159.19 24.4242C159.371 24.3578 159.891 26.1954 159.25 27.1475L160.878 29.8487C161.538 28.5733 161.882 27.1638 161.882 25.7342C161.882 24.3046 161.538 22.8951 160.878 21.6197C158.617 17.3318 155.188 15.3539 152.52 15.8927L154.163 18.616C154.743 18.7193 155.753 18.9038 155.829 19.2138Z" fill="#C91D1D"/>
<path d="M158.497 20.7415C159.899 22.9555 161.074 25.6198 159.801 28.0553L160.878 29.8487C161.538 28.5733 161.882 27.1638 161.882 25.7342C161.882 24.3046 161.538 22.8951 160.878 21.6197C158.617 17.3318 155.188 15.3539 152.52 15.8927L153.273 17.1916C155.723 17.0366 157.283 18.8226 158.497 20.7415Z" fill="#FF3333"/>
<path d="M155.631 20.0189C155.511 20.0189 155.385 19.8836 155.347 19.6242C155.321 19.5235 155.322 19.4119 155.348 19.3115C155.374 19.2111 155.425 19.1294 155.489 19.0828C155.608 19.0828 155.735 19.2181 155.78 19.4775C155.804 19.5797 155.801 19.6915 155.774 19.7913C155.746 19.8912 155.695 19.9722 155.631 20.0189Z" fill="#FF7E70"/>
<path d="M157.031 21.4225C156.963 21.427 156.895 21.4096 156.842 21.3739C156.789 21.3382 156.755 21.287 156.747 21.2311C156.725 21.1782 156.728 21.12 156.757 21.0692C156.786 21.0184 156.838 20.9792 156.902 20.9599C157.024 20.9334 157.147 21.0184 157.185 21.146C157.208 21.1996 157.205 21.2586 157.176 21.3102C157.147 21.3619 157.095 21.4021 157.031 21.4225Z" fill="#FF7E70"/>
<path d="M157.503 22.8241C157.438 22.8383 157.372 22.808 157.32 22.7398C157.268 22.6715 157.233 22.5706 157.223 22.4586C157.209 22.4054 157.201 22.347 157.201 22.2879C157.201 22.2287 157.208 22.1703 157.223 22.1169C157.237 22.0634 157.259 22.0164 157.285 21.9792C157.312 21.942 157.343 21.9156 157.376 21.902C157.409 21.8884 157.444 21.8878 157.477 21.9004C157.511 21.913 157.542 21.9385 157.569 21.9748C157.596 22.0112 157.618 22.0575 157.633 22.1105C157.648 22.1635 157.656 22.2217 157.657 22.2808C157.677 22.3883 157.672 22.5051 157.643 22.6065C157.614 22.7079 157.564 22.786 157.503 22.8241Z" fill="#FF7E70"/>
<path d="M158.908 25.6358C158.788 25.6358 158.66 25.575 158.622 25.4474C158.598 25.3942 158.599 25.3352 158.627 25.283C158.655 25.2308 158.708 25.1895 158.773 25.1679C158.842 25.1659 158.909 25.1846 158.962 25.2206C159.014 25.2565 159.049 25.3071 159.058 25.3623C159.081 25.4148 159.078 25.4723 159.05 25.5231C159.022 25.5739 158.971 25.6142 158.908 25.6358Z" fill="#FF7E70"/>
<path d="M152.291 15.4321L150.647 16.9245L158.978 29.8487L160.853 29.5577C161.529 28.2672 161.882 26.8408 161.882 25.3939C161.882 23.9471 161.529 22.5206 160.853 21.2301C158.508 16.8648 155.029 14.865 152.291 15.4321Z" fill="#D12424"/>
<path d="M152.52 15.4341L160.877 29.8487C161.538 28.5312 161.882 27.0747 161.882 25.5975C161.882 24.1203 161.538 22.6638 160.877 21.3462C158.588 16.8969 155.193 14.8551 152.52 15.4341Z" fill="#EA3333"/>
<path d="M155.833 18.8575C155.938 19.3148 155.833 20.8621 155.916 20.9993C155.998 21.1365 156.744 19.6731 156.744 19.6731C156.744 19.6731 158.122 20.5877 158.739 23.2631C158.739 23.2631 157.595 22.7753 157.564 23.5451C157.534 24.315 159.01 24.3074 159.191 24.2464C159.372 24.1854 159.891 26.0681 159.259 27.0514L160.877 29.8487C161.538 28.5305 161.882 27.0734 161.882 25.5955C161.882 24.1176 161.538 22.6605 160.877 21.3423C158.619 16.9138 155.193 14.8711 152.52 15.4275L154.169 18.263C154.756 18.3468 155.765 18.5374 155.833 18.8575Z" fill="#C91D1D"/>
<path d="M158.498 20.4353C159.906 22.7219 161.073 25.4812 159.801 27.9889L160.877 29.8487C161.538 28.5305 161.882 27.0734 161.882 25.5955C161.882 24.1176 161.538 22.6605 160.877 21.3423C158.619 16.9138 155.193 14.8711 152.52 15.4275L153.273 16.7766C155.727 16.6089 157.286 18.4992 158.498 20.4353Z" fill="#FF3333"/>
<path d="M155.17 19.5509C155.048 19.5509 154.912 19.4827 154.874 19.3577C154.836 19.2327 154.874 19.1021 155.018 19.0851C155.162 19.068 155.268 19.1475 155.314 19.2782C155.36 19.4088 155.291 19.5281 155.17 19.5509Z" fill="#FF7E70"/>
<path d="M156.871 21.4215C156.735 21.4308 156.599 21.3971 156.492 21.3272C156.385 21.2574 156.315 21.1566 156.295 21.0454C156.248 20.9371 156.255 20.818 156.314 20.7137C156.373 20.6093 156.479 20.5279 156.609 20.4868C156.744 20.4888 156.873 20.5277 156.978 20.5971C157.082 20.6666 157.155 20.7627 157.185 20.8702C157.215 20.9777 157.201 21.0903 157.144 21.1902C157.087 21.2901 156.991 21.3715 156.871 21.4215Z" fill="#FF7E70"/>
<path d="M157.033 22.3571C157.001 22.3613 156.969 22.3599 156.937 22.3529C156.906 22.3459 156.876 22.3336 156.85 22.3166C156.824 22.2996 156.802 22.2783 156.786 22.2539C156.77 22.2295 156.759 22.2026 156.755 22.1746C156.74 22.148 156.733 22.1189 156.732 22.0894C156.732 22.0598 156.74 22.0306 156.754 22.004C156.769 21.9773 156.79 21.9538 156.817 21.9352C156.843 21.9167 156.874 21.9035 156.907 21.8967C156.94 21.8899 156.975 21.8896 157.008 21.8959C157.041 21.9022 157.072 21.9149 157.099 21.933C157.126 21.9512 157.148 21.9743 157.163 22.0008C157.178 22.0272 157.186 22.0563 157.187 22.0858C157.198 22.1124 157.202 22.1405 157.2 22.1686C157.198 22.1966 157.19 22.2241 157.176 22.2494C157.161 22.2746 157.141 22.2971 157.117 22.3156C157.093 22.3341 157.064 22.3482 157.033 22.3571Z" fill="#FF7E70"/>
<path d="M158.907 25.1678C158.786 25.1678 158.658 25.1062 158.62 24.9769C158.597 24.9237 158.6 24.8654 158.628 24.8139C158.656 24.7625 158.707 24.7216 158.771 24.6997C158.892 24.6997 159.02 24.7613 159.058 24.8906C159.081 24.9438 159.078 25.0021 159.05 25.0536C159.022 25.1051 158.971 25.1459 158.907 25.1678Z" fill="#FF7E70"/>
<path d="M167.577 16.3629C167.884 16.1959 168.143 15.9505 168.329 15.6507C168.415 15.4208 168.449 15.1744 168.43 14.9293C168.41 14.6842 168.337 14.4466 168.216 14.2338C167.968 13.6842 167.609 13.1937 167.163 12.794C166.822 12.4626 166.402 12.2277 165.944 12.1123C165.716 12.0533 165.478 12.0454 165.247 12.089C165.016 12.1326 164.797 12.2268 164.605 12.3651C164.417 12.509 164.276 12.7075 164.201 12.9343C164.125 13.1612 164.119 13.406 164.183 13.6364C163.904 13.2065 163.52 12.8572 163.07 12.6224C162.619 12.3876 162.116 12.2752 161.61 12.2961C160.989 12.3281 160.405 12.6024 159.977 13.062C159.767 13.2867 159.615 13.5612 159.535 13.8607C159.455 14.1602 159.449 14.4753 159.518 14.7776C159.604 15.074 159.775 15.3372 160.01 15.5326C160.245 15.7281 160.533 15.8467 160.835 15.8728C160.46 15.7331 160.051 15.7107 159.663 15.8085C159.275 15.9063 158.924 16.1198 158.656 16.4217C158.388 16.7236 158.214 17.1001 158.157 17.503C158.101 17.906 158.163 18.317 158.337 18.6835C158.517 19.0221 158.77 19.3141 159.078 19.5372C159.386 19.7603 159.74 19.9084 160.113 19.9702C160.879 20.0914 161.662 19.985 162.37 19.6639C163.052 19.3448 163.702 18.9601 164.311 18.515L167.577 16.3629Z" fill="#FFCF08"/>
<path d="M167.191 16.3364C167.33 16.1348 167.425 15.9057 167.47 15.6643C167.514 15.4228 167.507 15.1745 167.449 14.936C167.391 14.6975 167.283 14.4742 167.133 14.281C166.982 14.0877 166.793 13.929 166.577 13.8154C166.36 13.7017 166.123 13.6357 165.879 13.6218C165.636 13.6079 165.392 13.6464 165.165 13.7347C164.938 13.823 164.731 13.9591 164.56 14.134C164.389 14.3089 164.257 14.5185 164.172 14.7488C163.944 14.319 163.592 13.9683 163.164 13.7423C162.735 13.5164 162.249 13.4256 161.768 13.4818C161.561 13.4945 161.361 13.5591 161.185 13.6698C161.009 13.7804 160.864 13.9336 160.762 14.1153C160.688 14.3357 160.683 14.5734 160.746 14.797C160.809 15.0206 160.939 15.2195 161.117 15.3674C161.48 15.6565 161.898 15.8671 162.345 15.9861C161.517 15.9347 160.7 16.201 160.059 16.7314C159.901 16.8415 159.771 16.9883 159.681 17.1596C159.591 17.3308 159.543 17.5214 159.541 17.7152C159.569 17.872 159.636 18.0191 159.736 18.1429C159.835 18.2667 159.964 18.3631 160.111 18.4233C160.405 18.5419 160.719 18.6026 161.035 18.6022C162.209 18.6539 163.384 18.5436 164.527 18.2742C165.171 18.138 165.785 17.8855 166.34 17.5289C166.895 17.1672 167.286 16.5993 167.427 15.9488L167.191 16.3364Z" fill="#EFA708"/>
<path d="M180.867 17.1553C181.093 17.4635 181.407 17.6906 181.766 17.8043C182.123 17.9116 182.468 18.0548 182.798 18.2318C182.963 18.3181 183.106 18.4445 183.213 18.6001C183.32 18.7558 183.389 18.9359 183.414 19.125C183.412 19.3068 183.373 19.4861 183.3 19.6517C183.228 19.8173 183.122 19.9655 182.991 20.087C182.556 20.5228 182.003 20.8114 181.404 20.9137C180.805 21.0161 180.19 20.9274 179.642 20.6596C179.248 20.43 178.882 20.1533 178.551 19.8351L177.593 18.9495L176.502 17.8501C175.749 16.8761 174.734 16.1513 173.584 15.7658C173.719 15.4356 173.928 15.1426 174.194 14.9106C174.46 14.6785 174.775 14.5138 175.113 14.4297C175.792 14.2655 176.499 14.2655 177.177 14.4297C177.354 14.4957 177.544 14.5203 177.731 14.5018C177.919 14.4834 178.1 14.4222 178.261 14.3228C178.492 14.1014 178.506 13.7273 178.677 13.4525C178.785 13.2842 178.94 13.153 179.121 13.0755C179.302 12.998 179.502 12.9777 179.694 13.0173C179.886 13.0621 180.066 13.1487 180.222 13.2712C180.378 13.3937 180.507 13.5492 180.6 13.7273C180.778 14.0878 180.853 14.4929 180.815 14.8954C180.815 15.2848 180.697 15.6589 180.659 16.0559C180.604 16.436 180.677 16.8243 180.867 17.1553Z" fill="#9FCC29"/>
<path d="M174.052 16.8502C175.644 16.6757 177.146 16.0139 178.357 14.9531C178.554 14.7452 178.787 14.5765 179.045 14.4559C179.171 14.402 179.311 14.3879 179.445 14.4151C179.58 14.4424 179.703 14.5099 179.8 14.6088C179.878 14.7321 179.919 14.8755 179.919 15.0219C179.919 15.1684 179.878 15.3117 179.8 15.435C179.656 15.6874 179.445 15.9016 179.309 16.1617C179.218 16.3351 179.162 16.5254 179.145 16.7212C179.129 16.9169 179.151 17.1141 179.212 17.3007C179.273 17.4873 179.37 17.6595 179.499 17.8069C179.627 17.9543 179.783 18.0738 179.958 18.1583C180.188 18.2552 180.425 18.3295 180.668 18.3801C180.911 18.4334 181.137 18.5464 181.326 18.709C181.417 18.7913 181.484 18.8984 181.517 19.0177C181.55 19.137 181.55 19.2634 181.514 19.3822C181.447 19.5339 181.337 19.6618 181.197 19.7494C180.467 20.3029 179.56 20.5596 178.652 20.469C177.745 20.3783 176.904 19.947 176.295 19.2598C175.925 18.8391 175.653 18.3419 175.321 17.8905C175.019 17.415 174.574 17.0504 174.052 16.8502Z" fill="#73A624"/>
<path d="M142.718 46.6763C144.33 47.3026 146.128 47.3317 147.762 46.7578C148.571 46.4685 149.31 46.0225 149.931 45.4477C150.553 44.8728 151.045 44.1813 151.377 43.4163C151.752 42.3997 151.973 41.3367 152.033 40.2599L152.52 35.1994C151.284 35.4106 150.01 35.2768 148.851 34.8141C148.175 34.4248 147.423 34.1726 146.642 34.0732C146.252 34.0318 145.859 34.101 145.51 34.2723C145.161 34.4435 144.873 34.7092 144.68 35.0364C144.479 35.4587 144.51 35.9625 144.301 36.3775C143.98 36.9063 143.456 37.2943 142.841 37.4592C142.233 37.6178 141.654 37.8678 141.127 38.2001C140.867 38.3732 140.676 38.626 140.586 38.917C140.496 39.208 140.513 39.5196 140.632 39.8005C140.88 40.2377 141.467 40.4377 141.66 40.8971C141.72 41.1054 141.726 41.3248 141.676 41.5356C141.626 41.7464 141.522 41.942 141.374 42.1048C141.072 42.4286 140.798 42.7755 140.555 43.1421C140.384 43.5004 140.317 43.8968 140.364 44.2886C140.41 44.6803 140.567 45.0525 140.818 45.3649C141.308 45.9668 141.967 46.4218 142.718 46.6763Z" fill="#B55728"/>
<g style="mix-blend-mode:multiply" opacity="0.32">
<path d="M149.869 36.8485C148.453 37.8607 148.304 39.0079 147.782 40.4924C147.576 40.9442 147.256 41.3336 146.853 41.6217C146.45 41.9099 145.979 42.0866 145.488 42.1344C144.972 42.2158 144.444 42.1573 143.958 41.9648C143.472 41.7724 143.046 41.4531 142.723 41.0397C141.852 39.8926 141.695 38.5505 140.563 38.8579C140.515 38.9932 140.495 39.1371 140.505 39.2803C140.516 39.4236 140.556 39.5632 140.622 39.6901C140.861 40.1325 141.427 40.3349 141.613 40.7998C141.672 41.0105 141.677 41.2325 141.629 41.4459C141.581 41.6592 141.481 41.8571 141.338 42.0219C141.046 42.3495 140.782 42.7006 140.548 43.0716C140.382 43.4341 140.319 43.8353 140.363 44.2317C140.408 44.6281 140.559 45.0047 140.801 45.3208C141.279 45.9428 141.926 46.4117 142.664 46.6704C144.219 47.3042 145.953 47.3336 147.529 46.7529C148.31 46.4601 149.022 46.0088 149.622 45.4271C150.222 44.8454 150.696 44.1456 151.016 43.3715C151.386 42.3316 151.605 41.243 151.664 40.14C151.791 38.7379 151.925 37.3359 152.052 35.9338C151.277 36.1095 150.538 36.419 149.869 36.8485Z" fill="#B55728"/>
</g>
<path d="M149.004 36.4464C148.745 36.2365 148.435 36.0796 148.097 35.9875C147.757 35.898 147.391 35.9211 147.07 36.0521C146.907 36.1189 146.765 36.2191 146.656 36.3441C146.547 36.469 146.475 36.6151 146.445 36.7696C146.419 36.926 146.441 37.0855 146.509 37.232C146.577 37.3785 146.688 37.5067 146.832 37.6035C146.978 37.6958 147.146 37.7588 147.324 37.7879C147.501 37.8169 147.684 37.8114 147.859 37.7716C148.208 37.6836 148.528 37.5265 148.796 37.3126C149.063 37.1123 149.324 36.8149 149.22 36.524C149.116 36.2331 149.257 36.3883 149.004 36.4464Z" fill="#8D3800"/>
<path d="M147.462 39.5152C147.272 39.3419 147.038 39.237 146.791 39.215C146.545 39.1931 146.298 39.2552 146.085 39.3927C145.877 39.5384 145.712 39.7466 145.611 39.9919C145.509 40.2373 145.475 40.5094 145.513 40.7752C145.558 41.0474 145.672 41.3009 145.841 41.5077C146.01 41.7146 146.228 41.8668 146.471 41.9477C146.707 42.0264 146.957 42.0404 147.198 41.9885C147.44 41.9366 147.666 41.8203 147.856 41.6502C147.987 41.5366 148.094 41.3947 148.172 41.2335C148.25 41.0724 148.295 40.8954 148.307 40.7139C148.3 40.5249 148.257 40.3394 148.18 40.1693C148.104 39.9992 147.997 39.848 147.864 39.7252C147.606 39.4365 147.751 39.7689 147.462 39.5152Z" fill="#8D3800"/>
<g style="mix-blend-mode:multiply" opacity="0.55">
<path d="M184.274 22.5064H184.236L184.161 22.4395L184.077 22.38C184.056 22.3563 184.03 22.3362 184.002 22.3206L183.707 22.0826L183.638 22.0306L183.404 21.8522L183.336 21.8001C182.95 21.5027 182.442 21.1235 181.822 20.6923C182 20.6282 182.172 20.5486 182.336 20.4544C181.85 20.3677 181.387 20.1829 180.976 19.9116C180.566 19.6403 180.217 19.2884 179.952 18.8782C178.953 17.5845 178.037 15.6143 176.069 15.5994C175.211 15.6242 174.371 15.362 173.684 14.8559C171.974 13.473 169.748 13.8894 167.5 14.5288C166.216 14.8968 165.097 15.6834 164.329 16.7592C163.821 17.5027 163.163 18.1273 162.701 18.7146C161.884 19.7555 160.884 21.0789 159.424 21.1904C158.409 21.2722 157.244 20.8484 157.153 19.7035C157.145 19.6343 157.145 19.5645 157.153 19.4953C155.639 21.2648 154.307 23.2574 153.232 24.5808C153.17 24.6559 153.104 24.7279 153.035 24.7964C153.035 24.8856 153.035 24.9823 153.035 25.0789C153.136 25.971 152.998 26.8734 152.636 27.6973C152.273 28.5213 151.699 29.2383 150.968 29.7778C151.423 31.3689 151.688 33.2053 150.363 34.0083C150.046 34.1963 149.697 34.3272 149.333 34.3949C149.371 36.4618 149.803 37.696 148.766 39.9785C147.555 42.6105 148.546 43.919 146.048 45.8224C145.308 46.3602 144.492 46.7886 143.626 47.0937H143.793H143.914C144.216 47.1309 144.527 47.1532 144.867 47.1681C145.208 47.1681 145.564 47.1681 145.942 47.1681H146.2C146.586 47.1681 146.957 47.1086 147.418 47.0566C157.44 45.8149 174.343 22.6254 184.35 22.5213L184.274 22.5064Z" fill="#BD9749"/>
</g>
<path d="M151.688 32.944C152.441 27.7798 154.985 23.0454 158.875 19.5695C160.829 17.8654 163.142 16.6258 165.642 15.9435C168.142 15.2612 170.764 15.1538 173.311 15.6296C177.143 16.4523 180.484 18.7015 183.72 20.913C185.983 22.4829 186.563 23.3056 188.864 24.8755C189.263 25.1472 191.79 25.5623 191.835 26.0378C191.918 26.7926 190.659 27.9097 189.905 28.1285C181.516 30.5278 173.497 34.068 166.071 38.65C162.443 40.9143 158.958 43.3749 155.097 45.1939C151.235 47.0129 146.891 48.1299 142.69 47.4204C143.755 47.5873 144.846 47.4709 145.852 47.0827C146.858 46.6945 147.744 46.0483 148.422 45.209C149.825 43.5862 151.348 35.0649 151.688 32.944Z" fill="#FAD15F"/>
<path d="M178.154 19.5788C173.798 17.3527 168.024 15.364 163.338 17.9983C159.816 19.9795 157.548 22.918 155.536 26.324C153.523 29.73 153.486 33.9894 152.382 37.7961C151.706 40.1335 151.03 43.6286 149.175 45.4317C148.401 46.2017 147.466 46.7944 146.435 47.1681C149.494 46.9479 152.483 46.1467 155.235 44.8084C159.08 43.0201 162.549 40.5713 166.161 38.3749C173.562 33.8682 181.554 30.3877 189.913 28.0307C190.664 27.8156 191.918 26.7396 191.836 25.9753C191.839 25.9606 191.839 25.9454 191.836 25.9308C186.827 25.7898 182.517 21.8124 178.154 19.5788Z" fill="#F9C22D"/>
<path d="M178.154 19.5788C173.798 17.3527 168.024 15.364 163.338 17.9983C159.816 19.9795 157.548 22.918 155.536 26.324C153.523 29.73 153.486 33.9894 152.382 37.7961C151.706 40.1335 151.03 43.6286 149.175 45.4317C148.401 46.2017 147.466 46.7944 146.435 47.1681C149.494 46.9479 152.483 46.1467 155.235 44.8084C159.08 43.0201 162.549 40.5713 166.161 38.3749C173.562 33.8682 181.554 30.3877 189.913 28.0307C190.664 27.8156 191.918 26.7396 191.836 25.9753C191.839 25.9606 191.839 25.9454 191.836 25.9308C186.827 25.7898 182.517 21.8124 178.154 19.5788Z" fill="#F9C22D"/>
<g style="mix-blend-mode:multiply" opacity="0.55">
<path d="M184.206 23.7652C180.876 23.7108 177.651 24.9099 175.195 27.1158C172.191 29.5828 169.353 32.1381 165.433 33.007C160.62 34.0674 157.173 31.1439 155.04 27.4472C153.493 30.6874 153.381 34.4356 152.382 37.8673C151.706 40.1869 151.03 43.6554 149.175 45.4448C148.401 46.2089 147.466 46.7971 146.435 47.168C149.494 46.9494 152.483 46.1543 155.235 44.8263C159.08 43.0515 162.549 40.6214 166.161 38.4417C173.562 33.9693 181.554 30.5152 189.913 28.1762C190.664 27.9627 191.918 26.8949 191.836 26.1364C191.839 26.1219 191.839 26.1068 191.836 26.0922C189.116 26.0587 186.465 25.2502 184.206 23.7652Z" fill="#F2CC49"/>
</g>
<g style="mix-blend-mode:multiply" opacity="0.55">
<path d="M172.723 31.7214C167.744 32.8982 164.689 34.9708 161.037 38.5012C159.218 40.2397 157.311 42.1074 155.328 43.8915L155.626 43.7625C159.397 41.9328 162.848 39.4274 166.433 37.1498C170.66 34.5189 175.086 32.234 179.669 30.3169C177.224 30.6206 174.787 31.2279 172.723 31.7214Z" fill="#D68902"/>
</g>
<path d="M170.181 18.7992C169.616 18.5962 168.99 18.5594 168.399 18.6943C167.807 18.8292 167.282 19.1285 166.903 19.5469C166.739 19.7158 166.628 19.9192 166.581 20.1369C166.554 20.2444 166.557 20.356 166.59 20.4623C166.622 20.5685 166.684 20.6664 166.769 20.7475C166.946 20.8649 167.158 20.9358 167.379 20.9516C167.601 20.9674 167.823 20.9275 168.019 20.8366C168.655 20.6256 169.222 20.2817 169.67 19.8351C169.912 19.6273 170.058 19.3488 170.079 19.053C170.071 18.758 170.519 18.7443 170.181 18.7992Z" fill="#E9A000"/>
<path d="M164.525 23.4893C164.202 23.3082 163.831 23.2517 163.473 23.3294C163.116 23.4071 162.795 23.6143 162.565 23.9155C162.445 24.0502 162.37 24.2235 162.353 24.408C162.336 24.5926 162.378 24.778 162.471 24.9349C162.595 25.0437 162.743 25.1175 162.901 25.1496C163.059 25.1817 163.222 25.1711 163.376 25.1187C163.721 25.073 164.051 24.9382 164.336 24.726C164.478 24.6158 164.584 24.4625 164.642 24.2864C164.7 24.1103 164.706 23.9197 164.659 23.74C164.541 23.3974 164.777 23.2303 164.525 23.4893Z" fill="#E9A000"/>
<path d="M172.575 25.9572C172.158 25.5413 171.616 25.2727 171.031 25.1927C170.446 25.1128 169.851 25.2258 169.337 25.5144C168.823 25.803 168.418 26.2513 168.185 26.7905C167.953 27.3297 167.904 27.9299 168.048 28.4991C168.08 28.6689 168.15 28.8296 168.251 28.9699C168.353 29.1101 168.484 29.2266 168.636 29.3112C168.81 29.3682 168.993 29.3904 169.175 29.3765C169.358 29.3626 169.535 29.3128 169.698 29.23C170.598 28.8618 171.386 28.2687 171.986 27.5083C172.231 27.2241 172.861 26.2333 172.575 25.9572Z" fill="#E9A000"/>
<path d="M179.429 20.6416C179.02 20.8489 178.611 21.3085 178.767 21.7771C178.922 22.2458 179.437 22.39 179.879 22.3539C180.141 22.3475 180.399 22.2734 180.631 22.1376C180.749 22.0724 180.85 21.9769 180.927 21.8593C181.004 21.7416 181.054 21.6052 181.073 21.4617C181.08 21.2618 181.028 21.0647 180.922 20.9015C180.817 20.7383 180.666 20.6184 180.492 20.5605C180.141 20.4394 179.762 20.4683 179.429 20.6416Z" fill="#E9A000"/>
<path d="M184.467 25.0307C184.142 24.8966 183.797 24.7945 183.441 24.7265C183.08 24.6618 182.703 24.7153 182.39 24.8752C182.237 24.9557 182.121 25.0746 182.059 25.2138C181.997 25.353 181.993 25.5048 182.048 25.6459C182.116 25.7706 182.224 25.8784 182.36 25.958C182.496 26.0376 182.657 26.0863 182.824 26.0988C183.159 26.1169 183.495 26.0872 183.817 26.011C184.055 25.9805 184.284 25.914 184.492 25.8149C184.595 25.7624 184.678 25.6894 184.735 25.6029C184.792 25.5164 184.821 25.4194 184.818 25.3214C184.795 25.231 184.744 25.1469 184.669 25.0771C184.595 25.0073 184.499 24.9541 184.392 24.9226C184.184 24.8482 184.668 25.1118 184.467 25.0307Z" fill="#E9A000"/>
<path d="M178.573 28.2987C178.055 28.0591 177.481 27.95 176.906 27.9817C176.618 28.0025 176.342 28.0951 176.103 28.2503C175.864 28.4055 175.672 28.6179 175.546 28.8664C175.433 29.1193 175.427 29.4043 175.528 29.6615C175.63 29.9187 175.832 30.1279 176.091 30.2452C176.414 30.3406 176.76 30.3406 177.083 30.2452C177.492 30.1662 177.878 29.9999 178.212 29.7585C178.376 29.6348 178.502 29.4707 178.577 29.2838C178.651 29.0968 178.671 28.8939 178.635 28.6968C178.527 28.2913 178.95 28.1218 178.573 28.2987Z" fill="#E9A000"/>
<path d="M166.071 31.79C165.626 31.8862 165.22 32.0987 164.901 32.4022C164.826 32.4801 164.769 32.5714 164.733 32.6703C164.698 32.7693 164.684 32.874 164.693 32.978C164.702 33.082 164.734 33.1833 164.786 33.2756C164.839 33.3679 164.911 33.4494 164.998 33.5152C165.149 33.5802 165.316 33.6055 165.482 33.5883C165.647 33.5712 165.804 33.5121 165.936 33.4178C166.22 33.2627 166.432 33.0145 166.529 32.7221C166.573 32.5742 166.574 32.4178 166.53 32.2695C166.487 32.1213 166.401 31.9868 166.281 31.8804C166.033 31.6787 166.378 31.6926 166.071 31.79Z" fill="#E9A000"/>
<path d="M157.606 35.0335C157.142 35.1447 156.724 35.3856 156.405 35.7254C156.086 36.0651 155.88 36.4883 155.814 36.9407C155.766 37.2428 155.816 37.5517 155.959 37.8253C156.034 37.9605 156.147 38.0737 156.284 38.1527C156.421 38.2318 156.578 38.2739 156.739 38.2744C157.194 38.2744 157.512 37.8529 157.75 37.4798C157.988 37.1066 158.162 36.7887 158.357 36.4639C158.476 36.3091 158.555 36.1294 158.588 35.9396C158.621 35.7498 158.606 35.5553 158.545 35.3721C158.455 35.2407 158.327 35.1365 158.178 35.0717C158.028 35.0068 157.862 34.984 157.699 35.0058C157.403 35.0335 157.923 34.9575 157.606 35.0335Z" fill="#E9A000"/>
<g style="mix-blend-mode:screen" opacity="0.32">
<path d="M177.126 20.052C176.173 18.8562 174.805 18.0574 173.291 17.8117C171.791 17.5784 170.258 17.6521 168.787 18.0283C165.27 18.8544 162.066 20.6688 159.556 23.2555C158.757 23.9403 158.25 24.9011 158.137 25.9437C158.182 26.5413 158.405 27.112 158.776 27.5839C159.148 28.0557 159.651 28.4074 160.224 28.5946C161.374 28.9456 162.594 29.0072 163.774 28.7739C166.607 28.32 169.377 27.5407 172.03 26.4515C173.141 26.0787 174.201 25.5669 175.182 24.9282C176.132 24.2691 176.837 23.3161 177.186 22.2175C177.355 21.6686 177.374 21.085 177.242 20.5262C177.11 19.9674 176.832 19.4534 176.436 19.0364L177.126 20.052Z" fill="#FAD15F"/>
</g>
<path d="M182.93 77.1172C174.988 70.2514 174.367 56.3051 181.53 48.0186C188.693 39.7321 197.317 36.3793 205.26 43.2451C213.203 50.1109 212.134 57.7639 204.971 66.0504C197.808 74.3368 190.873 83.983 182.93 77.1172Z" fill="#FB6A6A" fill-opacity="0.21"/>
<path d="M89.7607 77.1172C81.818 70.2514 81.1977 56.3051 88.3607 48.0186C95.5237 39.7321 104.147 36.3793 112.09 43.2451C120.033 50.1109 118.965 57.7639 111.802 66.0504C104.639 74.3368 97.7033 83.983 89.7607 77.1172Z" fill="#FB6A6A" fill-opacity="0.21"/>
<path d="M172.814 6.6947C180.238 14.1185 177.443 30.4754 167.104 40.8141C156.766 51.1529 143.042 52.6683 138.562 48.3836C134.081 44.0988 134.294 31.8681 144.633 21.5294C154.972 11.1906 165.391 -0.729102 172.814 6.6947Z" fill="#FB6A6A" fill-opacity="0.21"/>
</svg>
